G04 #@! TF.GenerationSoftware,KiCad,Pcbnew,10.0.3*
G04 #@! TF.CreationDate,2026-06-23T22:43:44+09:00*
G04 #@! TF.ProjectId,PC8001extSDRTC,50433830-3031-4657-9874-53445254432e,rev?*
G04 #@! TF.SameCoordinates,Original*
G04 #@! TF.FileFunction,Legend,Top*
G04 #@! TF.FilePolarity,Positive*
%FSLAX46Y46*%
G04 Gerber Fmt 4.6, Leading zero omitted, Abs format (unit mm)*
G04 Created by KiCad (PCBNEW 10.0.3) date 2026-06-23 22:43:44*
%MOMM*%
%LPD*%
G01*
G04 APERTURE LIST*
%ADD10C,0.100000*%
%ADD11C,0.150000*%
%ADD12C,0.200000*%
%ADD13C,0.120000*%
G04 APERTURE END LIST*
D10*
X117660000Y-66200000D02*
X141660000Y-66200000D01*
X141660000Y-107200000D01*
X117660000Y-107200000D01*
X117660000Y-66200000D01*
X143500000Y-66300000D02*
X167500000Y-66300000D01*
X167500000Y-107300000D01*
X143500000Y-107300000D01*
X143500000Y-66300000D01*
X173675312Y-110022419D02*
X173341979Y-109546228D01*
X173103884Y-110022419D02*
X173103884Y-109022419D01*
X173103884Y-109022419D02*
X173484836Y-109022419D01*
X173484836Y-109022419D02*
X173580074Y-109070038D01*
X173580074Y-109070038D02*
X173627693Y-109117657D01*
X173627693Y-109117657D02*
X173675312Y-109212895D01*
X173675312Y-109212895D02*
X173675312Y-109355752D01*
X173675312Y-109355752D02*
X173627693Y-109450990D01*
X173627693Y-109450990D02*
X173580074Y-109498609D01*
X173580074Y-109498609D02*
X173484836Y-109546228D01*
X173484836Y-109546228D02*
X173103884Y-109546228D01*
X174103884Y-109498609D02*
X174437217Y-109498609D01*
X174580074Y-110022419D02*
X174103884Y-110022419D01*
X174103884Y-110022419D02*
X174103884Y-109022419D01*
X174103884Y-109022419D02*
X174580074Y-109022419D01*
X174961027Y-109974800D02*
X175103884Y-110022419D01*
X175103884Y-110022419D02*
X175341979Y-110022419D01*
X175341979Y-110022419D02*
X175437217Y-109974800D01*
X175437217Y-109974800D02*
X175484836Y-109927180D01*
X175484836Y-109927180D02*
X175532455Y-109831942D01*
X175532455Y-109831942D02*
X175532455Y-109736704D01*
X175532455Y-109736704D02*
X175484836Y-109641466D01*
X175484836Y-109641466D02*
X175437217Y-109593847D01*
X175437217Y-109593847D02*
X175341979Y-109546228D01*
X175341979Y-109546228D02*
X175151503Y-109498609D01*
X175151503Y-109498609D02*
X175056265Y-109450990D01*
X175056265Y-109450990D02*
X175008646Y-109403371D01*
X175008646Y-109403371D02*
X174961027Y-109308133D01*
X174961027Y-109308133D02*
X174961027Y-109212895D01*
X174961027Y-109212895D02*
X175008646Y-109117657D01*
X175008646Y-109117657D02*
X175056265Y-109070038D01*
X175056265Y-109070038D02*
X175151503Y-109022419D01*
X175151503Y-109022419D02*
X175389598Y-109022419D01*
X175389598Y-109022419D02*
X175532455Y-109070038D01*
X175961027Y-109498609D02*
X176294360Y-109498609D01*
X176437217Y-110022419D02*
X175961027Y-110022419D01*
X175961027Y-110022419D02*
X175961027Y-109022419D01*
X175961027Y-109022419D02*
X176437217Y-109022419D01*
X176722932Y-109022419D02*
X177294360Y-109022419D01*
X177008646Y-110022419D02*
X177008646Y-109022419D01*
X178341980Y-109974800D02*
X178484837Y-110022419D01*
X178484837Y-110022419D02*
X178722932Y-110022419D01*
X178722932Y-110022419D02*
X178818170Y-109974800D01*
X178818170Y-109974800D02*
X178865789Y-109927180D01*
X178865789Y-109927180D02*
X178913408Y-109831942D01*
X178913408Y-109831942D02*
X178913408Y-109736704D01*
X178913408Y-109736704D02*
X178865789Y-109641466D01*
X178865789Y-109641466D02*
X178818170Y-109593847D01*
X178818170Y-109593847D02*
X178722932Y-109546228D01*
X178722932Y-109546228D02*
X178532456Y-109498609D01*
X178532456Y-109498609D02*
X178437218Y-109450990D01*
X178437218Y-109450990D02*
X178389599Y-109403371D01*
X178389599Y-109403371D02*
X178341980Y-109308133D01*
X178341980Y-109308133D02*
X178341980Y-109212895D01*
X178341980Y-109212895D02*
X178389599Y-109117657D01*
X178389599Y-109117657D02*
X178437218Y-109070038D01*
X178437218Y-109070038D02*
X178532456Y-109022419D01*
X178532456Y-109022419D02*
X178770551Y-109022419D01*
X178770551Y-109022419D02*
X178913408Y-109070038D01*
X179246742Y-109022419D02*
X179484837Y-110022419D01*
X179484837Y-110022419D02*
X179675313Y-109308133D01*
X179675313Y-109308133D02*
X179865789Y-110022419D01*
X179865789Y-110022419D02*
X180103885Y-109022419D01*
X123087580Y-73903884D02*
X124087580Y-73903884D01*
X124087580Y-73903884D02*
X123087580Y-74475312D01*
X123087580Y-74475312D02*
X124087580Y-74475312D01*
X123182819Y-75522931D02*
X123135200Y-75475312D01*
X123135200Y-75475312D02*
X123087580Y-75332455D01*
X123087580Y-75332455D02*
X123087580Y-75237217D01*
X123087580Y-75237217D02*
X123135200Y-75094360D01*
X123135200Y-75094360D02*
X123230438Y-74999122D01*
X123230438Y-74999122D02*
X123325676Y-74951503D01*
X123325676Y-74951503D02*
X123516152Y-74903884D01*
X123516152Y-74903884D02*
X123659009Y-74903884D01*
X123659009Y-74903884D02*
X123849485Y-74951503D01*
X123849485Y-74951503D02*
X123944723Y-74999122D01*
X123944723Y-74999122D02*
X124039961Y-75094360D01*
X124039961Y-75094360D02*
X124087580Y-75237217D01*
X124087580Y-75237217D02*
X124087580Y-75332455D01*
X124087580Y-75332455D02*
X124039961Y-75475312D01*
X124039961Y-75475312D02*
X123992342Y-75522931D01*
X122706628Y-76237217D02*
X122754247Y-76189598D01*
X122754247Y-76189598D02*
X122897104Y-76094360D01*
X122897104Y-76094360D02*
X122992342Y-76046741D01*
X122992342Y-76046741D02*
X123135200Y-75999122D01*
X123135200Y-75999122D02*
X123373295Y-75951503D01*
X123373295Y-75951503D02*
X123563771Y-75951503D01*
X123563771Y-75951503D02*
X123801866Y-75999122D01*
X123801866Y-75999122D02*
X123944723Y-76046741D01*
X123944723Y-76046741D02*
X124039961Y-76094360D01*
X124039961Y-76094360D02*
X124182819Y-76189598D01*
X124182819Y-76189598D02*
X124230438Y-76237217D01*
X124087580Y-76522932D02*
X124087580Y-77141979D01*
X124087580Y-77141979D02*
X123706628Y-76808646D01*
X123706628Y-76808646D02*
X123706628Y-76951503D01*
X123706628Y-76951503D02*
X123659009Y-77046741D01*
X123659009Y-77046741D02*
X123611390Y-77094360D01*
X123611390Y-77094360D02*
X123516152Y-77141979D01*
X123516152Y-77141979D02*
X123278057Y-77141979D01*
X123278057Y-77141979D02*
X123182819Y-77094360D01*
X123182819Y-77094360D02*
X123135200Y-77046741D01*
X123135200Y-77046741D02*
X123087580Y-76951503D01*
X123087580Y-76951503D02*
X123087580Y-76665789D01*
X123087580Y-76665789D02*
X123135200Y-76570551D01*
X123135200Y-76570551D02*
X123182819Y-76522932D01*
X123992342Y-77522932D02*
X124039961Y-77570551D01*
X124039961Y-77570551D02*
X124087580Y-77665789D01*
X124087580Y-77665789D02*
X124087580Y-77903884D01*
X124087580Y-77903884D02*
X124039961Y-77999122D01*
X124039961Y-77999122D02*
X123992342Y-78046741D01*
X123992342Y-78046741D02*
X123897104Y-78094360D01*
X123897104Y-78094360D02*
X123801866Y-78094360D01*
X123801866Y-78094360D02*
X123659009Y-78046741D01*
X123659009Y-78046741D02*
X123087580Y-77475313D01*
X123087580Y-77475313D02*
X123087580Y-78094360D01*
X123087580Y-78522932D02*
X124087580Y-78522932D01*
X123468533Y-78618170D02*
X123087580Y-78903884D01*
X123754247Y-78903884D02*
X123373295Y-78522932D01*
X122706628Y-79237218D02*
X122754247Y-79284837D01*
X122754247Y-79284837D02*
X122897104Y-79380075D01*
X122897104Y-79380075D02*
X122992342Y-79427694D01*
X122992342Y-79427694D02*
X123135200Y-79475313D01*
X123135200Y-79475313D02*
X123373295Y-79522932D01*
X123373295Y-79522932D02*
X123563771Y-79522932D01*
X123563771Y-79522932D02*
X123801866Y-79475313D01*
X123801866Y-79475313D02*
X123944723Y-79427694D01*
X123944723Y-79427694D02*
X124039961Y-79380075D01*
X124039961Y-79380075D02*
X124182819Y-79284837D01*
X124182819Y-79284837D02*
X124230438Y-79237218D01*
X125587580Y-74003884D02*
X126587580Y-74003884D01*
X126587580Y-74003884D02*
X125587580Y-74575312D01*
X125587580Y-74575312D02*
X126587580Y-74575312D01*
X125682819Y-75622931D02*
X125635200Y-75575312D01*
X125635200Y-75575312D02*
X125587580Y-75432455D01*
X125587580Y-75432455D02*
X125587580Y-75337217D01*
X125587580Y-75337217D02*
X125635200Y-75194360D01*
X125635200Y-75194360D02*
X125730438Y-75099122D01*
X125730438Y-75099122D02*
X125825676Y-75051503D01*
X125825676Y-75051503D02*
X126016152Y-75003884D01*
X126016152Y-75003884D02*
X126159009Y-75003884D01*
X126159009Y-75003884D02*
X126349485Y-75051503D01*
X126349485Y-75051503D02*
X126444723Y-75099122D01*
X126444723Y-75099122D02*
X126539961Y-75194360D01*
X126539961Y-75194360D02*
X126587580Y-75337217D01*
X126587580Y-75337217D02*
X126587580Y-75432455D01*
X126587580Y-75432455D02*
X126539961Y-75575312D01*
X126539961Y-75575312D02*
X126492342Y-75622931D01*
X125206628Y-76337217D02*
X125254247Y-76289598D01*
X125254247Y-76289598D02*
X125397104Y-76194360D01*
X125397104Y-76194360D02*
X125492342Y-76146741D01*
X125492342Y-76146741D02*
X125635200Y-76099122D01*
X125635200Y-76099122D02*
X125873295Y-76051503D01*
X125873295Y-76051503D02*
X126063771Y-76051503D01*
X126063771Y-76051503D02*
X126301866Y-76099122D01*
X126301866Y-76099122D02*
X126444723Y-76146741D01*
X126444723Y-76146741D02*
X126539961Y-76194360D01*
X126539961Y-76194360D02*
X126682819Y-76289598D01*
X126682819Y-76289598D02*
X126730438Y-76337217D01*
X125635200Y-76670551D02*
X125587580Y-76813408D01*
X125587580Y-76813408D02*
X125587580Y-77051503D01*
X125587580Y-77051503D02*
X125635200Y-77146741D01*
X125635200Y-77146741D02*
X125682819Y-77194360D01*
X125682819Y-77194360D02*
X125778057Y-77241979D01*
X125778057Y-77241979D02*
X125873295Y-77241979D01*
X125873295Y-77241979D02*
X125968533Y-77194360D01*
X125968533Y-77194360D02*
X126016152Y-77146741D01*
X126016152Y-77146741D02*
X126063771Y-77051503D01*
X126063771Y-77051503D02*
X126111390Y-76861027D01*
X126111390Y-76861027D02*
X126159009Y-76765789D01*
X126159009Y-76765789D02*
X126206628Y-76718170D01*
X126206628Y-76718170D02*
X126301866Y-76670551D01*
X126301866Y-76670551D02*
X126397104Y-76670551D01*
X126397104Y-76670551D02*
X126492342Y-76718170D01*
X126492342Y-76718170D02*
X126539961Y-76765789D01*
X126539961Y-76765789D02*
X126587580Y-76861027D01*
X126587580Y-76861027D02*
X126587580Y-77099122D01*
X126587580Y-77099122D02*
X126539961Y-77241979D01*
X125492342Y-78337217D02*
X125539961Y-78241979D01*
X125539961Y-78241979D02*
X125635200Y-78146741D01*
X125635200Y-78146741D02*
X125778057Y-78003884D01*
X125778057Y-78003884D02*
X125825676Y-77908646D01*
X125825676Y-77908646D02*
X125825676Y-77813408D01*
X125587580Y-77861027D02*
X125635200Y-77765789D01*
X125635200Y-77765789D02*
X125730438Y-77670551D01*
X125730438Y-77670551D02*
X125920914Y-77622932D01*
X125920914Y-77622932D02*
X126254247Y-77622932D01*
X126254247Y-77622932D02*
X126444723Y-77670551D01*
X126444723Y-77670551D02*
X126539961Y-77765789D01*
X126539961Y-77765789D02*
X126587580Y-77861027D01*
X126587580Y-77861027D02*
X126587580Y-78051503D01*
X126587580Y-78051503D02*
X126539961Y-78146741D01*
X126539961Y-78146741D02*
X126444723Y-78241979D01*
X126444723Y-78241979D02*
X126254247Y-78289598D01*
X126254247Y-78289598D02*
X125920914Y-78289598D01*
X125920914Y-78289598D02*
X125730438Y-78241979D01*
X125730438Y-78241979D02*
X125635200Y-78146741D01*
X125635200Y-78146741D02*
X125587580Y-78051503D01*
X125587580Y-78051503D02*
X125587580Y-77861027D01*
X126587580Y-78622932D02*
X125587580Y-78861027D01*
X125587580Y-78861027D02*
X126301866Y-79051503D01*
X126301866Y-79051503D02*
X125587580Y-79241979D01*
X125587580Y-79241979D02*
X126587580Y-79480075D01*
X125206628Y-79765789D02*
X125254247Y-79813408D01*
X125254247Y-79813408D02*
X125397104Y-79908646D01*
X125397104Y-79908646D02*
X125492342Y-79956265D01*
X125492342Y-79956265D02*
X125635200Y-80003884D01*
X125635200Y-80003884D02*
X125873295Y-80051503D01*
X125873295Y-80051503D02*
X126063771Y-80051503D01*
X126063771Y-80051503D02*
X126301866Y-80003884D01*
X126301866Y-80003884D02*
X126444723Y-79956265D01*
X126444723Y-79956265D02*
X126539961Y-79908646D01*
X126539961Y-79908646D02*
X126682819Y-79813408D01*
X126682819Y-79813408D02*
X126730438Y-79765789D01*
X128235200Y-73956265D02*
X128187580Y-74099122D01*
X128187580Y-74099122D02*
X128187580Y-74337217D01*
X128187580Y-74337217D02*
X128235200Y-74432455D01*
X128235200Y-74432455D02*
X128282819Y-74480074D01*
X128282819Y-74480074D02*
X128378057Y-74527693D01*
X128378057Y-74527693D02*
X128473295Y-74527693D01*
X128473295Y-74527693D02*
X128568533Y-74480074D01*
X128568533Y-74480074D02*
X128616152Y-74432455D01*
X128616152Y-74432455D02*
X128663771Y-74337217D01*
X128663771Y-74337217D02*
X128711390Y-74146741D01*
X128711390Y-74146741D02*
X128759009Y-74051503D01*
X128759009Y-74051503D02*
X128806628Y-74003884D01*
X128806628Y-74003884D02*
X128901866Y-73956265D01*
X128901866Y-73956265D02*
X128997104Y-73956265D01*
X128997104Y-73956265D02*
X129092342Y-74003884D01*
X129092342Y-74003884D02*
X129139961Y-74051503D01*
X129139961Y-74051503D02*
X129187580Y-74146741D01*
X129187580Y-74146741D02*
X129187580Y-74384836D01*
X129187580Y-74384836D02*
X129139961Y-74527693D01*
X128282819Y-75527693D02*
X128235200Y-75480074D01*
X128235200Y-75480074D02*
X128187580Y-75337217D01*
X128187580Y-75337217D02*
X128187580Y-75241979D01*
X128187580Y-75241979D02*
X128235200Y-75099122D01*
X128235200Y-75099122D02*
X128330438Y-75003884D01*
X128330438Y-75003884D02*
X128425676Y-74956265D01*
X128425676Y-74956265D02*
X128616152Y-74908646D01*
X128616152Y-74908646D02*
X128759009Y-74908646D01*
X128759009Y-74908646D02*
X128949485Y-74956265D01*
X128949485Y-74956265D02*
X129044723Y-75003884D01*
X129044723Y-75003884D02*
X129139961Y-75099122D01*
X129139961Y-75099122D02*
X129187580Y-75241979D01*
X129187580Y-75241979D02*
X129187580Y-75337217D01*
X129187580Y-75337217D02*
X129139961Y-75480074D01*
X129139961Y-75480074D02*
X129092342Y-75527693D01*
X128187580Y-76432455D02*
X128187580Y-75956265D01*
X128187580Y-75956265D02*
X129187580Y-75956265D01*
X130635200Y-73856265D02*
X130587580Y-73999122D01*
X130587580Y-73999122D02*
X130587580Y-74237217D01*
X130587580Y-74237217D02*
X130635200Y-74332455D01*
X130635200Y-74332455D02*
X130682819Y-74380074D01*
X130682819Y-74380074D02*
X130778057Y-74427693D01*
X130778057Y-74427693D02*
X130873295Y-74427693D01*
X130873295Y-74427693D02*
X130968533Y-74380074D01*
X130968533Y-74380074D02*
X131016152Y-74332455D01*
X131016152Y-74332455D02*
X131063771Y-74237217D01*
X131063771Y-74237217D02*
X131111390Y-74046741D01*
X131111390Y-74046741D02*
X131159009Y-73951503D01*
X131159009Y-73951503D02*
X131206628Y-73903884D01*
X131206628Y-73903884D02*
X131301866Y-73856265D01*
X131301866Y-73856265D02*
X131397104Y-73856265D01*
X131397104Y-73856265D02*
X131492342Y-73903884D01*
X131492342Y-73903884D02*
X131539961Y-73951503D01*
X131539961Y-73951503D02*
X131587580Y-74046741D01*
X131587580Y-74046741D02*
X131587580Y-74284836D01*
X131587580Y-74284836D02*
X131539961Y-74427693D01*
X130587580Y-74856265D02*
X131587580Y-74856265D01*
X131587580Y-74856265D02*
X131587580Y-75094360D01*
X131587580Y-75094360D02*
X131539961Y-75237217D01*
X131539961Y-75237217D02*
X131444723Y-75332455D01*
X131444723Y-75332455D02*
X131349485Y-75380074D01*
X131349485Y-75380074D02*
X131159009Y-75427693D01*
X131159009Y-75427693D02*
X131016152Y-75427693D01*
X131016152Y-75427693D02*
X130825676Y-75380074D01*
X130825676Y-75380074D02*
X130730438Y-75332455D01*
X130730438Y-75332455D02*
X130635200Y-75237217D01*
X130635200Y-75237217D02*
X130587580Y-75094360D01*
X130587580Y-75094360D02*
X130587580Y-74856265D01*
X130873295Y-75808646D02*
X130873295Y-76284836D01*
X130587580Y-75713408D02*
X131587580Y-76046741D01*
X131587580Y-76046741D02*
X130587580Y-76380074D01*
X134287580Y-73661027D02*
X133287580Y-73994360D01*
X133287580Y-73994360D02*
X134287580Y-74327693D01*
X133382819Y-75232455D02*
X133335200Y-75184836D01*
X133335200Y-75184836D02*
X133287580Y-75041979D01*
X133287580Y-75041979D02*
X133287580Y-74946741D01*
X133287580Y-74946741D02*
X133335200Y-74803884D01*
X133335200Y-74803884D02*
X133430438Y-74708646D01*
X133430438Y-74708646D02*
X133525676Y-74661027D01*
X133525676Y-74661027D02*
X133716152Y-74613408D01*
X133716152Y-74613408D02*
X133859009Y-74613408D01*
X133859009Y-74613408D02*
X134049485Y-74661027D01*
X134049485Y-74661027D02*
X134144723Y-74708646D01*
X134144723Y-74708646D02*
X134239961Y-74803884D01*
X134239961Y-74803884D02*
X134287580Y-74946741D01*
X134287580Y-74946741D02*
X134287580Y-75041979D01*
X134287580Y-75041979D02*
X134239961Y-75184836D01*
X134239961Y-75184836D02*
X134192342Y-75232455D01*
X133382819Y-76232455D02*
X133335200Y-76184836D01*
X133335200Y-76184836D02*
X133287580Y-76041979D01*
X133287580Y-76041979D02*
X133287580Y-75946741D01*
X133287580Y-75946741D02*
X133335200Y-75803884D01*
X133335200Y-75803884D02*
X133430438Y-75708646D01*
X133430438Y-75708646D02*
X133525676Y-75661027D01*
X133525676Y-75661027D02*
X133716152Y-75613408D01*
X133716152Y-75613408D02*
X133859009Y-75613408D01*
X133859009Y-75613408D02*
X134049485Y-75661027D01*
X134049485Y-75661027D02*
X134144723Y-75708646D01*
X134144723Y-75708646D02*
X134239961Y-75803884D01*
X134239961Y-75803884D02*
X134287580Y-75946741D01*
X134287580Y-75946741D02*
X134287580Y-76041979D01*
X134287580Y-76041979D02*
X134239961Y-76184836D01*
X134239961Y-76184836D02*
X134192342Y-76232455D01*
X136739961Y-74227693D02*
X136787580Y-74132455D01*
X136787580Y-74132455D02*
X136787580Y-73989598D01*
X136787580Y-73989598D02*
X136739961Y-73846741D01*
X136739961Y-73846741D02*
X136644723Y-73751503D01*
X136644723Y-73751503D02*
X136549485Y-73703884D01*
X136549485Y-73703884D02*
X136359009Y-73656265D01*
X136359009Y-73656265D02*
X136216152Y-73656265D01*
X136216152Y-73656265D02*
X136025676Y-73703884D01*
X136025676Y-73703884D02*
X135930438Y-73751503D01*
X135930438Y-73751503D02*
X135835200Y-73846741D01*
X135835200Y-73846741D02*
X135787580Y-73989598D01*
X135787580Y-73989598D02*
X135787580Y-74084836D01*
X135787580Y-74084836D02*
X135835200Y-74227693D01*
X135835200Y-74227693D02*
X135882819Y-74275312D01*
X135882819Y-74275312D02*
X136216152Y-74275312D01*
X136216152Y-74275312D02*
X136216152Y-74084836D01*
X135787580Y-74703884D02*
X136787580Y-74703884D01*
X136787580Y-74703884D02*
X135787580Y-75275312D01*
X135787580Y-75275312D02*
X136787580Y-75275312D01*
X135787580Y-75751503D02*
X136787580Y-75751503D01*
X136787580Y-75751503D02*
X136787580Y-75989598D01*
X136787580Y-75989598D02*
X136739961Y-76132455D01*
X136739961Y-76132455D02*
X136644723Y-76227693D01*
X136644723Y-76227693D02*
X136549485Y-76275312D01*
X136549485Y-76275312D02*
X136359009Y-76322931D01*
X136359009Y-76322931D02*
X136216152Y-76322931D01*
X136216152Y-76322931D02*
X136025676Y-76275312D01*
X136025676Y-76275312D02*
X135930438Y-76227693D01*
X135930438Y-76227693D02*
X135835200Y-76132455D01*
X135835200Y-76132455D02*
X135787580Y-75989598D01*
X135787580Y-75989598D02*
X135787580Y-75751503D01*
X150279961Y-74227693D02*
X150327580Y-74132455D01*
X150327580Y-74132455D02*
X150327580Y-73989598D01*
X150327580Y-73989598D02*
X150279961Y-73846741D01*
X150279961Y-73846741D02*
X150184723Y-73751503D01*
X150184723Y-73751503D02*
X150089485Y-73703884D01*
X150089485Y-73703884D02*
X149899009Y-73656265D01*
X149899009Y-73656265D02*
X149756152Y-73656265D01*
X149756152Y-73656265D02*
X149565676Y-73703884D01*
X149565676Y-73703884D02*
X149470438Y-73751503D01*
X149470438Y-73751503D02*
X149375200Y-73846741D01*
X149375200Y-73846741D02*
X149327580Y-73989598D01*
X149327580Y-73989598D02*
X149327580Y-74084836D01*
X149327580Y-74084836D02*
X149375200Y-74227693D01*
X149375200Y-74227693D02*
X149422819Y-74275312D01*
X149422819Y-74275312D02*
X149756152Y-74275312D01*
X149756152Y-74275312D02*
X149756152Y-74084836D01*
X149327580Y-74703884D02*
X150327580Y-74703884D01*
X150327580Y-74703884D02*
X149327580Y-75275312D01*
X149327580Y-75275312D02*
X150327580Y-75275312D01*
X149327580Y-75751503D02*
X150327580Y-75751503D01*
X150327580Y-75751503D02*
X150327580Y-75989598D01*
X150327580Y-75989598D02*
X150279961Y-76132455D01*
X150279961Y-76132455D02*
X150184723Y-76227693D01*
X150184723Y-76227693D02*
X150089485Y-76275312D01*
X150089485Y-76275312D02*
X149899009Y-76322931D01*
X149899009Y-76322931D02*
X149756152Y-76322931D01*
X149756152Y-76322931D02*
X149565676Y-76275312D01*
X149565676Y-76275312D02*
X149470438Y-76227693D01*
X149470438Y-76227693D02*
X149375200Y-76132455D01*
X149375200Y-76132455D02*
X149327580Y-75989598D01*
X149327580Y-75989598D02*
X149327580Y-75751503D01*
X152927580Y-73461027D02*
X151927580Y-73794360D01*
X151927580Y-73794360D02*
X152927580Y-74127693D01*
X152022819Y-75032455D02*
X151975200Y-74984836D01*
X151975200Y-74984836D02*
X151927580Y-74841979D01*
X151927580Y-74841979D02*
X151927580Y-74746741D01*
X151927580Y-74746741D02*
X151975200Y-74603884D01*
X151975200Y-74603884D02*
X152070438Y-74508646D01*
X152070438Y-74508646D02*
X152165676Y-74461027D01*
X152165676Y-74461027D02*
X152356152Y-74413408D01*
X152356152Y-74413408D02*
X152499009Y-74413408D01*
X152499009Y-74413408D02*
X152689485Y-74461027D01*
X152689485Y-74461027D02*
X152784723Y-74508646D01*
X152784723Y-74508646D02*
X152879961Y-74603884D01*
X152879961Y-74603884D02*
X152927580Y-74746741D01*
X152927580Y-74746741D02*
X152927580Y-74841979D01*
X152927580Y-74841979D02*
X152879961Y-74984836D01*
X152879961Y-74984836D02*
X152832342Y-75032455D01*
X152022819Y-76032455D02*
X151975200Y-75984836D01*
X151975200Y-75984836D02*
X151927580Y-75841979D01*
X151927580Y-75841979D02*
X151927580Y-75746741D01*
X151927580Y-75746741D02*
X151975200Y-75603884D01*
X151975200Y-75603884D02*
X152070438Y-75508646D01*
X152070438Y-75508646D02*
X152165676Y-75461027D01*
X152165676Y-75461027D02*
X152356152Y-75413408D01*
X152356152Y-75413408D02*
X152499009Y-75413408D01*
X152499009Y-75413408D02*
X152689485Y-75461027D01*
X152689485Y-75461027D02*
X152784723Y-75508646D01*
X152784723Y-75508646D02*
X152879961Y-75603884D01*
X152879961Y-75603884D02*
X152927580Y-75746741D01*
X152927580Y-75746741D02*
X152927580Y-75841979D01*
X152927580Y-75841979D02*
X152879961Y-75984836D01*
X152879961Y-75984836D02*
X152832342Y-76032455D01*
X154527580Y-73603884D02*
X155527580Y-73603884D01*
X155527580Y-73603884D02*
X154813295Y-73937217D01*
X154813295Y-73937217D02*
X155527580Y-74270550D01*
X155527580Y-74270550D02*
X154527580Y-74270550D01*
X154527580Y-74746741D02*
X155527580Y-74746741D01*
X154575200Y-75175312D02*
X154527580Y-75318169D01*
X154527580Y-75318169D02*
X154527580Y-75556264D01*
X154527580Y-75556264D02*
X154575200Y-75651502D01*
X154575200Y-75651502D02*
X154622819Y-75699121D01*
X154622819Y-75699121D02*
X154718057Y-75746740D01*
X154718057Y-75746740D02*
X154813295Y-75746740D01*
X154813295Y-75746740D02*
X154908533Y-75699121D01*
X154908533Y-75699121D02*
X154956152Y-75651502D01*
X154956152Y-75651502D02*
X155003771Y-75556264D01*
X155003771Y-75556264D02*
X155051390Y-75365788D01*
X155051390Y-75365788D02*
X155099009Y-75270550D01*
X155099009Y-75270550D02*
X155146628Y-75222931D01*
X155146628Y-75222931D02*
X155241866Y-75175312D01*
X155241866Y-75175312D02*
X155337104Y-75175312D01*
X155337104Y-75175312D02*
X155432342Y-75222931D01*
X155432342Y-75222931D02*
X155479961Y-75270550D01*
X155479961Y-75270550D02*
X155527580Y-75365788D01*
X155527580Y-75365788D02*
X155527580Y-75603883D01*
X155527580Y-75603883D02*
X155479961Y-75746740D01*
X155527580Y-76365788D02*
X155527580Y-76556264D01*
X155527580Y-76556264D02*
X155479961Y-76651502D01*
X155479961Y-76651502D02*
X155384723Y-76746740D01*
X155384723Y-76746740D02*
X155194247Y-76794359D01*
X155194247Y-76794359D02*
X154860914Y-76794359D01*
X154860914Y-76794359D02*
X154670438Y-76746740D01*
X154670438Y-76746740D02*
X154575200Y-76651502D01*
X154575200Y-76651502D02*
X154527580Y-76556264D01*
X154527580Y-76556264D02*
X154527580Y-76365788D01*
X154527580Y-76365788D02*
X154575200Y-76270550D01*
X154575200Y-76270550D02*
X154670438Y-76175312D01*
X154670438Y-76175312D02*
X154860914Y-76127693D01*
X154860914Y-76127693D02*
X155194247Y-76127693D01*
X155194247Y-76127693D02*
X155384723Y-76175312D01*
X155384723Y-76175312D02*
X155479961Y-76270550D01*
X155479961Y-76270550D02*
X155527580Y-76365788D01*
X157027580Y-73603884D02*
X158027580Y-73603884D01*
X158027580Y-73603884D02*
X157313295Y-73937217D01*
X157313295Y-73937217D02*
X158027580Y-74270550D01*
X158027580Y-74270550D02*
X157027580Y-74270550D01*
X158027580Y-74937217D02*
X158027580Y-75127693D01*
X158027580Y-75127693D02*
X157979961Y-75222931D01*
X157979961Y-75222931D02*
X157884723Y-75318169D01*
X157884723Y-75318169D02*
X157694247Y-75365788D01*
X157694247Y-75365788D02*
X157360914Y-75365788D01*
X157360914Y-75365788D02*
X157170438Y-75318169D01*
X157170438Y-75318169D02*
X157075200Y-75222931D01*
X157075200Y-75222931D02*
X157027580Y-75127693D01*
X157027580Y-75127693D02*
X157027580Y-74937217D01*
X157027580Y-74937217D02*
X157075200Y-74841979D01*
X157075200Y-74841979D02*
X157170438Y-74746741D01*
X157170438Y-74746741D02*
X157360914Y-74699122D01*
X157360914Y-74699122D02*
X157694247Y-74699122D01*
X157694247Y-74699122D02*
X157884723Y-74746741D01*
X157884723Y-74746741D02*
X157979961Y-74841979D01*
X157979961Y-74841979D02*
X158027580Y-74937217D01*
X157075200Y-75746741D02*
X157027580Y-75889598D01*
X157027580Y-75889598D02*
X157027580Y-76127693D01*
X157027580Y-76127693D02*
X157075200Y-76222931D01*
X157075200Y-76222931D02*
X157122819Y-76270550D01*
X157122819Y-76270550D02*
X157218057Y-76318169D01*
X157218057Y-76318169D02*
X157313295Y-76318169D01*
X157313295Y-76318169D02*
X157408533Y-76270550D01*
X157408533Y-76270550D02*
X157456152Y-76222931D01*
X157456152Y-76222931D02*
X157503771Y-76127693D01*
X157503771Y-76127693D02*
X157551390Y-75937217D01*
X157551390Y-75937217D02*
X157599009Y-75841979D01*
X157599009Y-75841979D02*
X157646628Y-75794360D01*
X157646628Y-75794360D02*
X157741866Y-75746741D01*
X157741866Y-75746741D02*
X157837104Y-75746741D01*
X157837104Y-75746741D02*
X157932342Y-75794360D01*
X157932342Y-75794360D02*
X157979961Y-75841979D01*
X157979961Y-75841979D02*
X158027580Y-75937217D01*
X158027580Y-75937217D02*
X158027580Y-76175312D01*
X158027580Y-76175312D02*
X157979961Y-76318169D01*
X157027580Y-76746741D02*
X158027580Y-76746741D01*
X159575200Y-73756265D02*
X159527580Y-73899122D01*
X159527580Y-73899122D02*
X159527580Y-74137217D01*
X159527580Y-74137217D02*
X159575200Y-74232455D01*
X159575200Y-74232455D02*
X159622819Y-74280074D01*
X159622819Y-74280074D02*
X159718057Y-74327693D01*
X159718057Y-74327693D02*
X159813295Y-74327693D01*
X159813295Y-74327693D02*
X159908533Y-74280074D01*
X159908533Y-74280074D02*
X159956152Y-74232455D01*
X159956152Y-74232455D02*
X160003771Y-74137217D01*
X160003771Y-74137217D02*
X160051390Y-73946741D01*
X160051390Y-73946741D02*
X160099009Y-73851503D01*
X160099009Y-73851503D02*
X160146628Y-73803884D01*
X160146628Y-73803884D02*
X160241866Y-73756265D01*
X160241866Y-73756265D02*
X160337104Y-73756265D01*
X160337104Y-73756265D02*
X160432342Y-73803884D01*
X160432342Y-73803884D02*
X160479961Y-73851503D01*
X160479961Y-73851503D02*
X160527580Y-73946741D01*
X160527580Y-73946741D02*
X160527580Y-74184836D01*
X160527580Y-74184836D02*
X160479961Y-74327693D01*
X159622819Y-75327693D02*
X159575200Y-75280074D01*
X159575200Y-75280074D02*
X159527580Y-75137217D01*
X159527580Y-75137217D02*
X159527580Y-75041979D01*
X159527580Y-75041979D02*
X159575200Y-74899122D01*
X159575200Y-74899122D02*
X159670438Y-74803884D01*
X159670438Y-74803884D02*
X159765676Y-74756265D01*
X159765676Y-74756265D02*
X159956152Y-74708646D01*
X159956152Y-74708646D02*
X160099009Y-74708646D01*
X160099009Y-74708646D02*
X160289485Y-74756265D01*
X160289485Y-74756265D02*
X160384723Y-74803884D01*
X160384723Y-74803884D02*
X160479961Y-74899122D01*
X160479961Y-74899122D02*
X160527580Y-75041979D01*
X160527580Y-75041979D02*
X160527580Y-75137217D01*
X160527580Y-75137217D02*
X160479961Y-75280074D01*
X160479961Y-75280074D02*
X160432342Y-75327693D01*
X159527580Y-75756265D02*
X160527580Y-75756265D01*
X159527580Y-76327693D02*
X160099009Y-75899122D01*
X160527580Y-76327693D02*
X159956152Y-75756265D01*
X162422819Y-74575312D02*
X162375200Y-74527693D01*
X162375200Y-74527693D02*
X162327580Y-74384836D01*
X162327580Y-74384836D02*
X162327580Y-74289598D01*
X162327580Y-74289598D02*
X162375200Y-74146741D01*
X162375200Y-74146741D02*
X162470438Y-74051503D01*
X162470438Y-74051503D02*
X162565676Y-74003884D01*
X162565676Y-74003884D02*
X162756152Y-73956265D01*
X162756152Y-73956265D02*
X162899009Y-73956265D01*
X162899009Y-73956265D02*
X163089485Y-74003884D01*
X163089485Y-74003884D02*
X163184723Y-74051503D01*
X163184723Y-74051503D02*
X163279961Y-74146741D01*
X163279961Y-74146741D02*
X163327580Y-74289598D01*
X163327580Y-74289598D02*
X163327580Y-74384836D01*
X163327580Y-74384836D02*
X163279961Y-74527693D01*
X163279961Y-74527693D02*
X163232342Y-74575312D01*
X162375200Y-74956265D02*
X162327580Y-75099122D01*
X162327580Y-75099122D02*
X162327580Y-75337217D01*
X162327580Y-75337217D02*
X162375200Y-75432455D01*
X162375200Y-75432455D02*
X162422819Y-75480074D01*
X162422819Y-75480074D02*
X162518057Y-75527693D01*
X162518057Y-75527693D02*
X162613295Y-75527693D01*
X162613295Y-75527693D02*
X162708533Y-75480074D01*
X162708533Y-75480074D02*
X162756152Y-75432455D01*
X162756152Y-75432455D02*
X162803771Y-75337217D01*
X162803771Y-75337217D02*
X162851390Y-75146741D01*
X162851390Y-75146741D02*
X162899009Y-75051503D01*
X162899009Y-75051503D02*
X162946628Y-75003884D01*
X162946628Y-75003884D02*
X163041866Y-74956265D01*
X163041866Y-74956265D02*
X163137104Y-74956265D01*
X163137104Y-74956265D02*
X163232342Y-75003884D01*
X163232342Y-75003884D02*
X163279961Y-75051503D01*
X163279961Y-75051503D02*
X163327580Y-75146741D01*
X163327580Y-75146741D02*
X163327580Y-75384836D01*
X163327580Y-75384836D02*
X163279961Y-75527693D01*
D11*
X135751428Y-55888152D02*
X135751428Y-56554819D01*
X135513333Y-55507200D02*
X135275238Y-56221485D01*
X135275238Y-56221485D02*
X135894285Y-56221485D01*
X136275238Y-56459580D02*
X136322857Y-56507200D01*
X136322857Y-56507200D02*
X136275238Y-56554819D01*
X136275238Y-56554819D02*
X136227619Y-56507200D01*
X136227619Y-56507200D02*
X136275238Y-56459580D01*
X136275238Y-56459580D02*
X136275238Y-56554819D01*
X136656190Y-55554819D02*
X137322856Y-55554819D01*
X137322856Y-55554819D02*
X136894285Y-56554819D01*
X137703809Y-56554819D02*
X137703809Y-55554819D01*
X137799047Y-56173866D02*
X138084761Y-56554819D01*
X138084761Y-55888152D02*
X137703809Y-56269104D01*
X175553333Y-92354819D02*
X174981905Y-92354819D01*
X175267619Y-92354819D02*
X175267619Y-91354819D01*
X175267619Y-91354819D02*
X175172381Y-91497676D01*
X175172381Y-91497676D02*
X175077143Y-91592914D01*
X175077143Y-91592914D02*
X174981905Y-91640533D01*
X176172381Y-91354819D02*
X176267619Y-91354819D01*
X176267619Y-91354819D02*
X176362857Y-91402438D01*
X176362857Y-91402438D02*
X176410476Y-91450057D01*
X176410476Y-91450057D02*
X176458095Y-91545295D01*
X176458095Y-91545295D02*
X176505714Y-91735771D01*
X176505714Y-91735771D02*
X176505714Y-91973866D01*
X176505714Y-91973866D02*
X176458095Y-92164342D01*
X176458095Y-92164342D02*
X176410476Y-92259580D01*
X176410476Y-92259580D02*
X176362857Y-92307200D01*
X176362857Y-92307200D02*
X176267619Y-92354819D01*
X176267619Y-92354819D02*
X176172381Y-92354819D01*
X176172381Y-92354819D02*
X176077143Y-92307200D01*
X176077143Y-92307200D02*
X176029524Y-92259580D01*
X176029524Y-92259580D02*
X175981905Y-92164342D01*
X175981905Y-92164342D02*
X175934286Y-91973866D01*
X175934286Y-91973866D02*
X175934286Y-91735771D01*
X175934286Y-91735771D02*
X175981905Y-91545295D01*
X175981905Y-91545295D02*
X176029524Y-91450057D01*
X176029524Y-91450057D02*
X176077143Y-91402438D01*
X176077143Y-91402438D02*
X176172381Y-91354819D01*
X177124762Y-91354819D02*
X177220000Y-91354819D01*
X177220000Y-91354819D02*
X177315238Y-91402438D01*
X177315238Y-91402438D02*
X177362857Y-91450057D01*
X177362857Y-91450057D02*
X177410476Y-91545295D01*
X177410476Y-91545295D02*
X177458095Y-91735771D01*
X177458095Y-91735771D02*
X177458095Y-91973866D01*
X177458095Y-91973866D02*
X177410476Y-92164342D01*
X177410476Y-92164342D02*
X177362857Y-92259580D01*
X177362857Y-92259580D02*
X177315238Y-92307200D01*
X177315238Y-92307200D02*
X177220000Y-92354819D01*
X177220000Y-92354819D02*
X177124762Y-92354819D01*
X177124762Y-92354819D02*
X177029524Y-92307200D01*
X177029524Y-92307200D02*
X176981905Y-92259580D01*
X176981905Y-92259580D02*
X176934286Y-92164342D01*
X176934286Y-92164342D02*
X176886667Y-91973866D01*
X176886667Y-91973866D02*
X176886667Y-91735771D01*
X176886667Y-91735771D02*
X176934286Y-91545295D01*
X176934286Y-91545295D02*
X176981905Y-91450057D01*
X176981905Y-91450057D02*
X177029524Y-91402438D01*
X177029524Y-91402438D02*
X177124762Y-91354819D01*
X178585714Y-96104819D02*
X178680952Y-96104819D01*
X178680952Y-96104819D02*
X178776190Y-96152438D01*
X178776190Y-96152438D02*
X178823809Y-96200057D01*
X178823809Y-96200057D02*
X178871428Y-96295295D01*
X178871428Y-96295295D02*
X178919047Y-96485771D01*
X178919047Y-96485771D02*
X178919047Y-96723866D01*
X178919047Y-96723866D02*
X178871428Y-96914342D01*
X178871428Y-96914342D02*
X178823809Y-97009580D01*
X178823809Y-97009580D02*
X178776190Y-97057200D01*
X178776190Y-97057200D02*
X178680952Y-97104819D01*
X178680952Y-97104819D02*
X178585714Y-97104819D01*
X178585714Y-97104819D02*
X178490476Y-97057200D01*
X178490476Y-97057200D02*
X178442857Y-97009580D01*
X178442857Y-97009580D02*
X178395238Y-96914342D01*
X178395238Y-96914342D02*
X178347619Y-96723866D01*
X178347619Y-96723866D02*
X178347619Y-96485771D01*
X178347619Y-96485771D02*
X178395238Y-96295295D01*
X178395238Y-96295295D02*
X178442857Y-96200057D01*
X178442857Y-96200057D02*
X178490476Y-96152438D01*
X178490476Y-96152438D02*
X178585714Y-96104819D01*
X179347619Y-97009580D02*
X179395238Y-97057200D01*
X179395238Y-97057200D02*
X179347619Y-97104819D01*
X179347619Y-97104819D02*
X179300000Y-97057200D01*
X179300000Y-97057200D02*
X179347619Y-97009580D01*
X179347619Y-97009580D02*
X179347619Y-97104819D01*
X180347618Y-97104819D02*
X179776190Y-97104819D01*
X180061904Y-97104819D02*
X180061904Y-96104819D01*
X180061904Y-96104819D02*
X179966666Y-96247676D01*
X179966666Y-96247676D02*
X179871428Y-96342914D01*
X179871428Y-96342914D02*
X179776190Y-96390533D01*
X181204761Y-96438152D02*
X181204761Y-97104819D01*
X180776190Y-96438152D02*
X180776190Y-96961961D01*
X180776190Y-96961961D02*
X180823809Y-97057200D01*
X180823809Y-97057200D02*
X180919047Y-97104819D01*
X180919047Y-97104819D02*
X181061904Y-97104819D01*
X181061904Y-97104819D02*
X181157142Y-97057200D01*
X181157142Y-97057200D02*
X181204761Y-97009580D01*
X114874819Y-52189047D02*
X114874819Y-52760475D01*
X114874819Y-52474761D02*
X113874819Y-52474761D01*
X113874819Y-52474761D02*
X114017676Y-52569999D01*
X114017676Y-52569999D02*
X114112914Y-52665237D01*
X114112914Y-52665237D02*
X114160533Y-52760475D01*
X113874819Y-51569999D02*
X113874819Y-51474761D01*
X113874819Y-51474761D02*
X113922438Y-51379523D01*
X113922438Y-51379523D02*
X113970057Y-51331904D01*
X113970057Y-51331904D02*
X114065295Y-51284285D01*
X114065295Y-51284285D02*
X114255771Y-51236666D01*
X114255771Y-51236666D02*
X114493866Y-51236666D01*
X114493866Y-51236666D02*
X114684342Y-51284285D01*
X114684342Y-51284285D02*
X114779580Y-51331904D01*
X114779580Y-51331904D02*
X114827200Y-51379523D01*
X114827200Y-51379523D02*
X114874819Y-51474761D01*
X114874819Y-51474761D02*
X114874819Y-51569999D01*
X114874819Y-51569999D02*
X114827200Y-51665237D01*
X114827200Y-51665237D02*
X114779580Y-51712856D01*
X114779580Y-51712856D02*
X114684342Y-51760475D01*
X114684342Y-51760475D02*
X114493866Y-51808094D01*
X114493866Y-51808094D02*
X114255771Y-51808094D01*
X114255771Y-51808094D02*
X114065295Y-51760475D01*
X114065295Y-51760475D02*
X113970057Y-51712856D01*
X113970057Y-51712856D02*
X113922438Y-51665237D01*
X113922438Y-51665237D02*
X113874819Y-51569999D01*
X113874819Y-50617618D02*
X113874819Y-50522380D01*
X113874819Y-50522380D02*
X113922438Y-50427142D01*
X113922438Y-50427142D02*
X113970057Y-50379523D01*
X113970057Y-50379523D02*
X114065295Y-50331904D01*
X114065295Y-50331904D02*
X114255771Y-50284285D01*
X114255771Y-50284285D02*
X114493866Y-50284285D01*
X114493866Y-50284285D02*
X114684342Y-50331904D01*
X114684342Y-50331904D02*
X114779580Y-50379523D01*
X114779580Y-50379523D02*
X114827200Y-50427142D01*
X114827200Y-50427142D02*
X114874819Y-50522380D01*
X114874819Y-50522380D02*
X114874819Y-50617618D01*
X114874819Y-50617618D02*
X114827200Y-50712856D01*
X114827200Y-50712856D02*
X114779580Y-50760475D01*
X114779580Y-50760475D02*
X114684342Y-50808094D01*
X114684342Y-50808094D02*
X114493866Y-50855713D01*
X114493866Y-50855713D02*
X114255771Y-50855713D01*
X114255771Y-50855713D02*
X114065295Y-50808094D01*
X114065295Y-50808094D02*
X113970057Y-50760475D01*
X113970057Y-50760475D02*
X113922438Y-50712856D01*
X113922438Y-50712856D02*
X113874819Y-50617618D01*
X114208152Y-49427142D02*
X114874819Y-49427142D01*
X114208152Y-49855713D02*
X114731961Y-49855713D01*
X114731961Y-49855713D02*
X114827200Y-49808094D01*
X114827200Y-49808094D02*
X114874819Y-49712856D01*
X114874819Y-49712856D02*
X114874819Y-49569999D01*
X114874819Y-49569999D02*
X114827200Y-49474761D01*
X114827200Y-49474761D02*
X114779580Y-49427142D01*
X179454819Y-81214285D02*
X179454819Y-81119047D01*
X179454819Y-81119047D02*
X179502438Y-81023809D01*
X179502438Y-81023809D02*
X179550057Y-80976190D01*
X179550057Y-80976190D02*
X179645295Y-80928571D01*
X179645295Y-80928571D02*
X179835771Y-80880952D01*
X179835771Y-80880952D02*
X180073866Y-80880952D01*
X180073866Y-80880952D02*
X180264342Y-80928571D01*
X180264342Y-80928571D02*
X180359580Y-80976190D01*
X180359580Y-80976190D02*
X180407200Y-81023809D01*
X180407200Y-81023809D02*
X180454819Y-81119047D01*
X180454819Y-81119047D02*
X180454819Y-81214285D01*
X180454819Y-81214285D02*
X180407200Y-81309523D01*
X180407200Y-81309523D02*
X180359580Y-81357142D01*
X180359580Y-81357142D02*
X180264342Y-81404761D01*
X180264342Y-81404761D02*
X180073866Y-81452380D01*
X180073866Y-81452380D02*
X179835771Y-81452380D01*
X179835771Y-81452380D02*
X179645295Y-81404761D01*
X179645295Y-81404761D02*
X179550057Y-81357142D01*
X179550057Y-81357142D02*
X179502438Y-81309523D01*
X179502438Y-81309523D02*
X179454819Y-81214285D01*
X180359580Y-80452380D02*
X180407200Y-80404761D01*
X180407200Y-80404761D02*
X180454819Y-80452380D01*
X180454819Y-80452380D02*
X180407200Y-80499999D01*
X180407200Y-80499999D02*
X180359580Y-80452380D01*
X180359580Y-80452380D02*
X180454819Y-80452380D01*
X180454819Y-79452381D02*
X180454819Y-80023809D01*
X180454819Y-79738095D02*
X179454819Y-79738095D01*
X179454819Y-79738095D02*
X179597676Y-79833333D01*
X179597676Y-79833333D02*
X179692914Y-79928571D01*
X179692914Y-79928571D02*
X179740533Y-80023809D01*
X179788152Y-78595238D02*
X180454819Y-78595238D01*
X179788152Y-79023809D02*
X180311961Y-79023809D01*
X180311961Y-79023809D02*
X180407200Y-78976190D01*
X180407200Y-78976190D02*
X180454819Y-78880952D01*
X180454819Y-78880952D02*
X180454819Y-78738095D01*
X180454819Y-78738095D02*
X180407200Y-78642857D01*
X180407200Y-78642857D02*
X180359580Y-78595238D01*
X203454819Y-84714285D02*
X203454819Y-84619047D01*
X203454819Y-84619047D02*
X203502438Y-84523809D01*
X203502438Y-84523809D02*
X203550057Y-84476190D01*
X203550057Y-84476190D02*
X203645295Y-84428571D01*
X203645295Y-84428571D02*
X203835771Y-84380952D01*
X203835771Y-84380952D02*
X204073866Y-84380952D01*
X204073866Y-84380952D02*
X204264342Y-84428571D01*
X204264342Y-84428571D02*
X204359580Y-84476190D01*
X204359580Y-84476190D02*
X204407200Y-84523809D01*
X204407200Y-84523809D02*
X204454819Y-84619047D01*
X204454819Y-84619047D02*
X204454819Y-84714285D01*
X204454819Y-84714285D02*
X204407200Y-84809523D01*
X204407200Y-84809523D02*
X204359580Y-84857142D01*
X204359580Y-84857142D02*
X204264342Y-84904761D01*
X204264342Y-84904761D02*
X204073866Y-84952380D01*
X204073866Y-84952380D02*
X203835771Y-84952380D01*
X203835771Y-84952380D02*
X203645295Y-84904761D01*
X203645295Y-84904761D02*
X203550057Y-84857142D01*
X203550057Y-84857142D02*
X203502438Y-84809523D01*
X203502438Y-84809523D02*
X203454819Y-84714285D01*
X204359580Y-83952380D02*
X204407200Y-83904761D01*
X204407200Y-83904761D02*
X204454819Y-83952380D01*
X204454819Y-83952380D02*
X204407200Y-83999999D01*
X204407200Y-83999999D02*
X204359580Y-83952380D01*
X204359580Y-83952380D02*
X204454819Y-83952380D01*
X204454819Y-82952381D02*
X204454819Y-83523809D01*
X204454819Y-83238095D02*
X203454819Y-83238095D01*
X203454819Y-83238095D02*
X203597676Y-83333333D01*
X203597676Y-83333333D02*
X203692914Y-83428571D01*
X203692914Y-83428571D02*
X203740533Y-83523809D01*
X203788152Y-82095238D02*
X204454819Y-82095238D01*
X203788152Y-82523809D02*
X204311961Y-82523809D01*
X204311961Y-82523809D02*
X204407200Y-82476190D01*
X204407200Y-82476190D02*
X204454819Y-82380952D01*
X204454819Y-82380952D02*
X204454819Y-82238095D01*
X204454819Y-82238095D02*
X204407200Y-82142857D01*
X204407200Y-82142857D02*
X204359580Y-82095238D01*
X146455826Y-56393712D02*
X146455826Y-54893712D01*
X147312969Y-56393712D02*
X146670112Y-55536569D01*
X147312969Y-54893712D02*
X146455826Y-55750855D01*
X147955826Y-54893712D02*
X147955826Y-56107998D01*
X147955826Y-56107998D02*
X148027255Y-56250855D01*
X148027255Y-56250855D02*
X148098684Y-56322284D01*
X148098684Y-56322284D02*
X148241541Y-56393712D01*
X148241541Y-56393712D02*
X148527255Y-56393712D01*
X148527255Y-56393712D02*
X148670112Y-56322284D01*
X148670112Y-56322284D02*
X148741541Y-56250855D01*
X148741541Y-56250855D02*
X148812969Y-56107998D01*
X148812969Y-56107998D02*
X148812969Y-54893712D01*
X149527255Y-56393712D02*
X149527255Y-54893712D01*
X149527255Y-54893712D02*
X150384398Y-56393712D01*
X150384398Y-56393712D02*
X150384398Y-54893712D01*
X151098684Y-56393712D02*
X151098684Y-54893712D01*
X151812970Y-55822284D02*
X152955828Y-55822284D01*
X153670113Y-56393712D02*
X153670113Y-54893712D01*
X153670113Y-54893712D02*
X154527256Y-56393712D01*
X154527256Y-56393712D02*
X154527256Y-54893712D01*
X155241542Y-55607998D02*
X155741542Y-55607998D01*
X155955828Y-56393712D02*
X155241542Y-56393712D01*
X155241542Y-56393712D02*
X155241542Y-54893712D01*
X155241542Y-54893712D02*
X155955828Y-54893712D01*
X156384400Y-54893712D02*
X157241543Y-54893712D01*
X156812971Y-56393712D02*
X156812971Y-54893712D01*
X158812971Y-55036569D02*
X158884399Y-54965141D01*
X158884399Y-54965141D02*
X159027257Y-54893712D01*
X159027257Y-54893712D02*
X159384399Y-54893712D01*
X159384399Y-54893712D02*
X159527257Y-54965141D01*
X159527257Y-54965141D02*
X159598685Y-55036569D01*
X159598685Y-55036569D02*
X159670114Y-55179426D01*
X159670114Y-55179426D02*
X159670114Y-55322284D01*
X159670114Y-55322284D02*
X159598685Y-55536569D01*
X159598685Y-55536569D02*
X158741542Y-56393712D01*
X158741542Y-56393712D02*
X159670114Y-56393712D01*
X160598685Y-54893712D02*
X160741542Y-54893712D01*
X160741542Y-54893712D02*
X160884399Y-54965141D01*
X160884399Y-54965141D02*
X160955828Y-55036569D01*
X160955828Y-55036569D02*
X161027256Y-55179426D01*
X161027256Y-55179426D02*
X161098685Y-55465141D01*
X161098685Y-55465141D02*
X161098685Y-55822284D01*
X161098685Y-55822284D02*
X161027256Y-56107998D01*
X161027256Y-56107998D02*
X160955828Y-56250855D01*
X160955828Y-56250855D02*
X160884399Y-56322284D01*
X160884399Y-56322284D02*
X160741542Y-56393712D01*
X160741542Y-56393712D02*
X160598685Y-56393712D01*
X160598685Y-56393712D02*
X160455828Y-56322284D01*
X160455828Y-56322284D02*
X160384399Y-56250855D01*
X160384399Y-56250855D02*
X160312970Y-56107998D01*
X160312970Y-56107998D02*
X160241542Y-55822284D01*
X160241542Y-55822284D02*
X160241542Y-55465141D01*
X160241542Y-55465141D02*
X160312970Y-55179426D01*
X160312970Y-55179426D02*
X160384399Y-55036569D01*
X160384399Y-55036569D02*
X160455828Y-54965141D01*
X160455828Y-54965141D02*
X160598685Y-54893712D01*
X161670113Y-55036569D02*
X161741541Y-54965141D01*
X161741541Y-54965141D02*
X161884399Y-54893712D01*
X161884399Y-54893712D02*
X162241541Y-54893712D01*
X162241541Y-54893712D02*
X162384399Y-54965141D01*
X162384399Y-54965141D02*
X162455827Y-55036569D01*
X162455827Y-55036569D02*
X162527256Y-55179426D01*
X162527256Y-55179426D02*
X162527256Y-55322284D01*
X162527256Y-55322284D02*
X162455827Y-55536569D01*
X162455827Y-55536569D02*
X161598684Y-56393712D01*
X161598684Y-56393712D02*
X162527256Y-56393712D01*
X163812970Y-54893712D02*
X163527255Y-54893712D01*
X163527255Y-54893712D02*
X163384398Y-54965141D01*
X163384398Y-54965141D02*
X163312970Y-55036569D01*
X163312970Y-55036569D02*
X163170112Y-55250855D01*
X163170112Y-55250855D02*
X163098684Y-55536569D01*
X163098684Y-55536569D02*
X163098684Y-56107998D01*
X163098684Y-56107998D02*
X163170112Y-56250855D01*
X163170112Y-56250855D02*
X163241541Y-56322284D01*
X163241541Y-56322284D02*
X163384398Y-56393712D01*
X163384398Y-56393712D02*
X163670112Y-56393712D01*
X163670112Y-56393712D02*
X163812970Y-56322284D01*
X163812970Y-56322284D02*
X163884398Y-56250855D01*
X163884398Y-56250855D02*
X163955827Y-56107998D01*
X163955827Y-56107998D02*
X163955827Y-55750855D01*
X163955827Y-55750855D02*
X163884398Y-55607998D01*
X163884398Y-55607998D02*
X163812970Y-55536569D01*
X163812970Y-55536569D02*
X163670112Y-55465141D01*
X163670112Y-55465141D02*
X163384398Y-55465141D01*
X163384398Y-55465141D02*
X163241541Y-55536569D01*
X163241541Y-55536569D02*
X163170112Y-55607998D01*
X163170112Y-55607998D02*
X163098684Y-55750855D01*
X146455826Y-58808628D02*
X146455826Y-57308628D01*
X146455826Y-57308628D02*
X147027255Y-57308628D01*
X147027255Y-57308628D02*
X147170112Y-57380057D01*
X147170112Y-57380057D02*
X147241541Y-57451485D01*
X147241541Y-57451485D02*
X147312969Y-57594342D01*
X147312969Y-57594342D02*
X147312969Y-57808628D01*
X147312969Y-57808628D02*
X147241541Y-57951485D01*
X147241541Y-57951485D02*
X147170112Y-58022914D01*
X147170112Y-58022914D02*
X147027255Y-58094342D01*
X147027255Y-58094342D02*
X146455826Y-58094342D01*
X148812969Y-58665771D02*
X148741541Y-58737200D01*
X148741541Y-58737200D02*
X148527255Y-58808628D01*
X148527255Y-58808628D02*
X148384398Y-58808628D01*
X148384398Y-58808628D02*
X148170112Y-58737200D01*
X148170112Y-58737200D02*
X148027255Y-58594342D01*
X148027255Y-58594342D02*
X147955826Y-58451485D01*
X147955826Y-58451485D02*
X147884398Y-58165771D01*
X147884398Y-58165771D02*
X147884398Y-57951485D01*
X147884398Y-57951485D02*
X147955826Y-57665771D01*
X147955826Y-57665771D02*
X148027255Y-57522914D01*
X148027255Y-57522914D02*
X148170112Y-57380057D01*
X148170112Y-57380057D02*
X148384398Y-57308628D01*
X148384398Y-57308628D02*
X148527255Y-57308628D01*
X148527255Y-57308628D02*
X148741541Y-57380057D01*
X148741541Y-57380057D02*
X148812969Y-57451485D01*
X149455826Y-58237200D02*
X150598684Y-58237200D01*
X151527255Y-57951485D02*
X151384398Y-57880057D01*
X151384398Y-57880057D02*
X151312969Y-57808628D01*
X151312969Y-57808628D02*
X151241541Y-57665771D01*
X151241541Y-57665771D02*
X151241541Y-57594342D01*
X151241541Y-57594342D02*
X151312969Y-57451485D01*
X151312969Y-57451485D02*
X151384398Y-57380057D01*
X151384398Y-57380057D02*
X151527255Y-57308628D01*
X151527255Y-57308628D02*
X151812969Y-57308628D01*
X151812969Y-57308628D02*
X151955827Y-57380057D01*
X151955827Y-57380057D02*
X152027255Y-57451485D01*
X152027255Y-57451485D02*
X152098684Y-57594342D01*
X152098684Y-57594342D02*
X152098684Y-57665771D01*
X152098684Y-57665771D02*
X152027255Y-57808628D01*
X152027255Y-57808628D02*
X151955827Y-57880057D01*
X151955827Y-57880057D02*
X151812969Y-57951485D01*
X151812969Y-57951485D02*
X151527255Y-57951485D01*
X151527255Y-57951485D02*
X151384398Y-58022914D01*
X151384398Y-58022914D02*
X151312969Y-58094342D01*
X151312969Y-58094342D02*
X151241541Y-58237200D01*
X151241541Y-58237200D02*
X151241541Y-58522914D01*
X151241541Y-58522914D02*
X151312969Y-58665771D01*
X151312969Y-58665771D02*
X151384398Y-58737200D01*
X151384398Y-58737200D02*
X151527255Y-58808628D01*
X151527255Y-58808628D02*
X151812969Y-58808628D01*
X151812969Y-58808628D02*
X151955827Y-58737200D01*
X151955827Y-58737200D02*
X152027255Y-58665771D01*
X152027255Y-58665771D02*
X152098684Y-58522914D01*
X152098684Y-58522914D02*
X152098684Y-58237200D01*
X152098684Y-58237200D02*
X152027255Y-58094342D01*
X152027255Y-58094342D02*
X151955827Y-58022914D01*
X151955827Y-58022914D02*
X151812969Y-57951485D01*
X153027255Y-57308628D02*
X153170112Y-57308628D01*
X153170112Y-57308628D02*
X153312969Y-57380057D01*
X153312969Y-57380057D02*
X153384398Y-57451485D01*
X153384398Y-57451485D02*
X153455826Y-57594342D01*
X153455826Y-57594342D02*
X153527255Y-57880057D01*
X153527255Y-57880057D02*
X153527255Y-58237200D01*
X153527255Y-58237200D02*
X153455826Y-58522914D01*
X153455826Y-58522914D02*
X153384398Y-58665771D01*
X153384398Y-58665771D02*
X153312969Y-58737200D01*
X153312969Y-58737200D02*
X153170112Y-58808628D01*
X153170112Y-58808628D02*
X153027255Y-58808628D01*
X153027255Y-58808628D02*
X152884398Y-58737200D01*
X152884398Y-58737200D02*
X152812969Y-58665771D01*
X152812969Y-58665771D02*
X152741540Y-58522914D01*
X152741540Y-58522914D02*
X152670112Y-58237200D01*
X152670112Y-58237200D02*
X152670112Y-57880057D01*
X152670112Y-57880057D02*
X152741540Y-57594342D01*
X152741540Y-57594342D02*
X152812969Y-57451485D01*
X152812969Y-57451485D02*
X152884398Y-57380057D01*
X152884398Y-57380057D02*
X153027255Y-57308628D01*
X154455826Y-57308628D02*
X154598683Y-57308628D01*
X154598683Y-57308628D02*
X154741540Y-57380057D01*
X154741540Y-57380057D02*
X154812969Y-57451485D01*
X154812969Y-57451485D02*
X154884397Y-57594342D01*
X154884397Y-57594342D02*
X154955826Y-57880057D01*
X154955826Y-57880057D02*
X154955826Y-58237200D01*
X154955826Y-58237200D02*
X154884397Y-58522914D01*
X154884397Y-58522914D02*
X154812969Y-58665771D01*
X154812969Y-58665771D02*
X154741540Y-58737200D01*
X154741540Y-58737200D02*
X154598683Y-58808628D01*
X154598683Y-58808628D02*
X154455826Y-58808628D01*
X154455826Y-58808628D02*
X154312969Y-58737200D01*
X154312969Y-58737200D02*
X154241540Y-58665771D01*
X154241540Y-58665771D02*
X154170111Y-58522914D01*
X154170111Y-58522914D02*
X154098683Y-58237200D01*
X154098683Y-58237200D02*
X154098683Y-57880057D01*
X154098683Y-57880057D02*
X154170111Y-57594342D01*
X154170111Y-57594342D02*
X154241540Y-57451485D01*
X154241540Y-57451485D02*
X154312969Y-57380057D01*
X154312969Y-57380057D02*
X154455826Y-57308628D01*
X156384397Y-58808628D02*
X155527254Y-58808628D01*
X155955825Y-58808628D02*
X155955825Y-57308628D01*
X155955825Y-57308628D02*
X155812968Y-57522914D01*
X155812968Y-57522914D02*
X155670111Y-57665771D01*
X155670111Y-57665771D02*
X155527254Y-57737200D01*
X158170110Y-58808628D02*
X158170110Y-57308628D01*
X158170110Y-57308628D02*
X158741539Y-57308628D01*
X158741539Y-57308628D02*
X158884396Y-57380057D01*
X158884396Y-57380057D02*
X158955825Y-57451485D01*
X158955825Y-57451485D02*
X159027253Y-57594342D01*
X159027253Y-57594342D02*
X159027253Y-57808628D01*
X159027253Y-57808628D02*
X158955825Y-57951485D01*
X158955825Y-57951485D02*
X158884396Y-58022914D01*
X158884396Y-58022914D02*
X158741539Y-58094342D01*
X158741539Y-58094342D02*
X158170110Y-58094342D01*
X159670110Y-58808628D02*
X159670110Y-57308628D01*
X161241539Y-58665771D02*
X161170111Y-58737200D01*
X161170111Y-58737200D02*
X160955825Y-58808628D01*
X160955825Y-58808628D02*
X160812968Y-58808628D01*
X160812968Y-58808628D02*
X160598682Y-58737200D01*
X160598682Y-58737200D02*
X160455825Y-58594342D01*
X160455825Y-58594342D02*
X160384396Y-58451485D01*
X160384396Y-58451485D02*
X160312968Y-58165771D01*
X160312968Y-58165771D02*
X160312968Y-57951485D01*
X160312968Y-57951485D02*
X160384396Y-57665771D01*
X160384396Y-57665771D02*
X160455825Y-57522914D01*
X160455825Y-57522914D02*
X160598682Y-57380057D01*
X160598682Y-57380057D02*
X160812968Y-57308628D01*
X160812968Y-57308628D02*
X160955825Y-57308628D01*
X160955825Y-57308628D02*
X161170111Y-57380057D01*
X161170111Y-57380057D02*
X161241539Y-57451485D01*
X161884396Y-58237200D02*
X163027254Y-58237200D01*
X163670111Y-58737200D02*
X163884397Y-58808628D01*
X163884397Y-58808628D02*
X164241539Y-58808628D01*
X164241539Y-58808628D02*
X164384397Y-58737200D01*
X164384397Y-58737200D02*
X164455825Y-58665771D01*
X164455825Y-58665771D02*
X164527254Y-58522914D01*
X164527254Y-58522914D02*
X164527254Y-58380057D01*
X164527254Y-58380057D02*
X164455825Y-58237200D01*
X164455825Y-58237200D02*
X164384397Y-58165771D01*
X164384397Y-58165771D02*
X164241539Y-58094342D01*
X164241539Y-58094342D02*
X163955825Y-58022914D01*
X163955825Y-58022914D02*
X163812968Y-57951485D01*
X163812968Y-57951485D02*
X163741539Y-57880057D01*
X163741539Y-57880057D02*
X163670111Y-57737200D01*
X163670111Y-57737200D02*
X163670111Y-57594342D01*
X163670111Y-57594342D02*
X163741539Y-57451485D01*
X163741539Y-57451485D02*
X163812968Y-57380057D01*
X163812968Y-57380057D02*
X163955825Y-57308628D01*
X163955825Y-57308628D02*
X164312968Y-57308628D01*
X164312968Y-57308628D02*
X164527254Y-57380057D01*
X165170110Y-58808628D02*
X165170110Y-57308628D01*
X165170110Y-57308628D02*
X165527253Y-57308628D01*
X165527253Y-57308628D02*
X165741539Y-57380057D01*
X165741539Y-57380057D02*
X165884396Y-57522914D01*
X165884396Y-57522914D02*
X165955825Y-57665771D01*
X165955825Y-57665771D02*
X166027253Y-57951485D01*
X166027253Y-57951485D02*
X166027253Y-58165771D01*
X166027253Y-58165771D02*
X165955825Y-58451485D01*
X165955825Y-58451485D02*
X165884396Y-58594342D01*
X165884396Y-58594342D02*
X165741539Y-58737200D01*
X165741539Y-58737200D02*
X165527253Y-58808628D01*
X165527253Y-58808628D02*
X165170110Y-58808628D01*
X167741539Y-57237200D02*
X166455825Y-59165771D01*
X169098682Y-58808628D02*
X168598682Y-58094342D01*
X168241539Y-58808628D02*
X168241539Y-57308628D01*
X168241539Y-57308628D02*
X168812968Y-57308628D01*
X168812968Y-57308628D02*
X168955825Y-57380057D01*
X168955825Y-57380057D02*
X169027254Y-57451485D01*
X169027254Y-57451485D02*
X169098682Y-57594342D01*
X169098682Y-57594342D02*
X169098682Y-57808628D01*
X169098682Y-57808628D02*
X169027254Y-57951485D01*
X169027254Y-57951485D02*
X168955825Y-58022914D01*
X168955825Y-58022914D02*
X168812968Y-58094342D01*
X168812968Y-58094342D02*
X168241539Y-58094342D01*
X169527254Y-57308628D02*
X170384397Y-57308628D01*
X169955825Y-58808628D02*
X169955825Y-57308628D01*
X171741539Y-58665771D02*
X171670111Y-58737200D01*
X171670111Y-58737200D02*
X171455825Y-58808628D01*
X171455825Y-58808628D02*
X171312968Y-58808628D01*
X171312968Y-58808628D02*
X171098682Y-58737200D01*
X171098682Y-58737200D02*
X170955825Y-58594342D01*
X170955825Y-58594342D02*
X170884396Y-58451485D01*
X170884396Y-58451485D02*
X170812968Y-58165771D01*
X170812968Y-58165771D02*
X170812968Y-57951485D01*
X170812968Y-57951485D02*
X170884396Y-57665771D01*
X170884396Y-57665771D02*
X170955825Y-57522914D01*
X170955825Y-57522914D02*
X171098682Y-57380057D01*
X171098682Y-57380057D02*
X171312968Y-57308628D01*
X171312968Y-57308628D02*
X171455825Y-57308628D01*
X171455825Y-57308628D02*
X171670111Y-57380057D01*
X171670111Y-57380057D02*
X171741539Y-57451485D01*
X174384396Y-58808628D02*
X173884396Y-58094342D01*
X173527253Y-58808628D02*
X173527253Y-57308628D01*
X173527253Y-57308628D02*
X174098682Y-57308628D01*
X174098682Y-57308628D02*
X174241539Y-57380057D01*
X174241539Y-57380057D02*
X174312968Y-57451485D01*
X174312968Y-57451485D02*
X174384396Y-57594342D01*
X174384396Y-57594342D02*
X174384396Y-57808628D01*
X174384396Y-57808628D02*
X174312968Y-57951485D01*
X174312968Y-57951485D02*
X174241539Y-58022914D01*
X174241539Y-58022914D02*
X174098682Y-58094342D01*
X174098682Y-58094342D02*
X173527253Y-58094342D01*
X175027253Y-58022914D02*
X175527253Y-58022914D01*
X175741539Y-58808628D02*
X175027253Y-58808628D01*
X175027253Y-58808628D02*
X175027253Y-57308628D01*
X175027253Y-57308628D02*
X175741539Y-57308628D01*
X176170111Y-57308628D02*
X176670111Y-58808628D01*
X176670111Y-58808628D02*
X177170111Y-57308628D01*
X178455825Y-58808628D02*
X177598682Y-58808628D01*
X178027253Y-58808628D02*
X178027253Y-57308628D01*
X178027253Y-57308628D02*
X177884396Y-57522914D01*
X177884396Y-57522914D02*
X177741539Y-57665771D01*
X177741539Y-57665771D02*
X177598682Y-57737200D01*
D12*
X128515161Y-84050625D02*
X129467542Y-83383958D01*
X128515161Y-82907768D02*
X130515161Y-82907768D01*
X130515161Y-82907768D02*
X130515161Y-83669673D01*
X130515161Y-83669673D02*
X130419923Y-83860149D01*
X130419923Y-83860149D02*
X130324685Y-83955387D01*
X130324685Y-83955387D02*
X130134209Y-84050625D01*
X130134209Y-84050625D02*
X129848495Y-84050625D01*
X129848495Y-84050625D02*
X129658019Y-83955387D01*
X129658019Y-83955387D02*
X129562780Y-83860149D01*
X129562780Y-83860149D02*
X129467542Y-83669673D01*
X129467542Y-83669673D02*
X129467542Y-82907768D01*
X130515161Y-84622054D02*
X130515161Y-85764911D01*
X128515161Y-85193482D02*
X130515161Y-85193482D01*
X128705638Y-87574435D02*
X128610400Y-87479197D01*
X128610400Y-87479197D02*
X128515161Y-87193483D01*
X128515161Y-87193483D02*
X128515161Y-87003007D01*
X128515161Y-87003007D02*
X128610400Y-86717292D01*
X128610400Y-86717292D02*
X128800876Y-86526816D01*
X128800876Y-86526816D02*
X128991352Y-86431578D01*
X128991352Y-86431578D02*
X129372304Y-86336340D01*
X129372304Y-86336340D02*
X129658019Y-86336340D01*
X129658019Y-86336340D02*
X130038971Y-86431578D01*
X130038971Y-86431578D02*
X130229447Y-86526816D01*
X130229447Y-86526816D02*
X130419923Y-86717292D01*
X130419923Y-86717292D02*
X130515161Y-87003007D01*
X130515161Y-87003007D02*
X130515161Y-87193483D01*
X130515161Y-87193483D02*
X130419923Y-87479197D01*
X130419923Y-87479197D02*
X130324685Y-87574435D01*
X128515161Y-89955388D02*
X130515161Y-89955388D01*
X130515161Y-89955388D02*
X129086590Y-90622055D01*
X129086590Y-90622055D02*
X130515161Y-91288721D01*
X130515161Y-91288721D02*
X128515161Y-91288721D01*
X130515161Y-92622054D02*
X130515161Y-93003007D01*
X130515161Y-93003007D02*
X130419923Y-93193483D01*
X130419923Y-93193483D02*
X130229447Y-93383959D01*
X130229447Y-93383959D02*
X129848495Y-93479197D01*
X129848495Y-93479197D02*
X129181828Y-93479197D01*
X129181828Y-93479197D02*
X128800876Y-93383959D01*
X128800876Y-93383959D02*
X128610400Y-93193483D01*
X128610400Y-93193483D02*
X128515161Y-93003007D01*
X128515161Y-93003007D02*
X128515161Y-92622054D01*
X128515161Y-92622054D02*
X128610400Y-92431578D01*
X128610400Y-92431578D02*
X128800876Y-92241102D01*
X128800876Y-92241102D02*
X129181828Y-92145864D01*
X129181828Y-92145864D02*
X129848495Y-92145864D01*
X129848495Y-92145864D02*
X130229447Y-92241102D01*
X130229447Y-92241102D02*
X130419923Y-92431578D01*
X130419923Y-92431578D02*
X130515161Y-92622054D01*
X128515161Y-94336340D02*
X130515161Y-94336340D01*
X130515161Y-94336340D02*
X130515161Y-94812530D01*
X130515161Y-94812530D02*
X130419923Y-95098245D01*
X130419923Y-95098245D02*
X130229447Y-95288721D01*
X130229447Y-95288721D02*
X130038971Y-95383959D01*
X130038971Y-95383959D02*
X129658019Y-95479197D01*
X129658019Y-95479197D02*
X129372304Y-95479197D01*
X129372304Y-95479197D02*
X128991352Y-95383959D01*
X128991352Y-95383959D02*
X128800876Y-95288721D01*
X128800876Y-95288721D02*
X128610400Y-95098245D01*
X128610400Y-95098245D02*
X128515161Y-94812530D01*
X128515161Y-94812530D02*
X128515161Y-94336340D01*
X130515161Y-96336340D02*
X128896114Y-96336340D01*
X128896114Y-96336340D02*
X128705638Y-96431578D01*
X128705638Y-96431578D02*
X128610400Y-96526816D01*
X128610400Y-96526816D02*
X128515161Y-96717292D01*
X128515161Y-96717292D02*
X128515161Y-97098245D01*
X128515161Y-97098245D02*
X128610400Y-97288721D01*
X128610400Y-97288721D02*
X128705638Y-97383959D01*
X128705638Y-97383959D02*
X128896114Y-97479197D01*
X128896114Y-97479197D02*
X130515161Y-97479197D01*
X128515161Y-99383959D02*
X128515161Y-98431578D01*
X128515161Y-98431578D02*
X130515161Y-98431578D01*
X129562780Y-100050626D02*
X129562780Y-100717293D01*
X128515161Y-101003007D02*
X128515161Y-100050626D01*
X128515161Y-100050626D02*
X130515161Y-100050626D01*
X130515161Y-100050626D02*
X130515161Y-101003007D01*
X154450400Y-82712530D02*
X154355161Y-82998244D01*
X154355161Y-82998244D02*
X154355161Y-83474435D01*
X154355161Y-83474435D02*
X154450400Y-83664911D01*
X154450400Y-83664911D02*
X154545638Y-83760149D01*
X154545638Y-83760149D02*
X154736114Y-83855387D01*
X154736114Y-83855387D02*
X154926590Y-83855387D01*
X154926590Y-83855387D02*
X155117066Y-83760149D01*
X155117066Y-83760149D02*
X155212304Y-83664911D01*
X155212304Y-83664911D02*
X155307542Y-83474435D01*
X155307542Y-83474435D02*
X155402780Y-83093482D01*
X155402780Y-83093482D02*
X155498019Y-82903006D01*
X155498019Y-82903006D02*
X155593257Y-82807768D01*
X155593257Y-82807768D02*
X155783733Y-82712530D01*
X155783733Y-82712530D02*
X155974209Y-82712530D01*
X155974209Y-82712530D02*
X156164685Y-82807768D01*
X156164685Y-82807768D02*
X156259923Y-82903006D01*
X156259923Y-82903006D02*
X156355161Y-83093482D01*
X156355161Y-83093482D02*
X156355161Y-83569673D01*
X156355161Y-83569673D02*
X156259923Y-83855387D01*
X154355161Y-84712530D02*
X156355161Y-84712530D01*
X156355161Y-84712530D02*
X156355161Y-85188720D01*
X156355161Y-85188720D02*
X156259923Y-85474435D01*
X156259923Y-85474435D02*
X156069447Y-85664911D01*
X156069447Y-85664911D02*
X155878971Y-85760149D01*
X155878971Y-85760149D02*
X155498019Y-85855387D01*
X155498019Y-85855387D02*
X155212304Y-85855387D01*
X155212304Y-85855387D02*
X154831352Y-85760149D01*
X154831352Y-85760149D02*
X154640876Y-85664911D01*
X154640876Y-85664911D02*
X154450400Y-85474435D01*
X154450400Y-85474435D02*
X154355161Y-85188720D01*
X154355161Y-85188720D02*
X154355161Y-84712530D01*
X154355161Y-88236340D02*
X156355161Y-88236340D01*
X156355161Y-88236340D02*
X154926590Y-88903007D01*
X154926590Y-88903007D02*
X156355161Y-89569673D01*
X156355161Y-89569673D02*
X154355161Y-89569673D01*
X156355161Y-90903006D02*
X156355161Y-91283959D01*
X156355161Y-91283959D02*
X156259923Y-91474435D01*
X156259923Y-91474435D02*
X156069447Y-91664911D01*
X156069447Y-91664911D02*
X155688495Y-91760149D01*
X155688495Y-91760149D02*
X155021828Y-91760149D01*
X155021828Y-91760149D02*
X154640876Y-91664911D01*
X154640876Y-91664911D02*
X154450400Y-91474435D01*
X154450400Y-91474435D02*
X154355161Y-91283959D01*
X154355161Y-91283959D02*
X154355161Y-90903006D01*
X154355161Y-90903006D02*
X154450400Y-90712530D01*
X154450400Y-90712530D02*
X154640876Y-90522054D01*
X154640876Y-90522054D02*
X155021828Y-90426816D01*
X155021828Y-90426816D02*
X155688495Y-90426816D01*
X155688495Y-90426816D02*
X156069447Y-90522054D01*
X156069447Y-90522054D02*
X156259923Y-90712530D01*
X156259923Y-90712530D02*
X156355161Y-90903006D01*
X154355161Y-92617292D02*
X156355161Y-92617292D01*
X156355161Y-92617292D02*
X156355161Y-93093482D01*
X156355161Y-93093482D02*
X156259923Y-93379197D01*
X156259923Y-93379197D02*
X156069447Y-93569673D01*
X156069447Y-93569673D02*
X155878971Y-93664911D01*
X155878971Y-93664911D02*
X155498019Y-93760149D01*
X155498019Y-93760149D02*
X155212304Y-93760149D01*
X155212304Y-93760149D02*
X154831352Y-93664911D01*
X154831352Y-93664911D02*
X154640876Y-93569673D01*
X154640876Y-93569673D02*
X154450400Y-93379197D01*
X154450400Y-93379197D02*
X154355161Y-93093482D01*
X154355161Y-93093482D02*
X154355161Y-92617292D01*
X156355161Y-94617292D02*
X154736114Y-94617292D01*
X154736114Y-94617292D02*
X154545638Y-94712530D01*
X154545638Y-94712530D02*
X154450400Y-94807768D01*
X154450400Y-94807768D02*
X154355161Y-94998244D01*
X154355161Y-94998244D02*
X154355161Y-95379197D01*
X154355161Y-95379197D02*
X154450400Y-95569673D01*
X154450400Y-95569673D02*
X154545638Y-95664911D01*
X154545638Y-95664911D02*
X154736114Y-95760149D01*
X154736114Y-95760149D02*
X156355161Y-95760149D01*
X154355161Y-97664911D02*
X154355161Y-96712530D01*
X154355161Y-96712530D02*
X156355161Y-96712530D01*
X155402780Y-98331578D02*
X155402780Y-98998245D01*
X154355161Y-99283959D02*
X154355161Y-98331578D01*
X154355161Y-98331578D02*
X156355161Y-98331578D01*
X156355161Y-98331578D02*
X156355161Y-99283959D01*
X191255161Y-70607768D02*
X193255161Y-70607768D01*
X193255161Y-70607768D02*
X193255161Y-71369673D01*
X193255161Y-71369673D02*
X193159923Y-71560149D01*
X193159923Y-71560149D02*
X193064685Y-71655387D01*
X193064685Y-71655387D02*
X192874209Y-71750625D01*
X192874209Y-71750625D02*
X192588495Y-71750625D01*
X192588495Y-71750625D02*
X192398019Y-71655387D01*
X192398019Y-71655387D02*
X192302780Y-71560149D01*
X192302780Y-71560149D02*
X192207542Y-71369673D01*
X192207542Y-71369673D02*
X192207542Y-70607768D01*
X191255161Y-72607768D02*
X193255161Y-72607768D01*
X191445638Y-74703006D02*
X191350400Y-74607768D01*
X191350400Y-74607768D02*
X191255161Y-74322054D01*
X191255161Y-74322054D02*
X191255161Y-74131578D01*
X191255161Y-74131578D02*
X191350400Y-73845863D01*
X191350400Y-73845863D02*
X191540876Y-73655387D01*
X191540876Y-73655387D02*
X191731352Y-73560149D01*
X191731352Y-73560149D02*
X192112304Y-73464911D01*
X192112304Y-73464911D02*
X192398019Y-73464911D01*
X192398019Y-73464911D02*
X192778971Y-73560149D01*
X192778971Y-73560149D02*
X192969447Y-73655387D01*
X192969447Y-73655387D02*
X193159923Y-73845863D01*
X193159923Y-73845863D02*
X193255161Y-74131578D01*
X193255161Y-74131578D02*
X193255161Y-74322054D01*
X193255161Y-74322054D02*
X193159923Y-74607768D01*
X193159923Y-74607768D02*
X193064685Y-74703006D01*
X191255161Y-76607768D02*
X191255161Y-75464911D01*
X191255161Y-76036339D02*
X193255161Y-76036339D01*
X193255161Y-76036339D02*
X192969447Y-75845863D01*
X192969447Y-75845863D02*
X192778971Y-75655387D01*
X192778971Y-75655387D02*
X192683733Y-75464911D01*
X192398019Y-77750625D02*
X192493257Y-77560149D01*
X192493257Y-77560149D02*
X192588495Y-77464911D01*
X192588495Y-77464911D02*
X192778971Y-77369673D01*
X192778971Y-77369673D02*
X192874209Y-77369673D01*
X192874209Y-77369673D02*
X193064685Y-77464911D01*
X193064685Y-77464911D02*
X193159923Y-77560149D01*
X193159923Y-77560149D02*
X193255161Y-77750625D01*
X193255161Y-77750625D02*
X193255161Y-78131578D01*
X193255161Y-78131578D02*
X193159923Y-78322054D01*
X193159923Y-78322054D02*
X193064685Y-78417292D01*
X193064685Y-78417292D02*
X192874209Y-78512530D01*
X192874209Y-78512530D02*
X192778971Y-78512530D01*
X192778971Y-78512530D02*
X192588495Y-78417292D01*
X192588495Y-78417292D02*
X192493257Y-78322054D01*
X192493257Y-78322054D02*
X192398019Y-78131578D01*
X192398019Y-78131578D02*
X192398019Y-77750625D01*
X192398019Y-77750625D02*
X192302780Y-77560149D01*
X192302780Y-77560149D02*
X192207542Y-77464911D01*
X192207542Y-77464911D02*
X192017066Y-77369673D01*
X192017066Y-77369673D02*
X191636114Y-77369673D01*
X191636114Y-77369673D02*
X191445638Y-77464911D01*
X191445638Y-77464911D02*
X191350400Y-77560149D01*
X191350400Y-77560149D02*
X191255161Y-77750625D01*
X191255161Y-77750625D02*
X191255161Y-78131578D01*
X191255161Y-78131578D02*
X191350400Y-78322054D01*
X191350400Y-78322054D02*
X191445638Y-78417292D01*
X191445638Y-78417292D02*
X191636114Y-78512530D01*
X191636114Y-78512530D02*
X192017066Y-78512530D01*
X192017066Y-78512530D02*
X192207542Y-78417292D01*
X192207542Y-78417292D02*
X192302780Y-78322054D01*
X192302780Y-78322054D02*
X192398019Y-78131578D01*
X192302780Y-80036340D02*
X192302780Y-79369673D01*
X191255161Y-79369673D02*
X193255161Y-79369673D01*
X193255161Y-79369673D02*
X193255161Y-80322054D01*
X192588495Y-81941102D02*
X191255161Y-81941102D01*
X193350400Y-81464911D02*
X191921828Y-80988721D01*
X191921828Y-80988721D02*
X191921828Y-82226816D01*
X193255161Y-82798245D02*
X193255161Y-84131578D01*
X193255161Y-84131578D02*
X191255161Y-83274435D01*
X191064685Y-86226816D02*
X191159923Y-86036340D01*
X191159923Y-86036340D02*
X191350400Y-85845864D01*
X191350400Y-85845864D02*
X191636114Y-85560150D01*
X191636114Y-85560150D02*
X191731352Y-85369673D01*
X191731352Y-85369673D02*
X191731352Y-85179197D01*
X191255161Y-85274435D02*
X191350400Y-85083959D01*
X191350400Y-85083959D02*
X191540876Y-84893483D01*
X191540876Y-84893483D02*
X191921828Y-84798245D01*
X191921828Y-84798245D02*
X192588495Y-84798245D01*
X192588495Y-84798245D02*
X192969447Y-84893483D01*
X192969447Y-84893483D02*
X193159923Y-85083959D01*
X193159923Y-85083959D02*
X193255161Y-85274435D01*
X193255161Y-85274435D02*
X193255161Y-85655388D01*
X193255161Y-85655388D02*
X193159923Y-85845864D01*
X193159923Y-85845864D02*
X192969447Y-86036340D01*
X192969447Y-86036340D02*
X192588495Y-86131578D01*
X192588495Y-86131578D02*
X191921828Y-86131578D01*
X191921828Y-86131578D02*
X191540876Y-86036340D01*
X191540876Y-86036340D02*
X191350400Y-85845864D01*
X191350400Y-85845864D02*
X191255161Y-85655388D01*
X191255161Y-85655388D02*
X191255161Y-85274435D01*
X192588495Y-87845864D02*
X191255161Y-87845864D01*
X193350400Y-87369673D02*
X191921828Y-86893483D01*
X191921828Y-86893483D02*
X191921828Y-88131578D01*
X193255161Y-88703007D02*
X193255161Y-89941102D01*
X193255161Y-89941102D02*
X192493257Y-89274435D01*
X192493257Y-89274435D02*
X192493257Y-89560150D01*
X192493257Y-89560150D02*
X192398019Y-89750626D01*
X192398019Y-89750626D02*
X192302780Y-89845864D01*
X192302780Y-89845864D02*
X192112304Y-89941102D01*
X192112304Y-89941102D02*
X191636114Y-89941102D01*
X191636114Y-89941102D02*
X191445638Y-89845864D01*
X191445638Y-89845864D02*
X191350400Y-89750626D01*
X191350400Y-89750626D02*
X191255161Y-89560150D01*
X191255161Y-89560150D02*
X191255161Y-88988721D01*
X191255161Y-88988721D02*
X191350400Y-88798245D01*
X191350400Y-88798245D02*
X191445638Y-88703007D01*
D11*
X126444819Y-46218333D02*
X127159104Y-46218333D01*
X127159104Y-46218333D02*
X127301961Y-46265952D01*
X127301961Y-46265952D02*
X127397200Y-46361190D01*
X127397200Y-46361190D02*
X127444819Y-46504047D01*
X127444819Y-46504047D02*
X127444819Y-46599285D01*
X127444819Y-45218333D02*
X127444819Y-45789761D01*
X127444819Y-45504047D02*
X126444819Y-45504047D01*
X126444819Y-45504047D02*
X126587676Y-45599285D01*
X126587676Y-45599285D02*
X126682914Y-45694523D01*
X126682914Y-45694523D02*
X126730533Y-45789761D01*
X123469580Y-51304266D02*
X123517200Y-51351885D01*
X123517200Y-51351885D02*
X123564819Y-51494742D01*
X123564819Y-51494742D02*
X123564819Y-51589980D01*
X123564819Y-51589980D02*
X123517200Y-51732837D01*
X123517200Y-51732837D02*
X123421961Y-51828075D01*
X123421961Y-51828075D02*
X123326723Y-51875694D01*
X123326723Y-51875694D02*
X123136247Y-51923313D01*
X123136247Y-51923313D02*
X122993390Y-51923313D01*
X122993390Y-51923313D02*
X122802914Y-51875694D01*
X122802914Y-51875694D02*
X122707676Y-51828075D01*
X122707676Y-51828075D02*
X122612438Y-51732837D01*
X122612438Y-51732837D02*
X122564819Y-51589980D01*
X122564819Y-51589980D02*
X122564819Y-51494742D01*
X122564819Y-51494742D02*
X122612438Y-51351885D01*
X122612438Y-51351885D02*
X122660057Y-51304266D01*
X123564819Y-50351885D02*
X123564819Y-50923313D01*
X123564819Y-50637599D02*
X122564819Y-50637599D01*
X122564819Y-50637599D02*
X122707676Y-50732837D01*
X122707676Y-50732837D02*
X122802914Y-50828075D01*
X122802914Y-50828075D02*
X122850533Y-50923313D01*
X191618095Y-54504819D02*
X191618095Y-55314342D01*
X191618095Y-55314342D02*
X191665714Y-55409580D01*
X191665714Y-55409580D02*
X191713333Y-55457200D01*
X191713333Y-55457200D02*
X191808571Y-55504819D01*
X191808571Y-55504819D02*
X191999047Y-55504819D01*
X191999047Y-55504819D02*
X192094285Y-55457200D01*
X192094285Y-55457200D02*
X192141904Y-55409580D01*
X192141904Y-55409580D02*
X192189523Y-55314342D01*
X192189523Y-55314342D02*
X192189523Y-54504819D01*
X193189523Y-55504819D02*
X192618095Y-55504819D01*
X192903809Y-55504819D02*
X192903809Y-54504819D01*
X192903809Y-54504819D02*
X192808571Y-54647676D01*
X192808571Y-54647676D02*
X192713333Y-54742914D01*
X192713333Y-54742914D02*
X192618095Y-54790533D01*
X164954819Y-63133333D02*
X165669104Y-63133333D01*
X165669104Y-63133333D02*
X165811961Y-63180952D01*
X165811961Y-63180952D02*
X165907200Y-63276190D01*
X165907200Y-63276190D02*
X165954819Y-63419047D01*
X165954819Y-63419047D02*
X165954819Y-63514285D01*
X164954819Y-62752380D02*
X164954819Y-62133333D01*
X164954819Y-62133333D02*
X165335771Y-62466666D01*
X165335771Y-62466666D02*
X165335771Y-62323809D01*
X165335771Y-62323809D02*
X165383390Y-62228571D01*
X165383390Y-62228571D02*
X165431009Y-62180952D01*
X165431009Y-62180952D02*
X165526247Y-62133333D01*
X165526247Y-62133333D02*
X165764342Y-62133333D01*
X165764342Y-62133333D02*
X165859580Y-62180952D01*
X165859580Y-62180952D02*
X165907200Y-62228571D01*
X165907200Y-62228571D02*
X165954819Y-62323809D01*
X165954819Y-62323809D02*
X165954819Y-62609523D01*
X165954819Y-62609523D02*
X165907200Y-62704761D01*
X165907200Y-62704761D02*
X165859580Y-62752380D01*
X206409580Y-78916666D02*
X206457200Y-78964285D01*
X206457200Y-78964285D02*
X206504819Y-79107142D01*
X206504819Y-79107142D02*
X206504819Y-79202380D01*
X206504819Y-79202380D02*
X206457200Y-79345237D01*
X206457200Y-79345237D02*
X206361961Y-79440475D01*
X206361961Y-79440475D02*
X206266723Y-79488094D01*
X206266723Y-79488094D02*
X206076247Y-79535713D01*
X206076247Y-79535713D02*
X205933390Y-79535713D01*
X205933390Y-79535713D02*
X205742914Y-79488094D01*
X205742914Y-79488094D02*
X205647676Y-79440475D01*
X205647676Y-79440475D02*
X205552438Y-79345237D01*
X205552438Y-79345237D02*
X205504819Y-79202380D01*
X205504819Y-79202380D02*
X205504819Y-79107142D01*
X205504819Y-79107142D02*
X205552438Y-78964285D01*
X205552438Y-78964285D02*
X205600057Y-78916666D01*
X205504819Y-78583332D02*
X205504819Y-77964285D01*
X205504819Y-77964285D02*
X205885771Y-78297618D01*
X205885771Y-78297618D02*
X205885771Y-78154761D01*
X205885771Y-78154761D02*
X205933390Y-78059523D01*
X205933390Y-78059523D02*
X205981009Y-78011904D01*
X205981009Y-78011904D02*
X206076247Y-77964285D01*
X206076247Y-77964285D02*
X206314342Y-77964285D01*
X206314342Y-77964285D02*
X206409580Y-78011904D01*
X206409580Y-78011904D02*
X206457200Y-78059523D01*
X206457200Y-78059523D02*
X206504819Y-78154761D01*
X206504819Y-78154761D02*
X206504819Y-78440475D01*
X206504819Y-78440475D02*
X206457200Y-78535713D01*
X206457200Y-78535713D02*
X206409580Y-78583332D01*
X182409580Y-84416666D02*
X182457200Y-84464285D01*
X182457200Y-84464285D02*
X182504819Y-84607142D01*
X182504819Y-84607142D02*
X182504819Y-84702380D01*
X182504819Y-84702380D02*
X182457200Y-84845237D01*
X182457200Y-84845237D02*
X182361961Y-84940475D01*
X182361961Y-84940475D02*
X182266723Y-84988094D01*
X182266723Y-84988094D02*
X182076247Y-85035713D01*
X182076247Y-85035713D02*
X181933390Y-85035713D01*
X181933390Y-85035713D02*
X181742914Y-84988094D01*
X181742914Y-84988094D02*
X181647676Y-84940475D01*
X181647676Y-84940475D02*
X181552438Y-84845237D01*
X181552438Y-84845237D02*
X181504819Y-84702380D01*
X181504819Y-84702380D02*
X181504819Y-84607142D01*
X181504819Y-84607142D02*
X181552438Y-84464285D01*
X181552438Y-84464285D02*
X181600057Y-84416666D01*
X181600057Y-84035713D02*
X181552438Y-83988094D01*
X181552438Y-83988094D02*
X181504819Y-83892856D01*
X181504819Y-83892856D02*
X181504819Y-83654761D01*
X181504819Y-83654761D02*
X181552438Y-83559523D01*
X181552438Y-83559523D02*
X181600057Y-83511904D01*
X181600057Y-83511904D02*
X181695295Y-83464285D01*
X181695295Y-83464285D02*
X181790533Y-83464285D01*
X181790533Y-83464285D02*
X181933390Y-83511904D01*
X181933390Y-83511904D02*
X182504819Y-84083332D01*
X182504819Y-84083332D02*
X182504819Y-83464285D01*
X116989523Y-56554819D02*
X116656190Y-56078628D01*
X116418095Y-56554819D02*
X116418095Y-55554819D01*
X116418095Y-55554819D02*
X116799047Y-55554819D01*
X116799047Y-55554819D02*
X116894285Y-55602438D01*
X116894285Y-55602438D02*
X116941904Y-55650057D01*
X116941904Y-55650057D02*
X116989523Y-55745295D01*
X116989523Y-55745295D02*
X116989523Y-55888152D01*
X116989523Y-55888152D02*
X116941904Y-55983390D01*
X116941904Y-55983390D02*
X116894285Y-56031009D01*
X116894285Y-56031009D02*
X116799047Y-56078628D01*
X116799047Y-56078628D02*
X116418095Y-56078628D01*
X117418095Y-56554819D02*
X117418095Y-55554819D01*
X117418095Y-55554819D02*
X117989523Y-56554819D01*
X117989523Y-56554819D02*
X117989523Y-55554819D01*
X118989523Y-56554819D02*
X118418095Y-56554819D01*
X118703809Y-56554819D02*
X118703809Y-55554819D01*
X118703809Y-55554819D02*
X118608571Y-55697676D01*
X118608571Y-55697676D02*
X118513333Y-55792914D01*
X118513333Y-55792914D02*
X118418095Y-55840533D01*
X172133333Y-97009580D02*
X172085714Y-97057200D01*
X172085714Y-97057200D02*
X171942857Y-97104819D01*
X171942857Y-97104819D02*
X171847619Y-97104819D01*
X171847619Y-97104819D02*
X171704762Y-97057200D01*
X171704762Y-97057200D02*
X171609524Y-96961961D01*
X171609524Y-96961961D02*
X171561905Y-96866723D01*
X171561905Y-96866723D02*
X171514286Y-96676247D01*
X171514286Y-96676247D02*
X171514286Y-96533390D01*
X171514286Y-96533390D02*
X171561905Y-96342914D01*
X171561905Y-96342914D02*
X171609524Y-96247676D01*
X171609524Y-96247676D02*
X171704762Y-96152438D01*
X171704762Y-96152438D02*
X171847619Y-96104819D01*
X171847619Y-96104819D02*
X171942857Y-96104819D01*
X171942857Y-96104819D02*
X172085714Y-96152438D01*
X172085714Y-96152438D02*
X172133333Y-96200057D01*
X172990476Y-96438152D02*
X172990476Y-97104819D01*
X172752381Y-96057200D02*
X172514286Y-96771485D01*
X172514286Y-96771485D02*
X173133333Y-96771485D01*
X173233333Y-89754819D02*
X172900000Y-89278628D01*
X172661905Y-89754819D02*
X172661905Y-88754819D01*
X172661905Y-88754819D02*
X173042857Y-88754819D01*
X173042857Y-88754819D02*
X173138095Y-88802438D01*
X173138095Y-88802438D02*
X173185714Y-88850057D01*
X173185714Y-88850057D02*
X173233333Y-88945295D01*
X173233333Y-88945295D02*
X173233333Y-89088152D01*
X173233333Y-89088152D02*
X173185714Y-89183390D01*
X173185714Y-89183390D02*
X173138095Y-89231009D01*
X173138095Y-89231009D02*
X173042857Y-89278628D01*
X173042857Y-89278628D02*
X172661905Y-89278628D01*
X174185714Y-89754819D02*
X173614286Y-89754819D01*
X173900000Y-89754819D02*
X173900000Y-88754819D01*
X173900000Y-88754819D02*
X173804762Y-88897676D01*
X173804762Y-88897676D02*
X173709524Y-88992914D01*
X173709524Y-88992914D02*
X173614286Y-89040533D01*
X139114819Y-63033333D02*
X139829104Y-63033333D01*
X139829104Y-63033333D02*
X139971961Y-63080952D01*
X139971961Y-63080952D02*
X140067200Y-63176190D01*
X140067200Y-63176190D02*
X140114819Y-63319047D01*
X140114819Y-63319047D02*
X140114819Y-63414285D01*
X139448152Y-62128571D02*
X140114819Y-62128571D01*
X139067200Y-62366666D02*
X139781485Y-62604761D01*
X139781485Y-62604761D02*
X139781485Y-61985714D01*
X174716667Y-105057200D02*
X174859524Y-105104819D01*
X174859524Y-105104819D02*
X175097619Y-105104819D01*
X175097619Y-105104819D02*
X175192857Y-105057200D01*
X175192857Y-105057200D02*
X175240476Y-105009580D01*
X175240476Y-105009580D02*
X175288095Y-104914342D01*
X175288095Y-104914342D02*
X175288095Y-104819104D01*
X175288095Y-104819104D02*
X175240476Y-104723866D01*
X175240476Y-104723866D02*
X175192857Y-104676247D01*
X175192857Y-104676247D02*
X175097619Y-104628628D01*
X175097619Y-104628628D02*
X174907143Y-104581009D01*
X174907143Y-104581009D02*
X174811905Y-104533390D01*
X174811905Y-104533390D02*
X174764286Y-104485771D01*
X174764286Y-104485771D02*
X174716667Y-104390533D01*
X174716667Y-104390533D02*
X174716667Y-104295295D01*
X174716667Y-104295295D02*
X174764286Y-104200057D01*
X174764286Y-104200057D02*
X174811905Y-104152438D01*
X174811905Y-104152438D02*
X174907143Y-104104819D01*
X174907143Y-104104819D02*
X175145238Y-104104819D01*
X175145238Y-104104819D02*
X175288095Y-104152438D01*
X175621429Y-104104819D02*
X175859524Y-105104819D01*
X175859524Y-105104819D02*
X176050000Y-104390533D01*
X176050000Y-104390533D02*
X176240476Y-105104819D01*
X176240476Y-105104819D02*
X176478572Y-104104819D01*
X177383333Y-105104819D02*
X176811905Y-105104819D01*
X177097619Y-105104819D02*
X177097619Y-104104819D01*
X177097619Y-104104819D02*
X177002381Y-104247676D01*
X177002381Y-104247676D02*
X176907143Y-104342914D01*
X176907143Y-104342914D02*
X176811905Y-104390533D01*
X208666666Y-54834819D02*
X208666666Y-55549104D01*
X208666666Y-55549104D02*
X208619047Y-55691961D01*
X208619047Y-55691961D02*
X208523809Y-55787200D01*
X208523809Y-55787200D02*
X208380952Y-55834819D01*
X208380952Y-55834819D02*
X208285714Y-55834819D01*
X209095238Y-54930057D02*
X209142857Y-54882438D01*
X209142857Y-54882438D02*
X209238095Y-54834819D01*
X209238095Y-54834819D02*
X209476190Y-54834819D01*
X209476190Y-54834819D02*
X209571428Y-54882438D01*
X209571428Y-54882438D02*
X209619047Y-54930057D01*
X209619047Y-54930057D02*
X209666666Y-55025295D01*
X209666666Y-55025295D02*
X209666666Y-55120533D01*
X209666666Y-55120533D02*
X209619047Y-55263390D01*
X209619047Y-55263390D02*
X209047619Y-55834819D01*
X209047619Y-55834819D02*
X209666666Y-55834819D01*
D13*
X127990000Y-52810000D02*
X127990000Y-51540000D01*
X128830000Y-47922642D02*
X128830000Y-47610000D01*
X128830000Y-50380000D02*
X128830000Y-50077358D01*
X129260000Y-52810000D02*
X127990000Y-52810000D01*
X129690000Y-47922642D02*
X129690000Y-47610000D01*
X129690000Y-50380000D02*
X129690000Y-50077358D01*
X130530000Y-47610000D02*
X130530000Y-44850000D01*
X131370000Y-38850000D02*
X132230000Y-38850000D01*
X131370000Y-44850000D02*
X131370000Y-38850000D01*
X131370000Y-47922642D02*
X131370000Y-47610000D01*
X131370000Y-50462642D02*
X131370000Y-50077358D01*
X132230000Y-38850000D02*
X132230000Y-44850000D01*
X132230000Y-47922642D02*
X132230000Y-47610000D01*
X132230000Y-50462642D02*
X132230000Y-50077358D01*
X133070000Y-47610000D02*
X133070000Y-44850000D01*
X133910000Y-38850000D02*
X134770000Y-38850000D01*
X133910000Y-44850000D02*
X133910000Y-38850000D01*
X133910000Y-47922642D02*
X133910000Y-47610000D01*
X133910000Y-50462642D02*
X133910000Y-50077358D01*
X134770000Y-38850000D02*
X134770000Y-44850000D01*
X134770000Y-47922642D02*
X134770000Y-47610000D01*
X134770000Y-50462642D02*
X134770000Y-50077358D01*
X135610000Y-47610000D02*
X135610000Y-44850000D01*
X136450000Y-38850000D02*
X137310000Y-38850000D01*
X136450000Y-44850000D02*
X136450000Y-38850000D01*
X136450000Y-47922642D02*
X136450000Y-47610000D01*
X136450000Y-50462642D02*
X136450000Y-50077358D01*
X137310000Y-38850000D02*
X137310000Y-44850000D01*
X137310000Y-47922642D02*
X137310000Y-47610000D01*
X137310000Y-50462642D02*
X137310000Y-50077358D01*
X138150000Y-47610000D02*
X138150000Y-44850000D01*
X138990000Y-38850000D02*
X139850000Y-38850000D01*
X138990000Y-44850000D02*
X138990000Y-38850000D01*
X138990000Y-47922642D02*
X138990000Y-47610000D01*
X138990000Y-50462642D02*
X138990000Y-50077358D01*
X139850000Y-38850000D02*
X139850000Y-44850000D01*
X139850000Y-47922642D02*
X139850000Y-47610000D01*
X139850000Y-50462642D02*
X139850000Y-50077358D01*
X140690000Y-47610000D02*
X140690000Y-44850000D01*
X141530000Y-38850000D02*
X142390000Y-38850000D01*
X141530000Y-44850000D02*
X141530000Y-38850000D01*
X141530000Y-47922642D02*
X141530000Y-47610000D01*
X141530000Y-50462642D02*
X141530000Y-50077358D01*
X142390000Y-38850000D02*
X142390000Y-44850000D01*
X142390000Y-47922642D02*
X142390000Y-47610000D01*
X142390000Y-50462642D02*
X142390000Y-50077358D01*
X143230000Y-47610000D02*
X143230000Y-44850000D01*
X144070000Y-38850000D02*
X144930000Y-38850000D01*
X144070000Y-44850000D02*
X144070000Y-38850000D01*
X144070000Y-47922642D02*
X144070000Y-47610000D01*
X144070000Y-50462642D02*
X144070000Y-50077358D01*
X144930000Y-38850000D02*
X144930000Y-44850000D01*
X144930000Y-47922642D02*
X144930000Y-47610000D01*
X144930000Y-50462642D02*
X144930000Y-50077358D01*
X145770000Y-47610000D02*
X145770000Y-44850000D01*
X146610000Y-38850000D02*
X147470000Y-38850000D01*
X146610000Y-44850000D02*
X146610000Y-38850000D01*
X146610000Y-47922642D02*
X146610000Y-47610000D01*
X146610000Y-50462642D02*
X146610000Y-50077358D01*
X147470000Y-38850000D02*
X147470000Y-44850000D01*
X147470000Y-47922642D02*
X147470000Y-47610000D01*
X147470000Y-50462642D02*
X147470000Y-50077358D01*
X148310000Y-47610000D02*
X148310000Y-44850000D01*
X149150000Y-38850000D02*
X150010000Y-38850000D01*
X149150000Y-44850000D02*
X149150000Y-38850000D01*
X149150000Y-47922642D02*
X149150000Y-47610000D01*
X149150000Y-50462642D02*
X149150000Y-50077358D01*
X150010000Y-38850000D02*
X150010000Y-44850000D01*
X150010000Y-47922642D02*
X150010000Y-47610000D01*
X150010000Y-50462642D02*
X150010000Y-50077358D01*
X150850000Y-47610000D02*
X150850000Y-44850000D01*
X151690000Y-38850000D02*
X152550000Y-38850000D01*
X151690000Y-44850000D02*
X151690000Y-38850000D01*
X151690000Y-47922642D02*
X151690000Y-47610000D01*
X151690000Y-50462642D02*
X151690000Y-50077358D01*
X152550000Y-38850000D02*
X152550000Y-44850000D01*
X152550000Y-47922642D02*
X152550000Y-47610000D01*
X152550000Y-50462642D02*
X152550000Y-50077358D01*
X153390000Y-47610000D02*
X153390000Y-44850000D01*
X154230000Y-38850000D02*
X155090000Y-38850000D01*
X154230000Y-44850000D02*
X154230000Y-38850000D01*
X154230000Y-47922642D02*
X154230000Y-47610000D01*
X154230000Y-50462642D02*
X154230000Y-50077358D01*
X155090000Y-38850000D02*
X155090000Y-44850000D01*
X155090000Y-47922642D02*
X155090000Y-47610000D01*
X155090000Y-50462642D02*
X155090000Y-50077358D01*
X155930000Y-47610000D02*
X155930000Y-44850000D01*
X156770000Y-38850000D02*
X157630000Y-38850000D01*
X156770000Y-44850000D02*
X156770000Y-38850000D01*
X156770000Y-47922642D02*
X156770000Y-47610000D01*
X156770000Y-50462642D02*
X156770000Y-50077358D01*
X157630000Y-38850000D02*
X157630000Y-44850000D01*
X157630000Y-47922642D02*
X157630000Y-47610000D01*
X157630000Y-50462642D02*
X157630000Y-50077358D01*
X158470000Y-47610000D02*
X158470000Y-44850000D01*
X159310000Y-38850000D02*
X160170000Y-38850000D01*
X159310000Y-44850000D02*
X159310000Y-38850000D01*
X159310000Y-47922642D02*
X159310000Y-47610000D01*
X159310000Y-50462642D02*
X159310000Y-50077358D01*
X160170000Y-38850000D02*
X160170000Y-44850000D01*
X160170000Y-47922642D02*
X160170000Y-47610000D01*
X160170000Y-50462642D02*
X160170000Y-50077358D01*
X161010000Y-47610000D02*
X161010000Y-44850000D01*
X161850000Y-38850000D02*
X162710000Y-38850000D01*
X161850000Y-44850000D02*
X161850000Y-38850000D01*
X161850000Y-47922642D02*
X161850000Y-47610000D01*
X161850000Y-50462642D02*
X161850000Y-50077358D01*
X162710000Y-38850000D02*
X162710000Y-44850000D01*
X162710000Y-47922642D02*
X162710000Y-47610000D01*
X162710000Y-50462642D02*
X162710000Y-50077358D01*
X163550000Y-47610000D02*
X163550000Y-44850000D01*
X164390000Y-38850000D02*
X165250000Y-38850000D01*
X164390000Y-44850000D02*
X164390000Y-38850000D01*
X164390000Y-47922642D02*
X164390000Y-47610000D01*
X164390000Y-50462642D02*
X164390000Y-50077358D01*
X165250000Y-38850000D02*
X165250000Y-44850000D01*
X165250000Y-47922642D02*
X165250000Y-47610000D01*
X165250000Y-50462642D02*
X165250000Y-50077358D01*
X166090000Y-47610000D02*
X166090000Y-44850000D01*
X166930000Y-38850000D02*
X167790000Y-38850000D01*
X166930000Y-44850000D02*
X166930000Y-38850000D01*
X166930000Y-47922642D02*
X166930000Y-47610000D01*
X166930000Y-50462642D02*
X166930000Y-50077358D01*
X167790000Y-38850000D02*
X167790000Y-44850000D01*
X167790000Y-47922642D02*
X167790000Y-47610000D01*
X167790000Y-50462642D02*
X167790000Y-50077358D01*
X168630000Y-47610000D02*
X168630000Y-44850000D01*
X169470000Y-38850000D02*
X170330000Y-38850000D01*
X169470000Y-44850000D02*
X169470000Y-38850000D01*
X169470000Y-47922642D02*
X169470000Y-47610000D01*
X169470000Y-50462642D02*
X169470000Y-50077358D01*
X170330000Y-38850000D02*
X170330000Y-44850000D01*
X170330000Y-47922642D02*
X170330000Y-47610000D01*
X170330000Y-50462642D02*
X170330000Y-50077358D01*
X171170000Y-47610000D02*
X171170000Y-44850000D01*
X172010000Y-38850000D02*
X172870000Y-38850000D01*
X172010000Y-44850000D02*
X172010000Y-38850000D01*
X172010000Y-47922642D02*
X172010000Y-47610000D01*
X172010000Y-50462642D02*
X172010000Y-50077358D01*
X172870000Y-38850000D02*
X172870000Y-44850000D01*
X172870000Y-47922642D02*
X172870000Y-47610000D01*
X172870000Y-50462642D02*
X172870000Y-50077358D01*
X173710000Y-47610000D02*
X173710000Y-44850000D01*
X174550000Y-38850000D02*
X175410000Y-38850000D01*
X174550000Y-44850000D02*
X174550000Y-38850000D01*
X174550000Y-47922642D02*
X174550000Y-47610000D01*
X174550000Y-50462642D02*
X174550000Y-50077358D01*
X175410000Y-38850000D02*
X175410000Y-44850000D01*
X175410000Y-47922642D02*
X175410000Y-47610000D01*
X175410000Y-50462642D02*
X175410000Y-50077358D01*
X176250000Y-47610000D02*
X176250000Y-44850000D01*
X177090000Y-38850000D02*
X177950000Y-38850000D01*
X177090000Y-44850000D02*
X177090000Y-38850000D01*
X177090000Y-47922642D02*
X177090000Y-47610000D01*
X177090000Y-50462642D02*
X177090000Y-50077358D01*
X177950000Y-38850000D02*
X177950000Y-44850000D01*
X177950000Y-47922642D02*
X177950000Y-47610000D01*
X177950000Y-50462642D02*
X177950000Y-50077358D01*
X178790000Y-47610000D02*
X178790000Y-44850000D01*
X179630000Y-38850000D02*
X180490000Y-38850000D01*
X179630000Y-44850000D02*
X179630000Y-38850000D01*
X179630000Y-47922642D02*
X179630000Y-47610000D01*
X179630000Y-50462642D02*
X179630000Y-50077358D01*
X180490000Y-38850000D02*
X180490000Y-44850000D01*
X180490000Y-47922642D02*
X180490000Y-47610000D01*
X180490000Y-50462642D02*
X180490000Y-50077358D01*
X181330000Y-47610000D02*
X181330000Y-44850000D01*
X182170000Y-38850000D02*
X183030000Y-38850000D01*
X182170000Y-44850000D02*
X182170000Y-38850000D01*
X182170000Y-47922642D02*
X182170000Y-47610000D01*
X182170000Y-50462642D02*
X182170000Y-50077358D01*
X183030000Y-38850000D02*
X183030000Y-44850000D01*
X183030000Y-47922642D02*
X183030000Y-47610000D01*
X183030000Y-50462642D02*
X183030000Y-50077358D01*
X183870000Y-47610000D02*
X183870000Y-44850000D01*
X184710000Y-38850000D02*
X185570000Y-38850000D01*
X184710000Y-44850000D02*
X184710000Y-38850000D01*
X184710000Y-47922642D02*
X184710000Y-47610000D01*
X184710000Y-50462642D02*
X184710000Y-50077358D01*
X185570000Y-38850000D02*
X185570000Y-44850000D01*
X185570000Y-47922642D02*
X185570000Y-47610000D01*
X185570000Y-50462642D02*
X185570000Y-50077358D01*
X186410000Y-47610000D02*
X186410000Y-44850000D01*
X187250000Y-38850000D02*
X188110000Y-38850000D01*
X187250000Y-44850000D02*
X187250000Y-38850000D01*
X187250000Y-47922642D02*
X187250000Y-47610000D01*
X187250000Y-50462642D02*
X187250000Y-50077358D01*
X188110000Y-38850000D02*
X188110000Y-44850000D01*
X188110000Y-47922642D02*
X188110000Y-47610000D01*
X188110000Y-50462642D02*
X188110000Y-50077358D01*
X188950000Y-47610000D02*
X188950000Y-44850000D01*
X189790000Y-38850000D02*
X190650000Y-38850000D01*
X189790000Y-44850000D02*
X189790000Y-38850000D01*
X189790000Y-47922642D02*
X189790000Y-47610000D01*
X189790000Y-50462642D02*
X189790000Y-50077358D01*
X190650000Y-38850000D02*
X190650000Y-44850000D01*
X190650000Y-47922642D02*
X190650000Y-47610000D01*
X190650000Y-50462642D02*
X190650000Y-50077358D01*
X127880000Y-44850000D02*
X191600000Y-44850000D01*
X191600000Y-47610000D01*
X127880000Y-47610000D01*
X127880000Y-44850000D01*
X128830000Y-38850000D02*
X129690000Y-38850000D01*
X129690000Y-44850000D01*
X128830000Y-44850000D01*
X128830000Y-38850000D01*
G36*
X128830000Y-38850000D02*
G01*
X129690000Y-38850000D01*
X129690000Y-44850000D01*
X128830000Y-44850000D01*
X128830000Y-38850000D01*
G37*
X117670000Y-51377600D02*
X115489000Y-51377600D01*
X117670000Y-51417600D02*
X115492000Y-51417600D01*
X117670000Y-51457600D02*
X115496000Y-51457600D01*
X117670000Y-51497600D02*
X115500000Y-51497600D01*
X117670000Y-51537600D02*
X115505000Y-51537600D01*
X117670000Y-51577600D02*
X115510000Y-51577600D01*
X117670000Y-51617600D02*
X115515000Y-51617600D01*
X117670000Y-51657600D02*
X115522000Y-51657600D01*
X117670000Y-51697600D02*
X115528000Y-51697600D01*
X117670000Y-51737600D02*
X115536000Y-51737600D01*
X117670000Y-51777600D02*
X115543000Y-51777600D01*
X117670000Y-51817600D02*
X115551000Y-51817600D01*
X117670000Y-51857600D02*
X115560000Y-51857600D01*
X117670000Y-51897600D02*
X115570000Y-51897600D01*
X117670000Y-51937600D02*
X115579000Y-51937600D01*
X117670000Y-51977600D02*
X115590000Y-51977600D01*
X117670000Y-52017600D02*
X115601000Y-52017600D01*
X117670000Y-52057600D02*
X115612000Y-52057600D01*
X117670000Y-52097600D02*
X115624000Y-52097600D01*
X117670000Y-52137600D02*
X115637000Y-52137600D01*
X117670000Y-52177600D02*
X115650000Y-52177600D01*
X117670000Y-52217600D02*
X115663000Y-52217600D01*
X117670000Y-52257600D02*
X115678000Y-52257600D01*
X117670000Y-52297600D02*
X115693000Y-52297600D01*
X117670000Y-52337600D02*
X115708000Y-52337600D01*
X117670000Y-52377600D02*
X115724000Y-52377600D01*
X117670000Y-52417600D02*
X115741000Y-52417600D01*
X117670000Y-52457600D02*
X115758000Y-52457600D01*
X117670000Y-52497600D02*
X115776000Y-52497600D01*
X117670000Y-52537600D02*
X115795000Y-52537600D01*
X117670000Y-52577600D02*
X115814000Y-52577600D01*
X117670000Y-52617600D02*
X115834000Y-52617600D01*
X117670000Y-52657600D02*
X115855000Y-52657600D01*
X117670000Y-52697600D02*
X115876000Y-52697600D01*
X117670000Y-52737600D02*
X115898000Y-52737600D01*
X117670000Y-52777600D02*
X115921000Y-52777600D01*
X117670000Y-52817600D02*
X115945000Y-52817600D01*
X117670000Y-52857600D02*
X115969000Y-52857600D01*
X117670000Y-52897600D02*
X115994000Y-52897600D01*
X117670000Y-52937600D02*
X116020000Y-52937600D01*
X117670000Y-52977600D02*
X116047000Y-52977600D01*
X117670000Y-53017600D02*
X116074000Y-53017600D01*
X117670000Y-53057600D02*
X116103000Y-53057600D01*
X117670000Y-53097600D02*
X116133000Y-53097600D01*
X117670000Y-53137600D02*
X116163000Y-53137600D01*
X117670000Y-53177600D02*
X116194000Y-53177600D01*
X117670000Y-53217600D02*
X116227000Y-53217600D01*
X117670000Y-53257600D02*
X116260000Y-53257600D01*
X117670000Y-53297600D02*
X116295000Y-53297600D01*
X117670000Y-53337600D02*
X116331000Y-53337600D01*
X117670000Y-53377600D02*
X116368000Y-53377600D01*
X117670000Y-53417600D02*
X116406000Y-53417600D01*
X119112000Y-54377600D02*
X118308000Y-54377600D01*
X119343000Y-54337600D02*
X118077000Y-54337600D01*
X119511000Y-54297600D02*
X117909000Y-54297600D01*
X119649000Y-54257600D02*
X117771000Y-54257600D01*
X119768000Y-54217600D02*
X117652000Y-54217600D01*
X119875000Y-54177600D02*
X117545000Y-54177600D01*
X119971000Y-54137600D02*
X117449000Y-54137600D01*
X120060000Y-54097600D02*
X117360000Y-54097600D01*
X120142000Y-54057600D02*
X117278000Y-54057600D01*
X120219000Y-54017600D02*
X117201000Y-54017600D01*
X120291000Y-53977600D02*
X117129000Y-53977600D01*
X120359000Y-53937600D02*
X117061000Y-53937600D01*
X120424000Y-53897600D02*
X116996000Y-53897600D01*
X120485000Y-53857600D02*
X116935000Y-53857600D01*
X120544000Y-53817600D02*
X116876000Y-53817600D01*
X120549000Y-47637359D02*
X120549000Y-48267359D01*
X120600000Y-53777600D02*
X116820000Y-53777600D01*
X120653000Y-53737600D02*
X116767000Y-53737600D01*
X120705000Y-53697600D02*
X116715000Y-53697600D01*
X120754000Y-53657600D02*
X116666000Y-53657600D01*
X120801000Y-53617600D02*
X116619000Y-53617600D01*
X120847000Y-53577600D02*
X116573000Y-53577600D01*
X120864000Y-47952359D02*
X120234000Y-47952359D01*
X120891000Y-53537600D02*
X116529000Y-53537600D01*
X120933000Y-53497600D02*
X116487000Y-53497600D01*
X120974000Y-53457600D02*
X116446000Y-53457600D01*
X121014000Y-53417600D02*
X119750000Y-53417600D01*
X121052000Y-53377600D02*
X119750000Y-53377600D01*
X121089000Y-53337600D02*
X119750000Y-53337600D01*
X121125000Y-53297600D02*
X119750000Y-53297600D01*
X121160000Y-53257600D02*
X119750000Y-53257600D01*
X121193000Y-53217600D02*
X119750000Y-53217600D01*
X121226000Y-53177600D02*
X119750000Y-53177600D01*
X121257000Y-53137600D02*
X119750000Y-53137600D01*
X121287000Y-53097600D02*
X119750000Y-53097600D01*
X121317000Y-53057600D02*
X119750000Y-53057600D01*
X121346000Y-53017600D02*
X119750000Y-53017600D01*
X121373000Y-52977600D02*
X119750000Y-52977600D01*
X121400000Y-52937600D02*
X119750000Y-52937600D01*
X121426000Y-52897600D02*
X119750000Y-52897600D01*
X121451000Y-52857600D02*
X119750000Y-52857600D01*
X121475000Y-52817600D02*
X119750000Y-52817600D01*
X121499000Y-52777600D02*
X119750000Y-52777600D01*
X121522000Y-52737600D02*
X119750000Y-52737600D01*
X121544000Y-52697600D02*
X119750000Y-52697600D01*
X121565000Y-52657600D02*
X119750000Y-52657600D01*
X121586000Y-52617600D02*
X119750000Y-52617600D01*
X121606000Y-52577600D02*
X119750000Y-52577600D01*
X121625000Y-52537600D02*
X119750000Y-52537600D01*
X121644000Y-52497600D02*
X119750000Y-52497600D01*
X121662000Y-52457600D02*
X119750000Y-52457600D01*
X121679000Y-52417600D02*
X119750000Y-52417600D01*
X121696000Y-52377600D02*
X119750000Y-52377600D01*
X121712000Y-52337600D02*
X119750000Y-52337600D01*
X121727000Y-52297600D02*
X119750000Y-52297600D01*
X121742000Y-52257600D02*
X119750000Y-52257600D01*
X121757000Y-52217600D02*
X119750000Y-52217600D01*
X121770000Y-52177600D02*
X119750000Y-52177600D01*
X121783000Y-52137600D02*
X119750000Y-52137600D01*
X121796000Y-52097600D02*
X119750000Y-52097600D01*
X121808000Y-52057600D02*
X119750000Y-52057600D01*
X121819000Y-52017600D02*
X119750000Y-52017600D01*
X121830000Y-51977600D02*
X119750000Y-51977600D01*
X121841000Y-51937600D02*
X119750000Y-51937600D01*
X121850000Y-51897600D02*
X119750000Y-51897600D01*
X121860000Y-51857600D02*
X119750000Y-51857600D01*
X121869000Y-51817600D02*
X119750000Y-51817600D01*
X121877000Y-51777600D02*
X119750000Y-51777600D01*
X121884000Y-51737600D02*
X119750000Y-51737600D01*
X121892000Y-51697600D02*
X119750000Y-51697600D01*
X121898000Y-51657600D02*
X119750000Y-51657600D01*
X121905000Y-51617600D02*
X119750000Y-51617600D01*
X121910000Y-51577600D02*
X119750000Y-51577600D01*
X121915000Y-51537600D02*
X119750000Y-51537600D01*
X121920000Y-51497600D02*
X119750000Y-51497600D01*
X121924000Y-51457600D02*
X119750000Y-51457600D01*
X121928000Y-51417600D02*
X119750000Y-51417600D01*
X121931000Y-51377600D02*
X119750000Y-51377600D01*
X121934000Y-51337600D02*
X115486000Y-51337600D01*
X121936000Y-51297600D02*
X115484000Y-51297600D01*
X121938000Y-51257600D02*
X115482000Y-51257600D01*
X121939000Y-51217600D02*
X115481000Y-51217600D01*
X121940000Y-51137600D02*
X115480000Y-51137600D01*
X121940000Y-51177600D02*
X115480000Y-51177600D01*
X121980000Y-51137600D02*
G75*
G02*
X115440000Y-51137600I-3270000J0D01*
G01*
X115440000Y-51137600D02*
G75*
G02*
X121980000Y-51137600I3270000J0D01*
G01*
X185920000Y-56050000D02*
X185920000Y-106970000D01*
X185920000Y-106970000D02*
X198840000Y-106970000D01*
X191380000Y-56050000D02*
X185920000Y-56050000D01*
X198840000Y-56050000D02*
X193380000Y-56050000D01*
X198840000Y-106970000D02*
X198840000Y-56050000D01*
X183430000Y-55990000D02*
X201330000Y-55990000D01*
X201330000Y-107030000D01*
X183430000Y-107030000D01*
X183430000Y-55990000D01*
X193380000Y-56050000D02*
G75*
G02*
X191380000Y-56050000I-1000000J0D01*
G01*
X149370000Y-63377358D02*
X149370000Y-63690000D01*
X149370000Y-72450000D02*
X149370000Y-66450000D01*
X150230000Y-63377358D02*
X150230000Y-63690000D01*
X150230000Y-66450000D02*
X150230000Y-72450000D01*
X150230000Y-72450000D02*
X149370000Y-72450000D01*
X151070000Y-63690000D02*
X151070000Y-66450000D01*
X151910000Y-63377358D02*
X151910000Y-63690000D01*
X151910000Y-72450000D02*
X151910000Y-66450000D01*
X152770000Y-63377358D02*
X152770000Y-63690000D01*
X152770000Y-66450000D02*
X152770000Y-72450000D01*
X152770000Y-72450000D02*
X151910000Y-72450000D01*
X153610000Y-63690000D02*
X153610000Y-66450000D01*
X154450000Y-63377358D02*
X154450000Y-63690000D01*
X154450000Y-72450000D02*
X154450000Y-66450000D01*
X155310000Y-63377358D02*
X155310000Y-63690000D01*
X155310000Y-66450000D02*
X155310000Y-72450000D01*
X155310000Y-72450000D02*
X154450000Y-72450000D01*
X156150000Y-63690000D02*
X156150000Y-66450000D01*
X156990000Y-63377358D02*
X156990000Y-63690000D01*
X156990000Y-72450000D02*
X156990000Y-66450000D01*
X157850000Y-63377358D02*
X157850000Y-63690000D01*
X157850000Y-66450000D02*
X157850000Y-72450000D01*
X157850000Y-72450000D02*
X156990000Y-72450000D01*
X158690000Y-63690000D02*
X158690000Y-66450000D01*
X159530000Y-63377358D02*
X159530000Y-63690000D01*
X159530000Y-72450000D02*
X159530000Y-66450000D01*
X160390000Y-63377358D02*
X160390000Y-63690000D01*
X160390000Y-66450000D02*
X160390000Y-72450000D01*
X160390000Y-72450000D02*
X159530000Y-72450000D01*
X161230000Y-63690000D02*
X161230000Y-66450000D01*
X162070000Y-63460000D02*
X162070000Y-63690000D01*
X162500000Y-61030000D02*
X163770000Y-61030000D01*
X162930000Y-63460000D02*
X162930000Y-63690000D01*
X163770000Y-61030000D02*
X163770000Y-62300000D01*
X162070000Y-66450000D02*
X162930000Y-66450000D01*
X162930000Y-72450000D01*
X162070000Y-72450000D01*
X162070000Y-66450000D01*
G36*
X162070000Y-66450000D02*
G01*
X162930000Y-66450000D01*
X162930000Y-72450000D01*
X162070000Y-72450000D01*
X162070000Y-66450000D01*
G37*
X148420000Y-63690000D02*
X163880000Y-63690000D01*
X163880000Y-66450000D01*
X148420000Y-66450000D01*
X148420000Y-63690000D01*
X203080000Y-79515000D02*
X203080000Y-77985000D01*
X204920000Y-77985000D02*
X204920000Y-79515000D01*
X179080000Y-85015000D02*
X179080000Y-83485000D01*
X180920000Y-83485000D02*
X180920000Y-85015000D01*
X137030000Y-59910000D02*
X137030000Y-57290000D01*
X116630000Y-57290000D02*
X139650000Y-57290000D01*
X139650000Y-59910000D01*
X116630000Y-59910000D01*
X116630000Y-57290000D01*
X175035000Y-95480000D02*
X176565000Y-95480000D01*
X176565000Y-97320000D02*
X175035000Y-97320000D01*
X172180000Y-91900000D02*
X172950000Y-91900000D01*
X180260000Y-91900000D02*
X179490000Y-91900000D01*
X172950000Y-90530000D02*
X179490000Y-90530000D01*
X179490000Y-93270000D01*
X172950000Y-93270000D01*
X172950000Y-90530000D01*
X123070000Y-63277358D02*
X123070000Y-63590000D01*
X123070000Y-72350000D02*
X123070000Y-66350000D01*
X123930000Y-63277358D02*
X123930000Y-63590000D01*
X123930000Y-66350000D02*
X123930000Y-72350000D01*
X123930000Y-72350000D02*
X123070000Y-72350000D01*
X124770000Y-63590000D02*
X124770000Y-66350000D01*
X125610000Y-63277358D02*
X125610000Y-63590000D01*
X125610000Y-72350000D02*
X125610000Y-66350000D01*
X126470000Y-63277358D02*
X126470000Y-63590000D01*
X126470000Y-66350000D02*
X126470000Y-72350000D01*
X126470000Y-72350000D02*
X125610000Y-72350000D01*
X127310000Y-63590000D02*
X127310000Y-66350000D01*
X128150000Y-63277358D02*
X128150000Y-63590000D01*
X128150000Y-72350000D02*
X128150000Y-66350000D01*
X129010000Y-63277358D02*
X129010000Y-63590000D01*
X129010000Y-66350000D02*
X129010000Y-72350000D01*
X129010000Y-72350000D02*
X128150000Y-72350000D01*
X129850000Y-63590000D02*
X129850000Y-66350000D01*
X130690000Y-63277358D02*
X130690000Y-63590000D01*
X130690000Y-72350000D02*
X130690000Y-66350000D01*
X131550000Y-63277358D02*
X131550000Y-63590000D01*
X131550000Y-66350000D02*
X131550000Y-72350000D01*
X131550000Y-72350000D02*
X130690000Y-72350000D01*
X132390000Y-63590000D02*
X132390000Y-66350000D01*
X133230000Y-63277358D02*
X133230000Y-63590000D01*
X133230000Y-72350000D02*
X133230000Y-66350000D01*
X134090000Y-63277358D02*
X134090000Y-63590000D01*
X134090000Y-66350000D02*
X134090000Y-72350000D01*
X134090000Y-72350000D02*
X133230000Y-72350000D01*
X134930000Y-63590000D02*
X134930000Y-66350000D01*
X135770000Y-63360000D02*
X135770000Y-63590000D01*
X136200000Y-60930000D02*
X137470000Y-60930000D01*
X136630000Y-63360000D02*
X136630000Y-63590000D01*
X137470000Y-60930000D02*
X137470000Y-62200000D01*
X135770000Y-66350000D02*
X136630000Y-66350000D01*
X136630000Y-72350000D01*
X135770000Y-72350000D01*
X135770000Y-66350000D01*
G36*
X135770000Y-66350000D02*
G01*
X136630000Y-66350000D01*
X136630000Y-72350000D01*
X135770000Y-72350000D01*
X135770000Y-66350000D01*
G37*
X122120000Y-63590000D02*
X137580000Y-63590000D01*
X137580000Y-66350000D01*
X122120000Y-66350000D01*
X122120000Y-63590000D01*
X172550000Y-103900000D02*
X172550000Y-105400000D01*
X173800000Y-107900000D02*
X178300000Y-107900000D01*
X178300000Y-101400000D02*
X173800000Y-101400000D01*
X179550000Y-105400000D02*
X179550000Y-103900000D01*
X203345000Y-56380000D02*
X204615000Y-56380000D01*
X203345000Y-57650000D02*
X203345000Y-56380000D01*
X205692358Y-59760000D02*
X206005000Y-59760000D01*
X205692358Y-60620000D02*
X206005000Y-60620000D01*
X205692358Y-62300000D02*
X206005000Y-62300000D01*
X205692358Y-63160000D02*
X206005000Y-63160000D01*
X205692358Y-64840000D02*
X206005000Y-64840000D01*
X205692358Y-65700000D02*
X206005000Y-65700000D01*
X205692358Y-67380000D02*
X206005000Y-67380000D01*
X205692358Y-68240000D02*
X206005000Y-68240000D01*
X205692358Y-69920000D02*
X206005000Y-69920000D01*
X205692358Y-70780000D02*
X206005000Y-70780000D01*
X205775000Y-57220000D02*
X206005000Y-57220000D01*
X205775000Y-58080000D02*
X206005000Y-58080000D01*
X206005000Y-58920000D02*
X208765000Y-58920000D01*
X206005000Y-61460000D02*
X208765000Y-61460000D01*
X206005000Y-64000000D02*
X208765000Y-64000000D01*
X206005000Y-66540000D02*
X208765000Y-66540000D01*
X206005000Y-69080000D02*
X208765000Y-69080000D01*
X208765000Y-59760000D02*
X214765000Y-59760000D01*
X208765000Y-62300000D02*
X214765000Y-62300000D01*
X208765000Y-64840000D02*
X214765000Y-64840000D01*
X208765000Y-67380000D02*
X214765000Y-67380000D01*
X208765000Y-69920000D02*
X214765000Y-69920000D01*
X214765000Y-59760000D02*
X214765000Y-60620000D01*
X214765000Y-60620000D02*
X208765000Y-60620000D01*
X214765000Y-62300000D02*
X214765000Y-63160000D01*
X214765000Y-63160000D02*
X208765000Y-63160000D01*
X214765000Y-64840000D02*
X214765000Y-65700000D01*
X214765000Y-65700000D02*
X208765000Y-65700000D01*
X214765000Y-67380000D02*
X214765000Y-68240000D01*
X214765000Y-68240000D02*
X208765000Y-68240000D01*
X214765000Y-69920000D02*
X214765000Y-70780000D01*
X214765000Y-70780000D02*
X208765000Y-70780000D01*
X206005000Y-56270000D02*
X208765000Y-56270000D01*
X208765000Y-71730000D01*
X206005000Y-71730000D01*
X206005000Y-56270000D01*
X208765000Y-57220000D02*
X214765000Y-57220000D01*
X214765000Y-58080000D01*
X208765000Y-58080000D01*
X208765000Y-57220000D01*
G36*
X208765000Y-57220000D02*
G01*
X214765000Y-57220000D01*
X214765000Y-58080000D01*
X208765000Y-58080000D01*
X208765000Y-57220000D01*
G37*
M02*
