M48
; DRILL file KiCad 10.0.3 date 2026-06-23T22:44:03
; FORMAT={-:-/ absolute / metric / decimal}
; #@! TF.CreationDate,2026-06-23T22:44:03+09:00
; #@! TF.GenerationSoftware,Kicad,Pcbnew,10.0.3
; #@! TF.FileFunction,MixedPlating,1,2
FMAT,2
METRIC
; #@! TA.AperFunction,Plated,PTH,ViaDrill
T1C0.300
; #@! TA.AperFunction,Plated,PTH,ComponentDrill
T2C0.800
; #@! TA.AperFunction,Plated,PTH,ComponentDrill
T3C1.000
; #@! TA.AperFunction,Plated,PTH,ComponentDrill
T4C1.100
; #@! TA.AperFunction,NonPlated,NPTH,ComponentDrill
T5C3.200
%
G90
G05
T1
X134.28Y-56.175
X167.624Y-73.89
X173.168Y-94.159
X176.043Y-93.017
X176.254Y-94.085
X177.095Y-83.573
X177.449Y-65.0
X180.211Y-55.937
X183.15Y-56.999
X185.871Y-58.449
X186.554Y-64.844
X198.56Y-53.139
T2
X117.98Y-58.6
X118.71Y-49.888
X118.71Y-52.388
X120.52Y-58.6
X123.06Y-58.6
X125.6Y-58.6
X128.14Y-58.6
X130.68Y-58.6
X133.22Y-58.6
X135.76Y-58.6
X138.3Y-58.6
X171.14Y-91.9
X174.55Y-96.4
X177.05Y-96.4
X180.0Y-83.0
X180.0Y-85.5
X181.3Y-91.9
X184.76Y-57.38
X184.76Y-59.92
X184.76Y-62.46
X184.76Y-65.0
X184.76Y-67.54
X184.76Y-70.08
X184.76Y-72.62
X184.76Y-75.16
X184.76Y-77.7
X184.76Y-80.24
X184.76Y-82.78
X184.76Y-85.32
X184.76Y-87.86
X184.76Y-90.4
X184.76Y-92.94
X184.76Y-95.48
X184.76Y-98.02
X184.76Y-100.56
X184.76Y-103.1
X184.76Y-105.64
X200.0Y-57.38
X200.0Y-59.92
X200.0Y-62.46
X200.0Y-65.0
X200.0Y-67.54
X200.0Y-70.08
X200.0Y-72.62
X200.0Y-75.16
X200.0Y-77.7
X200.0Y-80.24
X200.0Y-82.78
X200.0Y-85.32
X200.0Y-87.86
X200.0Y-90.4
X200.0Y-92.94
X200.0Y-95.48
X200.0Y-98.02
X200.0Y-100.56
X200.0Y-103.1
X200.0Y-105.64
X204.0Y-77.5
X204.0Y-80.0
T3
X123.5Y-62.2
X126.04Y-62.2
X128.58Y-62.2
X129.26Y-49.0
X129.26Y-51.54
X131.12Y-62.2
X131.8Y-49.0
X131.8Y-51.54
X133.66Y-62.2
X134.34Y-49.0
X134.34Y-51.54
X136.2Y-62.2
X136.88Y-49.0
X136.88Y-51.54
X139.42Y-49.0
X139.42Y-51.54
X141.96Y-49.0
X141.96Y-51.54
X144.5Y-49.0
X144.5Y-51.54
X147.04Y-49.0
X147.04Y-51.54
X149.58Y-49.0
X149.58Y-51.54
X149.8Y-62.3
X152.12Y-49.0
X152.12Y-51.54
X152.34Y-62.3
X154.66Y-49.0
X154.66Y-51.54
X154.88Y-62.3
X157.2Y-49.0
X157.2Y-51.54
X157.42Y-62.3
X159.74Y-49.0
X159.74Y-51.54
X159.96Y-62.3
X162.28Y-49.0
X162.28Y-51.54
X162.5Y-62.3
X164.82Y-49.0
X164.82Y-51.54
X167.36Y-49.0
X167.36Y-51.54
X169.9Y-49.0
X169.9Y-51.54
X172.44Y-49.0
X172.44Y-51.54
X174.98Y-49.0
X174.98Y-51.54
X177.52Y-49.0
X177.52Y-51.54
X180.06Y-49.0
X180.06Y-51.54
X182.6Y-49.0
X182.6Y-51.54
X185.14Y-49.0
X185.14Y-51.54
X187.68Y-49.0
X187.68Y-51.54
X190.22Y-49.0
X190.22Y-51.54
X204.615Y-57.65
X204.615Y-60.19
X204.615Y-62.73
X204.615Y-65.27
X204.615Y-67.81
X204.615Y-70.35
T4
X172.8Y-102.4
X172.8Y-106.9
X179.3Y-102.4
X179.3Y-106.9
T5
X115.5Y-110.5
X115.5Y-44.515
X204.5Y-44.5
X204.5Y-110.5
M30
