G04 #@! TF.GenerationSoftware,KiCad,Pcbnew,10.0.3*
G04 #@! TF.CreationDate,2026-06-23T22:43:44+09:00*
G04 #@! TF.ProjectId,PC8001extSDRTC,50433830-3031-4657-9874-53445254432e,rev?*
G04 #@! TF.SameCoordinates,Original*
G04 #@! TF.FileFunction,Copper,L1,Top*
G04 #@! TF.FilePolarity,Positive*
%FSLAX46Y46*%
G04 Gerber Fmt 4.6, Leading zero omitted, Abs format (unit mm)*
G04 Created by KiCad (PCBNEW 10.0.3) date 2026-06-23 22:43:44*
%MOMM*%
%LPD*%
G01*
G04 APERTURE LIST*
G04 Aperture macros list*
%AMRoundRect*
0 Rectangle with rounded corners*
0 $1 Rounding radius*
0 $2 $3 $4 $5 $6 $7 $8 $9 X,Y pos of 4 corners*
0 Add a 4 corners polygon primitive as box body*
4,1,4,$2,$3,$4,$5,$6,$7,$8,$9,$2,$3,0*
0 Add four circle primitives for the rounded corners*
1,1,$1+$1,$2,$3*
1,1,$1+$1,$4,$5*
1,1,$1+$1,$6,$7*
1,1,$1+$1,$8,$9*
0 Add four rect primitives between the rounded corners*
20,1,$1+$1,$2,$3,$4,$5,0*
20,1,$1+$1,$4,$5,$6,$7,0*
20,1,$1+$1,$6,$7,$8,$9,0*
20,1,$1+$1,$8,$9,$2,$3,0*%
G04 Aperture macros list end*
G04 #@! TA.AperFunction,ComponentPad*
%ADD10R,1.700000X1.700000*%
G04 #@! TD*
G04 #@! TA.AperFunction,ComponentPad*
%ADD11C,1.700000*%
G04 #@! TD*
G04 #@! TA.AperFunction,ComponentPad*
%ADD12RoundRect,0.250000X-0.550000X0.550000X-0.550000X-0.550000X0.550000X-0.550000X0.550000X0.550000X0*%
G04 #@! TD*
G04 #@! TA.AperFunction,ComponentPad*
%ADD13C,1.600000*%
G04 #@! TD*
G04 #@! TA.AperFunction,ComponentPad*
%ADD14RoundRect,0.250000X-0.550000X-0.550000X0.550000X-0.550000X0.550000X0.550000X-0.550000X0.550000X0*%
G04 #@! TD*
G04 #@! TA.AperFunction,ComponentPad*
%ADD15R,1.600000X1.600000*%
G04 #@! TD*
G04 #@! TA.AperFunction,ComponentPad*
%ADD16C,2.000000*%
G04 #@! TD*
G04 #@! TA.AperFunction,ViaPad*
%ADD17C,0.600000*%
G04 #@! TD*
G04 #@! TA.AperFunction,Conductor*
%ADD18C,0.600000*%
G04 #@! TD*
G04 #@! TA.AperFunction,Conductor*
%ADD19C,0.200000*%
G04 #@! TD*
G04 APERTURE END LIST*
D10*
X129260000Y-51540000D03*
D11*
X129260000Y-49000000D03*
X131800000Y-51540000D03*
X131800000Y-49000000D03*
X134340000Y-51540000D03*
X134340000Y-49000000D03*
X136880000Y-51540000D03*
X136880000Y-49000000D03*
X139420000Y-51540000D03*
X139420000Y-49000000D03*
X141960000Y-51540000D03*
X141960000Y-49000000D03*
X144500000Y-51540000D03*
X144500000Y-49000000D03*
X147040000Y-51540000D03*
X147040000Y-49000000D03*
X149580000Y-51540000D03*
X149580000Y-49000000D03*
X152120000Y-51540000D03*
X152120000Y-49000000D03*
X154660000Y-51540000D03*
X154660000Y-49000000D03*
X157200000Y-51540000D03*
X157200000Y-49000000D03*
X159740000Y-51540000D03*
X159740000Y-49000000D03*
X162280000Y-51540000D03*
X162280000Y-49000000D03*
X164820000Y-51540000D03*
X164820000Y-49000000D03*
X167360000Y-51540000D03*
X167360000Y-49000000D03*
X169900000Y-51540000D03*
X169900000Y-49000000D03*
X172440000Y-51540000D03*
X172440000Y-49000000D03*
X174980000Y-51540000D03*
X174980000Y-49000000D03*
X177520000Y-51540000D03*
X177520000Y-49000000D03*
X180060000Y-51540000D03*
X180060000Y-49000000D03*
X182600000Y-51540000D03*
X182600000Y-49000000D03*
X185140000Y-51540000D03*
X185140000Y-49000000D03*
X187680000Y-51540000D03*
X187680000Y-49000000D03*
X190220000Y-51540000D03*
X190220000Y-49000000D03*
D12*
X118710000Y-49887600D03*
D13*
X118710000Y-52387600D03*
D14*
X184760000Y-57380000D03*
D13*
X184760000Y-59920000D03*
X184760000Y-62460000D03*
X184760000Y-65000000D03*
X184760000Y-67540000D03*
X184760000Y-70080000D03*
X184760000Y-72620000D03*
X184760000Y-75160000D03*
X184760000Y-77700000D03*
X184760000Y-80240000D03*
X184760000Y-82780000D03*
X184760000Y-85320000D03*
X184760000Y-87860000D03*
X184760000Y-90400000D03*
X184760000Y-92940000D03*
X184760000Y-95480000D03*
X184760000Y-98020000D03*
X184760000Y-100560000D03*
X184760000Y-103100000D03*
X184760000Y-105640000D03*
X200000000Y-105640000D03*
X200000000Y-103100000D03*
X200000000Y-100560000D03*
X200000000Y-98020000D03*
X200000000Y-95480000D03*
X200000000Y-92940000D03*
X200000000Y-90400000D03*
X200000000Y-87860000D03*
X200000000Y-85320000D03*
X200000000Y-82780000D03*
X200000000Y-80240000D03*
X200000000Y-77700000D03*
X200000000Y-75160000D03*
X200000000Y-72620000D03*
X200000000Y-70080000D03*
X200000000Y-67540000D03*
X200000000Y-65000000D03*
X200000000Y-62460000D03*
X200000000Y-59920000D03*
X200000000Y-57380000D03*
D10*
X162500000Y-62300000D03*
D11*
X159960000Y-62300000D03*
X157420000Y-62300000D03*
X154880000Y-62300000D03*
X152340000Y-62300000D03*
X149800000Y-62300000D03*
D13*
X204000000Y-77500000D03*
X204000000Y-80000000D03*
X180000000Y-83000000D03*
X180000000Y-85500000D03*
D15*
X138300000Y-58600000D03*
D13*
X135760000Y-58600000D03*
X133220000Y-58600000D03*
X130680000Y-58600000D03*
X128140000Y-58600000D03*
X125600000Y-58600000D03*
X123060000Y-58600000D03*
X120520000Y-58600000D03*
X117980000Y-58600000D03*
X174550000Y-96400000D03*
X177050000Y-96400000D03*
X171140000Y-91900000D03*
X181300000Y-91900000D03*
D10*
X136200000Y-62200000D03*
D11*
X133660000Y-62200000D03*
X131120000Y-62200000D03*
X128580000Y-62200000D03*
X126040000Y-62200000D03*
X123500000Y-62200000D03*
D16*
X172800000Y-102400000D03*
X179300000Y-102400000D03*
X172800000Y-106900000D03*
X179300000Y-106900000D03*
D10*
X204615000Y-57650000D03*
D11*
X204615000Y-60190000D03*
X204615000Y-62730000D03*
X204615000Y-65270000D03*
X204615000Y-67810000D03*
X204615000Y-70350000D03*
D17*
X173168100Y-94158900D03*
X176253800Y-94084900D03*
X183149700Y-56999100D03*
X176043200Y-93016600D03*
X185871200Y-58449100D03*
X198560200Y-53138500D03*
X177095100Y-83573000D03*
X180211400Y-55937200D03*
X177449100Y-65000000D03*
X134279900Y-56175200D03*
X186554100Y-64844300D03*
X167624300Y-73890000D03*
D18*
X139601700Y-58600000D02*
X139888200Y-58886500D01*
X139888200Y-58886500D02*
X148926500Y-58886500D01*
X129260000Y-51540000D02*
X127908300Y-51540000D01*
X180000000Y-83000000D02*
X179771300Y-82771300D01*
X200000000Y-77700000D02*
X194920000Y-82780000D01*
X126255900Y-49887600D02*
X127908300Y-51540000D01*
X200200000Y-77500000D02*
X200000000Y-77700000D01*
X180000000Y-83000000D02*
X184540000Y-83000000D01*
X118710000Y-49887600D02*
X126255900Y-49887600D01*
X204000000Y-77500000D02*
X200200000Y-77500000D01*
X172811300Y-82771300D02*
X152340000Y-62300000D01*
X194920000Y-82780000D02*
X184760000Y-82780000D01*
X148926500Y-58886500D02*
X152340000Y-62300000D01*
X138300000Y-58600000D02*
X139601700Y-58600000D01*
X179771300Y-82771300D02*
X172811300Y-82771300D01*
X184540000Y-83000000D02*
X184760000Y-82780000D01*
D19*
X196331500Y-101971500D02*
X182725600Y-101971500D01*
X174836000Y-98295900D02*
X173168100Y-96628000D01*
X173168100Y-96628000D02*
X173168100Y-94158900D01*
X200000000Y-105640000D02*
X196331500Y-101971500D01*
X182725600Y-101971500D02*
X179050000Y-98295900D01*
X179050000Y-98295900D02*
X174836000Y-98295900D01*
X200000000Y-103100000D02*
X190984900Y-94084900D01*
X190984900Y-94084900D02*
X176253800Y-94084900D01*
X141960000Y-51540000D02*
X147419100Y-56999100D01*
X147419100Y-56999100D02*
X183149700Y-56999100D01*
X184096600Y-91670000D02*
X182750000Y-93016600D01*
X196190000Y-91670000D02*
X184096600Y-91670000D01*
X200000000Y-87860000D02*
X196190000Y-91670000D01*
X182750000Y-93016600D02*
X176043200Y-93016600D01*
X185871200Y-56571400D02*
X185509500Y-56209700D01*
X185509500Y-56209700D02*
X182407200Y-56209700D01*
X182407200Y-56209700D02*
X182044300Y-56572600D01*
X182044300Y-56572600D02*
X152072600Y-56572600D01*
X185871200Y-58449100D02*
X185871200Y-56571400D01*
X152072600Y-56572600D02*
X147040000Y-51540000D01*
X150733200Y-50386800D02*
X172975200Y-50386800D01*
X173828300Y-51239900D02*
X173828300Y-52070000D01*
X172975200Y-50386800D02*
X173828300Y-51239900D01*
X149580000Y-51540000D02*
X150733200Y-50386800D01*
X173828300Y-52070000D02*
X174896800Y-53138500D01*
X174896800Y-53138500D02*
X198560200Y-53138500D01*
X184760000Y-98020000D02*
X181996100Y-95256100D01*
X175411800Y-85256300D02*
X177095100Y-83573000D01*
X176503800Y-95256100D02*
X175411800Y-94164100D01*
X181996100Y-95256100D02*
X176503800Y-95256100D01*
X175411800Y-94164100D02*
X175411800Y-85256300D01*
X176837200Y-55937200D02*
X172440000Y-51540000D01*
X180211400Y-55937200D02*
X176837200Y-55937200D01*
X184760000Y-65000000D02*
X177449100Y-65000000D01*
D18*
X204000000Y-80000000D02*
X200240000Y-80000000D01*
X200240000Y-80000000D02*
X200000000Y-80240000D01*
X118710000Y-52387600D02*
X116659600Y-54438000D01*
X190220000Y-49000000D02*
X187680000Y-49000000D01*
X116659600Y-59140200D02*
X121104100Y-63584700D01*
X184580000Y-85500000D02*
X184760000Y-85320000D01*
X179300000Y-102400000D02*
X172800000Y-102400000D01*
X134815300Y-63584700D02*
X136200000Y-62200000D01*
X116659600Y-54438000D02*
X116659600Y-59140200D01*
X194920000Y-85320000D02*
X184760000Y-85320000D01*
X136200000Y-62200000D02*
X149700000Y-62200000D01*
X149700000Y-62200000D02*
X149800000Y-62300000D01*
X200000000Y-80240000D02*
X194920000Y-85320000D01*
X121104100Y-63584700D02*
X134815300Y-63584700D01*
X180000000Y-85500000D02*
X184580000Y-85500000D01*
D19*
X204615000Y-70350000D02*
X200454800Y-66189800D01*
X205103900Y-80543800D02*
X205103900Y-70838900D01*
X205103900Y-70838900D02*
X204615000Y-70350000D01*
X181300000Y-91900000D02*
X184070000Y-89130000D01*
X200454800Y-66189800D02*
X199300200Y-66189800D01*
X199300200Y-66189800D02*
X197954700Y-64844300D01*
X134279900Y-56175200D02*
X145240700Y-56175200D01*
X145240700Y-56175200D02*
X146546900Y-57481400D01*
X199484300Y-84035700D02*
X201612000Y-84035700D01*
X201612000Y-84035700D02*
X205103900Y-80543800D01*
X182764100Y-57481400D02*
X182887400Y-57604700D01*
X146546900Y-57481400D02*
X182764100Y-57481400D01*
X197954700Y-64844300D02*
X186554100Y-64844300D01*
X194390000Y-89130000D02*
X199484300Y-84035700D01*
X182887400Y-57604700D02*
X184535300Y-57604700D01*
X184070000Y-89130000D02*
X194390000Y-89130000D01*
X184535300Y-57604700D02*
X184760000Y-57380000D01*
X198730000Y-73890000D02*
X167624300Y-73890000D01*
X200000000Y-75160000D02*
X198730000Y-73890000D01*
X153701500Y-61815900D02*
X154372200Y-61145200D01*
X154372200Y-61145200D02*
X156265200Y-61145200D01*
X153701500Y-62780300D02*
X153701500Y-61815900D01*
X162256800Y-71335600D02*
X153701500Y-62780300D01*
X198715600Y-71335600D02*
X162256800Y-71335600D01*
X156265200Y-61145200D02*
X157420000Y-62300000D01*
X200000000Y-72620000D02*
X198715600Y-71335600D01*
X161428400Y-68848400D02*
X198768400Y-68848400D01*
X154880000Y-62300000D02*
X161428400Y-68848400D01*
X198768400Y-68848400D02*
X200000000Y-70080000D01*
X200000000Y-67540000D02*
X198651100Y-66191100D01*
X162500000Y-62300000D02*
X163651700Y-62300000D01*
X198651100Y-66191100D02*
X167542800Y-66191100D01*
X167542800Y-66191100D02*
X163651700Y-62300000D01*
X137375000Y-57498300D02*
X145145600Y-57498300D01*
X145932100Y-58284800D02*
X170357000Y-58284800D01*
X170357000Y-58284800D02*
X175731600Y-63659400D01*
X137198300Y-58799200D02*
X137198300Y-57675000D01*
X175731600Y-63659400D02*
X198659400Y-63659400D01*
X137198300Y-57675000D02*
X137375000Y-57498300D01*
X128580000Y-62200000D02*
X130195400Y-60584600D01*
X145145600Y-57498300D02*
X145932100Y-58284800D01*
X130195400Y-60584600D02*
X135412900Y-60584600D01*
X198659400Y-63659400D02*
X200000000Y-65000000D01*
X135412900Y-60584600D02*
X137198300Y-58799200D01*
X146098500Y-57883100D02*
X179809900Y-57883100D01*
X183116800Y-61190000D02*
X198730000Y-61190000D01*
X128140000Y-58600000D02*
X129661700Y-57078300D01*
X198730000Y-61190000D02*
X200000000Y-62460000D01*
X179809900Y-57883100D02*
X183116800Y-61190000D01*
X129661700Y-57078300D02*
X145293700Y-57078300D01*
X145293700Y-57078300D02*
X146098500Y-57883100D01*
X200270000Y-60190000D02*
X200000000Y-59920000D01*
X204615000Y-60190000D02*
X200270000Y-60190000D01*
X179300000Y-106900000D02*
X172800000Y-106900000D01*
G04 #@! TA.AperFunction,Conductor*
G36*
X181763042Y-95876285D02*
G01*
X181783684Y-95892919D01*
X183465922Y-97575157D01*
X183499407Y-97636480D01*
X183496173Y-97701155D01*
X183491522Y-97715468D01*
X183459500Y-97917648D01*
X183459500Y-98122351D01*
X183491522Y-98324534D01*
X183554781Y-98519223D01*
X183647715Y-98701613D01*
X183768028Y-98867213D01*
X183912786Y-99011971D01*
X184067749Y-99124556D01*
X184078390Y-99132287D01*
X184169840Y-99178883D01*
X184171080Y-99179515D01*
X184221876Y-99227490D01*
X184238671Y-99295311D01*
X184216134Y-99361446D01*
X184171080Y-99400485D01*
X184078386Y-99447715D01*
X183912786Y-99568028D01*
X183768028Y-99712786D01*
X183647715Y-99878386D01*
X183554781Y-100060776D01*
X183491522Y-100255465D01*
X183459500Y-100457648D01*
X183459500Y-100662351D01*
X183491522Y-100864534D01*
X183554781Y-101059223D01*
X183584265Y-101117087D01*
X183614965Y-101177339D01*
X183621776Y-101190705D01*
X183634672Y-101259374D01*
X183608396Y-101324114D01*
X183551290Y-101364372D01*
X183511291Y-101371000D01*
X183025697Y-101371000D01*
X182958658Y-101351315D01*
X182938016Y-101334681D01*
X179537590Y-97934255D01*
X179537588Y-97934252D01*
X179418717Y-97815381D01*
X179418716Y-97815380D01*
X179331904Y-97765260D01*
X179331904Y-97765259D01*
X179331900Y-97765258D01*
X179281785Y-97736323D01*
X179129057Y-97695399D01*
X178970943Y-97695399D01*
X178963347Y-97695399D01*
X178963331Y-97695400D01*
X177860359Y-97695400D01*
X177793320Y-97675715D01*
X177747565Y-97622911D01*
X177737621Y-97553753D01*
X177766646Y-97490197D01*
X177775734Y-97481855D01*
X177775921Y-97479474D01*
X177096447Y-96800000D01*
X177102661Y-96800000D01*
X177204394Y-96772741D01*
X177295606Y-96720080D01*
X177370080Y-96645606D01*
X177422741Y-96554394D01*
X177450000Y-96452661D01*
X177450000Y-96446447D01*
X178129474Y-97125921D01*
X178161859Y-97081349D01*
X178254755Y-96899031D01*
X178317990Y-96704417D01*
X178350000Y-96502317D01*
X178350000Y-96297682D01*
X178317990Y-96095582D01*
X178293080Y-96018919D01*
X178291085Y-95949078D01*
X178327165Y-95889245D01*
X178389865Y-95858416D01*
X178411011Y-95856600D01*
X181696003Y-95856600D01*
X181763042Y-95876285D01*
G37*
G04 #@! TD.AperFunction*
G04 #@! TA.AperFunction,Conductor*
G36*
X176650000Y-96452661D02*
G01*
X176677259Y-96554394D01*
X176729920Y-96645606D01*
X176804394Y-96720080D01*
X176895606Y-96772741D01*
X176997339Y-96800000D01*
X177003553Y-96800000D01*
X176324076Y-97479474D01*
X176324654Y-97486811D01*
X176355191Y-97526412D01*
X176361170Y-97596025D01*
X176328565Y-97657820D01*
X176267726Y-97692177D01*
X176239640Y-97695400D01*
X175361210Y-97695400D01*
X175294171Y-97675715D01*
X175248416Y-97622911D01*
X175238472Y-97553753D01*
X175267497Y-97490197D01*
X175288322Y-97471083D01*
X175397219Y-97391966D01*
X175541966Y-97247219D01*
X175541968Y-97247215D01*
X175541971Y-97247213D01*
X175662286Y-97081611D01*
X175662415Y-97081359D01*
X175689795Y-97027621D01*
X175737769Y-96976826D01*
X175805589Y-96960030D01*
X175871725Y-96982567D01*
X175910765Y-97027621D01*
X175938141Y-97081350D01*
X175938147Y-97081359D01*
X175970523Y-97125921D01*
X175970524Y-97125922D01*
X176650000Y-96446446D01*
X176650000Y-96452661D01*
G37*
G04 #@! TD.AperFunction*
G04 #@! TA.AperFunction,Conductor*
G36*
X178822814Y-83591485D02*
G01*
X178866260Y-83639506D01*
X178887713Y-83681611D01*
X179008028Y-83847213D01*
X179152786Y-83991971D01*
X179318385Y-84112284D01*
X179318387Y-84112285D01*
X179318390Y-84112287D01*
X179372378Y-84139795D01*
X179423174Y-84187769D01*
X179439969Y-84255590D01*
X179417432Y-84321725D01*
X179372378Y-84360765D01*
X179318644Y-84388143D01*
X179274077Y-84420523D01*
X179274077Y-84420524D01*
X179953554Y-85100000D01*
X179947339Y-85100000D01*
X179845606Y-85127259D01*
X179754394Y-85179920D01*
X179679920Y-85254394D01*
X179627259Y-85345606D01*
X179600000Y-85447339D01*
X179600000Y-85453553D01*
X178920524Y-84774077D01*
X178920523Y-84774077D01*
X178888143Y-84818644D01*
X178795244Y-85000968D01*
X178732009Y-85195582D01*
X178700000Y-85397682D01*
X178700000Y-85602317D01*
X178732009Y-85804417D01*
X178795244Y-85999031D01*
X178888141Y-86181350D01*
X178888147Y-86181359D01*
X178920523Y-86225921D01*
X178920524Y-86225922D01*
X179600000Y-85546446D01*
X179600000Y-85552661D01*
X179627259Y-85654394D01*
X179679920Y-85745606D01*
X179754394Y-85820080D01*
X179845606Y-85872741D01*
X179947339Y-85900000D01*
X179953553Y-85900000D01*
X179274076Y-86579474D01*
X179318650Y-86611859D01*
X179500968Y-86704755D01*
X179695582Y-86767990D01*
X179897683Y-86800000D01*
X180102317Y-86800000D01*
X180304417Y-86767990D01*
X180499031Y-86704755D01*
X180681349Y-86611859D01*
X180725921Y-86579474D01*
X180046447Y-85900000D01*
X180052661Y-85900000D01*
X180154394Y-85872741D01*
X180245606Y-85820080D01*
X180320080Y-85745606D01*
X180372741Y-85654394D01*
X180400000Y-85552661D01*
X180400000Y-85546447D01*
X181079474Y-86225921D01*
X181111859Y-86181349D01*
X181204755Y-85999031D01*
X181267990Y-85804417D01*
X181300000Y-85602317D01*
X181300000Y-85397682D01*
X181273792Y-85232214D01*
X181267990Y-85195582D01*
X181204755Y-85000968D01*
X181111859Y-84818650D01*
X181079474Y-84774077D01*
X181079474Y-84774076D01*
X180400000Y-85453551D01*
X180400000Y-85447339D01*
X180372741Y-85345606D01*
X180320080Y-85254394D01*
X180245606Y-85179920D01*
X180154394Y-85127259D01*
X180052661Y-85100000D01*
X180046446Y-85100000D01*
X180725922Y-84420524D01*
X180725921Y-84420523D01*
X180681359Y-84388147D01*
X180681350Y-84388141D01*
X180627621Y-84360765D01*
X180576825Y-84312791D01*
X180560030Y-84244970D01*
X180582567Y-84178835D01*
X180627621Y-84139795D01*
X180681610Y-84112287D01*
X180774266Y-84044969D01*
X180847213Y-83991971D01*
X180847215Y-83991968D01*
X180847219Y-83991966D01*
X180991966Y-83847219D01*
X180991972Y-83847210D01*
X180994748Y-83843962D01*
X181053258Y-83805773D01*
X181089033Y-83800500D01*
X183911765Y-83800500D01*
X183928348Y-83805209D01*
X183944584Y-83804922D01*
X183969493Y-83816896D01*
X183976943Y-83819012D01*
X183980899Y-83821456D01*
X184078390Y-83892287D01*
X184176168Y-83942107D01*
X184180513Y-83944792D01*
X184200583Y-83967140D01*
X184222426Y-83987770D01*
X184223688Y-83992868D01*
X184227198Y-83996776D01*
X184232000Y-84026435D01*
X184239221Y-84055591D01*
X184237527Y-84060561D01*
X184238367Y-84065747D01*
X184226373Y-84093292D01*
X184216684Y-84121725D01*
X184212362Y-84125469D01*
X184210474Y-84129807D01*
X184196866Y-84138897D01*
X184171630Y-84160765D01*
X184078644Y-84208143D01*
X184034077Y-84240523D01*
X184034077Y-84240524D01*
X184713554Y-84920000D01*
X184707339Y-84920000D01*
X184605606Y-84947259D01*
X184514394Y-84999920D01*
X184439920Y-85074394D01*
X184387259Y-85165606D01*
X184360000Y-85267339D01*
X184360000Y-85273553D01*
X183680524Y-84594077D01*
X183680523Y-84594077D01*
X183648143Y-84638644D01*
X183555244Y-84820968D01*
X183492009Y-85015582D01*
X183460000Y-85217682D01*
X183460000Y-85422317D01*
X183492009Y-85624417D01*
X183555244Y-85819031D01*
X183648141Y-86001350D01*
X183648147Y-86001359D01*
X183680523Y-86045921D01*
X183680524Y-86045922D01*
X184360000Y-85366446D01*
X184360000Y-85372661D01*
X184387259Y-85474394D01*
X184439920Y-85565606D01*
X184514394Y-85640080D01*
X184605606Y-85692741D01*
X184707339Y-85720000D01*
X184713553Y-85720000D01*
X184034076Y-86399474D01*
X184078652Y-86431861D01*
X184171628Y-86479234D01*
X184222425Y-86527208D01*
X184239220Y-86595029D01*
X184216683Y-86661164D01*
X184171630Y-86700203D01*
X184078388Y-86747713D01*
X183912786Y-86868028D01*
X183768028Y-87012786D01*
X183647715Y-87178386D01*
X183554781Y-87360776D01*
X183491522Y-87555465D01*
X183459500Y-87757648D01*
X183459500Y-87962351D01*
X183491522Y-88164534D01*
X183554781Y-88359223D01*
X183647712Y-88541608D01*
X183647714Y-88541611D01*
X183653402Y-88549441D01*
X183676878Y-88615249D01*
X183661049Y-88683302D01*
X183640761Y-88710002D01*
X181744842Y-90605921D01*
X181683519Y-90639406D01*
X181618848Y-90636173D01*
X181604534Y-90631522D01*
X181429995Y-90603878D01*
X181402352Y-90599500D01*
X181197648Y-90599500D01*
X181173329Y-90603351D01*
X180995465Y-90631522D01*
X180800776Y-90694781D01*
X180618386Y-90787715D01*
X180452786Y-90908028D01*
X180308028Y-91052786D01*
X180187715Y-91218386D01*
X180094781Y-91400776D01*
X180031522Y-91595465D01*
X180002218Y-91780485D01*
X179999500Y-91797648D01*
X179999500Y-92002352D01*
X180003642Y-92028501D01*
X180031523Y-92204535D01*
X180031523Y-92204538D01*
X180047524Y-92253782D01*
X180049519Y-92323623D01*
X180013439Y-92383456D01*
X179950738Y-92414284D01*
X179929593Y-92416100D01*
X176622966Y-92416100D01*
X176555927Y-92396415D01*
X176554075Y-92395202D01*
X176422385Y-92307209D01*
X176422372Y-92307202D01*
X176276701Y-92246864D01*
X176276689Y-92246861D01*
X176116068Y-92214911D01*
X176116411Y-92213184D01*
X176059357Y-92190145D01*
X176018999Y-92133110D01*
X176012300Y-92092904D01*
X176012300Y-85556397D01*
X176020944Y-85526956D01*
X176027468Y-85496970D01*
X176031222Y-85491954D01*
X176031985Y-85489358D01*
X176048619Y-85468716D01*
X176570076Y-84947259D01*
X177109764Y-84407571D01*
X177171085Y-84374088D01*
X177173252Y-84373637D01*
X177173941Y-84373500D01*
X177173942Y-84373500D01*
X177328597Y-84342737D01*
X177474279Y-84282394D01*
X177605389Y-84194789D01*
X177716889Y-84083289D01*
X177804494Y-83952179D01*
X177864837Y-83806497D01*
X177889679Y-83681610D01*
X177891669Y-83671608D01*
X177924054Y-83609697D01*
X177984770Y-83575123D01*
X178013286Y-83571800D01*
X178755775Y-83571800D01*
X178822814Y-83591485D01*
G37*
G04 #@! TD.AperFunction*
G04 #@! TA.AperFunction,Conductor*
G36*
X199600000Y-80292661D02*
G01*
X199627259Y-80394394D01*
X199679920Y-80485606D01*
X199754394Y-80560080D01*
X199845606Y-80612741D01*
X199947339Y-80640000D01*
X199953553Y-80640000D01*
X199274076Y-81319474D01*
X199318652Y-81351861D01*
X199411628Y-81399234D01*
X199462425Y-81447208D01*
X199479220Y-81515029D01*
X199456683Y-81581164D01*
X199411630Y-81620203D01*
X199318388Y-81667713D01*
X199152786Y-81788028D01*
X199008028Y-81932786D01*
X198887715Y-82098386D01*
X198794781Y-82280776D01*
X198731522Y-82475465D01*
X198699500Y-82677648D01*
X198699500Y-82882351D01*
X198731522Y-83084534D01*
X198794781Y-83279223D01*
X198838894Y-83365798D01*
X198874256Y-83435200D01*
X198887715Y-83461613D01*
X198960727Y-83562107D01*
X198984207Y-83627913D01*
X198968381Y-83695967D01*
X198948090Y-83722673D01*
X194177584Y-88493181D01*
X194116261Y-88526666D01*
X194089903Y-88529500D01*
X186080266Y-88529500D01*
X186013227Y-88509815D01*
X185967472Y-88457011D01*
X185957528Y-88387853D01*
X185964080Y-88363970D01*
X185963714Y-88363852D01*
X185965218Y-88359222D01*
X185965220Y-88359219D01*
X186028477Y-88164534D01*
X186060500Y-87962352D01*
X186060500Y-87757648D01*
X186028477Y-87555466D01*
X185965220Y-87360781D01*
X185965218Y-87360778D01*
X185965218Y-87360776D01*
X185931503Y-87294607D01*
X185872287Y-87178390D01*
X185864556Y-87167749D01*
X185751971Y-87012786D01*
X185607213Y-86868028D01*
X185441611Y-86747713D01*
X185348369Y-86700203D01*
X185297574Y-86652229D01*
X185280779Y-86584407D01*
X185303317Y-86518273D01*
X185348371Y-86479234D01*
X185441346Y-86431861D01*
X185441347Y-86431861D01*
X185485921Y-86399474D01*
X184806447Y-85720000D01*
X184812661Y-85720000D01*
X184914394Y-85692741D01*
X185005606Y-85640080D01*
X185080080Y-85565606D01*
X185132741Y-85474394D01*
X185160000Y-85372661D01*
X185160000Y-85366447D01*
X185839474Y-86045921D01*
X185871859Y-86001349D01*
X185964755Y-85819031D01*
X186027990Y-85624417D01*
X186060000Y-85422317D01*
X186060000Y-85217682D01*
X186027990Y-85015582D01*
X185964755Y-84820968D01*
X185871859Y-84638650D01*
X185839474Y-84594077D01*
X185839474Y-84594076D01*
X185160000Y-85273551D01*
X185160000Y-85267339D01*
X185132741Y-85165606D01*
X185080080Y-85074394D01*
X185005606Y-84999920D01*
X184914394Y-84947259D01*
X184812661Y-84920000D01*
X184806446Y-84920000D01*
X185485922Y-84240524D01*
X185485921Y-84240523D01*
X185441359Y-84208147D01*
X185441350Y-84208141D01*
X185348369Y-84160765D01*
X185297573Y-84112790D01*
X185280778Y-84044969D01*
X185303315Y-83978835D01*
X185348370Y-83939795D01*
X185441610Y-83892287D01*
X185508124Y-83843962D01*
X185607213Y-83771971D01*
X185607215Y-83771968D01*
X185607219Y-83771966D01*
X185751966Y-83627219D01*
X185751972Y-83627210D01*
X185754748Y-83623962D01*
X185813258Y-83585773D01*
X185849033Y-83580500D01*
X194998844Y-83580500D01*
X194998845Y-83580499D01*
X195153497Y-83549737D01*
X195299179Y-83489394D01*
X195430289Y-83401789D01*
X198499175Y-80332902D01*
X198560493Y-80299420D01*
X198630184Y-80304404D01*
X198686118Y-80346276D01*
X198709324Y-80401188D01*
X198732009Y-80544417D01*
X198795244Y-80739031D01*
X198888141Y-80921350D01*
X198888147Y-80921359D01*
X198920523Y-80965921D01*
X198920524Y-80965922D01*
X199600000Y-80286446D01*
X199600000Y-80292661D01*
G37*
G04 #@! TD.AperFunction*
G04 #@! TA.AperFunction,Conductor*
G36*
X202978006Y-78320185D02*
G01*
X203005252Y-78343962D01*
X203008035Y-78347220D01*
X203152786Y-78491971D01*
X203318385Y-78612284D01*
X203318387Y-78612285D01*
X203318390Y-78612287D01*
X203372378Y-78639795D01*
X203423174Y-78687769D01*
X203439969Y-78755590D01*
X203417432Y-78821725D01*
X203372378Y-78860765D01*
X203318644Y-78888143D01*
X203274077Y-78920523D01*
X203274077Y-78920524D01*
X203953553Y-79600000D01*
X203947339Y-79600000D01*
X203845606Y-79627259D01*
X203754394Y-79679920D01*
X203679920Y-79754394D01*
X203627259Y-79845606D01*
X203600000Y-79947339D01*
X203600000Y-79953553D01*
X202920524Y-79274077D01*
X202920523Y-79274077D01*
X202888143Y-79318644D01*
X202795244Y-79500968D01*
X202732009Y-79695582D01*
X202700000Y-79897682D01*
X202700000Y-80102317D01*
X202732009Y-80304417D01*
X202795244Y-80499031D01*
X202888141Y-80681350D01*
X202888147Y-80681359D01*
X202920523Y-80725921D01*
X202920524Y-80725922D01*
X203600000Y-80046446D01*
X203600000Y-80052661D01*
X203627259Y-80154394D01*
X203679920Y-80245606D01*
X203754394Y-80320080D01*
X203845606Y-80372741D01*
X203947339Y-80400000D01*
X203953552Y-80400000D01*
X203274076Y-81079474D01*
X203318652Y-81111861D01*
X203410335Y-81158575D01*
X203461131Y-81206549D01*
X203477927Y-81274370D01*
X203455390Y-81340505D01*
X203441722Y-81356741D01*
X201419295Y-83379169D01*
X201357972Y-83412654D01*
X201288280Y-83407670D01*
X201232347Y-83365798D01*
X201207930Y-83300334D01*
X201213682Y-83253174D01*
X201268477Y-83084534D01*
X201300500Y-82882352D01*
X201300500Y-82677648D01*
X201268477Y-82475466D01*
X201205220Y-82280781D01*
X201205218Y-82280778D01*
X201205218Y-82280776D01*
X201163805Y-82199500D01*
X201112287Y-82098390D01*
X201104556Y-82087749D01*
X200991971Y-81932786D01*
X200847213Y-81788028D01*
X200681611Y-81667713D01*
X200588369Y-81620203D01*
X200537574Y-81572229D01*
X200520779Y-81504407D01*
X200543317Y-81438273D01*
X200588371Y-81399234D01*
X200681346Y-81351861D01*
X200681347Y-81351861D01*
X200725921Y-81319474D01*
X200046447Y-80640000D01*
X200052661Y-80640000D01*
X200154394Y-80612741D01*
X200245606Y-80560080D01*
X200320080Y-80485606D01*
X200372741Y-80394394D01*
X200400000Y-80292661D01*
X200400000Y-80286448D01*
X201079474Y-80965922D01*
X201079474Y-80965921D01*
X201111859Y-80921349D01*
X201204755Y-80739031D01*
X201267990Y-80544417D01*
X201300000Y-80342317D01*
X201300000Y-80137682D01*
X201267990Y-79935582D01*
X201266545Y-79931135D01*
X201204755Y-79740968D01*
X201111859Y-79558650D01*
X201079474Y-79514077D01*
X201079474Y-79514076D01*
X200400000Y-80193551D01*
X200400000Y-80187339D01*
X200372741Y-80085606D01*
X200320080Y-79994394D01*
X200245606Y-79919920D01*
X200154394Y-79867259D01*
X200052661Y-79840000D01*
X200046446Y-79840000D01*
X200725922Y-79160524D01*
X200725921Y-79160523D01*
X200681359Y-79128147D01*
X200681350Y-79128141D01*
X200588369Y-79080765D01*
X200537573Y-79032790D01*
X200520778Y-78964969D01*
X200543315Y-78898835D01*
X200588370Y-78859795D01*
X200588920Y-78859515D01*
X200681610Y-78812287D01*
X200741910Y-78768477D01*
X200847213Y-78691971D01*
X200847215Y-78691968D01*
X200847219Y-78691966D01*
X200991966Y-78547219D01*
X200991968Y-78547215D01*
X200991971Y-78547213D01*
X201112284Y-78381614D01*
X201112285Y-78381613D01*
X201112287Y-78381610D01*
X201119117Y-78368204D01*
X201167091Y-78317409D01*
X201229602Y-78300500D01*
X202910967Y-78300500D01*
X202978006Y-78320185D01*
G37*
G04 #@! TD.AperFunction*
G04 #@! TA.AperFunction,Conductor*
G36*
X203396320Y-60810185D02*
G01*
X203439765Y-60858205D01*
X203459947Y-60897814D01*
X203459948Y-60897815D01*
X203584890Y-61069786D01*
X203735213Y-61220109D01*
X203907182Y-61345050D01*
X203915946Y-61349516D01*
X203966742Y-61397491D01*
X203983536Y-61465312D01*
X203960998Y-61531447D01*
X203915946Y-61570484D01*
X203907182Y-61574949D01*
X203735213Y-61699890D01*
X203584890Y-61850213D01*
X203459951Y-62022179D01*
X203363444Y-62211585D01*
X203297753Y-62413760D01*
X203264500Y-62623713D01*
X203264500Y-62836286D01*
X203291667Y-63007816D01*
X203297754Y-63046243D01*
X203357496Y-63230110D01*
X203363444Y-63248414D01*
X203459951Y-63437820D01*
X203584890Y-63609786D01*
X203735213Y-63760109D01*
X203907179Y-63885048D01*
X203907181Y-63885049D01*
X203907184Y-63885051D01*
X203916493Y-63889794D01*
X203967290Y-63937766D01*
X203984087Y-64005587D01*
X203961552Y-64071722D01*
X203916505Y-64110760D01*
X203907446Y-64115376D01*
X203907440Y-64115380D01*
X203853282Y-64154727D01*
X203853282Y-64154728D01*
X204485591Y-64787037D01*
X204422007Y-64804075D01*
X204307993Y-64869901D01*
X204214901Y-64962993D01*
X204149075Y-65077007D01*
X204132037Y-65140591D01*
X203499728Y-64508282D01*
X203499727Y-64508282D01*
X203460380Y-64562439D01*
X203363904Y-64751782D01*
X203298242Y-64953869D01*
X203298242Y-64953872D01*
X203265000Y-65163753D01*
X203265000Y-65376246D01*
X203298242Y-65586127D01*
X203298242Y-65586130D01*
X203363904Y-65788217D01*
X203460375Y-65977550D01*
X203499728Y-66031716D01*
X204132037Y-65399408D01*
X204149075Y-65462993D01*
X204214901Y-65577007D01*
X204307993Y-65670099D01*
X204422007Y-65735925D01*
X204485590Y-65752962D01*
X203853282Y-66385269D01*
X203853282Y-66385270D01*
X203907452Y-66424626D01*
X203907451Y-66424626D01*
X203916495Y-66429234D01*
X203967292Y-66477208D01*
X203984087Y-66545029D01*
X203961550Y-66611164D01*
X203916499Y-66650202D01*
X203907182Y-66654949D01*
X203735213Y-66779890D01*
X203584890Y-66930213D01*
X203459951Y-67102179D01*
X203363444Y-67291585D01*
X203297753Y-67493760D01*
X203264500Y-67703713D01*
X203264500Y-67850903D01*
X203244815Y-67917942D01*
X203192011Y-67963697D01*
X203122853Y-67973641D01*
X203059297Y-67944616D01*
X203052819Y-67938584D01*
X201054013Y-65939778D01*
X201020528Y-65878455D01*
X201025512Y-65808763D01*
X201041376Y-65779212D01*
X201072825Y-65735925D01*
X201112287Y-65681610D01*
X201205220Y-65499219D01*
X201268477Y-65304534D01*
X201300500Y-65102352D01*
X201300500Y-64897648D01*
X201280282Y-64770000D01*
X201268477Y-64695465D01*
X201205218Y-64500776D01*
X201171503Y-64434607D01*
X201112287Y-64318390D01*
X201069792Y-64259900D01*
X200991971Y-64152786D01*
X200847213Y-64008028D01*
X200681614Y-63887715D01*
X200675006Y-63884348D01*
X200588917Y-63840483D01*
X200538123Y-63792511D01*
X200521328Y-63724690D01*
X200543865Y-63658555D01*
X200588917Y-63619516D01*
X200681610Y-63572287D01*
X200710779Y-63551095D01*
X200847213Y-63451971D01*
X200847215Y-63451968D01*
X200847219Y-63451966D01*
X200991966Y-63307219D01*
X200991968Y-63307215D01*
X200991971Y-63307213D01*
X201044732Y-63234590D01*
X201112287Y-63141610D01*
X201205220Y-62959219D01*
X201268477Y-62764534D01*
X201300500Y-62562352D01*
X201300500Y-62357648D01*
X201268477Y-62155466D01*
X201205220Y-61960781D01*
X201205218Y-61960778D01*
X201205218Y-61960776D01*
X201155392Y-61862989D01*
X201112287Y-61778390D01*
X201074262Y-61726052D01*
X200991971Y-61612786D01*
X200847213Y-61468028D01*
X200681614Y-61347715D01*
X200597659Y-61304938D01*
X200588917Y-61300483D01*
X200538123Y-61252511D01*
X200521328Y-61184690D01*
X200543865Y-61118555D01*
X200588917Y-61079516D01*
X200681610Y-61032287D01*
X200717508Y-61006206D01*
X200847213Y-60911971D01*
X200847215Y-60911968D01*
X200847219Y-60911966D01*
X200932366Y-60826819D01*
X200993689Y-60793334D01*
X201020047Y-60790500D01*
X203329281Y-60790500D01*
X203396320Y-60810185D01*
G37*
G04 #@! TD.AperFunction*
G04 #@! TA.AperFunction,Conductor*
G36*
X187214075Y-49192993D02*
G01*
X187279901Y-49307007D01*
X187372993Y-49400099D01*
X187487007Y-49465925D01*
X187550590Y-49482962D01*
X186918282Y-50115269D01*
X186918282Y-50115270D01*
X186972452Y-50154626D01*
X186972451Y-50154626D01*
X186981495Y-50159234D01*
X187032292Y-50207208D01*
X187049087Y-50275029D01*
X187026550Y-50341164D01*
X186981499Y-50380202D01*
X186972182Y-50384949D01*
X186800213Y-50509890D01*
X186649890Y-50660213D01*
X186524949Y-50832182D01*
X186520484Y-50840946D01*
X186472509Y-50891742D01*
X186404688Y-50908536D01*
X186338553Y-50885998D01*
X186299516Y-50840946D01*
X186295050Y-50832182D01*
X186170109Y-50660213D01*
X186019786Y-50509890D01*
X185847820Y-50384951D01*
X185847115Y-50384591D01*
X185839054Y-50380485D01*
X185788259Y-50332512D01*
X185771463Y-50264692D01*
X185793999Y-50198556D01*
X185839054Y-50159515D01*
X185847816Y-50155051D01*
X185937554Y-50089853D01*
X186019786Y-50030109D01*
X186019788Y-50030106D01*
X186019792Y-50030104D01*
X186170104Y-49879792D01*
X186170106Y-49879788D01*
X186170109Y-49879786D01*
X186255890Y-49761717D01*
X186295051Y-49707816D01*
X186299793Y-49698508D01*
X186347763Y-49647711D01*
X186415583Y-49630911D01*
X186481719Y-49653445D01*
X186520763Y-49698500D01*
X186525373Y-49707547D01*
X186564728Y-49761716D01*
X187197037Y-49129408D01*
X187214075Y-49192993D01*
G37*
G04 #@! TD.AperFunction*
G04 #@! TA.AperFunction,Conductor*
G36*
X189754075Y-49192993D02*
G01*
X189819901Y-49307007D01*
X189912993Y-49400099D01*
X190027007Y-49465925D01*
X190090590Y-49482962D01*
X189458282Y-50115269D01*
X189458282Y-50115270D01*
X189512452Y-50154626D01*
X189512451Y-50154626D01*
X189521495Y-50159234D01*
X189572292Y-50207208D01*
X189589087Y-50275029D01*
X189566550Y-50341164D01*
X189521499Y-50380202D01*
X189512182Y-50384949D01*
X189340213Y-50509890D01*
X189189890Y-50660213D01*
X189064949Y-50832182D01*
X189060484Y-50840946D01*
X189012509Y-50891742D01*
X188944688Y-50908536D01*
X188878553Y-50885998D01*
X188839516Y-50840946D01*
X188835050Y-50832182D01*
X188710109Y-50660213D01*
X188559786Y-50509890D01*
X188387817Y-50384949D01*
X188378504Y-50380204D01*
X188327707Y-50332230D01*
X188310912Y-50264409D01*
X188333449Y-50198274D01*
X188378507Y-50159232D01*
X188387555Y-50154622D01*
X188441716Y-50115270D01*
X188441717Y-50115270D01*
X187809408Y-49482962D01*
X187872993Y-49465925D01*
X187987007Y-49400099D01*
X188080099Y-49307007D01*
X188145925Y-49192993D01*
X188162962Y-49129408D01*
X188795270Y-49761717D01*
X188795270Y-49761716D01*
X188834622Y-49707554D01*
X188839514Y-49697954D01*
X188887488Y-49647157D01*
X188955308Y-49630361D01*
X189021444Y-49652897D01*
X189060486Y-49697954D01*
X189065375Y-49707550D01*
X189104728Y-49761716D01*
X189737037Y-49129408D01*
X189754075Y-49192993D01*
G37*
G04 #@! TD.AperFunction*
G04 #@! TA.AperFunction,Conductor*
G36*
X209442539Y-40520185D02*
G01*
X209488294Y-40572989D01*
X209499500Y-40624500D01*
X209499500Y-114375500D01*
X209479815Y-114442539D01*
X209427011Y-114488294D01*
X209375500Y-114499500D01*
X110624500Y-114499500D01*
X110557461Y-114479815D01*
X110511706Y-114427011D01*
X110500500Y-114375500D01*
X110500500Y-110378711D01*
X113649500Y-110378711D01*
X113649500Y-110621288D01*
X113681161Y-110861785D01*
X113743947Y-111096104D01*
X113836773Y-111320205D01*
X113836776Y-111320212D01*
X113958064Y-111530289D01*
X113958066Y-111530292D01*
X113958067Y-111530293D01*
X114105733Y-111722736D01*
X114105739Y-111722743D01*
X114277256Y-111894260D01*
X114277262Y-111894265D01*
X114469711Y-112041936D01*
X114679788Y-112163224D01*
X114903900Y-112256054D01*
X115138211Y-112318838D01*
X115318586Y-112342584D01*
X115378711Y-112350500D01*
X115378712Y-112350500D01*
X115621289Y-112350500D01*
X115669388Y-112344167D01*
X115861789Y-112318838D01*
X116096100Y-112256054D01*
X116320212Y-112163224D01*
X116530289Y-112041936D01*
X116722738Y-111894265D01*
X116894265Y-111722738D01*
X117041936Y-111530289D01*
X117163224Y-111320212D01*
X117256054Y-111096100D01*
X117318838Y-110861789D01*
X117350500Y-110621288D01*
X117350500Y-110378712D01*
X117350500Y-110378711D01*
X202649500Y-110378711D01*
X202649500Y-110621288D01*
X202681161Y-110861785D01*
X202743947Y-111096104D01*
X202836773Y-111320205D01*
X202836776Y-111320212D01*
X202958064Y-111530289D01*
X202958066Y-111530292D01*
X202958067Y-111530293D01*
X203105733Y-111722736D01*
X203105739Y-111722743D01*
X203277256Y-111894260D01*
X203277262Y-111894265D01*
X203469711Y-112041936D01*
X203679788Y-112163224D01*
X203903900Y-112256054D01*
X204138211Y-112318838D01*
X204318586Y-112342584D01*
X204378711Y-112350500D01*
X204378712Y-112350500D01*
X204621289Y-112350500D01*
X204669388Y-112344167D01*
X204861789Y-112318838D01*
X205096100Y-112256054D01*
X205320212Y-112163224D01*
X205530289Y-112041936D01*
X205722738Y-111894265D01*
X205894265Y-111722738D01*
X206041936Y-111530289D01*
X206163224Y-111320212D01*
X206256054Y-111096100D01*
X206318838Y-110861789D01*
X206350500Y-110621288D01*
X206350500Y-110378712D01*
X206318838Y-110138211D01*
X206256054Y-109903900D01*
X206163224Y-109679788D01*
X206041936Y-109469711D01*
X205894265Y-109277262D01*
X205894260Y-109277256D01*
X205722743Y-109105739D01*
X205722736Y-109105733D01*
X205530293Y-108958067D01*
X205530292Y-108958066D01*
X205530289Y-108958064D01*
X205320212Y-108836776D01*
X205320205Y-108836773D01*
X205096104Y-108743947D01*
X204861785Y-108681161D01*
X204621289Y-108649500D01*
X204621288Y-108649500D01*
X204378712Y-108649500D01*
X204378711Y-108649500D01*
X204138214Y-108681161D01*
X203903895Y-108743947D01*
X203679794Y-108836773D01*
X203679785Y-108836777D01*
X203469706Y-108958067D01*
X203277263Y-109105733D01*
X203277256Y-109105739D01*
X203105739Y-109277256D01*
X203105733Y-109277263D01*
X202958067Y-109469706D01*
X202836777Y-109679785D01*
X202836773Y-109679794D01*
X202743947Y-109903895D01*
X202681161Y-110138214D01*
X202649500Y-110378711D01*
X117350500Y-110378711D01*
X117318838Y-110138211D01*
X117256054Y-109903900D01*
X117163224Y-109679788D01*
X117041936Y-109469711D01*
X116894265Y-109277262D01*
X116894260Y-109277256D01*
X116722743Y-109105739D01*
X116722736Y-109105733D01*
X116530293Y-108958067D01*
X116530292Y-108958066D01*
X116530289Y-108958064D01*
X116320212Y-108836776D01*
X116320205Y-108836773D01*
X116096104Y-108743947D01*
X115861785Y-108681161D01*
X115621289Y-108649500D01*
X115621288Y-108649500D01*
X115378712Y-108649500D01*
X115378711Y-108649500D01*
X115138214Y-108681161D01*
X114903895Y-108743947D01*
X114679794Y-108836773D01*
X114679785Y-108836777D01*
X114469706Y-108958067D01*
X114277263Y-109105733D01*
X114277256Y-109105739D01*
X114105739Y-109277256D01*
X114105733Y-109277263D01*
X113958067Y-109469706D01*
X113836777Y-109679785D01*
X113836773Y-109679794D01*
X113743947Y-109903895D01*
X113681161Y-110138214D01*
X113649500Y-110378711D01*
X110500500Y-110378711D01*
X110500500Y-106781902D01*
X171299500Y-106781902D01*
X171299500Y-107018097D01*
X171336446Y-107251368D01*
X171409433Y-107475996D01*
X171516657Y-107686433D01*
X171655483Y-107877510D01*
X171822490Y-108044517D01*
X172013567Y-108183343D01*
X172112991Y-108234002D01*
X172224003Y-108290566D01*
X172224005Y-108290566D01*
X172224008Y-108290568D01*
X172344412Y-108329689D01*
X172448631Y-108363553D01*
X172681903Y-108400500D01*
X172681908Y-108400500D01*
X172918097Y-108400500D01*
X173151368Y-108363553D01*
X173375992Y-108290568D01*
X173586433Y-108183343D01*
X173777510Y-108044517D01*
X173944517Y-107877510D01*
X174083343Y-107686433D01*
X174143583Y-107568204D01*
X174191558Y-107517409D01*
X174254068Y-107500500D01*
X177845932Y-107500500D01*
X177912971Y-107520185D01*
X177956416Y-107568203D01*
X178016657Y-107686433D01*
X178155483Y-107877510D01*
X178322490Y-108044517D01*
X178513567Y-108183343D01*
X178612991Y-108234002D01*
X178724003Y-108290566D01*
X178724005Y-108290566D01*
X178724008Y-108290568D01*
X178844412Y-108329689D01*
X178948631Y-108363553D01*
X179181903Y-108400500D01*
X179181908Y-108400500D01*
X179418097Y-108400500D01*
X179651368Y-108363553D01*
X179875992Y-108290568D01*
X180086433Y-108183343D01*
X180277510Y-108044517D01*
X180444517Y-107877510D01*
X180583343Y-107686433D01*
X180690568Y-107475992D01*
X180763553Y-107251368D01*
X180800500Y-107018097D01*
X180800500Y-106781902D01*
X180763553Y-106548631D01*
X180690566Y-106324003D01*
X180583342Y-106113566D01*
X180444517Y-105922490D01*
X180277510Y-105755483D01*
X180086433Y-105616657D01*
X179875996Y-105509433D01*
X179651368Y-105436446D01*
X179418097Y-105399500D01*
X179418092Y-105399500D01*
X179181908Y-105399500D01*
X179181903Y-105399500D01*
X178948631Y-105436446D01*
X178724003Y-105509433D01*
X178513566Y-105616657D01*
X178404550Y-105695862D01*
X178322490Y-105755483D01*
X178322488Y-105755485D01*
X178322487Y-105755485D01*
X178155485Y-105922487D01*
X178155485Y-105922488D01*
X178155483Y-105922490D01*
X178139467Y-105944534D01*
X178016657Y-106113566D01*
X177956417Y-106231795D01*
X177908442Y-106282591D01*
X177845932Y-106299500D01*
X174254068Y-106299500D01*
X174187029Y-106279815D01*
X174143583Y-106231795D01*
X174083342Y-106113566D01*
X173944517Y-105922490D01*
X173777510Y-105755483D01*
X173586433Y-105616657D01*
X173375996Y-105509433D01*
X173151368Y-105436446D01*
X172918097Y-105399500D01*
X172918092Y-105399500D01*
X172681908Y-105399500D01*
X172681903Y-105399500D01*
X172448631Y-105436446D01*
X172224003Y-105509433D01*
X172013566Y-105616657D01*
X171904550Y-105695862D01*
X171822490Y-105755483D01*
X171822488Y-105755485D01*
X171822487Y-105755485D01*
X171655485Y-105922487D01*
X171655485Y-105922488D01*
X171655483Y-105922490D01*
X171639467Y-105944534D01*
X171516657Y-106113566D01*
X171409433Y-106324003D01*
X171336446Y-106548631D01*
X171299500Y-106781902D01*
X110500500Y-106781902D01*
X110500500Y-102281947D01*
X171300000Y-102281947D01*
X171300000Y-102518052D01*
X171336934Y-102751247D01*
X171409897Y-102975802D01*
X171517087Y-103186174D01*
X171577338Y-103269104D01*
X171577340Y-103269105D01*
X172276212Y-102570233D01*
X172287482Y-102612292D01*
X172359890Y-102737708D01*
X172462292Y-102840110D01*
X172587708Y-102912518D01*
X172629765Y-102923787D01*
X171930893Y-103622658D01*
X172013828Y-103682914D01*
X172224197Y-103790102D01*
X172448752Y-103863065D01*
X172448751Y-103863065D01*
X172681948Y-103900000D01*
X172918052Y-103900000D01*
X173151247Y-103863065D01*
X173375802Y-103790102D01*
X173586163Y-103682918D01*
X173586169Y-103682914D01*
X173669104Y-103622658D01*
X173669105Y-103622658D01*
X172970233Y-102923787D01*
X173012292Y-102912518D01*
X173137708Y-102840110D01*
X173240110Y-102737708D01*
X173312518Y-102612292D01*
X173323787Y-102570234D01*
X174022658Y-103269105D01*
X174022658Y-103269104D01*
X174082914Y-103186169D01*
X174082918Y-103186163D01*
X174190102Y-102975802D01*
X174263065Y-102751247D01*
X174300000Y-102518052D01*
X174300000Y-102281947D01*
X177800000Y-102281947D01*
X177800000Y-102518052D01*
X177836934Y-102751247D01*
X177909897Y-102975802D01*
X178017087Y-103186174D01*
X178077338Y-103269104D01*
X178077340Y-103269105D01*
X178776212Y-102570233D01*
X178787482Y-102612292D01*
X178859890Y-102737708D01*
X178962292Y-102840110D01*
X179087708Y-102912518D01*
X179129765Y-102923787D01*
X178430893Y-103622658D01*
X178513828Y-103682914D01*
X178724197Y-103790102D01*
X178948752Y-103863065D01*
X178948751Y-103863065D01*
X179181948Y-103900000D01*
X179418052Y-103900000D01*
X179651247Y-103863065D01*
X179875802Y-103790102D01*
X180086163Y-103682918D01*
X180086169Y-103682914D01*
X180169104Y-103622658D01*
X180169105Y-103622658D01*
X179470233Y-102923787D01*
X179512292Y-102912518D01*
X179637708Y-102840110D01*
X179740110Y-102737708D01*
X179812518Y-102612292D01*
X179823787Y-102570233D01*
X180522658Y-103269105D01*
X180522658Y-103269104D01*
X180582914Y-103186169D01*
X180582918Y-103186163D01*
X180690102Y-102975802D01*
X180763065Y-102751247D01*
X180800000Y-102518052D01*
X180800000Y-102281947D01*
X180763065Y-102048752D01*
X180690102Y-101824197D01*
X180582914Y-101613828D01*
X180522658Y-101530894D01*
X180522658Y-101530893D01*
X179823787Y-102229765D01*
X179812518Y-102187708D01*
X179740110Y-102062292D01*
X179637708Y-101959890D01*
X179512292Y-101887482D01*
X179470234Y-101876212D01*
X180169105Y-101177340D01*
X180169104Y-101177338D01*
X180086174Y-101117087D01*
X179875802Y-101009897D01*
X179651247Y-100936934D01*
X179651248Y-100936934D01*
X179418052Y-100900000D01*
X179181948Y-100900000D01*
X178948752Y-100936934D01*
X178724197Y-101009897D01*
X178513830Y-101117084D01*
X178430894Y-101177340D01*
X179129766Y-101876212D01*
X179087708Y-101887482D01*
X178962292Y-101959890D01*
X178859890Y-102062292D01*
X178787482Y-102187708D01*
X178776212Y-102229766D01*
X178077340Y-101530894D01*
X178017084Y-101613830D01*
X177909897Y-101824197D01*
X177836934Y-102048752D01*
X177800000Y-102281947D01*
X174300000Y-102281947D01*
X174263065Y-102048752D01*
X174190102Y-101824197D01*
X174082914Y-101613828D01*
X174022658Y-101530894D01*
X174022658Y-101530893D01*
X173323787Y-102229765D01*
X173312518Y-102187708D01*
X173240110Y-102062292D01*
X173137708Y-101959890D01*
X173012292Y-101887482D01*
X172970234Y-101876212D01*
X173669105Y-101177340D01*
X173669104Y-101177339D01*
X173586174Y-101117087D01*
X173375802Y-101009897D01*
X173151247Y-100936934D01*
X173151248Y-100936934D01*
X172918052Y-100900000D01*
X172681948Y-100900000D01*
X172448752Y-100936934D01*
X172224197Y-101009897D01*
X172013830Y-101117084D01*
X171930894Y-101177340D01*
X172629766Y-101876212D01*
X172587708Y-101887482D01*
X172462292Y-101959890D01*
X172359890Y-102062292D01*
X172287482Y-102187708D01*
X172276212Y-102229765D01*
X171577340Y-101530894D01*
X171517084Y-101613830D01*
X171409897Y-101824197D01*
X171336934Y-102048752D01*
X171300000Y-102281947D01*
X110500500Y-102281947D01*
X110500500Y-91797648D01*
X169839500Y-91797648D01*
X169839500Y-92002351D01*
X169871522Y-92204534D01*
X169934781Y-92399223D01*
X170027715Y-92581613D01*
X170148028Y-92747213D01*
X170292786Y-92891971D01*
X170447749Y-93004556D01*
X170458390Y-93012287D01*
X170574607Y-93071503D01*
X170640776Y-93105218D01*
X170640778Y-93105218D01*
X170640781Y-93105220D01*
X170745137Y-93139127D01*
X170835465Y-93168477D01*
X170936557Y-93184488D01*
X171037648Y-93200500D01*
X171037649Y-93200500D01*
X171242351Y-93200500D01*
X171242352Y-93200500D01*
X171444534Y-93168477D01*
X171639219Y-93105220D01*
X171821610Y-93012287D01*
X171914590Y-92944732D01*
X171987213Y-92891971D01*
X171987215Y-92891968D01*
X171987219Y-92891966D01*
X172131966Y-92747219D01*
X172131968Y-92747215D01*
X172131971Y-92747213D01*
X172184732Y-92674590D01*
X172252287Y-92581610D01*
X172345220Y-92399219D01*
X172408477Y-92204534D01*
X172440500Y-92002352D01*
X172440500Y-91797648D01*
X172430183Y-91732511D01*
X172408477Y-91595465D01*
X172379127Y-91505137D01*
X172345220Y-91400781D01*
X172345218Y-91400778D01*
X172345218Y-91400776D01*
X172311503Y-91334607D01*
X172252287Y-91218390D01*
X172216314Y-91168877D01*
X172131971Y-91052786D01*
X171987213Y-90908028D01*
X171821613Y-90787715D01*
X171821612Y-90787714D01*
X171821610Y-90787713D01*
X171721688Y-90736800D01*
X171639223Y-90694781D01*
X171444534Y-90631522D01*
X171269995Y-90603878D01*
X171242352Y-90599500D01*
X171037648Y-90599500D01*
X171013329Y-90603351D01*
X170835465Y-90631522D01*
X170640776Y-90694781D01*
X170458386Y-90787715D01*
X170292786Y-90908028D01*
X170148028Y-91052786D01*
X170027715Y-91218386D01*
X169934781Y-91400776D01*
X169871522Y-91595465D01*
X169839500Y-91797648D01*
X110500500Y-91797648D01*
X110500500Y-58497648D01*
X116679500Y-58497648D01*
X116679500Y-58702352D01*
X116682524Y-58721446D01*
X116711522Y-58904534D01*
X116774781Y-59099223D01*
X116867715Y-59281613D01*
X116988028Y-59447213D01*
X117132786Y-59591971D01*
X117242372Y-59671588D01*
X117298390Y-59712287D01*
X117414607Y-59771503D01*
X117480776Y-59805218D01*
X117480778Y-59805218D01*
X117480781Y-59805220D01*
X117585137Y-59839127D01*
X117675465Y-59868477D01*
X117776557Y-59884488D01*
X117877648Y-59900500D01*
X117877649Y-59900500D01*
X118082351Y-59900500D01*
X118082352Y-59900500D01*
X118284534Y-59868477D01*
X118479219Y-59805220D01*
X118661610Y-59712287D01*
X118794874Y-59615466D01*
X118827213Y-59591971D01*
X118827215Y-59591968D01*
X118827219Y-59591966D01*
X118971966Y-59447219D01*
X118971968Y-59447215D01*
X118971971Y-59447213D01*
X119092284Y-59281614D01*
X119092285Y-59281613D01*
X119092287Y-59281610D01*
X119139516Y-59188917D01*
X119187489Y-59138123D01*
X119255310Y-59121328D01*
X119321445Y-59143865D01*
X119360483Y-59188917D01*
X119375729Y-59218837D01*
X119407715Y-59281614D01*
X119528028Y-59447213D01*
X119672786Y-59591971D01*
X119782372Y-59671588D01*
X119838390Y-59712287D01*
X119954607Y-59771503D01*
X120020776Y-59805218D01*
X120020778Y-59805218D01*
X120020781Y-59805220D01*
X120125137Y-59839127D01*
X120215465Y-59868477D01*
X120316557Y-59884488D01*
X120417648Y-59900500D01*
X120417649Y-59900500D01*
X120622351Y-59900500D01*
X120622352Y-59900500D01*
X120824534Y-59868477D01*
X121019219Y-59805220D01*
X121201610Y-59712287D01*
X121334874Y-59615466D01*
X121367213Y-59591971D01*
X121367215Y-59591968D01*
X121367219Y-59591966D01*
X121511966Y-59447219D01*
X121511968Y-59447215D01*
X121511971Y-59447213D01*
X121632284Y-59281614D01*
X121632285Y-59281613D01*
X121632287Y-59281610D01*
X121679516Y-59188917D01*
X121727489Y-59138123D01*
X121795310Y-59121328D01*
X121861445Y-59143865D01*
X121900483Y-59188917D01*
X121915729Y-59218837D01*
X121947715Y-59281614D01*
X122068028Y-59447213D01*
X122212786Y-59591971D01*
X122322372Y-59671588D01*
X122378390Y-59712287D01*
X122494607Y-59771503D01*
X122560776Y-59805218D01*
X122560778Y-59805218D01*
X122560781Y-59805220D01*
X122665137Y-59839127D01*
X122755465Y-59868477D01*
X122856557Y-59884488D01*
X122957648Y-59900500D01*
X122957649Y-59900500D01*
X123162351Y-59900500D01*
X123162352Y-59900500D01*
X123364534Y-59868477D01*
X123559219Y-59805220D01*
X123741610Y-59712287D01*
X123874874Y-59615466D01*
X123907213Y-59591971D01*
X123907215Y-59591968D01*
X123907219Y-59591966D01*
X124051966Y-59447219D01*
X124051968Y-59447215D01*
X124051971Y-59447213D01*
X124172284Y-59281614D01*
X124172285Y-59281613D01*
X124172287Y-59281610D01*
X124219516Y-59188917D01*
X124267489Y-59138123D01*
X124335310Y-59121328D01*
X124401445Y-59143865D01*
X124440483Y-59188917D01*
X124455729Y-59218837D01*
X124487715Y-59281614D01*
X124608028Y-59447213D01*
X124752786Y-59591971D01*
X124862372Y-59671588D01*
X124918390Y-59712287D01*
X125034607Y-59771503D01*
X125100776Y-59805218D01*
X125100778Y-59805218D01*
X125100781Y-59805220D01*
X125205137Y-59839127D01*
X125295465Y-59868477D01*
X125396557Y-59884488D01*
X125497648Y-59900500D01*
X125497649Y-59900500D01*
X125702351Y-59900500D01*
X125702352Y-59900500D01*
X125904534Y-59868477D01*
X126099219Y-59805220D01*
X126281610Y-59712287D01*
X126414874Y-59615466D01*
X126447213Y-59591971D01*
X126447215Y-59591968D01*
X126447219Y-59591966D01*
X126591966Y-59447219D01*
X126591968Y-59447215D01*
X126591971Y-59447213D01*
X126712284Y-59281614D01*
X126712285Y-59281613D01*
X126712287Y-59281610D01*
X126759516Y-59188917D01*
X126807489Y-59138123D01*
X126875310Y-59121328D01*
X126941445Y-59143865D01*
X126980483Y-59188917D01*
X126995729Y-59218837D01*
X127027715Y-59281614D01*
X127148028Y-59447213D01*
X127292786Y-59591971D01*
X127402372Y-59671588D01*
X127458390Y-59712287D01*
X127574607Y-59771503D01*
X127640776Y-59805218D01*
X127640778Y-59805218D01*
X127640781Y-59805220D01*
X127745137Y-59839127D01*
X127835465Y-59868477D01*
X127936557Y-59884488D01*
X128037648Y-59900500D01*
X128037649Y-59900500D01*
X128242351Y-59900500D01*
X128242352Y-59900500D01*
X128444534Y-59868477D01*
X128639219Y-59805220D01*
X128821610Y-59712287D01*
X128954874Y-59615466D01*
X128987213Y-59591971D01*
X128987215Y-59591968D01*
X128987219Y-59591966D01*
X129131966Y-59447219D01*
X129131968Y-59447215D01*
X129131971Y-59447213D01*
X129252284Y-59281614D01*
X129252285Y-59281613D01*
X129252287Y-59281610D01*
X129299516Y-59188917D01*
X129347489Y-59138123D01*
X129415310Y-59121328D01*
X129481445Y-59143865D01*
X129520483Y-59188917D01*
X129535729Y-59218837D01*
X129567715Y-59281614D01*
X129688028Y-59447213D01*
X129832786Y-59591971D01*
X129998385Y-59712284D01*
X129998387Y-59712285D01*
X129998390Y-59712287D01*
X130100827Y-59764481D01*
X130151623Y-59812455D01*
X130168418Y-59880276D01*
X130145881Y-59946411D01*
X130091166Y-59989863D01*
X130076627Y-59994740D01*
X129963620Y-60025021D01*
X129963609Y-60025026D01*
X129826690Y-60104075D01*
X129826682Y-60104081D01*
X129064522Y-60866241D01*
X129003199Y-60899726D01*
X128938523Y-60896491D01*
X128896245Y-60882754D01*
X128741248Y-60858205D01*
X128686287Y-60849500D01*
X128473713Y-60849500D01*
X128425042Y-60857208D01*
X128263760Y-60882753D01*
X128061585Y-60948444D01*
X127872179Y-61044951D01*
X127700213Y-61169890D01*
X127549890Y-61320213D01*
X127424949Y-61492182D01*
X127420484Y-61500946D01*
X127372509Y-61551742D01*
X127304688Y-61568536D01*
X127238553Y-61545998D01*
X127199516Y-61500946D01*
X127195050Y-61492182D01*
X127070109Y-61320213D01*
X126919786Y-61169890D01*
X126747820Y-61044951D01*
X126558414Y-60948444D01*
X126558413Y-60948443D01*
X126558412Y-60948443D01*
X126356243Y-60882754D01*
X126356241Y-60882753D01*
X126356240Y-60882753D01*
X126194957Y-60857208D01*
X126146287Y-60849500D01*
X125933713Y-60849500D01*
X125885042Y-60857208D01*
X125723760Y-60882753D01*
X125521585Y-60948444D01*
X125332179Y-61044951D01*
X125160213Y-61169890D01*
X125009890Y-61320213D01*
X124884949Y-61492182D01*
X124880484Y-61500946D01*
X124832509Y-61551742D01*
X124764688Y-61568536D01*
X124698553Y-61545998D01*
X124659516Y-61500946D01*
X124655050Y-61492182D01*
X124530109Y-61320213D01*
X124379786Y-61169890D01*
X124207820Y-61044951D01*
X124018414Y-60948444D01*
X124018413Y-60948443D01*
X124018412Y-60948443D01*
X123816243Y-60882754D01*
X123816241Y-60882753D01*
X123816240Y-60882753D01*
X123654957Y-60857208D01*
X123606287Y-60849500D01*
X123393713Y-60849500D01*
X123345042Y-60857208D01*
X123183760Y-60882753D01*
X122981585Y-60948444D01*
X122792179Y-61044951D01*
X122620213Y-61169890D01*
X122469890Y-61320213D01*
X122344951Y-61492179D01*
X122248444Y-61681585D01*
X122182753Y-61883760D01*
X122149500Y-62093713D01*
X122149500Y-62306286D01*
X122179071Y-62492993D01*
X122182754Y-62516243D01*
X122227369Y-62653554D01*
X122248444Y-62718414D01*
X122344951Y-62907820D01*
X122469890Y-63079786D01*
X122620213Y-63230109D01*
X122792179Y-63355048D01*
X122792181Y-63355049D01*
X122792184Y-63355051D01*
X122981588Y-63451557D01*
X123183757Y-63517246D01*
X123393713Y-63550500D01*
X123393714Y-63550500D01*
X123606286Y-63550500D01*
X123606287Y-63550500D01*
X123816243Y-63517246D01*
X124018412Y-63451557D01*
X124207816Y-63355051D01*
X124273660Y-63307213D01*
X124379786Y-63230109D01*
X124379788Y-63230106D01*
X124379792Y-63230104D01*
X124530104Y-63079792D01*
X124530106Y-63079788D01*
X124530109Y-63079786D01*
X124655048Y-62907820D01*
X124655047Y-62907820D01*
X124655051Y-62907816D01*
X124659514Y-62899054D01*
X124707488Y-62848259D01*
X124775308Y-62831463D01*
X124841444Y-62853999D01*
X124880486Y-62899056D01*
X124884951Y-62907820D01*
X125009890Y-63079786D01*
X125160213Y-63230109D01*
X125332179Y-63355048D01*
X125332181Y-63355049D01*
X125332184Y-63355051D01*
X125521588Y-63451557D01*
X125723757Y-63517246D01*
X125933713Y-63550500D01*
X125933714Y-63550500D01*
X126146286Y-63550500D01*
X126146287Y-63550500D01*
X126356243Y-63517246D01*
X126558412Y-63451557D01*
X126747816Y-63355051D01*
X126813660Y-63307213D01*
X126919786Y-63230109D01*
X126919788Y-63230106D01*
X126919792Y-63230104D01*
X127070104Y-63079792D01*
X127070106Y-63079788D01*
X127070109Y-63079786D01*
X127195048Y-62907820D01*
X127195047Y-62907820D01*
X127195051Y-62907816D01*
X127199514Y-62899054D01*
X127247488Y-62848259D01*
X127315308Y-62831463D01*
X127381444Y-62853999D01*
X127420486Y-62899056D01*
X127424951Y-62907820D01*
X127549890Y-63079786D01*
X127700213Y-63230109D01*
X127872179Y-63355048D01*
X127872181Y-63355049D01*
X127872184Y-63355051D01*
X128061588Y-63451557D01*
X128263757Y-63517246D01*
X128473713Y-63550500D01*
X128473714Y-63550500D01*
X128686286Y-63550500D01*
X128686287Y-63550500D01*
X128896243Y-63517246D01*
X129098412Y-63451557D01*
X129287816Y-63355051D01*
X129353660Y-63307213D01*
X129459786Y-63230109D01*
X129459788Y-63230106D01*
X129459792Y-63230104D01*
X129610104Y-63079792D01*
X129610106Y-63079788D01*
X129610109Y-63079786D01*
X129735048Y-62907820D01*
X129735047Y-62907820D01*
X129735051Y-62907816D01*
X129739514Y-62899054D01*
X129787488Y-62848259D01*
X129855308Y-62831463D01*
X129921444Y-62853999D01*
X129960486Y-62899056D01*
X129964951Y-62907820D01*
X130089890Y-63079786D01*
X130240213Y-63230109D01*
X130412179Y-63355048D01*
X130412181Y-63355049D01*
X130412184Y-63355051D01*
X130601588Y-63451557D01*
X130803757Y-63517246D01*
X131013713Y-63550500D01*
X131013714Y-63550500D01*
X131226286Y-63550500D01*
X131226287Y-63550500D01*
X131436243Y-63517246D01*
X131638412Y-63451557D01*
X131827816Y-63355051D01*
X131893660Y-63307213D01*
X131999786Y-63230109D01*
X131999788Y-63230106D01*
X131999792Y-63230104D01*
X132150104Y-63079792D01*
X132150106Y-63079788D01*
X132150109Y-63079786D01*
X132275048Y-62907820D01*
X132275047Y-62907820D01*
X132275051Y-62907816D01*
X132279514Y-62899054D01*
X132327488Y-62848259D01*
X132395308Y-62831463D01*
X132461444Y-62853999D01*
X132500486Y-62899056D01*
X132504951Y-62907820D01*
X132629890Y-63079786D01*
X132780213Y-63230109D01*
X132952179Y-63355048D01*
X132952181Y-63355049D01*
X132952184Y-63355051D01*
X133141588Y-63451557D01*
X133343757Y-63517246D01*
X133553713Y-63550500D01*
X133553714Y-63550500D01*
X133766286Y-63550500D01*
X133766287Y-63550500D01*
X133976243Y-63517246D01*
X134178412Y-63451557D01*
X134367816Y-63355051D01*
X134454478Y-63292088D01*
X134539784Y-63230110D01*
X134539784Y-63230109D01*
X134539792Y-63230104D01*
X134653717Y-63116178D01*
X134715036Y-63082696D01*
X134784728Y-63087680D01*
X134840662Y-63129551D01*
X134857577Y-63160528D01*
X134906646Y-63292088D01*
X134906649Y-63292093D01*
X134992809Y-63407187D01*
X134992812Y-63407190D01*
X135107906Y-63493350D01*
X135107913Y-63493354D01*
X135242620Y-63543596D01*
X135242627Y-63543598D01*
X135302155Y-63549999D01*
X135302172Y-63550000D01*
X135950000Y-63550000D01*
X135950000Y-62633012D01*
X136007007Y-62665925D01*
X136134174Y-62700000D01*
X136265826Y-62700000D01*
X136392993Y-62665925D01*
X136450000Y-62633012D01*
X136450000Y-63550000D01*
X137097828Y-63550000D01*
X137097844Y-63549999D01*
X137157372Y-63543598D01*
X137157379Y-63543596D01*
X137292086Y-63493354D01*
X137292093Y-63493350D01*
X137407187Y-63407190D01*
X137407190Y-63407187D01*
X137492145Y-63293702D01*
X137492147Y-63293700D01*
X137493352Y-63292089D01*
X137493354Y-63292086D01*
X137543596Y-63157379D01*
X137543598Y-63157372D01*
X137549999Y-63097844D01*
X137550000Y-63097827D01*
X137550000Y-62450000D01*
X136633012Y-62450000D01*
X136665925Y-62392993D01*
X136700000Y-62265826D01*
X136700000Y-62134174D01*
X136665925Y-62007007D01*
X136633012Y-61950000D01*
X137550000Y-61950000D01*
X137550000Y-61302172D01*
X137549999Y-61302155D01*
X137543598Y-61242627D01*
X137543596Y-61242620D01*
X137493354Y-61107913D01*
X137493350Y-61107906D01*
X137407190Y-60992812D01*
X137407187Y-60992809D01*
X137292093Y-60906649D01*
X137292086Y-60906645D01*
X137157379Y-60856403D01*
X137157372Y-60856401D01*
X137097844Y-60850000D01*
X136450000Y-60850000D01*
X136450000Y-61766988D01*
X136392993Y-61734075D01*
X136265826Y-61700000D01*
X136134174Y-61700000D01*
X136007007Y-61734075D01*
X135950000Y-61766988D01*
X135950000Y-60948096D01*
X135958644Y-60918655D01*
X135965168Y-60888669D01*
X135968922Y-60883653D01*
X135969685Y-60881057D01*
X135986319Y-60860415D01*
X136135777Y-60710957D01*
X136550448Y-60296286D01*
X137036017Y-59810716D01*
X137097338Y-59777233D01*
X137167029Y-59782217D01*
X137198004Y-59799130D01*
X137255875Y-59842453D01*
X137257668Y-59843795D01*
X137257671Y-59843797D01*
X137392517Y-59894091D01*
X137392516Y-59894091D01*
X137399444Y-59894835D01*
X137452127Y-59900500D01*
X139147872Y-59900499D01*
X139207483Y-59894091D01*
X139342331Y-59843796D01*
X139457546Y-59757546D01*
X139504375Y-59694990D01*
X139560306Y-59653120D01*
X139629998Y-59648136D01*
X139651090Y-59654740D01*
X139654703Y-59656237D01*
X139654707Y-59656237D01*
X139654708Y-59656238D01*
X139809354Y-59687000D01*
X139809357Y-59687000D01*
X139809358Y-59687000D01*
X148543560Y-59687000D01*
X148610599Y-59706685D01*
X148631241Y-59723319D01*
X149663391Y-60755469D01*
X149696876Y-60816792D01*
X149691892Y-60886484D01*
X149650020Y-60942417D01*
X149595109Y-60965623D01*
X149483870Y-60983242D01*
X149483869Y-60983242D01*
X149281782Y-61048904D01*
X149092439Y-61145380D01*
X149038282Y-61184727D01*
X149038282Y-61184728D01*
X149670591Y-61817037D01*
X149607007Y-61834075D01*
X149492993Y-61899901D01*
X149399901Y-61992993D01*
X149334075Y-62107007D01*
X149317037Y-62170591D01*
X148684728Y-61538282D01*
X148684727Y-61538282D01*
X148645380Y-61592439D01*
X148548904Y-61781782D01*
X148483242Y-61983869D01*
X148483242Y-61983872D01*
X148450000Y-62193753D01*
X148450000Y-62406246D01*
X148483242Y-62616127D01*
X148483242Y-62616130D01*
X148548904Y-62818217D01*
X148645375Y-63007550D01*
X148684728Y-63061716D01*
X149317037Y-62429408D01*
X149334075Y-62492993D01*
X149399901Y-62607007D01*
X149492993Y-62700099D01*
X149607007Y-62765925D01*
X149670590Y-62782962D01*
X149038282Y-63415269D01*
X149038282Y-63415270D01*
X149092449Y-63454624D01*
X149281782Y-63551095D01*
X149483870Y-63616757D01*
X149693754Y-63650000D01*
X149906246Y-63650000D01*
X150116127Y-63616757D01*
X150116130Y-63616757D01*
X150318217Y-63551095D01*
X150507554Y-63454622D01*
X150561716Y-63415270D01*
X150561717Y-63415270D01*
X149929408Y-62782962D01*
X149992993Y-62765925D01*
X150107007Y-62700099D01*
X150200099Y-62607007D01*
X150265925Y-62492993D01*
X150282962Y-62429408D01*
X150915270Y-63061717D01*
X150915270Y-63061716D01*
X150954622Y-63007555D01*
X150959232Y-62998507D01*
X151007205Y-62947709D01*
X151075025Y-62930912D01*
X151141161Y-62953447D01*
X151180204Y-62998504D01*
X151184949Y-63007817D01*
X151309890Y-63179786D01*
X151460213Y-63330109D01*
X151632179Y-63455048D01*
X151632181Y-63455049D01*
X151632184Y-63455051D01*
X151821588Y-63551557D01*
X152023757Y-63617246D01*
X152233713Y-63650500D01*
X152233714Y-63650500D01*
X152446285Y-63650500D01*
X152446287Y-63650500D01*
X152480686Y-63645051D01*
X152549977Y-63654005D01*
X152587765Y-63679843D01*
X172189511Y-83281589D01*
X172273720Y-83365798D01*
X172301012Y-83393090D01*
X172432114Y-83480690D01*
X172432127Y-83480697D01*
X172577798Y-83541035D01*
X172577803Y-83541037D01*
X172732453Y-83571799D01*
X172732456Y-83571800D01*
X172732458Y-83571800D01*
X175947702Y-83571800D01*
X176014741Y-83591485D01*
X176060496Y-83644289D01*
X176070440Y-83713447D01*
X176041415Y-83777003D01*
X176035383Y-83783481D01*
X174931281Y-84887582D01*
X174931278Y-84887586D01*
X174927892Y-84893453D01*
X174927888Y-84893459D01*
X174852224Y-85024511D01*
X174852223Y-85024515D01*
X174811299Y-85177243D01*
X174811299Y-85177245D01*
X174811299Y-85345346D01*
X174811300Y-85345359D01*
X174811300Y-94077430D01*
X174811299Y-94077448D01*
X174811299Y-94243154D01*
X174811298Y-94243154D01*
X174852223Y-94395885D01*
X174881158Y-94446000D01*
X174881159Y-94446004D01*
X174881160Y-94446004D01*
X174931279Y-94532814D01*
X174931281Y-94532817D01*
X175050149Y-94651685D01*
X175050155Y-94651690D01*
X175938567Y-95540102D01*
X175951821Y-95564376D01*
X175967936Y-95586854D01*
X175968330Y-95594609D01*
X175972052Y-95601425D01*
X175970079Y-95629013D01*
X175971483Y-95656633D01*
X175967482Y-95665320D01*
X175967068Y-95671117D01*
X175958470Y-95689441D01*
X175907864Y-95777741D01*
X175884766Y-95799904D01*
X175862790Y-95823174D01*
X175859727Y-95823932D01*
X175857451Y-95826117D01*
X175826041Y-95832274D01*
X175794969Y-95839969D01*
X175791982Y-95838951D01*
X175788886Y-95839558D01*
X175759132Y-95827756D01*
X175728834Y-95817431D01*
X175726599Y-95814852D01*
X175723939Y-95813797D01*
X175715572Y-95802126D01*
X175689795Y-95772378D01*
X175662287Y-95718390D01*
X175662285Y-95718387D01*
X175662284Y-95718385D01*
X175541971Y-95552786D01*
X175397213Y-95408028D01*
X175231613Y-95287715D01*
X175231612Y-95287714D01*
X175231610Y-95287713D01*
X175151104Y-95246693D01*
X175049223Y-95194781D01*
X174854534Y-95131522D01*
X174679995Y-95103878D01*
X174652352Y-95099500D01*
X174447648Y-95099500D01*
X174423329Y-95103351D01*
X174245465Y-95131522D01*
X174110226Y-95175465D01*
X174050781Y-95194780D01*
X174050778Y-95194781D01*
X174050776Y-95194782D01*
X173948895Y-95246693D01*
X173880225Y-95259589D01*
X173815485Y-95233312D01*
X173775228Y-95176206D01*
X173768600Y-95136208D01*
X173768600Y-94738665D01*
X173788285Y-94671626D01*
X173789498Y-94669774D01*
X173877490Y-94538085D01*
X173877490Y-94538084D01*
X173877494Y-94538079D01*
X173937837Y-94392397D01*
X173968600Y-94237742D01*
X173968600Y-94080058D01*
X173968600Y-94080055D01*
X173968599Y-94080053D01*
X173937838Y-93925410D01*
X173937837Y-93925403D01*
X173880600Y-93787219D01*
X173877497Y-93779727D01*
X173877490Y-93779714D01*
X173789889Y-93648611D01*
X173789886Y-93648607D01*
X173678391Y-93537112D01*
X173678388Y-93537110D01*
X173547285Y-93449509D01*
X173547272Y-93449502D01*
X173401601Y-93389164D01*
X173401589Y-93389161D01*
X173246945Y-93358400D01*
X173246942Y-93358400D01*
X173089258Y-93358400D01*
X173089255Y-93358400D01*
X172934610Y-93389161D01*
X172934598Y-93389164D01*
X172788927Y-93449502D01*
X172788914Y-93449509D01*
X172657811Y-93537110D01*
X172657809Y-93537112D01*
X172546313Y-93648607D01*
X172546310Y-93648611D01*
X172458709Y-93779714D01*
X172458702Y-93779727D01*
X172398364Y-93925398D01*
X172398361Y-93925410D01*
X172367600Y-94080053D01*
X172367600Y-94237746D01*
X172398361Y-94392389D01*
X172398364Y-94392401D01*
X172458702Y-94538072D01*
X172458709Y-94538085D01*
X172546702Y-94669774D01*
X172567580Y-94736451D01*
X172567600Y-94738665D01*
X172567600Y-96541330D01*
X172567599Y-96541348D01*
X172567599Y-96707054D01*
X172567598Y-96707054D01*
X172579106Y-96750000D01*
X172608523Y-96859785D01*
X172631182Y-96899031D01*
X172636193Y-96907709D01*
X172636194Y-96907713D01*
X172636195Y-96907713D01*
X172687579Y-96996714D01*
X172687581Y-96996717D01*
X172806449Y-97115585D01*
X172806454Y-97115589D01*
X174467284Y-98776420D01*
X174604215Y-98855477D01*
X174756943Y-98896401D01*
X174756946Y-98896401D01*
X174922654Y-98896401D01*
X174922670Y-98896400D01*
X178749903Y-98896400D01*
X178816942Y-98916085D01*
X178837584Y-98932719D01*
X182240739Y-102335874D01*
X182240749Y-102335885D01*
X182245079Y-102340215D01*
X182245080Y-102340216D01*
X182356884Y-102452020D01*
X182356886Y-102452021D01*
X182356890Y-102452024D01*
X182471256Y-102518052D01*
X182493816Y-102531077D01*
X182605619Y-102561034D01*
X182646542Y-102572000D01*
X182646543Y-102572000D01*
X183393460Y-102572000D01*
X183460499Y-102591685D01*
X183506254Y-102644489D01*
X183516198Y-102713647D01*
X183511391Y-102734319D01*
X183491522Y-102795465D01*
X183459500Y-102997648D01*
X183459500Y-103202351D01*
X183491522Y-103404534D01*
X183554781Y-103599223D01*
X183647715Y-103781613D01*
X183768028Y-103947213D01*
X183912786Y-104091971D01*
X184067749Y-104204556D01*
X184078390Y-104212287D01*
X184169840Y-104258883D01*
X184171080Y-104259515D01*
X184221876Y-104307490D01*
X184238671Y-104375311D01*
X184216134Y-104441446D01*
X184171080Y-104480485D01*
X184078386Y-104527715D01*
X183912786Y-104648028D01*
X183768028Y-104792786D01*
X183647715Y-104958386D01*
X183554781Y-105140776D01*
X183491522Y-105335465D01*
X183459500Y-105537648D01*
X183459500Y-105742351D01*
X183491522Y-105944534D01*
X183554781Y-106139223D01*
X183601950Y-106231795D01*
X183636447Y-106299500D01*
X183647715Y-106321613D01*
X183768028Y-106487213D01*
X183912786Y-106631971D01*
X184067749Y-106744556D01*
X184078390Y-106752287D01*
X184194607Y-106811503D01*
X184260776Y-106845218D01*
X184260778Y-106845218D01*
X184260781Y-106845220D01*
X184365137Y-106879127D01*
X184455465Y-106908477D01*
X184556557Y-106924488D01*
X184657648Y-106940500D01*
X184657649Y-106940500D01*
X184862351Y-106940500D01*
X184862352Y-106940500D01*
X185064534Y-106908477D01*
X185259219Y-106845220D01*
X185441610Y-106752287D01*
X185534590Y-106684732D01*
X185607213Y-106631971D01*
X185607215Y-106631968D01*
X185607219Y-106631966D01*
X185751966Y-106487219D01*
X185751968Y-106487215D01*
X185751971Y-106487213D01*
X185804732Y-106414590D01*
X185872287Y-106321610D01*
X185965220Y-106139219D01*
X186028477Y-105944534D01*
X186060500Y-105742352D01*
X186060500Y-105537648D01*
X186028477Y-105335466D01*
X185965220Y-105140781D01*
X185965218Y-105140778D01*
X185965218Y-105140776D01*
X185931503Y-105074607D01*
X185872287Y-104958390D01*
X185864556Y-104947749D01*
X185751971Y-104792786D01*
X185607213Y-104648028D01*
X185441614Y-104527715D01*
X185435006Y-104524348D01*
X185348917Y-104480483D01*
X185298123Y-104432511D01*
X185281328Y-104364690D01*
X185303865Y-104298555D01*
X185348917Y-104259516D01*
X185441610Y-104212287D01*
X185462770Y-104196913D01*
X185607213Y-104091971D01*
X185607215Y-104091968D01*
X185607219Y-104091966D01*
X185751966Y-103947219D01*
X185751968Y-103947215D01*
X185751971Y-103947213D01*
X185866117Y-103790102D01*
X185872287Y-103781610D01*
X185965220Y-103599219D01*
X186028477Y-103404534D01*
X186060500Y-103202352D01*
X186060500Y-102997648D01*
X186028477Y-102795466D01*
X186008608Y-102734318D01*
X186006614Y-102664478D01*
X186042694Y-102604645D01*
X186105394Y-102573816D01*
X186126540Y-102572000D01*
X196031403Y-102572000D01*
X196098442Y-102591685D01*
X196119084Y-102608319D01*
X198705922Y-105195157D01*
X198739407Y-105256480D01*
X198736173Y-105321155D01*
X198731522Y-105335468D01*
X198699500Y-105537648D01*
X198699500Y-105742351D01*
X198731522Y-105944534D01*
X198794781Y-106139223D01*
X198841950Y-106231795D01*
X198876447Y-106299500D01*
X198887715Y-106321613D01*
X199008028Y-106487213D01*
X199152786Y-106631971D01*
X199307749Y-106744556D01*
X199318390Y-106752287D01*
X199434607Y-106811503D01*
X199500776Y-106845218D01*
X199500778Y-106845218D01*
X199500781Y-106845220D01*
X199605137Y-106879127D01*
X199695465Y-106908477D01*
X199796557Y-106924488D01*
X199897648Y-106940500D01*
X199897649Y-106940500D01*
X200102351Y-106940500D01*
X200102352Y-106940500D01*
X200304534Y-106908477D01*
X200499219Y-106845220D01*
X200681610Y-106752287D01*
X200774590Y-106684732D01*
X200847213Y-106631971D01*
X200847215Y-106631968D01*
X200847219Y-106631966D01*
X200991966Y-106487219D01*
X200991968Y-106487215D01*
X200991971Y-106487213D01*
X201044732Y-106414590D01*
X201112287Y-106321610D01*
X201205220Y-106139219D01*
X201268477Y-105944534D01*
X201300500Y-105742352D01*
X201300500Y-105537648D01*
X201268477Y-105335466D01*
X201205220Y-105140781D01*
X201205218Y-105140778D01*
X201205218Y-105140776D01*
X201171503Y-105074607D01*
X201112287Y-104958390D01*
X201104556Y-104947749D01*
X200991971Y-104792786D01*
X200847213Y-104648028D01*
X200681614Y-104527715D01*
X200675006Y-104524348D01*
X200588917Y-104480483D01*
X200538123Y-104432511D01*
X200521328Y-104364690D01*
X200543865Y-104298555D01*
X200588917Y-104259516D01*
X200681610Y-104212287D01*
X200702770Y-104196913D01*
X200847213Y-104091971D01*
X200847215Y-104091968D01*
X200847219Y-104091966D01*
X200991966Y-103947219D01*
X200991968Y-103947215D01*
X200991971Y-103947213D01*
X201106117Y-103790102D01*
X201112287Y-103781610D01*
X201205220Y-103599219D01*
X201268477Y-103404534D01*
X201300500Y-103202352D01*
X201300500Y-102997648D01*
X201268477Y-102795466D01*
X201254109Y-102751247D01*
X201222888Y-102655157D01*
X201205220Y-102600781D01*
X201205218Y-102600778D01*
X201205218Y-102600776D01*
X201129424Y-102452024D01*
X201112287Y-102418390D01*
X201055489Y-102340213D01*
X200991971Y-102252786D01*
X200847213Y-102108028D01*
X200681614Y-101987715D01*
X200627004Y-101959890D01*
X200588917Y-101940483D01*
X200538123Y-101892511D01*
X200521328Y-101824690D01*
X200543865Y-101758555D01*
X200588917Y-101719516D01*
X200681610Y-101672287D01*
X200767541Y-101609855D01*
X200847213Y-101551971D01*
X200847215Y-101551968D01*
X200847219Y-101551966D01*
X200991966Y-101407219D01*
X200991968Y-101407215D01*
X200991971Y-101407213D01*
X201070946Y-101298511D01*
X201112287Y-101241610D01*
X201205220Y-101059219D01*
X201268477Y-100864534D01*
X201300500Y-100662352D01*
X201300500Y-100457648D01*
X201268477Y-100255466D01*
X201205220Y-100060781D01*
X201205218Y-100060778D01*
X201205218Y-100060776D01*
X201171503Y-99994607D01*
X201112287Y-99878390D01*
X201104556Y-99867749D01*
X200991971Y-99712786D01*
X200847213Y-99568028D01*
X200681614Y-99447715D01*
X200675006Y-99444348D01*
X200588917Y-99400483D01*
X200538123Y-99352511D01*
X200521328Y-99284690D01*
X200543865Y-99218555D01*
X200588917Y-99179516D01*
X200681610Y-99132287D01*
X200702770Y-99116913D01*
X200847213Y-99011971D01*
X200847215Y-99011968D01*
X200847219Y-99011966D01*
X200991966Y-98867219D01*
X200991968Y-98867215D01*
X200991971Y-98867213D01*
X201057937Y-98776417D01*
X201112287Y-98701610D01*
X201205220Y-98519219D01*
X201268477Y-98324534D01*
X201300500Y-98122352D01*
X201300500Y-97917648D01*
X201276364Y-97765259D01*
X201268477Y-97715465D01*
X201215933Y-97553753D01*
X201205220Y-97520781D01*
X201205218Y-97520778D01*
X201205218Y-97520776D01*
X201139585Y-97391966D01*
X201112287Y-97338390D01*
X201104556Y-97327749D01*
X200991971Y-97172786D01*
X200847213Y-97028028D01*
X200681614Y-96907715D01*
X200675006Y-96904348D01*
X200588917Y-96860483D01*
X200538123Y-96812511D01*
X200521328Y-96744690D01*
X200543865Y-96678555D01*
X200588917Y-96639516D01*
X200681610Y-96592287D01*
X200733766Y-96554394D01*
X200847213Y-96471971D01*
X200847215Y-96471968D01*
X200847219Y-96471966D01*
X200991966Y-96327219D01*
X200991968Y-96327215D01*
X200991971Y-96327213D01*
X201051261Y-96245606D01*
X201112287Y-96161610D01*
X201205220Y-95979219D01*
X201268477Y-95784534D01*
X201300500Y-95582352D01*
X201300500Y-95377648D01*
X201286256Y-95287715D01*
X201268477Y-95175465D01*
X201205218Y-94980776D01*
X201157632Y-94887384D01*
X201112287Y-94798390D01*
X201095715Y-94775580D01*
X200991971Y-94632786D01*
X200847213Y-94488028D01*
X200681614Y-94367715D01*
X200675006Y-94364348D01*
X200588917Y-94320483D01*
X200538123Y-94272511D01*
X200521328Y-94204690D01*
X200543865Y-94138555D01*
X200588917Y-94099516D01*
X200681610Y-94052287D01*
X200702770Y-94036913D01*
X200847213Y-93931971D01*
X200847215Y-93931968D01*
X200847219Y-93931966D01*
X200991966Y-93787219D01*
X200991968Y-93787215D01*
X200991971Y-93787213D01*
X201044732Y-93714590D01*
X201112287Y-93621610D01*
X201205220Y-93439219D01*
X201268477Y-93244534D01*
X201300500Y-93042352D01*
X201300500Y-92837648D01*
X201268477Y-92635466D01*
X201205220Y-92440781D01*
X201205218Y-92440778D01*
X201205218Y-92440776D01*
X201145525Y-92323623D01*
X201112287Y-92258390D01*
X201073162Y-92204538D01*
X200991971Y-92092786D01*
X200847213Y-91948028D01*
X200681614Y-91827715D01*
X200622604Y-91797648D01*
X200588917Y-91780483D01*
X200538123Y-91732511D01*
X200521328Y-91664690D01*
X200543865Y-91598555D01*
X200588917Y-91559516D01*
X200681610Y-91512287D01*
X200760245Y-91455156D01*
X200847213Y-91391971D01*
X200847215Y-91391968D01*
X200847219Y-91391966D01*
X200991966Y-91247219D01*
X200991968Y-91247215D01*
X200991971Y-91247213D01*
X201072086Y-91136942D01*
X201112287Y-91081610D01*
X201205220Y-90899219D01*
X201268477Y-90704534D01*
X201300500Y-90502352D01*
X201300500Y-90297648D01*
X201293829Y-90255531D01*
X201268477Y-90095465D01*
X201239127Y-90005137D01*
X201205220Y-89900781D01*
X201205218Y-89900778D01*
X201205218Y-89900776D01*
X201170422Y-89832486D01*
X201112287Y-89718390D01*
X201070329Y-89660639D01*
X200991971Y-89552786D01*
X200847213Y-89408028D01*
X200681614Y-89287715D01*
X200675006Y-89284348D01*
X200588917Y-89240483D01*
X200538123Y-89192511D01*
X200521328Y-89124690D01*
X200543865Y-89058555D01*
X200588917Y-89019516D01*
X200681610Y-88972287D01*
X200702770Y-88956913D01*
X200847213Y-88851971D01*
X200847215Y-88851968D01*
X200847219Y-88851966D01*
X200991966Y-88707219D01*
X200991968Y-88707215D01*
X200991971Y-88707213D01*
X201044732Y-88634590D01*
X201112287Y-88541610D01*
X201205220Y-88359219D01*
X201268477Y-88164534D01*
X201300500Y-87962352D01*
X201300500Y-87757648D01*
X201268477Y-87555466D01*
X201205220Y-87360781D01*
X201205218Y-87360778D01*
X201205218Y-87360776D01*
X201171503Y-87294607D01*
X201112287Y-87178390D01*
X201104556Y-87167749D01*
X200991971Y-87012786D01*
X200847213Y-86868028D01*
X200681614Y-86747715D01*
X200675006Y-86744348D01*
X200588917Y-86700483D01*
X200538123Y-86652511D01*
X200521328Y-86584690D01*
X200543865Y-86518555D01*
X200588917Y-86479516D01*
X200681610Y-86432287D01*
X200726774Y-86399474D01*
X200847213Y-86311971D01*
X200847215Y-86311968D01*
X200847219Y-86311966D01*
X200991966Y-86167219D01*
X200991968Y-86167215D01*
X200991971Y-86167213D01*
X201044732Y-86094590D01*
X201112287Y-86001610D01*
X201205220Y-85819219D01*
X201268477Y-85624534D01*
X201300500Y-85422352D01*
X201300500Y-85217648D01*
X201281866Y-85100000D01*
X201268477Y-85015465D01*
X201237458Y-84920000D01*
X201205220Y-84820781D01*
X201203038Y-84816498D01*
X201202529Y-84813791D01*
X201200727Y-84811711D01*
X201196117Y-84779653D01*
X201190140Y-84747829D01*
X201191174Y-84745278D01*
X201190783Y-84742553D01*
X201204237Y-84713091D01*
X201216414Y-84683088D01*
X201218664Y-84681501D01*
X201219808Y-84678997D01*
X201247047Y-84661491D01*
X201273519Y-84642829D01*
X201276979Y-84642255D01*
X201278586Y-84641223D01*
X201313521Y-84636200D01*
X201525331Y-84636200D01*
X201525347Y-84636201D01*
X201532943Y-84636201D01*
X201691054Y-84636201D01*
X201691057Y-84636201D01*
X201843785Y-84595277D01*
X201893904Y-84566339D01*
X201980716Y-84516220D01*
X202092520Y-84404416D01*
X202092520Y-84404414D01*
X202102728Y-84394207D01*
X202102730Y-84394204D01*
X205462406Y-81034528D01*
X205462411Y-81034524D01*
X205472614Y-81024320D01*
X205472616Y-81024320D01*
X205584420Y-80912516D01*
X205663477Y-80775584D01*
X205704400Y-80622857D01*
X205704400Y-71188466D01*
X205724085Y-71121427D01*
X205728083Y-71115580D01*
X205770048Y-71057820D01*
X205770047Y-71057820D01*
X205770051Y-71057816D01*
X205866557Y-70868412D01*
X205932246Y-70666243D01*
X205965500Y-70456287D01*
X205965500Y-70243713D01*
X205932246Y-70033757D01*
X205866557Y-69831588D01*
X205770051Y-69642184D01*
X205770049Y-69642181D01*
X205770048Y-69642179D01*
X205645109Y-69470213D01*
X205494786Y-69319890D01*
X205322820Y-69194951D01*
X205322115Y-69194591D01*
X205314054Y-69190485D01*
X205263259Y-69142512D01*
X205246463Y-69074692D01*
X205268999Y-69008556D01*
X205314054Y-68969515D01*
X205322816Y-68965051D01*
X205384156Y-68920485D01*
X205494786Y-68840109D01*
X205494788Y-68840106D01*
X205494792Y-68840104D01*
X205645104Y-68689792D01*
X205645106Y-68689788D01*
X205645109Y-68689786D01*
X205770048Y-68517820D01*
X205770047Y-68517820D01*
X205770051Y-68517816D01*
X205866557Y-68328412D01*
X205932246Y-68126243D01*
X205965500Y-67916287D01*
X205965500Y-67703713D01*
X205932246Y-67493757D01*
X205866557Y-67291588D01*
X205770051Y-67102184D01*
X205770049Y-67102181D01*
X205770048Y-67102179D01*
X205645109Y-66930213D01*
X205494786Y-66779890D01*
X205322817Y-66654949D01*
X205313504Y-66650204D01*
X205262707Y-66602230D01*
X205245912Y-66534409D01*
X205268449Y-66468274D01*
X205313507Y-66429232D01*
X205322555Y-66424622D01*
X205376716Y-66385270D01*
X205376717Y-66385270D01*
X204744408Y-65752962D01*
X204807993Y-65735925D01*
X204922007Y-65670099D01*
X205015099Y-65577007D01*
X205080925Y-65462993D01*
X205097962Y-65399409D01*
X205730270Y-66031717D01*
X205730270Y-66031716D01*
X205769622Y-65977554D01*
X205866095Y-65788217D01*
X205931757Y-65586130D01*
X205931757Y-65586127D01*
X205965000Y-65376246D01*
X205965000Y-65163753D01*
X205931757Y-64953872D01*
X205931757Y-64953869D01*
X205866095Y-64751782D01*
X205769624Y-64562449D01*
X205730270Y-64508282D01*
X205730269Y-64508282D01*
X205097962Y-65140590D01*
X205080925Y-65077007D01*
X205015099Y-64962993D01*
X204922007Y-64869901D01*
X204807993Y-64804075D01*
X204744409Y-64787037D01*
X205376716Y-64154728D01*
X205322547Y-64115373D01*
X205322547Y-64115372D01*
X205313500Y-64110763D01*
X205262706Y-64062788D01*
X205245912Y-63994966D01*
X205268451Y-63928832D01*
X205313508Y-63889793D01*
X205322816Y-63885051D01*
X205438699Y-63800858D01*
X205494786Y-63760109D01*
X205494788Y-63760106D01*
X205494792Y-63760104D01*
X205645104Y-63609792D01*
X205645106Y-63609788D01*
X205645109Y-63609786D01*
X205770048Y-63437820D01*
X205770047Y-63437820D01*
X205770051Y-63437816D01*
X205866557Y-63248412D01*
X205932246Y-63046243D01*
X205965500Y-62836287D01*
X205965500Y-62623713D01*
X205932246Y-62413757D01*
X205866557Y-62211588D01*
X205770051Y-62022184D01*
X205770049Y-62022181D01*
X205770048Y-62022179D01*
X205645109Y-61850213D01*
X205494786Y-61699890D01*
X205322820Y-61574951D01*
X205322115Y-61574591D01*
X205314054Y-61570485D01*
X205263259Y-61522512D01*
X205246463Y-61454692D01*
X205268999Y-61388556D01*
X205314054Y-61349515D01*
X205322816Y-61345051D01*
X205378027Y-61304938D01*
X205494786Y-61220109D01*
X205494788Y-61220106D01*
X205494792Y-61220104D01*
X205645104Y-61069792D01*
X205645106Y-61069788D01*
X205645109Y-61069786D01*
X205770048Y-60897820D01*
X205770047Y-60897820D01*
X205770051Y-60897816D01*
X205866557Y-60708412D01*
X205932246Y-60506243D01*
X205965500Y-60296287D01*
X205965500Y-60083713D01*
X205932246Y-59873757D01*
X205866557Y-59671588D01*
X205770051Y-59482184D01*
X205770049Y-59482181D01*
X205770048Y-59482179D01*
X205645109Y-59310213D01*
X205531569Y-59196673D01*
X205498084Y-59135350D01*
X205503068Y-59065658D01*
X205544940Y-59009725D01*
X205575915Y-58992810D01*
X205707331Y-58943796D01*
X205822546Y-58857546D01*
X205908796Y-58742331D01*
X205959091Y-58607483D01*
X205965500Y-58547873D01*
X205965499Y-56752128D01*
X205959091Y-56692517D01*
X205947129Y-56660446D01*
X205908797Y-56557671D01*
X205908793Y-56557664D01*
X205822547Y-56442455D01*
X205822544Y-56442452D01*
X205707335Y-56356206D01*
X205707328Y-56356202D01*
X205572482Y-56305908D01*
X205572483Y-56305908D01*
X205512883Y-56299501D01*
X205512881Y-56299500D01*
X205512873Y-56299500D01*
X205512864Y-56299500D01*
X203717129Y-56299500D01*
X203717123Y-56299501D01*
X203657516Y-56305908D01*
X203522671Y-56356202D01*
X203522664Y-56356206D01*
X203407455Y-56442452D01*
X203407452Y-56442455D01*
X203321206Y-56557664D01*
X203321202Y-56557671D01*
X203270908Y-56692517D01*
X203264501Y-56752116D01*
X203264501Y-56752123D01*
X203264500Y-56752135D01*
X203264500Y-58547870D01*
X203264501Y-58547876D01*
X203270908Y-58607483D01*
X203321202Y-58742328D01*
X203321206Y-58742335D01*
X203407452Y-58857544D01*
X203407455Y-58857547D01*
X203522664Y-58943793D01*
X203522671Y-58943797D01*
X203654082Y-58992810D01*
X203710016Y-59034681D01*
X203734433Y-59100145D01*
X203719582Y-59168418D01*
X203698431Y-59196673D01*
X203584889Y-59310215D01*
X203459948Y-59482184D01*
X203459947Y-59482185D01*
X203439765Y-59521795D01*
X203391791Y-59572591D01*
X203329281Y-59589500D01*
X201350132Y-59589500D01*
X201283093Y-59569815D01*
X201237338Y-59517011D01*
X201232201Y-59503818D01*
X201205221Y-59420783D01*
X201164008Y-59339898D01*
X201112287Y-59238390D01*
X201061450Y-59168418D01*
X200991971Y-59072786D01*
X200847213Y-58928028D01*
X200681614Y-58807715D01*
X200675006Y-58804348D01*
X200588917Y-58760483D01*
X200538123Y-58712511D01*
X200521328Y-58644690D01*
X200543865Y-58578555D01*
X200588917Y-58539516D01*
X200681610Y-58492287D01*
X200810482Y-58398657D01*
X200847213Y-58371971D01*
X200847215Y-58371968D01*
X200847219Y-58371966D01*
X200991966Y-58227219D01*
X200991968Y-58227215D01*
X200991971Y-58227213D01*
X201079576Y-58106633D01*
X201112287Y-58061610D01*
X201205220Y-57879219D01*
X201268477Y-57684534D01*
X201300500Y-57482352D01*
X201300500Y-57277648D01*
X201268477Y-57075466D01*
X201205220Y-56880781D01*
X201205218Y-56880778D01*
X201205218Y-56880776D01*
X201139668Y-56752129D01*
X201112287Y-56698390D01*
X201084729Y-56660459D01*
X200991971Y-56532786D01*
X200847213Y-56388028D01*
X200681613Y-56267715D01*
X200681612Y-56267714D01*
X200681610Y-56267713D01*
X200624653Y-56238691D01*
X200499223Y-56174781D01*
X200304534Y-56111522D01*
X200129995Y-56083878D01*
X200102352Y-56079500D01*
X199897648Y-56079500D01*
X199873329Y-56083351D01*
X199695465Y-56111522D01*
X199500776Y-56174781D01*
X199318386Y-56267715D01*
X199152786Y-56388028D01*
X199008028Y-56532786D01*
X198887715Y-56698386D01*
X198794781Y-56880776D01*
X198731522Y-57075465D01*
X198699500Y-57277648D01*
X198699500Y-57482352D01*
X198703878Y-57509995D01*
X198731522Y-57684534D01*
X198794781Y-57879223D01*
X198887715Y-58061613D01*
X199008028Y-58227213D01*
X199152786Y-58371971D01*
X199306433Y-58483600D01*
X199318390Y-58492287D01*
X199388367Y-58527942D01*
X199411080Y-58539515D01*
X199461876Y-58587490D01*
X199478671Y-58655311D01*
X199456134Y-58721446D01*
X199411080Y-58760485D01*
X199318386Y-58807715D01*
X199152786Y-58928028D01*
X199008028Y-59072786D01*
X198887715Y-59238386D01*
X198794781Y-59420776D01*
X198731522Y-59615465D01*
X198699500Y-59817648D01*
X198699500Y-60022351D01*
X198731522Y-60224534D01*
X198754837Y-60296287D01*
X198794780Y-60419219D01*
X198794781Y-60419222D01*
X198796286Y-60423852D01*
X198794967Y-60424280D01*
X198797802Y-60450677D01*
X198802471Y-60483143D01*
X198801513Y-60485238D01*
X198801760Y-60487531D01*
X198787070Y-60516867D01*
X198773448Y-60546699D01*
X198771509Y-60547944D01*
X198770477Y-60550007D01*
X198742253Y-60566747D01*
X198714671Y-60584475D01*
X198711629Y-60584912D01*
X198710384Y-60585651D01*
X198679736Y-60589499D01*
X198650943Y-60589499D01*
X198650939Y-60589499D01*
X198643334Y-60589500D01*
X198643333Y-60589499D01*
X198643331Y-60589500D01*
X186080266Y-60589500D01*
X186013227Y-60569815D01*
X185967472Y-60517011D01*
X185957528Y-60447853D01*
X185964080Y-60423970D01*
X185963714Y-60423852D01*
X185965218Y-60419222D01*
X185965220Y-60419219D01*
X186028477Y-60224534D01*
X186060500Y-60022352D01*
X186060500Y-59817648D01*
X186028477Y-59615465D01*
X185973808Y-59447213D01*
X185965220Y-59420781D01*
X185965217Y-59420777D01*
X185965217Y-59420774D01*
X185958997Y-59408567D01*
X185946100Y-59339898D01*
X185972375Y-59275158D01*
X186029481Y-59234900D01*
X186045290Y-59230654D01*
X186056207Y-59228482D01*
X186104697Y-59218837D01*
X186250379Y-59158494D01*
X186381489Y-59070889D01*
X186492989Y-58959389D01*
X186580594Y-58828279D01*
X186640937Y-58682597D01*
X186671700Y-58527942D01*
X186671700Y-58370258D01*
X186671700Y-58370255D01*
X186671699Y-58370253D01*
X186656823Y-58295466D01*
X186640937Y-58215603D01*
X186601767Y-58121037D01*
X186580597Y-58069927D01*
X186580590Y-58069914D01*
X186492598Y-57938225D01*
X186471720Y-57871547D01*
X186471700Y-57869334D01*
X186471700Y-56660459D01*
X186471701Y-56660446D01*
X186471701Y-56492345D01*
X186471701Y-56492343D01*
X186430777Y-56339615D01*
X186381371Y-56254042D01*
X186351720Y-56202684D01*
X186239916Y-56090880D01*
X186239915Y-56090879D01*
X186235585Y-56086549D01*
X186235574Y-56086539D01*
X185997090Y-55848055D01*
X185997088Y-55848052D01*
X185878217Y-55729181D01*
X185878209Y-55729175D01*
X185766899Y-55664911D01*
X185766898Y-55664910D01*
X185748894Y-55654516D01*
X185741285Y-55650123D01*
X185588557Y-55609199D01*
X185430443Y-55609199D01*
X185422847Y-55609199D01*
X185422831Y-55609200D01*
X182328143Y-55609200D01*
X182175414Y-55650123D01*
X182175413Y-55650123D01*
X182149800Y-55664910D01*
X182149801Y-55664911D01*
X182038487Y-55729177D01*
X182038482Y-55729181D01*
X181831883Y-55935781D01*
X181770560Y-55969266D01*
X181744202Y-55972100D01*
X181135490Y-55972100D01*
X181068451Y-55952415D01*
X181022696Y-55899611D01*
X181013180Y-55864313D01*
X181013089Y-55864332D01*
X181012816Y-55862962D01*
X181012087Y-55860256D01*
X181011899Y-55858351D01*
X180996518Y-55781030D01*
X180981137Y-55703703D01*
X180941993Y-55609200D01*
X180920797Y-55558027D01*
X180920790Y-55558014D01*
X180833189Y-55426911D01*
X180833186Y-55426907D01*
X180721692Y-55315413D01*
X180721688Y-55315410D01*
X180590585Y-55227809D01*
X180590572Y-55227802D01*
X180444901Y-55167464D01*
X180444889Y-55167461D01*
X180290245Y-55136700D01*
X180290242Y-55136700D01*
X180132558Y-55136700D01*
X180132555Y-55136700D01*
X179977910Y-55167461D01*
X179977898Y-55167464D01*
X179832227Y-55227802D01*
X179832214Y-55227809D01*
X179700525Y-55315802D01*
X179633847Y-55336680D01*
X179631634Y-55336700D01*
X177137297Y-55336700D01*
X177070258Y-55317015D01*
X177049616Y-55300381D01*
X175699916Y-53950681D01*
X175666431Y-53889358D01*
X175671415Y-53819666D01*
X175713287Y-53763733D01*
X175778751Y-53739316D01*
X175787597Y-53739000D01*
X197980434Y-53739000D01*
X198047473Y-53758685D01*
X198049325Y-53759898D01*
X198181014Y-53847890D01*
X198181027Y-53847897D01*
X198326698Y-53908235D01*
X198326703Y-53908237D01*
X198481353Y-53938999D01*
X198481356Y-53939000D01*
X198481358Y-53939000D01*
X198639044Y-53939000D01*
X198639045Y-53938999D01*
X198793697Y-53908237D01*
X198939379Y-53847894D01*
X199070489Y-53760289D01*
X199181989Y-53648789D01*
X199269594Y-53517679D01*
X199329937Y-53371997D01*
X199360700Y-53217342D01*
X199360700Y-53059658D01*
X199360700Y-53059655D01*
X199360699Y-53059653D01*
X199329938Y-52905010D01*
X199329937Y-52905003D01*
X199300443Y-52833797D01*
X199269597Y-52759327D01*
X199269590Y-52759314D01*
X199181989Y-52628211D01*
X199181986Y-52628207D01*
X199070492Y-52516713D01*
X199070488Y-52516710D01*
X198939385Y-52429109D01*
X198939372Y-52429102D01*
X198793701Y-52368764D01*
X198793689Y-52368761D01*
X198639045Y-52338000D01*
X198639042Y-52338000D01*
X198481358Y-52338000D01*
X198481355Y-52338000D01*
X198326710Y-52368761D01*
X198326698Y-52368764D01*
X198181027Y-52429102D01*
X198181014Y-52429109D01*
X198049325Y-52517102D01*
X197982647Y-52537980D01*
X197980434Y-52538000D01*
X191407585Y-52538000D01*
X191340546Y-52518315D01*
X191294791Y-52465511D01*
X191284847Y-52396353D01*
X191307266Y-52341115D01*
X191330063Y-52309737D01*
X191375051Y-52247816D01*
X191471557Y-52058412D01*
X191537246Y-51856243D01*
X191570500Y-51646287D01*
X191570500Y-51433713D01*
X191537246Y-51223757D01*
X191471557Y-51021588D01*
X191375051Y-50832184D01*
X191375049Y-50832181D01*
X191375048Y-50832179D01*
X191250109Y-50660213D01*
X191099786Y-50509890D01*
X190927817Y-50384949D01*
X190918504Y-50380204D01*
X190867707Y-50332230D01*
X190850912Y-50264409D01*
X190873449Y-50198274D01*
X190918507Y-50159232D01*
X190927555Y-50154622D01*
X190981716Y-50115270D01*
X190981717Y-50115270D01*
X190349408Y-49482962D01*
X190412993Y-49465925D01*
X190527007Y-49400099D01*
X190620099Y-49307007D01*
X190685925Y-49192993D01*
X190702962Y-49129408D01*
X191335270Y-49761717D01*
X191335270Y-49761716D01*
X191374622Y-49707554D01*
X191471095Y-49518217D01*
X191536757Y-49316130D01*
X191536757Y-49316127D01*
X191570000Y-49106246D01*
X191570000Y-48893753D01*
X191536757Y-48683872D01*
X191536757Y-48683869D01*
X191471095Y-48481782D01*
X191374624Y-48292449D01*
X191335270Y-48238282D01*
X191335269Y-48238282D01*
X190702962Y-48870590D01*
X190685925Y-48807007D01*
X190620099Y-48692993D01*
X190527007Y-48599901D01*
X190412993Y-48534075D01*
X190349409Y-48517037D01*
X190981716Y-47884728D01*
X190927550Y-47845375D01*
X190738217Y-47748904D01*
X190536129Y-47683242D01*
X190326246Y-47650000D01*
X190113754Y-47650000D01*
X189903872Y-47683242D01*
X189903869Y-47683242D01*
X189701782Y-47748904D01*
X189512439Y-47845380D01*
X189458282Y-47884727D01*
X189458282Y-47884728D01*
X190090591Y-48517037D01*
X190027007Y-48534075D01*
X189912993Y-48599901D01*
X189819901Y-48692993D01*
X189754075Y-48807007D01*
X189737037Y-48870591D01*
X189104728Y-48238282D01*
X189104727Y-48238282D01*
X189065380Y-48292440D01*
X189060483Y-48302051D01*
X189012506Y-48352845D01*
X188944684Y-48369638D01*
X188878550Y-48347098D01*
X188839516Y-48302048D01*
X188834626Y-48292452D01*
X188795270Y-48238282D01*
X188795269Y-48238282D01*
X188162962Y-48870590D01*
X188145925Y-48807007D01*
X188080099Y-48692993D01*
X187987007Y-48599901D01*
X187872993Y-48534075D01*
X187809409Y-48517037D01*
X188441716Y-47884728D01*
X188387550Y-47845375D01*
X188198217Y-47748904D01*
X187996129Y-47683242D01*
X187786246Y-47650000D01*
X187573754Y-47650000D01*
X187363872Y-47683242D01*
X187363869Y-47683242D01*
X187161782Y-47748904D01*
X186972439Y-47845380D01*
X186918282Y-47884727D01*
X186918282Y-47884728D01*
X187550591Y-48517037D01*
X187487007Y-48534075D01*
X187372993Y-48599901D01*
X187279901Y-48692993D01*
X187214075Y-48807007D01*
X187197037Y-48870590D01*
X186564728Y-48238282D01*
X186564727Y-48238282D01*
X186525380Y-48292440D01*
X186525376Y-48292446D01*
X186520760Y-48301505D01*
X186472781Y-48352297D01*
X186404959Y-48369087D01*
X186338826Y-48346543D01*
X186299794Y-48301493D01*
X186295051Y-48292184D01*
X186295049Y-48292181D01*
X186295048Y-48292179D01*
X186170109Y-48120213D01*
X186019786Y-47969890D01*
X185847820Y-47844951D01*
X185658414Y-47748444D01*
X185658413Y-47748443D01*
X185658412Y-47748443D01*
X185456243Y-47682754D01*
X185456241Y-47682753D01*
X185456240Y-47682753D01*
X185294957Y-47657208D01*
X185246287Y-47649500D01*
X185033713Y-47649500D01*
X184985042Y-47657208D01*
X184823760Y-47682753D01*
X184621585Y-47748444D01*
X184432179Y-47844951D01*
X184260213Y-47969890D01*
X184109890Y-48120213D01*
X183984949Y-48292182D01*
X183980484Y-48300946D01*
X183932509Y-48351742D01*
X183864688Y-48368536D01*
X183798553Y-48345998D01*
X183759516Y-48300946D01*
X183755050Y-48292182D01*
X183630109Y-48120213D01*
X183479786Y-47969890D01*
X183307820Y-47844951D01*
X183118414Y-47748444D01*
X183118413Y-47748443D01*
X183118412Y-47748443D01*
X182916243Y-47682754D01*
X182916241Y-47682753D01*
X182916240Y-47682753D01*
X182754957Y-47657208D01*
X182706287Y-47649500D01*
X182493713Y-47649500D01*
X182445042Y-47657208D01*
X182283760Y-47682753D01*
X182081585Y-47748444D01*
X181892179Y-47844951D01*
X181720213Y-47969890D01*
X181569890Y-48120213D01*
X181444949Y-48292182D01*
X181440484Y-48300946D01*
X181392509Y-48351742D01*
X181324688Y-48368536D01*
X181258553Y-48345998D01*
X181219516Y-48300946D01*
X181215050Y-48292182D01*
X181090109Y-48120213D01*
X180939786Y-47969890D01*
X180767820Y-47844951D01*
X180578414Y-47748444D01*
X180578413Y-47748443D01*
X180578412Y-47748443D01*
X180376243Y-47682754D01*
X180376241Y-47682753D01*
X180376240Y-47682753D01*
X180214957Y-47657208D01*
X180166287Y-47649500D01*
X179953713Y-47649500D01*
X179905042Y-47657208D01*
X179743760Y-47682753D01*
X179541585Y-47748444D01*
X179352179Y-47844951D01*
X179180213Y-47969890D01*
X179029890Y-48120213D01*
X178904949Y-48292182D01*
X178900484Y-48300946D01*
X178852509Y-48351742D01*
X178784688Y-48368536D01*
X178718553Y-48345998D01*
X178679516Y-48300946D01*
X178675050Y-48292182D01*
X178550109Y-48120213D01*
X178399786Y-47969890D01*
X178227820Y-47844951D01*
X178038414Y-47748444D01*
X178038413Y-47748443D01*
X178038412Y-47748443D01*
X177836243Y-47682754D01*
X177836241Y-47682753D01*
X177836240Y-47682753D01*
X177674957Y-47657208D01*
X177626287Y-47649500D01*
X177413713Y-47649500D01*
X177365042Y-47657208D01*
X177203760Y-47682753D01*
X177001585Y-47748444D01*
X176812179Y-47844951D01*
X176640213Y-47969890D01*
X176489890Y-48120213D01*
X176364949Y-48292182D01*
X176360484Y-48300946D01*
X176312509Y-48351742D01*
X176244688Y-48368536D01*
X176178553Y-48345998D01*
X176139516Y-48300946D01*
X176135050Y-48292182D01*
X176010109Y-48120213D01*
X175859786Y-47969890D01*
X175687820Y-47844951D01*
X175498414Y-47748444D01*
X175498413Y-47748443D01*
X175498412Y-47748443D01*
X175296243Y-47682754D01*
X175296241Y-47682753D01*
X175296240Y-47682753D01*
X175134957Y-47657208D01*
X175086287Y-47649500D01*
X174873713Y-47649500D01*
X174825042Y-47657208D01*
X174663760Y-47682753D01*
X174461585Y-47748444D01*
X174272179Y-47844951D01*
X174100213Y-47969890D01*
X173949890Y-48120213D01*
X173824949Y-48292182D01*
X173820484Y-48300946D01*
X173772509Y-48351742D01*
X173704688Y-48368536D01*
X173638553Y-48345998D01*
X173599516Y-48300946D01*
X173595050Y-48292182D01*
X173470109Y-48120213D01*
X173319786Y-47969890D01*
X173147820Y-47844951D01*
X172958414Y-47748444D01*
X172958413Y-47748443D01*
X172958412Y-47748443D01*
X172756243Y-47682754D01*
X172756241Y-47682753D01*
X172756240Y-47682753D01*
X172594957Y-47657208D01*
X172546287Y-47649500D01*
X172333713Y-47649500D01*
X172285042Y-47657208D01*
X172123760Y-47682753D01*
X171921585Y-47748444D01*
X171732179Y-47844951D01*
X171560213Y-47969890D01*
X171409890Y-48120213D01*
X171284949Y-48292182D01*
X171280484Y-48300946D01*
X171232509Y-48351742D01*
X171164688Y-48368536D01*
X171098553Y-48345998D01*
X171059516Y-48300946D01*
X171055050Y-48292182D01*
X170930109Y-48120213D01*
X170779786Y-47969890D01*
X170607820Y-47844951D01*
X170418414Y-47748444D01*
X170418413Y-47748443D01*
X170418412Y-47748443D01*
X170216243Y-47682754D01*
X170216241Y-47682753D01*
X170216240Y-47682753D01*
X170054957Y-47657208D01*
X170006287Y-47649500D01*
X169793713Y-47649500D01*
X169745042Y-47657208D01*
X169583760Y-47682753D01*
X169381585Y-47748444D01*
X169192179Y-47844951D01*
X169020213Y-47969890D01*
X168869890Y-48120213D01*
X168744949Y-48292182D01*
X168740484Y-48300946D01*
X168692509Y-48351742D01*
X168624688Y-48368536D01*
X168558553Y-48345998D01*
X168519516Y-48300946D01*
X168515050Y-48292182D01*
X168390109Y-48120213D01*
X168239786Y-47969890D01*
X168067820Y-47844951D01*
X167878414Y-47748444D01*
X167878413Y-47748443D01*
X167878412Y-47748443D01*
X167676243Y-47682754D01*
X167676241Y-47682753D01*
X167676240Y-47682753D01*
X167514957Y-47657208D01*
X167466287Y-47649500D01*
X167253713Y-47649500D01*
X167205042Y-47657208D01*
X167043760Y-47682753D01*
X166841585Y-47748444D01*
X166652179Y-47844951D01*
X166480213Y-47969890D01*
X166329890Y-48120213D01*
X166204949Y-48292182D01*
X166200484Y-48300946D01*
X166152509Y-48351742D01*
X166084688Y-48368536D01*
X166018553Y-48345998D01*
X165979516Y-48300946D01*
X165975050Y-48292182D01*
X165850109Y-48120213D01*
X165699786Y-47969890D01*
X165527820Y-47844951D01*
X165338414Y-47748444D01*
X165338413Y-47748443D01*
X165338412Y-47748443D01*
X165136243Y-47682754D01*
X165136241Y-47682753D01*
X165136240Y-47682753D01*
X164974957Y-47657208D01*
X164926287Y-47649500D01*
X164713713Y-47649500D01*
X164665042Y-47657208D01*
X164503760Y-47682753D01*
X164301585Y-47748444D01*
X164112179Y-47844951D01*
X163940213Y-47969890D01*
X163789890Y-48120213D01*
X163664949Y-48292182D01*
X163660484Y-48300946D01*
X163612509Y-48351742D01*
X163544688Y-48368536D01*
X163478553Y-48345998D01*
X163439516Y-48300946D01*
X163435050Y-48292182D01*
X163310109Y-48120213D01*
X163159786Y-47969890D01*
X162987820Y-47844951D01*
X162798414Y-47748444D01*
X162798413Y-47748443D01*
X162798412Y-47748443D01*
X162596243Y-47682754D01*
X162596241Y-47682753D01*
X162596240Y-47682753D01*
X162434957Y-47657208D01*
X162386287Y-47649500D01*
X162173713Y-47649500D01*
X162125042Y-47657208D01*
X161963760Y-47682753D01*
X161761585Y-47748444D01*
X161572179Y-47844951D01*
X161400213Y-47969890D01*
X161249890Y-48120213D01*
X161124949Y-48292182D01*
X161120484Y-48300946D01*
X161072509Y-48351742D01*
X161004688Y-48368536D01*
X160938553Y-48345998D01*
X160899516Y-48300946D01*
X160895050Y-48292182D01*
X160770109Y-48120213D01*
X160619786Y-47969890D01*
X160447820Y-47844951D01*
X160258414Y-47748444D01*
X160258413Y-47748443D01*
X160258412Y-47748443D01*
X160056243Y-47682754D01*
X160056241Y-47682753D01*
X160056240Y-47682753D01*
X159894957Y-47657208D01*
X159846287Y-47649500D01*
X159633713Y-47649500D01*
X159585042Y-47657208D01*
X159423760Y-47682753D01*
X159221585Y-47748444D01*
X159032179Y-47844951D01*
X158860213Y-47969890D01*
X158709890Y-48120213D01*
X158584949Y-48292182D01*
X158580484Y-48300946D01*
X158532509Y-48351742D01*
X158464688Y-48368536D01*
X158398553Y-48345998D01*
X158359516Y-48300946D01*
X158355050Y-48292182D01*
X158230109Y-48120213D01*
X158079786Y-47969890D01*
X157907820Y-47844951D01*
X157718414Y-47748444D01*
X157718413Y-47748443D01*
X157718412Y-47748443D01*
X157516243Y-47682754D01*
X157516241Y-47682753D01*
X157516240Y-47682753D01*
X157354957Y-47657208D01*
X157306287Y-47649500D01*
X157093713Y-47649500D01*
X157045042Y-47657208D01*
X156883760Y-47682753D01*
X156681585Y-47748444D01*
X156492179Y-47844951D01*
X156320213Y-47969890D01*
X156169890Y-48120213D01*
X156044949Y-48292182D01*
X156040484Y-48300946D01*
X155992509Y-48351742D01*
X155924688Y-48368536D01*
X155858553Y-48345998D01*
X155819516Y-48300946D01*
X155815050Y-48292182D01*
X155690109Y-48120213D01*
X155539786Y-47969890D01*
X155367820Y-47844951D01*
X155178414Y-47748444D01*
X155178413Y-47748443D01*
X155178412Y-47748443D01*
X154976243Y-47682754D01*
X154976241Y-47682753D01*
X154976240Y-47682753D01*
X154814957Y-47657208D01*
X154766287Y-47649500D01*
X154553713Y-47649500D01*
X154505042Y-47657208D01*
X154343760Y-47682753D01*
X154141585Y-47748444D01*
X153952179Y-47844951D01*
X153780213Y-47969890D01*
X153629890Y-48120213D01*
X153504949Y-48292182D01*
X153500484Y-48300946D01*
X153452509Y-48351742D01*
X153384688Y-48368536D01*
X153318553Y-48345998D01*
X153279516Y-48300946D01*
X153275050Y-48292182D01*
X153150109Y-48120213D01*
X152999786Y-47969890D01*
X152827820Y-47844951D01*
X152638414Y-47748444D01*
X152638413Y-47748443D01*
X152638412Y-47748443D01*
X152436243Y-47682754D01*
X152436241Y-47682753D01*
X152436240Y-47682753D01*
X152274957Y-47657208D01*
X152226287Y-47649500D01*
X152013713Y-47649500D01*
X151965042Y-47657208D01*
X151803760Y-47682753D01*
X151601585Y-47748444D01*
X151412179Y-47844951D01*
X151240213Y-47969890D01*
X151089890Y-48120213D01*
X150964949Y-48292182D01*
X150960484Y-48300946D01*
X150912509Y-48351742D01*
X150844688Y-48368536D01*
X150778553Y-48345998D01*
X150739516Y-48300946D01*
X150735050Y-48292182D01*
X150610109Y-48120213D01*
X150459786Y-47969890D01*
X150287820Y-47844951D01*
X150098414Y-47748444D01*
X150098413Y-47748443D01*
X150098412Y-47748443D01*
X149896243Y-47682754D01*
X149896241Y-47682753D01*
X149896240Y-47682753D01*
X149734957Y-47657208D01*
X149686287Y-47649500D01*
X149473713Y-47649500D01*
X149425042Y-47657208D01*
X149263760Y-47682753D01*
X149061585Y-47748444D01*
X148872179Y-47844951D01*
X148700213Y-47969890D01*
X148549890Y-48120213D01*
X148424949Y-48292182D01*
X148420484Y-48300946D01*
X148372509Y-48351742D01*
X148304688Y-48368536D01*
X148238553Y-48345998D01*
X148199516Y-48300946D01*
X148195050Y-48292182D01*
X148070109Y-48120213D01*
X147919786Y-47969890D01*
X147747820Y-47844951D01*
X147558414Y-47748444D01*
X147558413Y-47748443D01*
X147558412Y-47748443D01*
X147356243Y-47682754D01*
X147356241Y-47682753D01*
X147356240Y-47682753D01*
X147194957Y-47657208D01*
X147146287Y-47649500D01*
X146933713Y-47649500D01*
X146885042Y-47657208D01*
X146723760Y-47682753D01*
X146521585Y-47748444D01*
X146332179Y-47844951D01*
X146160213Y-47969890D01*
X146009890Y-48120213D01*
X145884949Y-48292182D01*
X145880484Y-48300946D01*
X145832509Y-48351742D01*
X145764688Y-48368536D01*
X145698553Y-48345998D01*
X145659516Y-48300946D01*
X145655050Y-48292182D01*
X145530109Y-48120213D01*
X145379786Y-47969890D01*
X145207820Y-47844951D01*
X145018414Y-47748444D01*
X145018413Y-47748443D01*
X145018412Y-47748443D01*
X144816243Y-47682754D01*
X144816241Y-47682753D01*
X144816240Y-47682753D01*
X144654957Y-47657208D01*
X144606287Y-47649500D01*
X144393713Y-47649500D01*
X144345042Y-47657208D01*
X144183760Y-47682753D01*
X143981585Y-47748444D01*
X143792179Y-47844951D01*
X143620213Y-47969890D01*
X143469890Y-48120213D01*
X143344949Y-48292182D01*
X143340484Y-48300946D01*
X143292509Y-48351742D01*
X143224688Y-48368536D01*
X143158553Y-48345998D01*
X143119516Y-48300946D01*
X143115050Y-48292182D01*
X142990109Y-48120213D01*
X142839786Y-47969890D01*
X142667820Y-47844951D01*
X142478414Y-47748444D01*
X142478413Y-47748443D01*
X142478412Y-47748443D01*
X142276243Y-47682754D01*
X142276241Y-47682753D01*
X142276240Y-47682753D01*
X142114957Y-47657208D01*
X142066287Y-47649500D01*
X141853713Y-47649500D01*
X141805042Y-47657208D01*
X141643760Y-47682753D01*
X141441585Y-47748444D01*
X141252179Y-47844951D01*
X141080213Y-47969890D01*
X140929890Y-48120213D01*
X140804949Y-48292182D01*
X140800484Y-48300946D01*
X140752509Y-48351742D01*
X140684688Y-48368536D01*
X140618553Y-48345998D01*
X140579516Y-48300946D01*
X140575050Y-48292182D01*
X140450109Y-48120213D01*
X140299786Y-47969890D01*
X140127820Y-47844951D01*
X139938414Y-47748444D01*
X139938413Y-47748443D01*
X139938412Y-47748443D01*
X139736243Y-47682754D01*
X139736241Y-47682753D01*
X139736240Y-47682753D01*
X139574957Y-47657208D01*
X139526287Y-47649500D01*
X139313713Y-47649500D01*
X139265042Y-47657208D01*
X139103760Y-47682753D01*
X138901585Y-47748444D01*
X138712179Y-47844951D01*
X138540213Y-47969890D01*
X138389890Y-48120213D01*
X138264949Y-48292182D01*
X138260484Y-48300946D01*
X138212509Y-48351742D01*
X138144688Y-48368536D01*
X138078553Y-48345998D01*
X138039516Y-48300946D01*
X138035050Y-48292182D01*
X137910109Y-48120213D01*
X137759786Y-47969890D01*
X137587820Y-47844951D01*
X137398414Y-47748444D01*
X137398413Y-47748443D01*
X137398412Y-47748443D01*
X137196243Y-47682754D01*
X137196241Y-47682753D01*
X137196240Y-47682753D01*
X137034957Y-47657208D01*
X136986287Y-47649500D01*
X136773713Y-47649500D01*
X136725042Y-47657208D01*
X136563760Y-47682753D01*
X136361585Y-47748444D01*
X136172179Y-47844951D01*
X136000213Y-47969890D01*
X135849890Y-48120213D01*
X135724949Y-48292182D01*
X135720484Y-48300946D01*
X135672509Y-48351742D01*
X135604688Y-48368536D01*
X135538553Y-48345998D01*
X135499516Y-48300946D01*
X135495050Y-48292182D01*
X135370109Y-48120213D01*
X135219786Y-47969890D01*
X135047820Y-47844951D01*
X134858414Y-47748444D01*
X134858413Y-47748443D01*
X134858412Y-47748443D01*
X134656243Y-47682754D01*
X134656241Y-47682753D01*
X134656240Y-47682753D01*
X134494957Y-47657208D01*
X134446287Y-47649500D01*
X134233713Y-47649500D01*
X134185042Y-47657208D01*
X134023760Y-47682753D01*
X133821585Y-47748444D01*
X133632179Y-47844951D01*
X133460213Y-47969890D01*
X133309890Y-48120213D01*
X133184949Y-48292182D01*
X133180484Y-48300946D01*
X133132509Y-48351742D01*
X133064688Y-48368536D01*
X132998553Y-48345998D01*
X132959516Y-48300946D01*
X132955050Y-48292182D01*
X132830109Y-48120213D01*
X132679786Y-47969890D01*
X132507820Y-47844951D01*
X132318414Y-47748444D01*
X132318413Y-47748443D01*
X132318412Y-47748443D01*
X132116243Y-47682754D01*
X132116241Y-47682753D01*
X132116240Y-47682753D01*
X131954957Y-47657208D01*
X131906287Y-47649500D01*
X131693713Y-47649500D01*
X131645042Y-47657208D01*
X131483760Y-47682753D01*
X131281585Y-47748444D01*
X131092179Y-47844951D01*
X130920213Y-47969890D01*
X130769890Y-48120213D01*
X130644949Y-48292182D01*
X130640484Y-48300946D01*
X130592509Y-48351742D01*
X130524688Y-48368536D01*
X130458553Y-48345998D01*
X130419516Y-48300946D01*
X130415050Y-48292182D01*
X130290109Y-48120213D01*
X130139786Y-47969890D01*
X129967820Y-47844951D01*
X129778414Y-47748444D01*
X129778413Y-47748443D01*
X129778412Y-47748443D01*
X129576243Y-47682754D01*
X129576241Y-47682753D01*
X129576240Y-47682753D01*
X129414957Y-47657208D01*
X129366287Y-47649500D01*
X129153713Y-47649500D01*
X129105042Y-47657208D01*
X128943760Y-47682753D01*
X128741585Y-47748444D01*
X128552179Y-47844951D01*
X128380213Y-47969890D01*
X128229890Y-48120213D01*
X128104951Y-48292179D01*
X128008444Y-48481585D01*
X127942753Y-48683760D01*
X127923233Y-48807007D01*
X127909500Y-48893713D01*
X127909500Y-49106287D01*
X127911334Y-49117864D01*
X127942753Y-49316239D01*
X128008444Y-49518414D01*
X128104951Y-49707820D01*
X128229890Y-49879786D01*
X128343430Y-49993326D01*
X128376915Y-50054649D01*
X128371931Y-50124341D01*
X128330059Y-50180274D01*
X128299083Y-50197189D01*
X128167669Y-50246203D01*
X128167664Y-50246206D01*
X128052455Y-50332452D01*
X128052452Y-50332455D01*
X128044187Y-50343496D01*
X127988252Y-50385365D01*
X127918560Y-50390347D01*
X127857242Y-50356863D01*
X126766192Y-49265813D01*
X126766188Y-49265810D01*
X126635085Y-49178209D01*
X126635072Y-49178202D01*
X126489401Y-49117864D01*
X126489389Y-49117861D01*
X126334745Y-49087100D01*
X126334742Y-49087100D01*
X120055908Y-49087100D01*
X119988869Y-49067415D01*
X119950363Y-49023328D01*
X119948605Y-49024413D01*
X119944812Y-49018263D01*
X119852712Y-48868944D01*
X119728656Y-48744888D01*
X119579334Y-48652786D01*
X119412797Y-48597601D01*
X119412795Y-48597600D01*
X119310010Y-48587100D01*
X118109998Y-48587100D01*
X118109981Y-48587101D01*
X118007203Y-48597600D01*
X118007200Y-48597601D01*
X117840668Y-48652785D01*
X117840663Y-48652787D01*
X117691342Y-48744889D01*
X117567289Y-48868942D01*
X117475187Y-49018263D01*
X117475185Y-49018268D01*
X117452377Y-49087100D01*
X117420001Y-49184803D01*
X117420001Y-49184804D01*
X117420000Y-49184804D01*
X117409500Y-49287583D01*
X117409500Y-50487601D01*
X117409501Y-50487618D01*
X117420000Y-50590396D01*
X117420001Y-50590399D01*
X117473149Y-50750787D01*
X117475186Y-50756934D01*
X117567288Y-50906256D01*
X117691344Y-51030312D01*
X117840666Y-51122414D01*
X117902440Y-51142884D01*
X117959884Y-51182655D01*
X117986707Y-51247171D01*
X117987053Y-51270319D01*
X117984077Y-51308124D01*
X118663554Y-51987600D01*
X118657339Y-51987600D01*
X118555606Y-52014859D01*
X118464394Y-52067520D01*
X118389920Y-52141994D01*
X118337259Y-52233206D01*
X118310000Y-52334939D01*
X118310000Y-52341153D01*
X117630524Y-51661677D01*
X117630523Y-51661677D01*
X117598143Y-51706244D01*
X117505244Y-51888568D01*
X117442009Y-52083182D01*
X117410000Y-52285282D01*
X117410000Y-52489917D01*
X117442009Y-52692017D01*
X117505244Y-52886631D01*
X117598141Y-53068950D01*
X117598147Y-53068959D01*
X117630523Y-53113521D01*
X117630524Y-53113522D01*
X118310000Y-52434046D01*
X118310000Y-52440261D01*
X118337259Y-52541994D01*
X118389920Y-52633206D01*
X118464394Y-52707680D01*
X118555606Y-52760341D01*
X118657339Y-52787600D01*
X118663553Y-52787600D01*
X117984076Y-53467074D01*
X118028650Y-53499459D01*
X118210968Y-53592355D01*
X118405582Y-53655590D01*
X118607683Y-53687600D01*
X118812317Y-53687600D01*
X119014417Y-53655590D01*
X119209031Y-53592355D01*
X119391349Y-53499459D01*
X119435921Y-53467074D01*
X118756447Y-52787600D01*
X118762661Y-52787600D01*
X118864394Y-52760341D01*
X118955606Y-52707680D01*
X119030080Y-52633206D01*
X119082741Y-52541994D01*
X119110000Y-52440261D01*
X119110000Y-52434047D01*
X119789474Y-53113521D01*
X119821859Y-53068949D01*
X119914755Y-52886631D01*
X119977990Y-52692017D01*
X120010000Y-52489917D01*
X120010000Y-52285282D01*
X119977990Y-52083182D01*
X119914755Y-51888568D01*
X119821859Y-51706250D01*
X119789474Y-51661677D01*
X119789474Y-51661676D01*
X119110000Y-52341151D01*
X119110000Y-52334939D01*
X119082741Y-52233206D01*
X119030080Y-52141994D01*
X118955606Y-52067520D01*
X118864394Y-52014859D01*
X118762661Y-51987600D01*
X118756446Y-51987600D01*
X119435921Y-51308125D01*
X119432946Y-51270319D01*
X119447310Y-51201941D01*
X119496361Y-51152184D01*
X119517555Y-51142885D01*
X119579334Y-51122414D01*
X119728656Y-51030312D01*
X119852712Y-50906256D01*
X119944814Y-50756934D01*
X119944815Y-50756931D01*
X119948605Y-50750787D01*
X119950399Y-50751893D01*
X119989687Y-50707263D01*
X120055908Y-50688100D01*
X125872960Y-50688100D01*
X125939999Y-50707785D01*
X125960641Y-50724419D01*
X127286511Y-52050289D01*
X127378216Y-52141994D01*
X127398012Y-52161790D01*
X127482484Y-52218232D01*
X127529121Y-52249394D01*
X127632133Y-52292062D01*
X127674802Y-52309737D01*
X127814512Y-52337527D01*
X127817792Y-52338368D01*
X127845020Y-52354561D01*
X127873104Y-52369251D01*
X127874836Y-52372293D01*
X127877844Y-52374082D01*
X127891995Y-52402426D01*
X127907678Y-52429967D01*
X127908687Y-52435858D01*
X127909054Y-52436594D01*
X127908960Y-52437455D01*
X127910292Y-52445231D01*
X127915908Y-52497483D01*
X127966202Y-52632328D01*
X127966206Y-52632335D01*
X128052452Y-52747544D01*
X128052455Y-52747547D01*
X128167664Y-52833793D01*
X128167671Y-52833797D01*
X128302517Y-52884091D01*
X128302516Y-52884091D01*
X128309444Y-52884835D01*
X128362127Y-52890500D01*
X130157872Y-52890499D01*
X130217483Y-52884091D01*
X130352331Y-52833796D01*
X130467546Y-52747546D01*
X130553796Y-52632331D01*
X130602810Y-52500916D01*
X130644681Y-52444984D01*
X130710145Y-52420566D01*
X130778418Y-52435417D01*
X130806673Y-52456569D01*
X130920213Y-52570109D01*
X131092179Y-52695048D01*
X131092181Y-52695049D01*
X131092184Y-52695051D01*
X131281588Y-52791557D01*
X131483757Y-52857246D01*
X131693713Y-52890500D01*
X131693714Y-52890500D01*
X131906286Y-52890500D01*
X131906287Y-52890500D01*
X132116243Y-52857246D01*
X132318412Y-52791557D01*
X132507816Y-52695051D01*
X132594138Y-52632335D01*
X132679786Y-52570109D01*
X132679788Y-52570106D01*
X132679792Y-52570104D01*
X132830104Y-52419792D01*
X132830106Y-52419788D01*
X132830109Y-52419786D01*
X132939086Y-52269789D01*
X132955051Y-52247816D01*
X132959514Y-52239054D01*
X133007488Y-52188259D01*
X133075308Y-52171463D01*
X133141444Y-52193999D01*
X133180486Y-52239056D01*
X133184951Y-52247820D01*
X133309890Y-52419786D01*
X133460213Y-52570109D01*
X133632179Y-52695048D01*
X133632181Y-52695049D01*
X133632184Y-52695051D01*
X133821588Y-52791557D01*
X134023757Y-52857246D01*
X134233713Y-52890500D01*
X134233714Y-52890500D01*
X134446286Y-52890500D01*
X134446287Y-52890500D01*
X134656243Y-52857246D01*
X134858412Y-52791557D01*
X135047816Y-52695051D01*
X135134138Y-52632335D01*
X135219786Y-52570109D01*
X135219788Y-52570106D01*
X135219792Y-52570104D01*
X135370104Y-52419792D01*
X135370106Y-52419788D01*
X135370109Y-52419786D01*
X135479086Y-52269789D01*
X135495051Y-52247816D01*
X135499514Y-52239054D01*
X135547488Y-52188259D01*
X135615308Y-52171463D01*
X135681444Y-52193999D01*
X135720486Y-52239056D01*
X135724951Y-52247820D01*
X135849890Y-52419786D01*
X136000213Y-52570109D01*
X136172179Y-52695048D01*
X136172181Y-52695049D01*
X136172184Y-52695051D01*
X136361588Y-52791557D01*
X136563757Y-52857246D01*
X136773713Y-52890500D01*
X136773714Y-52890500D01*
X136986286Y-52890500D01*
X136986287Y-52890500D01*
X137196243Y-52857246D01*
X137398412Y-52791557D01*
X137587816Y-52695051D01*
X137674138Y-52632335D01*
X137759786Y-52570109D01*
X137759788Y-52570106D01*
X137759792Y-52570104D01*
X137910104Y-52419792D01*
X137910106Y-52419788D01*
X137910109Y-52419786D01*
X138019086Y-52269789D01*
X138035051Y-52247816D01*
X138039514Y-52239054D01*
X138087488Y-52188259D01*
X138155308Y-52171463D01*
X138221444Y-52193999D01*
X138260486Y-52239056D01*
X138264951Y-52247820D01*
X138389890Y-52419786D01*
X138540213Y-52570109D01*
X138712179Y-52695048D01*
X138712181Y-52695049D01*
X138712184Y-52695051D01*
X138901588Y-52791557D01*
X139103757Y-52857246D01*
X139313713Y-52890500D01*
X139313714Y-52890500D01*
X139526286Y-52890500D01*
X139526287Y-52890500D01*
X139736243Y-52857246D01*
X139938412Y-52791557D01*
X140127816Y-52695051D01*
X140214138Y-52632335D01*
X140299786Y-52570109D01*
X140299788Y-52570106D01*
X140299792Y-52570104D01*
X140450104Y-52419792D01*
X140450106Y-52419788D01*
X140450109Y-52419786D01*
X140559086Y-52269789D01*
X140575051Y-52247816D01*
X140579514Y-52239054D01*
X140627488Y-52188259D01*
X140695308Y-52171463D01*
X140761444Y-52193999D01*
X140800486Y-52239056D01*
X140804951Y-52247820D01*
X140929890Y-52419786D01*
X141080213Y-52570109D01*
X141252179Y-52695048D01*
X141252181Y-52695049D01*
X141252184Y-52695051D01*
X141441588Y-52791557D01*
X141643757Y-52857246D01*
X141853713Y-52890500D01*
X141853714Y-52890500D01*
X142066286Y-52890500D01*
X142066287Y-52890500D01*
X142276243Y-52857246D01*
X142318523Y-52843507D01*
X142388362Y-52841511D01*
X142444522Y-52873757D01*
X144933784Y-55363019D01*
X144967269Y-55424342D01*
X144962285Y-55494034D01*
X144920413Y-55549967D01*
X144854949Y-55574384D01*
X144846103Y-55574700D01*
X134859666Y-55574700D01*
X134792627Y-55555015D01*
X134790775Y-55553802D01*
X134659085Y-55465809D01*
X134659072Y-55465802D01*
X134513401Y-55405464D01*
X134513389Y-55405461D01*
X134358745Y-55374700D01*
X134358742Y-55374700D01*
X134201058Y-55374700D01*
X134201055Y-55374700D01*
X134046410Y-55405461D01*
X134046398Y-55405464D01*
X133900727Y-55465802D01*
X133900714Y-55465809D01*
X133769611Y-55553410D01*
X133769607Y-55553413D01*
X133658113Y-55664907D01*
X133658110Y-55664911D01*
X133570509Y-55796014D01*
X133570502Y-55796027D01*
X133510164Y-55941698D01*
X133510161Y-55941710D01*
X133479400Y-56096353D01*
X133479400Y-56254043D01*
X133494431Y-56329608D01*
X133488204Y-56399200D01*
X133445341Y-56454377D01*
X133379452Y-56477622D01*
X133372814Y-56477800D01*
X129748370Y-56477800D01*
X129748354Y-56477799D01*
X129740758Y-56477799D01*
X129582643Y-56477799D01*
X129528358Y-56492345D01*
X129429914Y-56518723D01*
X129429909Y-56518726D01*
X129292990Y-56597775D01*
X129292982Y-56597781D01*
X128584841Y-57305921D01*
X128523518Y-57339406D01*
X128458845Y-57336172D01*
X128444535Y-57331523D01*
X128343443Y-57315511D01*
X128242352Y-57299500D01*
X128037648Y-57299500D01*
X128013329Y-57303351D01*
X127835465Y-57331522D01*
X127640776Y-57394781D01*
X127458386Y-57487715D01*
X127292786Y-57608028D01*
X127148028Y-57752786D01*
X127027715Y-57918386D01*
X126980485Y-58011080D01*
X126932510Y-58061876D01*
X126864689Y-58078671D01*
X126798554Y-58056134D01*
X126759515Y-58011080D01*
X126758883Y-58009840D01*
X126712287Y-57918390D01*
X126676646Y-57869334D01*
X126591971Y-57752786D01*
X126447213Y-57608028D01*
X126281613Y-57487715D01*
X126281612Y-57487714D01*
X126281610Y-57487713D01*
X126224653Y-57458691D01*
X126099223Y-57394781D01*
X125904534Y-57331522D01*
X125729995Y-57303878D01*
X125702352Y-57299500D01*
X125497648Y-57299500D01*
X125473329Y-57303351D01*
X125295465Y-57331522D01*
X125100776Y-57394781D01*
X124918386Y-57487715D01*
X124752786Y-57608028D01*
X124608028Y-57752786D01*
X124487715Y-57918386D01*
X124440485Y-58011080D01*
X124392510Y-58061876D01*
X124324689Y-58078671D01*
X124258554Y-58056134D01*
X124219515Y-58011080D01*
X124218883Y-58009840D01*
X124172287Y-57918390D01*
X124136646Y-57869334D01*
X124051971Y-57752786D01*
X123907213Y-57608028D01*
X123741613Y-57487715D01*
X123741612Y-57487714D01*
X123741610Y-57487713D01*
X123684653Y-57458691D01*
X123559223Y-57394781D01*
X123364534Y-57331522D01*
X123189995Y-57303878D01*
X123162352Y-57299500D01*
X122957648Y-57299500D01*
X122933329Y-57303351D01*
X122755465Y-57331522D01*
X122560776Y-57394781D01*
X122378386Y-57487715D01*
X122212786Y-57608028D01*
X122068028Y-57752786D01*
X121947715Y-57918386D01*
X121900485Y-58011080D01*
X121852510Y-58061876D01*
X121784689Y-58078671D01*
X121718554Y-58056134D01*
X121679515Y-58011080D01*
X121678883Y-58009840D01*
X121632287Y-57918390D01*
X121596646Y-57869334D01*
X121511971Y-57752786D01*
X121367213Y-57608028D01*
X121201613Y-57487715D01*
X121201612Y-57487714D01*
X121201610Y-57487713D01*
X121144653Y-57458691D01*
X121019223Y-57394781D01*
X120824534Y-57331522D01*
X120649995Y-57303878D01*
X120622352Y-57299500D01*
X120417648Y-57299500D01*
X120393329Y-57303351D01*
X120215465Y-57331522D01*
X120020776Y-57394781D01*
X119838386Y-57487715D01*
X119672786Y-57608028D01*
X119528028Y-57752786D01*
X119407715Y-57918386D01*
X119360485Y-58011080D01*
X119312510Y-58061876D01*
X119244689Y-58078671D01*
X119178554Y-58056134D01*
X119139515Y-58011080D01*
X119138883Y-58009840D01*
X119092287Y-57918390D01*
X119056646Y-57869334D01*
X118971971Y-57752786D01*
X118827213Y-57608028D01*
X118661613Y-57487715D01*
X118661612Y-57487714D01*
X118661610Y-57487713D01*
X118604653Y-57458691D01*
X118479223Y-57394781D01*
X118284534Y-57331522D01*
X118109995Y-57303878D01*
X118082352Y-57299500D01*
X117877648Y-57299500D01*
X117853329Y-57303351D01*
X117675465Y-57331522D01*
X117480776Y-57394781D01*
X117298386Y-57487715D01*
X117132786Y-57608028D01*
X116988028Y-57752786D01*
X116867715Y-57918386D01*
X116774781Y-58100776D01*
X116711522Y-58295465D01*
X116681725Y-58483600D01*
X116679500Y-58497648D01*
X110500500Y-58497648D01*
X110500500Y-44394111D01*
X113649600Y-44394111D01*
X113649600Y-44636688D01*
X113681261Y-44877185D01*
X113744047Y-45111504D01*
X113830494Y-45320205D01*
X113836876Y-45335612D01*
X113958164Y-45545689D01*
X113958166Y-45545692D01*
X113958167Y-45545693D01*
X114105833Y-45738136D01*
X114105839Y-45738143D01*
X114277356Y-45909660D01*
X114277362Y-45909665D01*
X114469811Y-46057336D01*
X114679888Y-46178624D01*
X114904000Y-46271454D01*
X115138311Y-46334238D01*
X115318686Y-46357984D01*
X115378811Y-46365900D01*
X115378812Y-46365900D01*
X115621389Y-46365900D01*
X115669488Y-46359567D01*
X115861889Y-46334238D01*
X116096200Y-46271454D01*
X116320312Y-46178624D01*
X116530389Y-46057336D01*
X116722838Y-45909665D01*
X116894365Y-45738138D01*
X117042036Y-45545689D01*
X117163324Y-45335612D01*
X117256154Y-45111500D01*
X117318938Y-44877189D01*
X117350600Y-44636688D01*
X117350600Y-44394112D01*
X117348573Y-44378712D01*
X202649500Y-44378712D01*
X202649500Y-44621288D01*
X202681162Y-44861789D01*
X202712554Y-44978944D01*
X202743947Y-45096104D01*
X202836773Y-45320205D01*
X202836776Y-45320212D01*
X202958064Y-45530289D01*
X202958066Y-45530292D01*
X202958067Y-45530293D01*
X203105733Y-45722736D01*
X203105739Y-45722743D01*
X203277256Y-45894260D01*
X203277263Y-45894266D01*
X203297333Y-45909666D01*
X203469711Y-46041936D01*
X203679788Y-46163224D01*
X203903900Y-46256054D01*
X204138211Y-46318838D01*
X204318586Y-46342584D01*
X204378711Y-46350500D01*
X204378712Y-46350500D01*
X204621289Y-46350500D01*
X204669388Y-46344167D01*
X204861789Y-46318838D01*
X205096100Y-46256054D01*
X205320212Y-46163224D01*
X205530289Y-46041936D01*
X205722738Y-45894265D01*
X205894265Y-45722738D01*
X206041936Y-45530289D01*
X206163224Y-45320212D01*
X206256054Y-45096100D01*
X206318838Y-44861789D01*
X206350500Y-44621288D01*
X206350500Y-44378712D01*
X206318838Y-44138211D01*
X206256054Y-43903900D01*
X206163224Y-43679788D01*
X206041936Y-43469711D01*
X205894265Y-43277262D01*
X205894260Y-43277256D01*
X205722743Y-43105739D01*
X205722736Y-43105733D01*
X205530293Y-42958067D01*
X205530292Y-42958066D01*
X205530289Y-42958064D01*
X205320212Y-42836776D01*
X205320205Y-42836773D01*
X205096104Y-42743947D01*
X204861785Y-42681161D01*
X204621289Y-42649500D01*
X204621288Y-42649500D01*
X204378712Y-42649500D01*
X204378711Y-42649500D01*
X204138214Y-42681161D01*
X203903895Y-42743947D01*
X203679794Y-42836773D01*
X203679785Y-42836777D01*
X203469706Y-42958067D01*
X203277263Y-43105733D01*
X203277256Y-43105739D01*
X203105739Y-43277256D01*
X203105733Y-43277263D01*
X202958067Y-43469706D01*
X202836777Y-43679785D01*
X202836773Y-43679794D01*
X202743947Y-43903895D01*
X202681161Y-44138214D01*
X202679134Y-44153614D01*
X202649500Y-44378712D01*
X117348573Y-44378712D01*
X117318938Y-44153611D01*
X117256154Y-43919300D01*
X117163324Y-43695188D01*
X117042036Y-43485111D01*
X116894365Y-43292662D01*
X116894360Y-43292656D01*
X116722843Y-43121139D01*
X116722836Y-43121133D01*
X116530393Y-42973467D01*
X116530392Y-42973466D01*
X116530389Y-42973464D01*
X116320312Y-42852176D01*
X116320305Y-42852173D01*
X116096204Y-42759347D01*
X115861885Y-42696561D01*
X115621389Y-42664900D01*
X115621388Y-42664900D01*
X115378812Y-42664900D01*
X115378811Y-42664900D01*
X115138314Y-42696561D01*
X114903995Y-42759347D01*
X114679894Y-42852173D01*
X114679885Y-42852177D01*
X114469806Y-42973467D01*
X114277363Y-43121133D01*
X114277356Y-43121139D01*
X114105839Y-43292656D01*
X114105833Y-43292663D01*
X113958167Y-43485106D01*
X113836877Y-43695185D01*
X113836873Y-43695194D01*
X113744047Y-43919295D01*
X113681261Y-44153614D01*
X113649600Y-44394111D01*
X110500500Y-44394111D01*
X110500500Y-40624500D01*
X110520185Y-40557461D01*
X110572989Y-40511706D01*
X110624500Y-40500500D01*
X209375500Y-40500500D01*
X209442539Y-40520185D01*
G37*
G04 #@! TD.AperFunction*
M02*
