G04 #@! TF.GenerationSoftware,KiCad,Pcbnew,10.0.3*
G04 #@! TF.CreationDate,2026-06-23T22:43:44+09:00*
G04 #@! TF.ProjectId,PC8001extSDRTC,50433830-3031-4657-9874-53445254432e,rev?*
G04 #@! TF.SameCoordinates,Original*
G04 #@! TF.FileFunction,Copper,L2,Bot*
G04 #@! TF.FilePolarity,Positive*
%FSLAX46Y46*%
G04 Gerber Fmt 4.6, Leading zero omitted, Abs format (unit mm)*
G04 Created by KiCad (PCBNEW 10.0.3) date 2026-06-23 22:43:44*
%MOMM*%
%LPD*%
G01*
G04 APERTURE LIST*
G04 Aperture macros list*
%AMRoundRect*
0 Rectangle with rounded corners*
0 $1 Rounding radius*
0 $2 $3 $4 $5 $6 $7 $8 $9 X,Y pos of 4 corners*
0 Add a 4 corners polygon primitive as box body*
4,1,4,$2,$3,$4,$5,$6,$7,$8,$9,$2,$3,0*
0 Add four circle primitives for the rounded corners*
1,1,$1+$1,$2,$3*
1,1,$1+$1,$4,$5*
1,1,$1+$1,$6,$7*
1,1,$1+$1,$8,$9*
0 Add four rect primitives between the rounded corners*
20,1,$1+$1,$2,$3,$4,$5,0*
20,1,$1+$1,$4,$5,$6,$7,0*
20,1,$1+$1,$6,$7,$8,$9,0*
20,1,$1+$1,$8,$9,$2,$3,0*%
G04 Aperture macros list end*
G04 #@! TA.AperFunction,ComponentPad*
%ADD10R,1.700000X1.700000*%
G04 #@! TD*
G04 #@! TA.AperFunction,ComponentPad*
%ADD11C,1.700000*%
G04 #@! TD*
G04 #@! TA.AperFunction,ComponentPad*
%ADD12RoundRect,0.250000X-0.550000X0.550000X-0.550000X-0.550000X0.550000X-0.550000X0.550000X0.550000X0*%
G04 #@! TD*
G04 #@! TA.AperFunction,ComponentPad*
%ADD13C,1.600000*%
G04 #@! TD*
G04 #@! TA.AperFunction,ComponentPad*
%ADD14RoundRect,0.250000X-0.550000X-0.550000X0.550000X-0.550000X0.550000X0.550000X-0.550000X0.550000X0*%
G04 #@! TD*
G04 #@! TA.AperFunction,ComponentPad*
%ADD15R,1.600000X1.600000*%
G04 #@! TD*
G04 #@! TA.AperFunction,ComponentPad*
%ADD16C,2.000000*%
G04 #@! TD*
G04 #@! TA.AperFunction,ViaPad*
%ADD17C,0.600000*%
G04 #@! TD*
G04 #@! TA.AperFunction,Conductor*
%ADD18C,0.600000*%
G04 #@! TD*
G04 #@! TA.AperFunction,Conductor*
%ADD19C,0.200000*%
G04 #@! TD*
G04 APERTURE END LIST*
D10*
X129260000Y-51540000D03*
D11*
X129260000Y-49000000D03*
X131800000Y-51540000D03*
X131800000Y-49000000D03*
X134340000Y-51540000D03*
X134340000Y-49000000D03*
X136880000Y-51540000D03*
X136880000Y-49000000D03*
X139420000Y-51540000D03*
X139420000Y-49000000D03*
X141960000Y-51540000D03*
X141960000Y-49000000D03*
X144500000Y-51540000D03*
X144500000Y-49000000D03*
X147040000Y-51540000D03*
X147040000Y-49000000D03*
X149580000Y-51540000D03*
X149580000Y-49000000D03*
X152120000Y-51540000D03*
X152120000Y-49000000D03*
X154660000Y-51540000D03*
X154660000Y-49000000D03*
X157200000Y-51540000D03*
X157200000Y-49000000D03*
X159740000Y-51540000D03*
X159740000Y-49000000D03*
X162280000Y-51540000D03*
X162280000Y-49000000D03*
X164820000Y-51540000D03*
X164820000Y-49000000D03*
X167360000Y-51540000D03*
X167360000Y-49000000D03*
X169900000Y-51540000D03*
X169900000Y-49000000D03*
X172440000Y-51540000D03*
X172440000Y-49000000D03*
X174980000Y-51540000D03*
X174980000Y-49000000D03*
X177520000Y-51540000D03*
X177520000Y-49000000D03*
X180060000Y-51540000D03*
X180060000Y-49000000D03*
X182600000Y-51540000D03*
X182600000Y-49000000D03*
X185140000Y-51540000D03*
X185140000Y-49000000D03*
X187680000Y-51540000D03*
X187680000Y-49000000D03*
X190220000Y-51540000D03*
X190220000Y-49000000D03*
D12*
X118710000Y-49887600D03*
D13*
X118710000Y-52387600D03*
D14*
X184760000Y-57380000D03*
D13*
X184760000Y-59920000D03*
X184760000Y-62460000D03*
X184760000Y-65000000D03*
X184760000Y-67540000D03*
X184760000Y-70080000D03*
X184760000Y-72620000D03*
X184760000Y-75160000D03*
X184760000Y-77700000D03*
X184760000Y-80240000D03*
X184760000Y-82780000D03*
X184760000Y-85320000D03*
X184760000Y-87860000D03*
X184760000Y-90400000D03*
X184760000Y-92940000D03*
X184760000Y-95480000D03*
X184760000Y-98020000D03*
X184760000Y-100560000D03*
X184760000Y-103100000D03*
X184760000Y-105640000D03*
X200000000Y-105640000D03*
X200000000Y-103100000D03*
X200000000Y-100560000D03*
X200000000Y-98020000D03*
X200000000Y-95480000D03*
X200000000Y-92940000D03*
X200000000Y-90400000D03*
X200000000Y-87860000D03*
X200000000Y-85320000D03*
X200000000Y-82780000D03*
X200000000Y-80240000D03*
X200000000Y-77700000D03*
X200000000Y-75160000D03*
X200000000Y-72620000D03*
X200000000Y-70080000D03*
X200000000Y-67540000D03*
X200000000Y-65000000D03*
X200000000Y-62460000D03*
X200000000Y-59920000D03*
X200000000Y-57380000D03*
D10*
X162500000Y-62300000D03*
D11*
X159960000Y-62300000D03*
X157420000Y-62300000D03*
X154880000Y-62300000D03*
X152340000Y-62300000D03*
X149800000Y-62300000D03*
D13*
X204000000Y-77500000D03*
X204000000Y-80000000D03*
X180000000Y-83000000D03*
X180000000Y-85500000D03*
D15*
X138300000Y-58600000D03*
D13*
X135760000Y-58600000D03*
X133220000Y-58600000D03*
X130680000Y-58600000D03*
X128140000Y-58600000D03*
X125600000Y-58600000D03*
X123060000Y-58600000D03*
X120520000Y-58600000D03*
X117980000Y-58600000D03*
X174550000Y-96400000D03*
X177050000Y-96400000D03*
X171140000Y-91900000D03*
X181300000Y-91900000D03*
D10*
X136200000Y-62200000D03*
D11*
X133660000Y-62200000D03*
X131120000Y-62200000D03*
X128580000Y-62200000D03*
X126040000Y-62200000D03*
X123500000Y-62200000D03*
D16*
X172800000Y-102400000D03*
X179300000Y-102400000D03*
X172800000Y-106900000D03*
X179300000Y-106900000D03*
D10*
X204615000Y-57650000D03*
D11*
X204615000Y-60190000D03*
X204615000Y-62730000D03*
X204615000Y-65270000D03*
X204615000Y-67810000D03*
X204615000Y-70350000D03*
D17*
X173168100Y-94158900D03*
X176253800Y-94084900D03*
X183149700Y-56999100D03*
X176043200Y-93016600D03*
X185871200Y-58449100D03*
X198560200Y-53138500D03*
X177095100Y-83573000D03*
X180211400Y-55937200D03*
X177449100Y-65000000D03*
X134279900Y-56175200D03*
X186554100Y-64844300D03*
X167624300Y-73890000D03*
D18*
X131346900Y-53626900D02*
X129260000Y-51540000D01*
X203243200Y-76743200D02*
X204000000Y-77500000D01*
X203243200Y-69181800D02*
X203243200Y-76743200D01*
X137656100Y-58591800D02*
X137656100Y-58417600D01*
X137656100Y-58591800D02*
X138291800Y-58591800D01*
X135399600Y-60848300D02*
X137656100Y-58591800D01*
X138291800Y-58591800D02*
X138300000Y-58600000D01*
X204615000Y-67810000D02*
X203243200Y-69181800D01*
X132865400Y-53626900D02*
X131346900Y-53626900D01*
X133660000Y-62200000D02*
X135011700Y-60848300D01*
X135011700Y-60848300D02*
X135399600Y-60848300D01*
X137656100Y-58417600D02*
X132865400Y-53626900D01*
D19*
X138150000Y-51140500D02*
X137388300Y-50378800D01*
X175653600Y-100650700D02*
X175653600Y-95595400D01*
X173769800Y-90473000D02*
X138150000Y-54853200D01*
X184760000Y-103100000D02*
X184132400Y-103727600D01*
X178730500Y-103727600D02*
X175653600Y-100650700D01*
X175653600Y-95595400D02*
X173769800Y-93711600D01*
X138150000Y-54853200D02*
X138150000Y-51140500D01*
X132961200Y-50378800D02*
X131800000Y-51540000D01*
X173769800Y-93711600D02*
X173769800Y-90473000D01*
X137388300Y-50378800D02*
X132961200Y-50378800D01*
X184132400Y-103727600D02*
X178730500Y-103727600D01*
X184760000Y-105640000D02*
X182176500Y-108223500D01*
X182176500Y-108223500D02*
X172252300Y-108223500D01*
X140853100Y-76824300D02*
X140853100Y-59100300D01*
X134340000Y-52587200D02*
X134340000Y-51540000D01*
X140853100Y-59100300D02*
X134340000Y-52587200D01*
X172252300Y-108223500D02*
X140853100Y-76824300D01*
X173168100Y-90609200D02*
X173168100Y-94158900D01*
X136880000Y-54321100D02*
X173168100Y-90609200D01*
X136880000Y-51540000D02*
X136880000Y-54321100D01*
X174171500Y-90306700D02*
X139821700Y-55956900D01*
X139821700Y-55956900D02*
X139821700Y-51941700D01*
X174171500Y-92002600D02*
X174171500Y-90306700D01*
X139821700Y-51941700D02*
X139420000Y-51540000D01*
X176253800Y-94084900D02*
X174171500Y-92002600D01*
X183888100Y-56260700D02*
X183149700Y-56999100D01*
X200000000Y-90400000D02*
X201151200Y-89248800D01*
X201151200Y-84890300D02*
X200452400Y-84191500D01*
X200452400Y-84191500D02*
X199823600Y-84191500D01*
X201151200Y-89248800D02*
X201151200Y-84890300D01*
X190359500Y-61075300D02*
X185544900Y-56260700D01*
X185544900Y-56260700D02*
X183888100Y-56260700D01*
X199823600Y-84191500D02*
X190359500Y-74727400D01*
X190359500Y-74727400D02*
X190359500Y-61075300D01*
X176043200Y-93016600D02*
X176043200Y-91610400D01*
X176043200Y-91610400D02*
X144500000Y-60067200D01*
X144500000Y-60067200D02*
X144500000Y-51540000D01*
X200000000Y-85320000D02*
X185871200Y-71191200D01*
X185871200Y-71191200D02*
X185871200Y-58449100D01*
X198560200Y-81340200D02*
X198560200Y-53138500D01*
X200000000Y-82780000D02*
X198560200Y-81340200D01*
X183569100Y-91749100D02*
X183569100Y-83874900D01*
X184760000Y-92940000D02*
X183569100Y-91749100D01*
X160241100Y-50365200D02*
X153294800Y-50365200D01*
X164821900Y-56496200D02*
X161128300Y-52802600D01*
X153294800Y-50365200D02*
X152120000Y-51540000D01*
X183569100Y-83874900D02*
X164821900Y-65127700D01*
X164821900Y-65127700D02*
X164821900Y-56496200D01*
X161128300Y-52802600D02*
X161128300Y-51252400D01*
X161128300Y-51252400D02*
X160241100Y-50365200D01*
X156049800Y-52929800D02*
X156049800Y-63378500D01*
X156049800Y-63378500D02*
X176846000Y-84174700D01*
X180274400Y-84174700D02*
X182701600Y-86601900D01*
X176846000Y-84174700D02*
X180274400Y-84174700D01*
X182701600Y-93421600D02*
X184760000Y-95480000D01*
X182701600Y-86601900D02*
X182701600Y-93421600D01*
X154660000Y-51540000D02*
X156049800Y-52929800D01*
X161230000Y-63570000D02*
X161230000Y-55570000D01*
X177095100Y-83573000D02*
X177095100Y-78869100D01*
X165152000Y-67309200D02*
X165101900Y-67359300D01*
X165019300Y-67359300D02*
X161230000Y-63570000D01*
X165101900Y-67359300D02*
X165019300Y-67359300D01*
X161230000Y-55570000D02*
X157200000Y-51540000D01*
X165535200Y-67309200D02*
X165152000Y-67309200D01*
X177095100Y-78869100D02*
X165535200Y-67309200D01*
X184760000Y-100560000D02*
X185913200Y-99406800D01*
X185913200Y-95069700D02*
X185053500Y-94210000D01*
X183161700Y-92899700D02*
X183161700Y-84118100D01*
X185913200Y-99406800D02*
X185913200Y-95069700D01*
X159740000Y-52947300D02*
X159740000Y-51540000D01*
X183161700Y-84118100D02*
X164020000Y-64976400D01*
X164020000Y-64976400D02*
X164020000Y-57227300D01*
X164020000Y-57227300D02*
X159740000Y-52947300D01*
X184472000Y-94210000D02*
X183161700Y-92899700D01*
X185053500Y-94210000D02*
X184472000Y-94210000D01*
X165223600Y-64828400D02*
X165223600Y-54483600D01*
X198560200Y-97517300D02*
X185092900Y-84050000D01*
X198560200Y-99120200D02*
X198560200Y-97517300D01*
X200000000Y-100560000D02*
X198560200Y-99120200D01*
X165223600Y-54483600D02*
X162280000Y-51540000D01*
X185092900Y-84050000D02*
X184445200Y-84050000D01*
X184445200Y-84050000D02*
X165223600Y-64828400D01*
X200000000Y-98020000D02*
X198560200Y-96580200D01*
X185092900Y-81510000D02*
X184419700Y-81510000D01*
X165625300Y-62715600D02*
X165625300Y-52345300D01*
X198560200Y-96580200D02*
X198560200Y-94977300D01*
X184419700Y-81510000D02*
X165625300Y-62715600D01*
X165625300Y-52345300D02*
X164820000Y-51540000D01*
X198560200Y-94977300D02*
X185092900Y-81510000D01*
X184463800Y-78970000D02*
X167360000Y-61866200D01*
X167360000Y-61866200D02*
X167360000Y-51540000D01*
X198560200Y-92437300D02*
X185092900Y-78970000D01*
X185092900Y-78970000D02*
X184463800Y-78970000D01*
X200000000Y-95480000D02*
X198560200Y-94040200D01*
X198560200Y-94040200D02*
X198560200Y-92437300D01*
X198546200Y-91486200D02*
X198546200Y-84833200D01*
X200000000Y-92940000D02*
X198546200Y-91486200D01*
X198546200Y-84833200D02*
X185063000Y-71350000D01*
X182919400Y-71350000D02*
X169900000Y-58330600D01*
X169900000Y-58330600D02*
X169900000Y-51540000D01*
X185063000Y-71350000D02*
X182919400Y-71350000D01*
X184760000Y-62460000D02*
X180211400Y-57911400D01*
X180211400Y-57911400D02*
X180211400Y-55937200D01*
X178790000Y-61570000D02*
X184760000Y-67540000D01*
X172440000Y-49000000D02*
X173593200Y-47846800D01*
X173593200Y-47846800D02*
X178000500Y-47846800D01*
X178000500Y-47846800D02*
X178790000Y-48636300D01*
X178790000Y-48636300D02*
X178790000Y-61570000D01*
X174980000Y-62530900D02*
X177449100Y-65000000D01*
X174980000Y-51540000D02*
X174980000Y-62530900D01*
X176250000Y-50270000D02*
X174980000Y-49000000D01*
X176250000Y-61570000D02*
X176250000Y-50270000D01*
X184760000Y-70080000D02*
X176250000Y-61570000D01*
X180813100Y-52293100D02*
X180060000Y-51540000D01*
X180813100Y-55973100D02*
X180813100Y-52293100D01*
X184760000Y-59920000D02*
X180813100Y-55973100D01*
D18*
X204615000Y-65270000D02*
X205968900Y-63916100D01*
X175950000Y-88450000D02*
X149800000Y-62300000D01*
X204615000Y-65270000D02*
X205984600Y-66639600D01*
X205984600Y-66639600D02*
X205984600Y-78015400D01*
X177050000Y-88450000D02*
X175950000Y-88450000D01*
X177050000Y-88450000D02*
X180000000Y-85500000D01*
X205968900Y-63916100D02*
X205968900Y-56567300D01*
X205968900Y-56567300D02*
X198401600Y-49000000D01*
X177050000Y-100150000D02*
X177050000Y-96400000D01*
X177103000Y-96347000D02*
X177103000Y-88503000D01*
X179300000Y-102400000D02*
X177050000Y-100150000D01*
X198401600Y-49000000D02*
X190220000Y-49000000D01*
X177050000Y-96400000D02*
X177103000Y-96347000D01*
X205984600Y-78015400D02*
X204000000Y-80000000D01*
X177103000Y-88503000D02*
X177050000Y-88450000D01*
D19*
X134279900Y-57119900D02*
X134279900Y-56175200D01*
X186554100Y-58263000D02*
X186554100Y-64844300D01*
X185671100Y-57380000D02*
X186554100Y-58263000D01*
X135760000Y-58600000D02*
X134279900Y-57119900D01*
X184760000Y-57380000D02*
X185671100Y-57380000D01*
X165302300Y-67726900D02*
X165384900Y-67726900D01*
X159960000Y-62300000D02*
X159960000Y-62868000D01*
X164894300Y-67802300D02*
X165226900Y-67802300D01*
X167624300Y-69966300D02*
X167624300Y-73890000D01*
X165384900Y-67726900D02*
X167624300Y-69966300D01*
X165226900Y-67802300D02*
X165302300Y-67726900D01*
X159960000Y-62868000D02*
X164894300Y-67802300D01*
X125600000Y-59220000D02*
X125600000Y-58600000D01*
X128580000Y-62200000D02*
X125600000Y-59220000D01*
X131120000Y-62200000D02*
X128140000Y-59220000D01*
X128140000Y-59220000D02*
X128140000Y-58600000D01*
X200000000Y-58115000D02*
X200000000Y-57380000D01*
X204615000Y-62730000D02*
X200000000Y-58115000D01*
X174550000Y-105150000D02*
X174550000Y-96400000D01*
X174550000Y-96400000D02*
X171140000Y-92990000D01*
X172800000Y-106900000D02*
X174550000Y-105150000D01*
X171140000Y-92990000D02*
X171140000Y-91900000D01*
G04 #@! TA.AperFunction,Conductor*
G36*
X141658803Y-59949584D02*
G01*
X141665281Y-59955616D01*
X172531281Y-90821616D01*
X172564766Y-90882939D01*
X172567600Y-90909297D01*
X172567600Y-91320728D01*
X172547915Y-91387767D01*
X172495111Y-91433522D01*
X172425953Y-91443466D01*
X172362397Y-91414441D01*
X172333115Y-91377023D01*
X172304431Y-91320728D01*
X172252287Y-91218390D01*
X172230524Y-91188435D01*
X172131971Y-91052786D01*
X171987213Y-90908028D01*
X171821613Y-90787715D01*
X171821612Y-90787714D01*
X171821610Y-90787713D01*
X171764653Y-90758691D01*
X171639223Y-90694781D01*
X171444534Y-90631522D01*
X171269995Y-90603878D01*
X171242352Y-90599500D01*
X171037648Y-90599500D01*
X171013329Y-90603351D01*
X170835465Y-90631522D01*
X170640776Y-90694781D01*
X170458386Y-90787715D01*
X170292786Y-90908028D01*
X170148028Y-91052786D01*
X170027715Y-91218386D01*
X169934781Y-91400776D01*
X169871522Y-91595465D01*
X169839500Y-91797648D01*
X169839500Y-92002351D01*
X169871522Y-92204534D01*
X169934781Y-92399223D01*
X170027715Y-92581613D01*
X170148028Y-92747213D01*
X170292786Y-92891971D01*
X170458388Y-93012286D01*
X170485515Y-93026108D01*
X170507215Y-93046602D01*
X170530589Y-93065175D01*
X170533527Y-93071453D01*
X170536311Y-93074082D01*
X170546604Y-93096627D01*
X170547930Y-93100522D01*
X170580423Y-93221785D01*
X170595780Y-93248384D01*
X170601857Y-93258910D01*
X170601858Y-93258912D01*
X170659477Y-93358712D01*
X170659481Y-93358717D01*
X170778349Y-93477585D01*
X170778355Y-93477590D01*
X173255922Y-95955157D01*
X173289407Y-96016480D01*
X173286173Y-96081155D01*
X173281522Y-96095468D01*
X173249500Y-96297648D01*
X173249500Y-96502351D01*
X173281522Y-96704534D01*
X173344781Y-96899223D01*
X173437715Y-97081613D01*
X173558028Y-97247213D01*
X173558034Y-97247219D01*
X173702781Y-97391966D01*
X173868390Y-97512287D01*
X173881793Y-97519116D01*
X173932589Y-97567088D01*
X173949500Y-97629601D01*
X173949500Y-101137695D01*
X173929815Y-101204734D01*
X173877011Y-101250489D01*
X173807853Y-101260433D01*
X173752615Y-101238013D01*
X173586174Y-101117087D01*
X173375802Y-101009897D01*
X173151247Y-100936934D01*
X173151248Y-100936934D01*
X172918052Y-100900000D01*
X172681948Y-100900000D01*
X172448752Y-100936934D01*
X172224197Y-101009897D01*
X172013830Y-101117084D01*
X171930894Y-101177340D01*
X172629766Y-101876212D01*
X172587708Y-101887482D01*
X172462292Y-101959890D01*
X172359890Y-102062292D01*
X172287482Y-102187708D01*
X172276212Y-102229765D01*
X171577340Y-101530894D01*
X171517084Y-101613830D01*
X171409897Y-101824197D01*
X171336934Y-102048752D01*
X171300000Y-102281947D01*
X171300000Y-102518052D01*
X171336934Y-102751247D01*
X171409897Y-102975802D01*
X171517087Y-103186174D01*
X171577338Y-103269104D01*
X171577340Y-103269105D01*
X172276212Y-102570233D01*
X172287482Y-102612292D01*
X172359890Y-102737708D01*
X172462292Y-102840110D01*
X172587708Y-102912518D01*
X172629764Y-102923787D01*
X171930893Y-103622658D01*
X172013828Y-103682914D01*
X172224197Y-103790102D01*
X172448752Y-103863065D01*
X172448751Y-103863065D01*
X172681948Y-103900000D01*
X172918052Y-103900000D01*
X173151247Y-103863065D01*
X173375802Y-103790102D01*
X173586171Y-103682914D01*
X173752614Y-103561986D01*
X173818420Y-103538506D01*
X173886474Y-103554331D01*
X173935169Y-103604437D01*
X173949500Y-103662304D01*
X173949500Y-104849902D01*
X173929815Y-104916941D01*
X173913181Y-104937583D01*
X173403563Y-105447200D01*
X173342240Y-105480685D01*
X173277564Y-105477450D01*
X173151370Y-105436447D01*
X172918097Y-105399500D01*
X172918092Y-105399500D01*
X172681908Y-105399500D01*
X172681903Y-105399500D01*
X172448631Y-105436446D01*
X172224003Y-105509433D01*
X172013566Y-105616657D01*
X171904550Y-105695862D01*
X171822490Y-105755483D01*
X171822488Y-105755485D01*
X171822487Y-105755485D01*
X171655485Y-105922487D01*
X171655485Y-105922488D01*
X171655483Y-105922490D01*
X171609207Y-105986182D01*
X171516653Y-106113571D01*
X171416911Y-106309325D01*
X171368937Y-106360121D01*
X171301116Y-106376916D01*
X171234981Y-106354378D01*
X171218746Y-106340711D01*
X141489919Y-76611884D01*
X141456434Y-76550561D01*
X141453600Y-76524203D01*
X141453600Y-60043297D01*
X141473285Y-59976258D01*
X141526089Y-59930503D01*
X141595247Y-59920559D01*
X141658803Y-59949584D01*
G37*
G04 #@! TD.AperFunction*
G04 #@! TA.AperFunction,Conductor*
G36*
X150915270Y-63061717D02*
G01*
X150915270Y-63061716D01*
X150954622Y-63007555D01*
X150959232Y-62998507D01*
X151007205Y-62947709D01*
X151075025Y-62930912D01*
X151141161Y-62953447D01*
X151180204Y-62998504D01*
X151184949Y-63007817D01*
X151309890Y-63179786D01*
X151460213Y-63330109D01*
X151632179Y-63455048D01*
X151632181Y-63455049D01*
X151632184Y-63455051D01*
X151821588Y-63551557D01*
X152023757Y-63617246D01*
X152233713Y-63650500D01*
X152233714Y-63650500D01*
X152446286Y-63650500D01*
X152446287Y-63650500D01*
X152656243Y-63617246D01*
X152858412Y-63551557D01*
X153047816Y-63455051D01*
X153106976Y-63412069D01*
X153219786Y-63330109D01*
X153219788Y-63330106D01*
X153219792Y-63330104D01*
X153370104Y-63179792D01*
X153370106Y-63179788D01*
X153370109Y-63179786D01*
X153495048Y-63007820D01*
X153495050Y-63007817D01*
X153495051Y-63007816D01*
X153499514Y-62999054D01*
X153547488Y-62948259D01*
X153615308Y-62931463D01*
X153681444Y-62953999D01*
X153720486Y-62999056D01*
X153724951Y-63007820D01*
X153849890Y-63179786D01*
X154000213Y-63330109D01*
X154172179Y-63455048D01*
X154172181Y-63455049D01*
X154172184Y-63455051D01*
X154361588Y-63551557D01*
X154563757Y-63617246D01*
X154773713Y-63650500D01*
X154773714Y-63650500D01*
X154986286Y-63650500D01*
X154986287Y-63650500D01*
X155196243Y-63617246D01*
X155351674Y-63566742D01*
X155382628Y-63565858D01*
X155413454Y-63562915D01*
X155417245Y-63564869D01*
X155421511Y-63564748D01*
X155448031Y-63580740D01*
X155475557Y-63594930D01*
X155479159Y-63599510D01*
X155481344Y-63600828D01*
X155497374Y-63622670D01*
X155518092Y-63658555D01*
X155519158Y-63660400D01*
X155519159Y-63660404D01*
X155519160Y-63660404D01*
X155534067Y-63686225D01*
X155569279Y-63747214D01*
X155569281Y-63747217D01*
X155688149Y-63866085D01*
X155688155Y-63866090D01*
X176361139Y-84539074D01*
X176361149Y-84539085D01*
X176365479Y-84543415D01*
X176365480Y-84543416D01*
X176477284Y-84655220D01*
X176564095Y-84705339D01*
X176564097Y-84705341D01*
X176602151Y-84727311D01*
X176614215Y-84734277D01*
X176766943Y-84775200D01*
X178707930Y-84775200D01*
X178774969Y-84794885D01*
X178820724Y-84847689D01*
X178830668Y-84916847D01*
X178818415Y-84955495D01*
X178795244Y-85000968D01*
X178732009Y-85195582D01*
X178700000Y-85397682D01*
X178700000Y-85602317D01*
X178732009Y-85804417D01*
X178795244Y-85999031D01*
X178888141Y-86181350D01*
X178888147Y-86181359D01*
X178920523Y-86225921D01*
X178920524Y-86225922D01*
X179600000Y-85546446D01*
X179600000Y-85552661D01*
X179627259Y-85654394D01*
X179679920Y-85745606D01*
X179754394Y-85820080D01*
X179845606Y-85872741D01*
X179947339Y-85900000D01*
X179953553Y-85900000D01*
X179274076Y-86579474D01*
X179318650Y-86611859D01*
X179500968Y-86704755D01*
X179695582Y-86767990D01*
X179897683Y-86800000D01*
X180102317Y-86800000D01*
X180304417Y-86767990D01*
X180499031Y-86704755D01*
X180681349Y-86611859D01*
X180725921Y-86579474D01*
X180046447Y-85900000D01*
X180052661Y-85900000D01*
X180154394Y-85872741D01*
X180245606Y-85820080D01*
X180320080Y-85745606D01*
X180372741Y-85654394D01*
X180400000Y-85552661D01*
X180400000Y-85546447D01*
X181079474Y-86225921D01*
X181111861Y-86181347D01*
X181111861Y-86181346D01*
X181142374Y-86121462D01*
X181190348Y-86070665D01*
X181258169Y-86053870D01*
X181324304Y-86076407D01*
X181340540Y-86090075D01*
X182064781Y-86814316D01*
X182098266Y-86875639D01*
X182101100Y-86901997D01*
X182101100Y-90646246D01*
X182081415Y-90713285D01*
X182028611Y-90759040D01*
X181959453Y-90768984D01*
X181920805Y-90756731D01*
X181799223Y-90694781D01*
X181604534Y-90631522D01*
X181429995Y-90603878D01*
X181402352Y-90599500D01*
X181197648Y-90599500D01*
X181173329Y-90603351D01*
X180995465Y-90631522D01*
X180800776Y-90694781D01*
X180618386Y-90787715D01*
X180452786Y-90908028D01*
X180308028Y-91052786D01*
X180187715Y-91218386D01*
X180094781Y-91400776D01*
X180031522Y-91595465D01*
X179999500Y-91797648D01*
X179999500Y-92002351D01*
X180031522Y-92204534D01*
X180094781Y-92399223D01*
X180187715Y-92581613D01*
X180308028Y-92747213D01*
X180452786Y-92891971D01*
X180555139Y-92966333D01*
X180618390Y-93012287D01*
X180729807Y-93069057D01*
X180800776Y-93105218D01*
X180800778Y-93105218D01*
X180800781Y-93105220D01*
X180905137Y-93139127D01*
X180995465Y-93168477D01*
X181096557Y-93184488D01*
X181197648Y-93200500D01*
X181197649Y-93200500D01*
X181402351Y-93200500D01*
X181402352Y-93200500D01*
X181604534Y-93168477D01*
X181799219Y-93105220D01*
X181920804Y-93043268D01*
X181923509Y-93042760D01*
X181925589Y-93040959D01*
X181957646Y-93036349D01*
X181989474Y-93030372D01*
X181992023Y-93031406D01*
X181994747Y-93031015D01*
X182024210Y-93044470D01*
X182054214Y-93056648D01*
X182055799Y-93058896D01*
X182058303Y-93060040D01*
X182075812Y-93087284D01*
X182094472Y-93113754D01*
X182095045Y-93117212D01*
X182096077Y-93118818D01*
X182101100Y-93153753D01*
X182101100Y-93334930D01*
X182101099Y-93334948D01*
X182101099Y-93500654D01*
X182101098Y-93500654D01*
X182142023Y-93653385D01*
X182152473Y-93671484D01*
X182152474Y-93671487D01*
X182221075Y-93790309D01*
X182221081Y-93790317D01*
X182339949Y-93909185D01*
X182339955Y-93909190D01*
X183465922Y-95035157D01*
X183499407Y-95096480D01*
X183496173Y-95161155D01*
X183491522Y-95175468D01*
X183459500Y-95377648D01*
X183459500Y-95582351D01*
X183491522Y-95784534D01*
X183554781Y-95979223D01*
X183606090Y-96079920D01*
X183644036Y-96154394D01*
X183647715Y-96161613D01*
X183768028Y-96327213D01*
X183912786Y-96471971D01*
X184026234Y-96554394D01*
X184078390Y-96592287D01*
X184169840Y-96638883D01*
X184171080Y-96639515D01*
X184221876Y-96687490D01*
X184238671Y-96755311D01*
X184216134Y-96821446D01*
X184171080Y-96860485D01*
X184078386Y-96907715D01*
X183912786Y-97028028D01*
X183768028Y-97172786D01*
X183647715Y-97338386D01*
X183554781Y-97520776D01*
X183491522Y-97715465D01*
X183459500Y-97917648D01*
X183459500Y-98122351D01*
X183491522Y-98324534D01*
X183554781Y-98519223D01*
X183647715Y-98701613D01*
X183768028Y-98867213D01*
X183912786Y-99011971D01*
X184067749Y-99124556D01*
X184078390Y-99132287D01*
X184169840Y-99178883D01*
X184171080Y-99179515D01*
X184221876Y-99227490D01*
X184238671Y-99295311D01*
X184216134Y-99361446D01*
X184171080Y-99400485D01*
X184078386Y-99447715D01*
X183912786Y-99568028D01*
X183768028Y-99712786D01*
X183647715Y-99878386D01*
X183554781Y-100060776D01*
X183491522Y-100255465D01*
X183459500Y-100457648D01*
X183459500Y-100662351D01*
X183491522Y-100864534D01*
X183554781Y-101059223D01*
X183612988Y-101173459D01*
X183645880Y-101238013D01*
X183647715Y-101241613D01*
X183768028Y-101407213D01*
X183912786Y-101551971D01*
X184067749Y-101664556D01*
X184078390Y-101672287D01*
X184169840Y-101718883D01*
X184171080Y-101719515D01*
X184221876Y-101767490D01*
X184238671Y-101835311D01*
X184216134Y-101901446D01*
X184171080Y-101940485D01*
X184078386Y-101987715D01*
X183912786Y-102108028D01*
X183768028Y-102252786D01*
X183647715Y-102418386D01*
X183554781Y-102600776D01*
X183491522Y-102795465D01*
X183459500Y-102997648D01*
X183459500Y-103003100D01*
X183439815Y-103070139D01*
X183387011Y-103115894D01*
X183335500Y-103127100D01*
X180811615Y-103127100D01*
X180744576Y-103107415D01*
X180698821Y-103054611D01*
X180688877Y-102985453D01*
X180693684Y-102964782D01*
X180763065Y-102751248D01*
X180800000Y-102518052D01*
X180800000Y-102281947D01*
X180763065Y-102048752D01*
X180690102Y-101824197D01*
X180582914Y-101613828D01*
X180522658Y-101530894D01*
X180522658Y-101530893D01*
X179823787Y-102229764D01*
X179812518Y-102187708D01*
X179740110Y-102062292D01*
X179637708Y-101959890D01*
X179512292Y-101887482D01*
X179470234Y-101876212D01*
X180169105Y-101177340D01*
X180169104Y-101177338D01*
X180086174Y-101117087D01*
X179875802Y-101009897D01*
X179651247Y-100936934D01*
X179651248Y-100936934D01*
X179418052Y-100900000D01*
X179181948Y-100900000D01*
X178948752Y-100936934D01*
X178724197Y-101009897D01*
X178513830Y-101117084D01*
X178430894Y-101177340D01*
X179129766Y-101876212D01*
X179087708Y-101887482D01*
X178962292Y-101959890D01*
X178859890Y-102062292D01*
X178787482Y-102187708D01*
X178776212Y-102229766D01*
X178077340Y-101530894D01*
X178017084Y-101613830D01*
X177908543Y-101826855D01*
X177860568Y-101877651D01*
X177792747Y-101894446D01*
X177726612Y-101871909D01*
X177710377Y-101858241D01*
X176290419Y-100438283D01*
X176256934Y-100376960D01*
X176254100Y-100350602D01*
X176254100Y-97655842D01*
X176273785Y-97588803D01*
X176326589Y-97543048D01*
X176395747Y-97533104D01*
X176434395Y-97545357D01*
X176550968Y-97604755D01*
X176745582Y-97667990D01*
X176947683Y-97700000D01*
X177152317Y-97700000D01*
X177354417Y-97667990D01*
X177549031Y-97604755D01*
X177731349Y-97511859D01*
X177775921Y-97479474D01*
X177096447Y-96800000D01*
X177102661Y-96800000D01*
X177204394Y-96772741D01*
X177295606Y-96720080D01*
X177370080Y-96645606D01*
X177422741Y-96554394D01*
X177450000Y-96452661D01*
X177450000Y-96446448D01*
X178129474Y-97125922D01*
X178129474Y-97125921D01*
X178161859Y-97081349D01*
X178254755Y-96899031D01*
X178317990Y-96704417D01*
X178350000Y-96502317D01*
X178350000Y-96297682D01*
X178317990Y-96095582D01*
X178254755Y-95900968D01*
X178161859Y-95718650D01*
X178129474Y-95674077D01*
X178129474Y-95674076D01*
X177450000Y-96353551D01*
X177450000Y-96347339D01*
X177422741Y-96245606D01*
X177370080Y-96154394D01*
X177295606Y-96079920D01*
X177204394Y-96027259D01*
X177102661Y-96000000D01*
X177096446Y-96000000D01*
X177775922Y-95320524D01*
X177775921Y-95320523D01*
X177731359Y-95288147D01*
X177731350Y-95288141D01*
X177549031Y-95195244D01*
X177354417Y-95132009D01*
X177152317Y-95100000D01*
X176947683Y-95100000D01*
X176745582Y-95132009D01*
X176550968Y-95195244D01*
X176368649Y-95288141D01*
X176368637Y-95288149D01*
X176339833Y-95309075D01*
X176274026Y-95332553D01*
X176205973Y-95316726D01*
X176159564Y-95270755D01*
X176134120Y-95226684D01*
X175987000Y-95079564D01*
X175953515Y-95018241D01*
X175958499Y-94948549D01*
X176000371Y-94892616D01*
X176065835Y-94868199D01*
X176098873Y-94870266D01*
X176174955Y-94885400D01*
X176174958Y-94885400D01*
X176332644Y-94885400D01*
X176332645Y-94885399D01*
X176487297Y-94854637D01*
X176632979Y-94794294D01*
X176764089Y-94706689D01*
X176875589Y-94595189D01*
X176963194Y-94464079D01*
X177023537Y-94318397D01*
X177054300Y-94163742D01*
X177054300Y-94006058D01*
X177054300Y-94006055D01*
X177054299Y-94006053D01*
X177037823Y-93923225D01*
X177023537Y-93851403D01*
X176998231Y-93790309D01*
X176963197Y-93705727D01*
X176963190Y-93705714D01*
X176875589Y-93574611D01*
X176875586Y-93574607D01*
X176794826Y-93493847D01*
X176761341Y-93432524D01*
X176766325Y-93362832D01*
X176767924Y-93358767D01*
X176812937Y-93250097D01*
X176843700Y-93095442D01*
X176843700Y-92937758D01*
X176843700Y-92937755D01*
X176843699Y-92937753D01*
X176826700Y-92852294D01*
X176812937Y-92783103D01*
X176812935Y-92783098D01*
X176752597Y-92637427D01*
X176752590Y-92637414D01*
X176664598Y-92505725D01*
X176643720Y-92439047D01*
X176643700Y-92436834D01*
X176643700Y-91531340D01*
X176641220Y-91522085D01*
X176641220Y-91522086D01*
X176641219Y-91522081D01*
X176602777Y-91378615D01*
X176557677Y-91300500D01*
X176523720Y-91241684D01*
X176411916Y-91129880D01*
X176411915Y-91129879D01*
X176407585Y-91125549D01*
X176407574Y-91125539D01*
X148905469Y-63623434D01*
X148871984Y-63562111D01*
X148876968Y-63492419D01*
X148918840Y-63436486D01*
X148984304Y-63412069D01*
X149052577Y-63426921D01*
X149066035Y-63435435D01*
X149092442Y-63454620D01*
X149281782Y-63551095D01*
X149483870Y-63616757D01*
X149693754Y-63650000D01*
X149906246Y-63650000D01*
X150116127Y-63616757D01*
X150116130Y-63616757D01*
X150318217Y-63551095D01*
X150507554Y-63454622D01*
X150561716Y-63415270D01*
X150561717Y-63415270D01*
X149929408Y-62782962D01*
X149992993Y-62765925D01*
X150107007Y-62700099D01*
X150200099Y-62607007D01*
X150265925Y-62492993D01*
X150282962Y-62429408D01*
X150915270Y-63061717D01*
G37*
G04 #@! TD.AperFunction*
G04 #@! TA.AperFunction,Conductor*
G36*
X153407226Y-52175524D02*
G01*
X153419810Y-52174985D01*
X153439674Y-52186581D01*
X153461444Y-52193999D01*
X153470719Y-52204703D01*
X153480151Y-52210209D01*
X153500486Y-52239056D01*
X153504951Y-52247820D01*
X153629890Y-52419786D01*
X153780213Y-52570109D01*
X153952179Y-52695048D01*
X153952181Y-52695049D01*
X153952184Y-52695051D01*
X154141588Y-52791557D01*
X154343757Y-52857246D01*
X154553713Y-52890500D01*
X154553714Y-52890500D01*
X154766286Y-52890500D01*
X154766287Y-52890500D01*
X154976243Y-52857246D01*
X155018523Y-52843507D01*
X155088362Y-52841511D01*
X155144522Y-52873757D01*
X155412981Y-53142216D01*
X155446466Y-53203539D01*
X155449300Y-53229897D01*
X155449300Y-60894306D01*
X155429615Y-60961345D01*
X155376811Y-61007100D01*
X155307653Y-61017044D01*
X155286982Y-61012237D01*
X155196240Y-60982753D01*
X155000966Y-60951825D01*
X154986287Y-60949500D01*
X154773713Y-60949500D01*
X154759034Y-60951825D01*
X154563760Y-60982753D01*
X154361585Y-61048444D01*
X154172179Y-61144951D01*
X154000213Y-61269890D01*
X153849890Y-61420213D01*
X153724949Y-61592182D01*
X153720484Y-61600946D01*
X153672509Y-61651742D01*
X153604688Y-61668536D01*
X153538553Y-61645998D01*
X153499516Y-61600946D01*
X153495050Y-61592182D01*
X153370109Y-61420213D01*
X153219786Y-61269890D01*
X153047820Y-61144951D01*
X152858414Y-61048444D01*
X152858413Y-61048443D01*
X152858412Y-61048443D01*
X152656243Y-60982754D01*
X152656241Y-60982753D01*
X152656240Y-60982753D01*
X152460966Y-60951825D01*
X152446287Y-60949500D01*
X152233713Y-60949500D01*
X152219034Y-60951825D01*
X152023760Y-60982753D01*
X151821585Y-61048444D01*
X151632179Y-61144951D01*
X151460213Y-61269890D01*
X151309890Y-61420213D01*
X151184949Y-61592182D01*
X151180202Y-61601499D01*
X151132227Y-61652293D01*
X151064405Y-61669087D01*
X150998271Y-61646548D01*
X150959234Y-61601495D01*
X150954626Y-61592452D01*
X150915270Y-61538282D01*
X150915269Y-61538282D01*
X150282962Y-62170590D01*
X150265925Y-62107007D01*
X150200099Y-61992993D01*
X150107007Y-61899901D01*
X149992993Y-61834075D01*
X149929409Y-61817037D01*
X150561716Y-61184728D01*
X150507550Y-61145375D01*
X150318217Y-61048904D01*
X150116129Y-60983242D01*
X149906246Y-60950000D01*
X149693754Y-60950000D01*
X149483872Y-60983242D01*
X149483869Y-60983242D01*
X149281782Y-61048904D01*
X149092439Y-61145380D01*
X149038282Y-61184727D01*
X149038282Y-61184728D01*
X149670591Y-61817037D01*
X149607007Y-61834075D01*
X149492993Y-61899901D01*
X149399901Y-61992993D01*
X149334075Y-62107007D01*
X149317037Y-62170591D01*
X148684728Y-61538282D01*
X148684727Y-61538282D01*
X148645380Y-61592439D01*
X148548904Y-61781782D01*
X148483242Y-61983869D01*
X148483242Y-61983872D01*
X148450000Y-62193753D01*
X148450000Y-62406246D01*
X148483242Y-62616127D01*
X148483242Y-62616130D01*
X148548904Y-62818217D01*
X148645376Y-63007553D01*
X148664565Y-63033964D01*
X148688044Y-63099771D01*
X148672218Y-63167825D01*
X148622112Y-63216519D01*
X148553634Y-63230394D01*
X148488525Y-63205044D01*
X148476565Y-63194530D01*
X145136819Y-59854784D01*
X145103334Y-59793461D01*
X145100500Y-59767103D01*
X145100500Y-52825718D01*
X145120185Y-52758679D01*
X145168207Y-52715233D01*
X145207815Y-52695052D01*
X145207815Y-52695051D01*
X145207816Y-52695051D01*
X145352193Y-52590156D01*
X145379786Y-52570109D01*
X145379788Y-52570106D01*
X145379792Y-52570104D01*
X145530104Y-52419792D01*
X145530106Y-52419788D01*
X145530109Y-52419786D01*
X145655048Y-52247820D01*
X145655047Y-52247820D01*
X145655051Y-52247816D01*
X145659514Y-52239054D01*
X145707488Y-52188259D01*
X145775308Y-52171463D01*
X145841444Y-52193999D01*
X145880486Y-52239056D01*
X145884951Y-52247820D01*
X146009890Y-52419786D01*
X146160213Y-52570109D01*
X146332179Y-52695048D01*
X146332181Y-52695049D01*
X146332184Y-52695051D01*
X146521588Y-52791557D01*
X146723757Y-52857246D01*
X146933713Y-52890500D01*
X146933714Y-52890500D01*
X147146286Y-52890500D01*
X147146287Y-52890500D01*
X147356243Y-52857246D01*
X147558412Y-52791557D01*
X147747816Y-52695051D01*
X147834138Y-52632335D01*
X147919786Y-52570109D01*
X147919788Y-52570106D01*
X147919792Y-52570104D01*
X148070104Y-52419792D01*
X148070106Y-52419788D01*
X148070109Y-52419786D01*
X148195048Y-52247820D01*
X148195047Y-52247820D01*
X148195051Y-52247816D01*
X148199514Y-52239054D01*
X148247488Y-52188259D01*
X148315308Y-52171463D01*
X148381444Y-52193999D01*
X148420486Y-52239056D01*
X148424951Y-52247820D01*
X148549890Y-52419786D01*
X148700213Y-52570109D01*
X148872179Y-52695048D01*
X148872181Y-52695049D01*
X148872184Y-52695051D01*
X149061588Y-52791557D01*
X149263757Y-52857246D01*
X149473713Y-52890500D01*
X149473714Y-52890500D01*
X149686286Y-52890500D01*
X149686287Y-52890500D01*
X149896243Y-52857246D01*
X150098412Y-52791557D01*
X150287816Y-52695051D01*
X150374138Y-52632335D01*
X150459786Y-52570109D01*
X150459788Y-52570106D01*
X150459792Y-52570104D01*
X150610104Y-52419792D01*
X150610106Y-52419788D01*
X150610109Y-52419786D01*
X150735048Y-52247820D01*
X150735047Y-52247820D01*
X150735051Y-52247816D01*
X150739514Y-52239054D01*
X150787488Y-52188259D01*
X150855308Y-52171463D01*
X150921444Y-52193999D01*
X150960486Y-52239056D01*
X150964951Y-52247820D01*
X151089890Y-52419786D01*
X151240213Y-52570109D01*
X151412179Y-52695048D01*
X151412181Y-52695049D01*
X151412184Y-52695051D01*
X151601588Y-52791557D01*
X151803757Y-52857246D01*
X152013713Y-52890500D01*
X152013714Y-52890500D01*
X152226286Y-52890500D01*
X152226287Y-52890500D01*
X152436243Y-52857246D01*
X152638412Y-52791557D01*
X152827816Y-52695051D01*
X152914138Y-52632335D01*
X152999786Y-52570109D01*
X152999788Y-52570106D01*
X152999792Y-52570104D01*
X153150104Y-52419792D01*
X153150106Y-52419788D01*
X153150109Y-52419786D01*
X153275048Y-52247820D01*
X153275047Y-52247820D01*
X153275051Y-52247816D01*
X153279514Y-52239054D01*
X153288160Y-52229900D01*
X153292897Y-52218232D01*
X153311696Y-52204979D01*
X153327488Y-52188259D01*
X153339710Y-52185231D01*
X153350004Y-52177976D01*
X153372985Y-52176991D01*
X153395308Y-52171463D01*
X153407226Y-52175524D01*
G37*
G04 #@! TD.AperFunction*
G04 #@! TA.AperFunction,Conductor*
G36*
X187214075Y-49192993D02*
G01*
X187279901Y-49307007D01*
X187372993Y-49400099D01*
X187487007Y-49465925D01*
X187550590Y-49482962D01*
X186918282Y-50115269D01*
X186918282Y-50115270D01*
X186972452Y-50154626D01*
X186972451Y-50154626D01*
X186981495Y-50159234D01*
X187032292Y-50207208D01*
X187049087Y-50275029D01*
X187026550Y-50341164D01*
X186981499Y-50380202D01*
X186972182Y-50384949D01*
X186800213Y-50509890D01*
X186649890Y-50660213D01*
X186524949Y-50832182D01*
X186520484Y-50840946D01*
X186472509Y-50891742D01*
X186404688Y-50908536D01*
X186338553Y-50885998D01*
X186299516Y-50840946D01*
X186295050Y-50832182D01*
X186170109Y-50660213D01*
X186019786Y-50509890D01*
X185847820Y-50384951D01*
X185847115Y-50384591D01*
X185839054Y-50380485D01*
X185788259Y-50332512D01*
X185771463Y-50264692D01*
X185793999Y-50198556D01*
X185839054Y-50159515D01*
X185847816Y-50155051D01*
X185937554Y-50089853D01*
X186019786Y-50030109D01*
X186019788Y-50030106D01*
X186019792Y-50030104D01*
X186170104Y-49879792D01*
X186170106Y-49879788D01*
X186170109Y-49879786D01*
X186243842Y-49778299D01*
X186295051Y-49707816D01*
X186299793Y-49698508D01*
X186347763Y-49647711D01*
X186415583Y-49630911D01*
X186481719Y-49653445D01*
X186520763Y-49698500D01*
X186525373Y-49707547D01*
X186564728Y-49761716D01*
X187197037Y-49129408D01*
X187214075Y-49192993D01*
G37*
G04 #@! TD.AperFunction*
G04 #@! TA.AperFunction,Conductor*
G36*
X189754075Y-49192993D02*
G01*
X189819901Y-49307007D01*
X189912993Y-49400099D01*
X190027007Y-49465925D01*
X190090590Y-49482962D01*
X189458282Y-50115269D01*
X189458282Y-50115270D01*
X189512452Y-50154626D01*
X189512451Y-50154626D01*
X189521495Y-50159234D01*
X189572292Y-50207208D01*
X189589087Y-50275029D01*
X189566550Y-50341164D01*
X189521499Y-50380202D01*
X189512182Y-50384949D01*
X189340213Y-50509890D01*
X189189890Y-50660213D01*
X189064949Y-50832182D01*
X189060484Y-50840946D01*
X189012509Y-50891742D01*
X188944688Y-50908536D01*
X188878553Y-50885998D01*
X188839516Y-50840946D01*
X188835050Y-50832182D01*
X188710109Y-50660213D01*
X188559786Y-50509890D01*
X188387817Y-50384949D01*
X188378504Y-50380204D01*
X188327707Y-50332230D01*
X188310912Y-50264409D01*
X188333449Y-50198274D01*
X188378507Y-50159232D01*
X188387555Y-50154622D01*
X188441716Y-50115270D01*
X188441717Y-50115270D01*
X187809408Y-49482962D01*
X187872993Y-49465925D01*
X187987007Y-49400099D01*
X188080099Y-49307007D01*
X188145925Y-49192993D01*
X188162962Y-49129408D01*
X188795270Y-49761717D01*
X188795270Y-49761716D01*
X188834622Y-49707554D01*
X188839514Y-49697954D01*
X188887488Y-49647157D01*
X188955308Y-49630361D01*
X189021444Y-49652897D01*
X189060486Y-49697954D01*
X189065375Y-49707550D01*
X189104728Y-49761716D01*
X189737037Y-49129408D01*
X189754075Y-49192993D01*
G37*
G04 #@! TD.AperFunction*
G04 #@! TA.AperFunction,Conductor*
G36*
X209442539Y-40520185D02*
G01*
X209488294Y-40572989D01*
X209499500Y-40624500D01*
X209499500Y-114375500D01*
X209479815Y-114442539D01*
X209427011Y-114488294D01*
X209375500Y-114499500D01*
X110624500Y-114499500D01*
X110557461Y-114479815D01*
X110511706Y-114427011D01*
X110500500Y-114375500D01*
X110500500Y-110378711D01*
X113649500Y-110378711D01*
X113649500Y-110621288D01*
X113681161Y-110861785D01*
X113743947Y-111096104D01*
X113836773Y-111320205D01*
X113836776Y-111320212D01*
X113958064Y-111530289D01*
X113958066Y-111530292D01*
X113958067Y-111530293D01*
X114105733Y-111722736D01*
X114105739Y-111722743D01*
X114277256Y-111894260D01*
X114277262Y-111894265D01*
X114469711Y-112041936D01*
X114679788Y-112163224D01*
X114903900Y-112256054D01*
X115138211Y-112318838D01*
X115318586Y-112342584D01*
X115378711Y-112350500D01*
X115378712Y-112350500D01*
X115621289Y-112350500D01*
X115669388Y-112344167D01*
X115861789Y-112318838D01*
X116096100Y-112256054D01*
X116320212Y-112163224D01*
X116530289Y-112041936D01*
X116722738Y-111894265D01*
X116894265Y-111722738D01*
X117041936Y-111530289D01*
X117163224Y-111320212D01*
X117256054Y-111096100D01*
X117318838Y-110861789D01*
X117350500Y-110621288D01*
X117350500Y-110378712D01*
X117350500Y-110378711D01*
X202649500Y-110378711D01*
X202649500Y-110621288D01*
X202681161Y-110861785D01*
X202743947Y-111096104D01*
X202836773Y-111320205D01*
X202836776Y-111320212D01*
X202958064Y-111530289D01*
X202958066Y-111530292D01*
X202958067Y-111530293D01*
X203105733Y-111722736D01*
X203105739Y-111722743D01*
X203277256Y-111894260D01*
X203277262Y-111894265D01*
X203469711Y-112041936D01*
X203679788Y-112163224D01*
X203903900Y-112256054D01*
X204138211Y-112318838D01*
X204318586Y-112342584D01*
X204378711Y-112350500D01*
X204378712Y-112350500D01*
X204621289Y-112350500D01*
X204669388Y-112344167D01*
X204861789Y-112318838D01*
X205096100Y-112256054D01*
X205320212Y-112163224D01*
X205530289Y-112041936D01*
X205722738Y-111894265D01*
X205894265Y-111722738D01*
X206041936Y-111530289D01*
X206163224Y-111320212D01*
X206256054Y-111096100D01*
X206318838Y-110861789D01*
X206350500Y-110621288D01*
X206350500Y-110378712D01*
X206318838Y-110138211D01*
X206256054Y-109903900D01*
X206163224Y-109679788D01*
X206041936Y-109469711D01*
X205894265Y-109277262D01*
X205894260Y-109277256D01*
X205722743Y-109105739D01*
X205722736Y-109105733D01*
X205530293Y-108958067D01*
X205530292Y-108958066D01*
X205530289Y-108958064D01*
X205320212Y-108836776D01*
X205320205Y-108836773D01*
X205096104Y-108743947D01*
X204861785Y-108681161D01*
X204621289Y-108649500D01*
X204621288Y-108649500D01*
X204378712Y-108649500D01*
X204378711Y-108649500D01*
X204138214Y-108681161D01*
X203903895Y-108743947D01*
X203679794Y-108836773D01*
X203679785Y-108836777D01*
X203469706Y-108958067D01*
X203277263Y-109105733D01*
X203277256Y-109105739D01*
X203105739Y-109277256D01*
X203105733Y-109277263D01*
X202958067Y-109469706D01*
X202836777Y-109679785D01*
X202836773Y-109679794D01*
X202743947Y-109903895D01*
X202681161Y-110138214D01*
X202649500Y-110378711D01*
X117350500Y-110378711D01*
X117318838Y-110138211D01*
X117256054Y-109903900D01*
X117163224Y-109679788D01*
X117041936Y-109469711D01*
X116894265Y-109277262D01*
X116894260Y-109277256D01*
X116722743Y-109105739D01*
X116722736Y-109105733D01*
X116530293Y-108958067D01*
X116530292Y-108958066D01*
X116530289Y-108958064D01*
X116320212Y-108836776D01*
X116320205Y-108836773D01*
X116096104Y-108743947D01*
X115861785Y-108681161D01*
X115621289Y-108649500D01*
X115621288Y-108649500D01*
X115378712Y-108649500D01*
X115378711Y-108649500D01*
X115138214Y-108681161D01*
X114903895Y-108743947D01*
X114679794Y-108836773D01*
X114679785Y-108836777D01*
X114469706Y-108958067D01*
X114277263Y-109105733D01*
X114277256Y-109105739D01*
X114105739Y-109277256D01*
X114105733Y-109277263D01*
X113958067Y-109469706D01*
X113836777Y-109679785D01*
X113836773Y-109679794D01*
X113743947Y-109903895D01*
X113681161Y-110138214D01*
X113649500Y-110378711D01*
X110500500Y-110378711D01*
X110500500Y-58497648D01*
X116679500Y-58497648D01*
X116679500Y-58702352D01*
X116682237Y-58719635D01*
X116711522Y-58904534D01*
X116774781Y-59099223D01*
X116867715Y-59281613D01*
X116988028Y-59447213D01*
X117132786Y-59591971D01*
X117242372Y-59671588D01*
X117298390Y-59712287D01*
X117387212Y-59757544D01*
X117480776Y-59805218D01*
X117480778Y-59805218D01*
X117480781Y-59805220D01*
X117585137Y-59839127D01*
X117675465Y-59868477D01*
X117776557Y-59884488D01*
X117877648Y-59900500D01*
X117877649Y-59900500D01*
X118082351Y-59900500D01*
X118082352Y-59900500D01*
X118284534Y-59868477D01*
X118479219Y-59805220D01*
X118661610Y-59712287D01*
X118794874Y-59615466D01*
X118827213Y-59591971D01*
X118827215Y-59591968D01*
X118827219Y-59591966D01*
X118971966Y-59447219D01*
X118971968Y-59447215D01*
X118971971Y-59447213D01*
X119092284Y-59281614D01*
X119092285Y-59281613D01*
X119092287Y-59281610D01*
X119139516Y-59188917D01*
X119187489Y-59138123D01*
X119255310Y-59121328D01*
X119321445Y-59143865D01*
X119360483Y-59188917D01*
X119404348Y-59275006D01*
X119407715Y-59281614D01*
X119528028Y-59447213D01*
X119672786Y-59591971D01*
X119782372Y-59671588D01*
X119838390Y-59712287D01*
X119927212Y-59757544D01*
X120020776Y-59805218D01*
X120020778Y-59805218D01*
X120020781Y-59805220D01*
X120125137Y-59839127D01*
X120215465Y-59868477D01*
X120316557Y-59884488D01*
X120417648Y-59900500D01*
X120417649Y-59900500D01*
X120622351Y-59900500D01*
X120622352Y-59900500D01*
X120824534Y-59868477D01*
X121019219Y-59805220D01*
X121201610Y-59712287D01*
X121334874Y-59615466D01*
X121367213Y-59591971D01*
X121367215Y-59591968D01*
X121367219Y-59591966D01*
X121511966Y-59447219D01*
X121511968Y-59447215D01*
X121511971Y-59447213D01*
X121632284Y-59281614D01*
X121632285Y-59281613D01*
X121632287Y-59281610D01*
X121679516Y-59188917D01*
X121727489Y-59138123D01*
X121795310Y-59121328D01*
X121861445Y-59143865D01*
X121900483Y-59188917D01*
X121944348Y-59275006D01*
X121947715Y-59281614D01*
X122068028Y-59447213D01*
X122212786Y-59591971D01*
X122322372Y-59671588D01*
X122378390Y-59712287D01*
X122467212Y-59757544D01*
X122560776Y-59805218D01*
X122560778Y-59805218D01*
X122560781Y-59805220D01*
X122665137Y-59839127D01*
X122755465Y-59868477D01*
X122856557Y-59884488D01*
X122957648Y-59900500D01*
X122957649Y-59900500D01*
X123162351Y-59900500D01*
X123162352Y-59900500D01*
X123364534Y-59868477D01*
X123559219Y-59805220D01*
X123741610Y-59712287D01*
X123874874Y-59615466D01*
X123907213Y-59591971D01*
X123907215Y-59591968D01*
X123907219Y-59591966D01*
X124051966Y-59447219D01*
X124051968Y-59447215D01*
X124051971Y-59447213D01*
X124172284Y-59281614D01*
X124172285Y-59281613D01*
X124172287Y-59281610D01*
X124219516Y-59188917D01*
X124267489Y-59138123D01*
X124335310Y-59121328D01*
X124401445Y-59143865D01*
X124440483Y-59188917D01*
X124484348Y-59275006D01*
X124487715Y-59281614D01*
X124608028Y-59447213D01*
X124752786Y-59591971D01*
X124862372Y-59671588D01*
X124918390Y-59712287D01*
X125007212Y-59757544D01*
X125100776Y-59805218D01*
X125100778Y-59805218D01*
X125100781Y-59805220D01*
X125295466Y-59868477D01*
X125378978Y-59881704D01*
X125442112Y-59911633D01*
X125447261Y-59916496D01*
X126168584Y-60637819D01*
X126202069Y-60699142D01*
X126197085Y-60768834D01*
X126155213Y-60824767D01*
X126089749Y-60849184D01*
X126080903Y-60849500D01*
X125933713Y-60849500D01*
X125885042Y-60857208D01*
X125723760Y-60882753D01*
X125521585Y-60948444D01*
X125332179Y-61044951D01*
X125160213Y-61169890D01*
X125009890Y-61320213D01*
X124884949Y-61492182D01*
X124880484Y-61500946D01*
X124832509Y-61551742D01*
X124764688Y-61568536D01*
X124698553Y-61545998D01*
X124659516Y-61500946D01*
X124655050Y-61492182D01*
X124530109Y-61320213D01*
X124379786Y-61169890D01*
X124207820Y-61044951D01*
X124018414Y-60948444D01*
X124018413Y-60948443D01*
X124018412Y-60948443D01*
X123816243Y-60882754D01*
X123816241Y-60882753D01*
X123816240Y-60882753D01*
X123654957Y-60857208D01*
X123606287Y-60849500D01*
X123393713Y-60849500D01*
X123345042Y-60857208D01*
X123183760Y-60882753D01*
X122981585Y-60948444D01*
X122792179Y-61044951D01*
X122620213Y-61169890D01*
X122469890Y-61320213D01*
X122344951Y-61492179D01*
X122248444Y-61681585D01*
X122182753Y-61883760D01*
X122164832Y-61996910D01*
X122149500Y-62093713D01*
X122149500Y-62306287D01*
X122155904Y-62346720D01*
X122180685Y-62503184D01*
X122182754Y-62516243D01*
X122217673Y-62623713D01*
X122248444Y-62718414D01*
X122344951Y-62907820D01*
X122469890Y-63079786D01*
X122620213Y-63230109D01*
X122792179Y-63355048D01*
X122792181Y-63355049D01*
X122792184Y-63355051D01*
X122981588Y-63451557D01*
X123183757Y-63517246D01*
X123393713Y-63550500D01*
X123393714Y-63550500D01*
X123606286Y-63550500D01*
X123606287Y-63550500D01*
X123816243Y-63517246D01*
X124018412Y-63451557D01*
X124207816Y-63355051D01*
X124294478Y-63292088D01*
X124379786Y-63230109D01*
X124379788Y-63230106D01*
X124379792Y-63230104D01*
X124530104Y-63079792D01*
X124530106Y-63079788D01*
X124530109Y-63079786D01*
X124655048Y-62907820D01*
X124655047Y-62907820D01*
X124655051Y-62907816D01*
X124659514Y-62899054D01*
X124707488Y-62848259D01*
X124775308Y-62831463D01*
X124841444Y-62853999D01*
X124880486Y-62899056D01*
X124884951Y-62907820D01*
X125009890Y-63079786D01*
X125160213Y-63230109D01*
X125332179Y-63355048D01*
X125332181Y-63355049D01*
X125332184Y-63355051D01*
X125521588Y-63451557D01*
X125723757Y-63517246D01*
X125933713Y-63550500D01*
X125933714Y-63550500D01*
X126146286Y-63550500D01*
X126146287Y-63550500D01*
X126356243Y-63517246D01*
X126558412Y-63451557D01*
X126747816Y-63355051D01*
X126834478Y-63292088D01*
X126919786Y-63230109D01*
X126919788Y-63230106D01*
X126919792Y-63230104D01*
X127070104Y-63079792D01*
X127070106Y-63079788D01*
X127070109Y-63079786D01*
X127195048Y-62907820D01*
X127195047Y-62907820D01*
X127195051Y-62907816D01*
X127199514Y-62899054D01*
X127247488Y-62848259D01*
X127315308Y-62831463D01*
X127381444Y-62853999D01*
X127420486Y-62899056D01*
X127424951Y-62907820D01*
X127549890Y-63079786D01*
X127700213Y-63230109D01*
X127872179Y-63355048D01*
X127872181Y-63355049D01*
X127872184Y-63355051D01*
X128061588Y-63451557D01*
X128263757Y-63517246D01*
X128473713Y-63550500D01*
X128473714Y-63550500D01*
X128686286Y-63550500D01*
X128686287Y-63550500D01*
X128896243Y-63517246D01*
X129098412Y-63451557D01*
X129287816Y-63355051D01*
X129374478Y-63292088D01*
X129459786Y-63230109D01*
X129459788Y-63230106D01*
X129459792Y-63230104D01*
X129610104Y-63079792D01*
X129610106Y-63079788D01*
X129610109Y-63079786D01*
X129735048Y-62907820D01*
X129735047Y-62907820D01*
X129735051Y-62907816D01*
X129739514Y-62899054D01*
X129787488Y-62848259D01*
X129855308Y-62831463D01*
X129921444Y-62853999D01*
X129960486Y-62899056D01*
X129964951Y-62907820D01*
X130089890Y-63079786D01*
X130240213Y-63230109D01*
X130412179Y-63355048D01*
X130412181Y-63355049D01*
X130412184Y-63355051D01*
X130601588Y-63451557D01*
X130803757Y-63517246D01*
X131013713Y-63550500D01*
X131013714Y-63550500D01*
X131226286Y-63550500D01*
X131226287Y-63550500D01*
X131436243Y-63517246D01*
X131638412Y-63451557D01*
X131827816Y-63355051D01*
X131914478Y-63292088D01*
X131999786Y-63230109D01*
X131999788Y-63230106D01*
X131999792Y-63230104D01*
X132150104Y-63079792D01*
X132150106Y-63079788D01*
X132150109Y-63079786D01*
X132275048Y-62907820D01*
X132275047Y-62907820D01*
X132275051Y-62907816D01*
X132279514Y-62899054D01*
X132327488Y-62848259D01*
X132395308Y-62831463D01*
X132461444Y-62853999D01*
X132500486Y-62899056D01*
X132504951Y-62907820D01*
X132629890Y-63079786D01*
X132780213Y-63230109D01*
X132952179Y-63355048D01*
X132952181Y-63355049D01*
X132952184Y-63355051D01*
X133141588Y-63451557D01*
X133343757Y-63517246D01*
X133553713Y-63550500D01*
X133553714Y-63550500D01*
X133766286Y-63550500D01*
X133766287Y-63550500D01*
X133976243Y-63517246D01*
X134178412Y-63451557D01*
X134367816Y-63355051D01*
X134454478Y-63292088D01*
X134539784Y-63230110D01*
X134539784Y-63230109D01*
X134539792Y-63230104D01*
X134653717Y-63116178D01*
X134715036Y-63082696D01*
X134784728Y-63087680D01*
X134840662Y-63129551D01*
X134857577Y-63160528D01*
X134906646Y-63292088D01*
X134906649Y-63292093D01*
X134992809Y-63407187D01*
X134992812Y-63407190D01*
X135107906Y-63493350D01*
X135107913Y-63493354D01*
X135242620Y-63543596D01*
X135242627Y-63543598D01*
X135302155Y-63549999D01*
X135302172Y-63550000D01*
X135950000Y-63550000D01*
X135950000Y-62633012D01*
X136007007Y-62665925D01*
X136134174Y-62700000D01*
X136265826Y-62700000D01*
X136392993Y-62665925D01*
X136450000Y-62633012D01*
X136450000Y-63550000D01*
X137097828Y-63550000D01*
X137097844Y-63549999D01*
X137157372Y-63543598D01*
X137157379Y-63543596D01*
X137292086Y-63493354D01*
X137292093Y-63493350D01*
X137407187Y-63407190D01*
X137407190Y-63407187D01*
X137493350Y-63292093D01*
X137493354Y-63292086D01*
X137543596Y-63157379D01*
X137543598Y-63157372D01*
X137549999Y-63097844D01*
X137550000Y-63097827D01*
X137550000Y-62450000D01*
X136633012Y-62450000D01*
X136665925Y-62392993D01*
X136700000Y-62265826D01*
X136700000Y-62134174D01*
X136665925Y-62007007D01*
X136633012Y-61950000D01*
X137550000Y-61950000D01*
X137550000Y-61302172D01*
X137549999Y-61302155D01*
X137543598Y-61242627D01*
X137543596Y-61242620D01*
X137493354Y-61107913D01*
X137493350Y-61107906D01*
X137407190Y-60992812D01*
X137407187Y-60992809D01*
X137292093Y-60906649D01*
X137292086Y-60906645D01*
X137157379Y-60856403D01*
X137157372Y-60856401D01*
X137097844Y-60850000D01*
X136829340Y-60850000D01*
X136762301Y-60830315D01*
X136716546Y-60777511D01*
X136706602Y-60708353D01*
X136735627Y-60644797D01*
X136741659Y-60638319D01*
X137443159Y-59936818D01*
X137504482Y-59903333D01*
X137530840Y-59900499D01*
X139147871Y-59900499D01*
X139147872Y-59900499D01*
X139207483Y-59894091D01*
X139342331Y-59843796D01*
X139457546Y-59757546D01*
X139543796Y-59642331D01*
X139594091Y-59507483D01*
X139600500Y-59447873D01*
X139600499Y-58996294D01*
X139620183Y-58929257D01*
X139672987Y-58883502D01*
X139742146Y-58873558D01*
X139805702Y-58902583D01*
X139812180Y-58908615D01*
X140216281Y-59312716D01*
X140249766Y-59374039D01*
X140252600Y-59400397D01*
X140252600Y-76737630D01*
X140252599Y-76737648D01*
X140252599Y-76903354D01*
X140252598Y-76903354D01*
X140293523Y-77056087D01*
X140303550Y-77073452D01*
X140303551Y-77073453D01*
X140372579Y-77193014D01*
X140372581Y-77193017D01*
X140491449Y-77311885D01*
X140491455Y-77311890D01*
X171767439Y-108587874D01*
X171767449Y-108587885D01*
X171771779Y-108592215D01*
X171771780Y-108592216D01*
X171883584Y-108704020D01*
X171883586Y-108704021D01*
X171883590Y-108704024D01*
X172020509Y-108783073D01*
X172020516Y-108783077D01*
X172132319Y-108813034D01*
X172173242Y-108824000D01*
X172173243Y-108824000D01*
X182089831Y-108824000D01*
X182089847Y-108824001D01*
X182097443Y-108824001D01*
X182255554Y-108824001D01*
X182255557Y-108824001D01*
X182408285Y-108783077D01*
X182458404Y-108754139D01*
X182545216Y-108704020D01*
X182657020Y-108592216D01*
X182657020Y-108592214D01*
X182667228Y-108582007D01*
X182667229Y-108582004D01*
X184315159Y-106934075D01*
X184376480Y-106900592D01*
X184441154Y-106903826D01*
X184455466Y-106908477D01*
X184657648Y-106940500D01*
X184657649Y-106940500D01*
X184862351Y-106940500D01*
X184862352Y-106940500D01*
X185064534Y-106908477D01*
X185259219Y-106845220D01*
X185441610Y-106752287D01*
X185534590Y-106684732D01*
X185607213Y-106631971D01*
X185607215Y-106631968D01*
X185607219Y-106631966D01*
X185751966Y-106487219D01*
X185751968Y-106487215D01*
X185751971Y-106487213D01*
X185844307Y-106360121D01*
X185872287Y-106321610D01*
X185965220Y-106139219D01*
X186028477Y-105944534D01*
X186060500Y-105742352D01*
X186060500Y-105537648D01*
X186028477Y-105335466D01*
X185965220Y-105140781D01*
X185965218Y-105140778D01*
X185965218Y-105140776D01*
X185925756Y-105063329D01*
X185872287Y-104958390D01*
X185830783Y-104901264D01*
X185751971Y-104792786D01*
X185607213Y-104648028D01*
X185441614Y-104527715D01*
X185435006Y-104524348D01*
X185348917Y-104480483D01*
X185298123Y-104432511D01*
X185281328Y-104364690D01*
X185303865Y-104298555D01*
X185348917Y-104259516D01*
X185441610Y-104212287D01*
X185462770Y-104196913D01*
X185607213Y-104091971D01*
X185607215Y-104091968D01*
X185607219Y-104091966D01*
X185751966Y-103947219D01*
X185751968Y-103947215D01*
X185751971Y-103947213D01*
X185866117Y-103790102D01*
X185872287Y-103781610D01*
X185965220Y-103599219D01*
X186028477Y-103404534D01*
X186060500Y-103202352D01*
X186060500Y-102997648D01*
X186028477Y-102795466D01*
X186014109Y-102751247D01*
X185999127Y-102705137D01*
X185965220Y-102600781D01*
X185965218Y-102600778D01*
X185965218Y-102600776D01*
X185925375Y-102522581D01*
X185872287Y-102418390D01*
X185858925Y-102399999D01*
X185751971Y-102252786D01*
X185607213Y-102108028D01*
X185441614Y-101987715D01*
X185387004Y-101959890D01*
X185348917Y-101940483D01*
X185298123Y-101892511D01*
X185281328Y-101824690D01*
X185303865Y-101758555D01*
X185348917Y-101719516D01*
X185441610Y-101672287D01*
X185522073Y-101613828D01*
X185607213Y-101551971D01*
X185607215Y-101551968D01*
X185607219Y-101551966D01*
X185751966Y-101407219D01*
X185751968Y-101407215D01*
X185751971Y-101407213D01*
X185804732Y-101334590D01*
X185872287Y-101241610D01*
X185965220Y-101059219D01*
X186028477Y-100864534D01*
X186060500Y-100662352D01*
X186060500Y-100457648D01*
X186028477Y-100255466D01*
X186023825Y-100241151D01*
X186021832Y-100171312D01*
X186054075Y-100115158D01*
X186281913Y-99887321D01*
X186281916Y-99887320D01*
X186393720Y-99775516D01*
X186443839Y-99688704D01*
X186472777Y-99638585D01*
X186513700Y-99485857D01*
X186513700Y-99327743D01*
X186513700Y-94990643D01*
X186513700Y-94990641D01*
X186511058Y-94980785D01*
X186511055Y-94980774D01*
X186502734Y-94949719D01*
X186472777Y-94837916D01*
X186397014Y-94706689D01*
X186393724Y-94700990D01*
X186393721Y-94700986D01*
X186393720Y-94700984D01*
X186281916Y-94589180D01*
X186281915Y-94589179D01*
X186277585Y-94584849D01*
X186277574Y-94584839D01*
X185703641Y-94010906D01*
X185670156Y-93949583D01*
X185675140Y-93879891D01*
X185703641Y-93835544D01*
X185751966Y-93787219D01*
X185751968Y-93787215D01*
X185751971Y-93787213D01*
X185811182Y-93705714D01*
X185872287Y-93621610D01*
X185965220Y-93439219D01*
X186028477Y-93244534D01*
X186060500Y-93042352D01*
X186060500Y-92837648D01*
X186040447Y-92711039D01*
X186028477Y-92635465D01*
X185986512Y-92506311D01*
X185965220Y-92440781D01*
X185965218Y-92440778D01*
X185965218Y-92440776D01*
X185921708Y-92355385D01*
X185872287Y-92258390D01*
X185843608Y-92218916D01*
X185751971Y-92092786D01*
X185607213Y-91948028D01*
X185441614Y-91827715D01*
X185367955Y-91790184D01*
X185348917Y-91780483D01*
X185298123Y-91732511D01*
X185281328Y-91664690D01*
X185303865Y-91598555D01*
X185348917Y-91559516D01*
X185441610Y-91512287D01*
X185550022Y-91433522D01*
X185607213Y-91391971D01*
X185607215Y-91391968D01*
X185607219Y-91391966D01*
X185751966Y-91247219D01*
X185751968Y-91247215D01*
X185751971Y-91247213D01*
X185837217Y-91129880D01*
X185872287Y-91081610D01*
X185965220Y-90899219D01*
X186028477Y-90704534D01*
X186060500Y-90502352D01*
X186060500Y-90297648D01*
X186028477Y-90095465D01*
X185965218Y-89900776D01*
X185931503Y-89834607D01*
X185872287Y-89718390D01*
X185864556Y-89707749D01*
X185751971Y-89552786D01*
X185607213Y-89408028D01*
X185441614Y-89287715D01*
X185435006Y-89284348D01*
X185348917Y-89240483D01*
X185298123Y-89192511D01*
X185281328Y-89124690D01*
X185303865Y-89058555D01*
X185348917Y-89019516D01*
X185441610Y-88972287D01*
X185462770Y-88956913D01*
X185607213Y-88851971D01*
X185607215Y-88851968D01*
X185607219Y-88851966D01*
X185751966Y-88707219D01*
X185751968Y-88707215D01*
X185751971Y-88707213D01*
X185804732Y-88634590D01*
X185872287Y-88541610D01*
X185965220Y-88359219D01*
X186028477Y-88164534D01*
X186060500Y-87962352D01*
X186060500Y-87757648D01*
X186028477Y-87555466D01*
X185965220Y-87360781D01*
X185965218Y-87360778D01*
X185965218Y-87360776D01*
X185931503Y-87294607D01*
X185872287Y-87178390D01*
X185864556Y-87167749D01*
X185751971Y-87012786D01*
X185607213Y-86868028D01*
X185441611Y-86747713D01*
X185348369Y-86700203D01*
X185297574Y-86652229D01*
X185280779Y-86584407D01*
X185303317Y-86518273D01*
X185348371Y-86479234D01*
X185441346Y-86431861D01*
X185441347Y-86431861D01*
X185485921Y-86399474D01*
X184806447Y-85720000D01*
X184812661Y-85720000D01*
X184914394Y-85692741D01*
X185005606Y-85640080D01*
X185080080Y-85565606D01*
X185132741Y-85474394D01*
X185160000Y-85372661D01*
X185160000Y-85366447D01*
X185839474Y-86045921D01*
X185871861Y-86001347D01*
X185871861Y-86001346D01*
X185903454Y-85939342D01*
X185951428Y-85888546D01*
X186019249Y-85871750D01*
X186085384Y-85894287D01*
X186101620Y-85907955D01*
X197923381Y-97729716D01*
X197956866Y-97791039D01*
X197959700Y-97817397D01*
X197959700Y-99033530D01*
X197959699Y-99033548D01*
X197959699Y-99199254D01*
X197959698Y-99199254D01*
X198000624Y-99351988D01*
X198002234Y-99354775D01*
X198002242Y-99354789D01*
X198079677Y-99488912D01*
X198079681Y-99488917D01*
X198198549Y-99607785D01*
X198198554Y-99607789D01*
X198705923Y-100115158D01*
X198739407Y-100176480D01*
X198736173Y-100241155D01*
X198731522Y-100255468D01*
X198699500Y-100457648D01*
X198699500Y-100662351D01*
X198731522Y-100864534D01*
X198794781Y-101059223D01*
X198852988Y-101173459D01*
X198885880Y-101238013D01*
X198887715Y-101241613D01*
X199008028Y-101407213D01*
X199152786Y-101551971D01*
X199307749Y-101664556D01*
X199318390Y-101672287D01*
X199409840Y-101718883D01*
X199411080Y-101719515D01*
X199461876Y-101767490D01*
X199478671Y-101835311D01*
X199456134Y-101901446D01*
X199411080Y-101940485D01*
X199318386Y-101987715D01*
X199152786Y-102108028D01*
X199008028Y-102252786D01*
X198887715Y-102418386D01*
X198794781Y-102600776D01*
X198731522Y-102795465D01*
X198699500Y-102997648D01*
X198699500Y-103202351D01*
X198731522Y-103404534D01*
X198794781Y-103599223D01*
X198887715Y-103781613D01*
X199008028Y-103947213D01*
X199152786Y-104091971D01*
X199307749Y-104204556D01*
X199318390Y-104212287D01*
X199409840Y-104258883D01*
X199411080Y-104259515D01*
X199461876Y-104307490D01*
X199478671Y-104375311D01*
X199456134Y-104441446D01*
X199411080Y-104480485D01*
X199318386Y-104527715D01*
X199152786Y-104648028D01*
X199008028Y-104792786D01*
X198887715Y-104958386D01*
X198794781Y-105140776D01*
X198731522Y-105335465D01*
X198699500Y-105537648D01*
X198699500Y-105742351D01*
X198731522Y-105944534D01*
X198794781Y-106139223D01*
X198858691Y-106264653D01*
X198881453Y-106309325D01*
X198887715Y-106321613D01*
X199008028Y-106487213D01*
X199152786Y-106631971D01*
X199307749Y-106744556D01*
X199318390Y-106752287D01*
X199434607Y-106811503D01*
X199500776Y-106845218D01*
X199500778Y-106845218D01*
X199500781Y-106845220D01*
X199605137Y-106879127D01*
X199695465Y-106908477D01*
X199796557Y-106924488D01*
X199897648Y-106940500D01*
X199897649Y-106940500D01*
X200102351Y-106940500D01*
X200102352Y-106940500D01*
X200304534Y-106908477D01*
X200499219Y-106845220D01*
X200681610Y-106752287D01*
X200774590Y-106684732D01*
X200847213Y-106631971D01*
X200847215Y-106631968D01*
X200847219Y-106631966D01*
X200991966Y-106487219D01*
X200991968Y-106487215D01*
X200991971Y-106487213D01*
X201084307Y-106360121D01*
X201112287Y-106321610D01*
X201205220Y-106139219D01*
X201268477Y-105944534D01*
X201300500Y-105742352D01*
X201300500Y-105537648D01*
X201268477Y-105335466D01*
X201205220Y-105140781D01*
X201205218Y-105140778D01*
X201205218Y-105140776D01*
X201165756Y-105063329D01*
X201112287Y-104958390D01*
X201070783Y-104901264D01*
X200991971Y-104792786D01*
X200847213Y-104648028D01*
X200681614Y-104527715D01*
X200675006Y-104524348D01*
X200588917Y-104480483D01*
X200538123Y-104432511D01*
X200521328Y-104364690D01*
X200543865Y-104298555D01*
X200588917Y-104259516D01*
X200681610Y-104212287D01*
X200702770Y-104196913D01*
X200847213Y-104091971D01*
X200847215Y-104091968D01*
X200847219Y-104091966D01*
X200991966Y-103947219D01*
X200991968Y-103947215D01*
X200991971Y-103947213D01*
X201106117Y-103790102D01*
X201112287Y-103781610D01*
X201205220Y-103599219D01*
X201268477Y-103404534D01*
X201300500Y-103202352D01*
X201300500Y-102997648D01*
X201268477Y-102795466D01*
X201254109Y-102751247D01*
X201239127Y-102705137D01*
X201205220Y-102600781D01*
X201205218Y-102600778D01*
X201205218Y-102600776D01*
X201165375Y-102522581D01*
X201112287Y-102418390D01*
X201098925Y-102399999D01*
X200991971Y-102252786D01*
X200847213Y-102108028D01*
X200681614Y-101987715D01*
X200627004Y-101959890D01*
X200588917Y-101940483D01*
X200538123Y-101892511D01*
X200521328Y-101824690D01*
X200543865Y-101758555D01*
X200588917Y-101719516D01*
X200681610Y-101672287D01*
X200762073Y-101613828D01*
X200847213Y-101551971D01*
X200847215Y-101551968D01*
X200847219Y-101551966D01*
X200991966Y-101407219D01*
X200991968Y-101407215D01*
X200991971Y-101407213D01*
X201044732Y-101334590D01*
X201112287Y-101241610D01*
X201205220Y-101059219D01*
X201268477Y-100864534D01*
X201300500Y-100662352D01*
X201300500Y-100457648D01*
X201268477Y-100255466D01*
X201205220Y-100060781D01*
X201205218Y-100060778D01*
X201205218Y-100060776D01*
X201122040Y-99897532D01*
X201112287Y-99878390D01*
X201104556Y-99867749D01*
X200991971Y-99712786D01*
X200847213Y-99568028D01*
X200681614Y-99447715D01*
X200675006Y-99444348D01*
X200588917Y-99400483D01*
X200538123Y-99352511D01*
X200521328Y-99284690D01*
X200543865Y-99218555D01*
X200588917Y-99179516D01*
X200681610Y-99132287D01*
X200702770Y-99116913D01*
X200847213Y-99011971D01*
X200847215Y-99011968D01*
X200847219Y-99011966D01*
X200991966Y-98867219D01*
X200991968Y-98867215D01*
X200991971Y-98867213D01*
X201044732Y-98794590D01*
X201112287Y-98701610D01*
X201205220Y-98519219D01*
X201268477Y-98324534D01*
X201300500Y-98122352D01*
X201300500Y-97917648D01*
X201280447Y-97791039D01*
X201268477Y-97715465D01*
X201205218Y-97520776D01*
X201139585Y-97391966D01*
X201112287Y-97338390D01*
X201104556Y-97327749D01*
X200991971Y-97172786D01*
X200847213Y-97028028D01*
X200681614Y-96907715D01*
X200664947Y-96899223D01*
X200588917Y-96860483D01*
X200538123Y-96812511D01*
X200521328Y-96744690D01*
X200543865Y-96678555D01*
X200588917Y-96639516D01*
X200681610Y-96592287D01*
X200733766Y-96554394D01*
X200847213Y-96471971D01*
X200847215Y-96471968D01*
X200847219Y-96471966D01*
X200991966Y-96327219D01*
X200991968Y-96327215D01*
X200991971Y-96327213D01*
X201051261Y-96245606D01*
X201112287Y-96161610D01*
X201205220Y-95979219D01*
X201268477Y-95784534D01*
X201300500Y-95582352D01*
X201300500Y-95377648D01*
X201276589Y-95226684D01*
X201268477Y-95175465D01*
X201240346Y-95088888D01*
X201205220Y-94980781D01*
X201205217Y-94980777D01*
X201205217Y-94980774D01*
X201170764Y-94913158D01*
X201112287Y-94798390D01*
X201062542Y-94729921D01*
X200991971Y-94632786D01*
X200847213Y-94488028D01*
X200681614Y-94367715D01*
X200650181Y-94351699D01*
X200588917Y-94320483D01*
X200538123Y-94272511D01*
X200521328Y-94204690D01*
X200543865Y-94138555D01*
X200588917Y-94099516D01*
X200681610Y-94052287D01*
X200738567Y-94010906D01*
X200847213Y-93931971D01*
X200847215Y-93931968D01*
X200847219Y-93931966D01*
X200991966Y-93787219D01*
X200991968Y-93787215D01*
X200991971Y-93787213D01*
X201051182Y-93705714D01*
X201112287Y-93621610D01*
X201205220Y-93439219D01*
X201268477Y-93244534D01*
X201300500Y-93042352D01*
X201300500Y-92837648D01*
X201280447Y-92711039D01*
X201268477Y-92635465D01*
X201226512Y-92506311D01*
X201205220Y-92440781D01*
X201205218Y-92440778D01*
X201205218Y-92440776D01*
X201161708Y-92355385D01*
X201112287Y-92258390D01*
X201083608Y-92218916D01*
X200991971Y-92092786D01*
X200847213Y-91948028D01*
X200681614Y-91827715D01*
X200607955Y-91790184D01*
X200588917Y-91780483D01*
X200538123Y-91732511D01*
X200521328Y-91664690D01*
X200543865Y-91598555D01*
X200588917Y-91559516D01*
X200681610Y-91512287D01*
X200790022Y-91433522D01*
X200847213Y-91391971D01*
X200847215Y-91391968D01*
X200847219Y-91391966D01*
X200991966Y-91247219D01*
X200991968Y-91247215D01*
X200991971Y-91247213D01*
X201077217Y-91129880D01*
X201112287Y-91081610D01*
X201205220Y-90899219D01*
X201268477Y-90704534D01*
X201300500Y-90502352D01*
X201300500Y-90297648D01*
X201268477Y-90095466D01*
X201263826Y-90081154D01*
X201261832Y-90011315D01*
X201294075Y-89955159D01*
X201631720Y-89617516D01*
X201710777Y-89480584D01*
X201751701Y-89327857D01*
X201751701Y-89169742D01*
X201751701Y-89162147D01*
X201751700Y-89162129D01*
X201751700Y-84811245D01*
X201751700Y-84811243D01*
X201710777Y-84658516D01*
X201699157Y-84638390D01*
X201631724Y-84521590D01*
X201631721Y-84521586D01*
X201631720Y-84521584D01*
X201519916Y-84409780D01*
X201519915Y-84409779D01*
X201515585Y-84405449D01*
X201515574Y-84405439D01*
X200952341Y-83842206D01*
X200918856Y-83780883D01*
X200923840Y-83711191D01*
X200952341Y-83666844D01*
X200963341Y-83655844D01*
X200991966Y-83627219D01*
X200991968Y-83627215D01*
X200991971Y-83627213D01*
X201084961Y-83499221D01*
X201112287Y-83461610D01*
X201205220Y-83279219D01*
X201268477Y-83084534D01*
X201300500Y-82882352D01*
X201300500Y-82677648D01*
X201268477Y-82475466D01*
X201205220Y-82280781D01*
X201205218Y-82280778D01*
X201205218Y-82280776D01*
X201163598Y-82199093D01*
X201112287Y-82098390D01*
X201104556Y-82087749D01*
X200991971Y-81932786D01*
X200847213Y-81788028D01*
X200681611Y-81667713D01*
X200588369Y-81620203D01*
X200537574Y-81572229D01*
X200520779Y-81504407D01*
X200543317Y-81438273D01*
X200588371Y-81399234D01*
X200681346Y-81351861D01*
X200681347Y-81351861D01*
X200725921Y-81319474D01*
X200046447Y-80640000D01*
X200052661Y-80640000D01*
X200154394Y-80612741D01*
X200245606Y-80560080D01*
X200320080Y-80485606D01*
X200372741Y-80394394D01*
X200400000Y-80292661D01*
X200400000Y-80286448D01*
X201079474Y-80965922D01*
X201079475Y-80965921D01*
X201084266Y-80959328D01*
X201084267Y-80959326D01*
X201111857Y-80921353D01*
X201111858Y-80921351D01*
X201204755Y-80739031D01*
X201267990Y-80544417D01*
X201300000Y-80342317D01*
X201300000Y-80137682D01*
X201267990Y-79935582D01*
X201266545Y-79931135D01*
X201204755Y-79740968D01*
X201111859Y-79558650D01*
X201079474Y-79514077D01*
X201079474Y-79514076D01*
X200400000Y-80193551D01*
X200400000Y-80187339D01*
X200372741Y-80085606D01*
X200320080Y-79994394D01*
X200245606Y-79919920D01*
X200154394Y-79867259D01*
X200052661Y-79840000D01*
X200046446Y-79840000D01*
X200725922Y-79160524D01*
X200725921Y-79160523D01*
X200681359Y-79128147D01*
X200681350Y-79128141D01*
X200588369Y-79080765D01*
X200537573Y-79032790D01*
X200520778Y-78964969D01*
X200543315Y-78898835D01*
X200588370Y-78859795D01*
X200681610Y-78812287D01*
X200741910Y-78768477D01*
X200847213Y-78691971D01*
X200847215Y-78691968D01*
X200847219Y-78691966D01*
X200991966Y-78547219D01*
X200991968Y-78547215D01*
X200991971Y-78547213D01*
X201044732Y-78474590D01*
X201112287Y-78381610D01*
X201205220Y-78199219D01*
X201268477Y-78004534D01*
X201300500Y-77802352D01*
X201300500Y-77597648D01*
X201268477Y-77395466D01*
X201267798Y-77393377D01*
X201222346Y-77253489D01*
X201205220Y-77200781D01*
X201205218Y-77200778D01*
X201205218Y-77200776D01*
X201165272Y-77122379D01*
X201112287Y-77018390D01*
X201099490Y-77000776D01*
X200991971Y-76852786D01*
X200847213Y-76708028D01*
X200681614Y-76587715D01*
X200657768Y-76575565D01*
X200588917Y-76540483D01*
X200538123Y-76492511D01*
X200521328Y-76424690D01*
X200543865Y-76358555D01*
X200588917Y-76319516D01*
X200681610Y-76272287D01*
X200702770Y-76256913D01*
X200847213Y-76151971D01*
X200847215Y-76151968D01*
X200847219Y-76151966D01*
X200991966Y-76007219D01*
X200991968Y-76007215D01*
X200991971Y-76007213D01*
X201044732Y-75934590D01*
X201112287Y-75841610D01*
X201205220Y-75659219D01*
X201268477Y-75464534D01*
X201300500Y-75262352D01*
X201300500Y-75057648D01*
X201268477Y-74855466D01*
X201205220Y-74660781D01*
X201205218Y-74660778D01*
X201205218Y-74660776D01*
X201150175Y-74552750D01*
X201112287Y-74478390D01*
X201075170Y-74427302D01*
X200991971Y-74312786D01*
X200847213Y-74168028D01*
X200681614Y-74047715D01*
X200635296Y-74024115D01*
X200588917Y-74000483D01*
X200538123Y-73952511D01*
X200521328Y-73884690D01*
X200543865Y-73818555D01*
X200588917Y-73779516D01*
X200681610Y-73732287D01*
X200785919Y-73656503D01*
X200847213Y-73611971D01*
X200847215Y-73611968D01*
X200847219Y-73611966D01*
X200991966Y-73467219D01*
X200991968Y-73467215D01*
X200991971Y-73467213D01*
X201055544Y-73379711D01*
X201112287Y-73301610D01*
X201205220Y-73119219D01*
X201268477Y-72924534D01*
X201300500Y-72722352D01*
X201300500Y-72517648D01*
X201268477Y-72315466D01*
X201205220Y-72120781D01*
X201205218Y-72120778D01*
X201205218Y-72120776D01*
X201118457Y-71950500D01*
X201112287Y-71938390D01*
X201091352Y-71909575D01*
X200991971Y-71772786D01*
X200847213Y-71628028D01*
X200681614Y-71507715D01*
X200675006Y-71504348D01*
X200588917Y-71460483D01*
X200538123Y-71412511D01*
X200521328Y-71344690D01*
X200543865Y-71278555D01*
X200588917Y-71239516D01*
X200681610Y-71192287D01*
X200702770Y-71176913D01*
X200847213Y-71071971D01*
X200847215Y-71071968D01*
X200847219Y-71071966D01*
X200991966Y-70927219D01*
X200991968Y-70927215D01*
X200991971Y-70927213D01*
X201049496Y-70848035D01*
X201112287Y-70761610D01*
X201205220Y-70579219D01*
X201268477Y-70384534D01*
X201300500Y-70182352D01*
X201300500Y-69977648D01*
X201268477Y-69775466D01*
X201205220Y-69580781D01*
X201205218Y-69580778D01*
X201205218Y-69580776D01*
X201171503Y-69514607D01*
X201112287Y-69398390D01*
X201104556Y-69387749D01*
X200991971Y-69232786D01*
X200847213Y-69088028D01*
X200681614Y-68967715D01*
X200675006Y-68964348D01*
X200588917Y-68920483D01*
X200538123Y-68872511D01*
X200521328Y-68804690D01*
X200543865Y-68738555D01*
X200588917Y-68699516D01*
X200681610Y-68652287D01*
X200808617Y-68560012D01*
X200847213Y-68531971D01*
X200847215Y-68531968D01*
X200847219Y-68531966D01*
X200991966Y-68387219D01*
X200991968Y-68387215D01*
X200991971Y-68387213D01*
X201044732Y-68314590D01*
X201112287Y-68221610D01*
X201205220Y-68039219D01*
X201268477Y-67844534D01*
X201300500Y-67642352D01*
X201300500Y-67437648D01*
X201268477Y-67235466D01*
X201205220Y-67040781D01*
X201205218Y-67040778D01*
X201205218Y-67040776D01*
X201171503Y-66974607D01*
X201112287Y-66858390D01*
X201104556Y-66847749D01*
X200991971Y-66692786D01*
X200847213Y-66548028D01*
X200681614Y-66427715D01*
X200675006Y-66424348D01*
X200588917Y-66380483D01*
X200538123Y-66332511D01*
X200521328Y-66264690D01*
X200543865Y-66198555D01*
X200588917Y-66159516D01*
X200681610Y-66112287D01*
X200702770Y-66096913D01*
X200847213Y-65991971D01*
X200847215Y-65991968D01*
X200847219Y-65991966D01*
X200991966Y-65847219D01*
X200991968Y-65847215D01*
X200991971Y-65847213D01*
X201072825Y-65735925D01*
X201112287Y-65681610D01*
X201205220Y-65499219D01*
X201268477Y-65304534D01*
X201284448Y-65203697D01*
X201294619Y-65139483D01*
X201300500Y-65102351D01*
X201300500Y-64897648D01*
X201268477Y-64695465D01*
X201225254Y-64562439D01*
X201205220Y-64500781D01*
X201205218Y-64500778D01*
X201205218Y-64500776D01*
X201142767Y-64378211D01*
X201112287Y-64318390D01*
X201092101Y-64290606D01*
X200991971Y-64152786D01*
X200847213Y-64008028D01*
X200681614Y-63887715D01*
X200675006Y-63884348D01*
X200588917Y-63840483D01*
X200538123Y-63792511D01*
X200521328Y-63724690D01*
X200543865Y-63658555D01*
X200588917Y-63619516D01*
X200681610Y-63572287D01*
X200710779Y-63551095D01*
X200847213Y-63451971D01*
X200847215Y-63451968D01*
X200847219Y-63451966D01*
X200991966Y-63307219D01*
X200991968Y-63307215D01*
X200991971Y-63307213D01*
X201047782Y-63230394D01*
X201112287Y-63141610D01*
X201205220Y-62959219D01*
X201268477Y-62764534D01*
X201300500Y-62562352D01*
X201300500Y-62357648D01*
X201284584Y-62257160D01*
X201268477Y-62155465D01*
X201215686Y-61992993D01*
X201205220Y-61960781D01*
X201205218Y-61960778D01*
X201205218Y-61960776D01*
X201165974Y-61883757D01*
X201112287Y-61778390D01*
X201055334Y-61700000D01*
X200991971Y-61612786D01*
X200847213Y-61468028D01*
X200681614Y-61347715D01*
X200635139Y-61324035D01*
X200588917Y-61300483D01*
X200538123Y-61252511D01*
X200521328Y-61184690D01*
X200543865Y-61118555D01*
X200588917Y-61079516D01*
X200681610Y-61032287D01*
X200716277Y-61007100D01*
X200847213Y-60911971D01*
X200847215Y-60911968D01*
X200847219Y-60911966D01*
X200991966Y-60767219D01*
X200991968Y-60767215D01*
X200991971Y-60767213D01*
X201080910Y-60644797D01*
X201112287Y-60601610D01*
X201205220Y-60419219D01*
X201207084Y-60414719D01*
X201209143Y-60415571D01*
X201243324Y-60365521D01*
X201307667Y-60338286D01*
X201376521Y-60350161D01*
X201409554Y-60373789D01*
X203281241Y-62245476D01*
X203314726Y-62306799D01*
X203311492Y-62371473D01*
X203297753Y-62413757D01*
X203264500Y-62623713D01*
X203264500Y-62836286D01*
X203291667Y-63007816D01*
X203297754Y-63046243D01*
X203357496Y-63230110D01*
X203363444Y-63248414D01*
X203459951Y-63437820D01*
X203584890Y-63609786D01*
X203735213Y-63760109D01*
X203907179Y-63885048D01*
X203907181Y-63885049D01*
X203907184Y-63885051D01*
X203916493Y-63889794D01*
X203967290Y-63937766D01*
X203984087Y-64005587D01*
X203961552Y-64071722D01*
X203916505Y-64110760D01*
X203907446Y-64115376D01*
X203907440Y-64115380D01*
X203853282Y-64154727D01*
X203853282Y-64154728D01*
X204485591Y-64787037D01*
X204422007Y-64804075D01*
X204307993Y-64869901D01*
X204214901Y-64962993D01*
X204149075Y-65077007D01*
X204132037Y-65140591D01*
X203499728Y-64508282D01*
X203499727Y-64508282D01*
X203460380Y-64562439D01*
X203363904Y-64751782D01*
X203298242Y-64953869D01*
X203298242Y-64953872D01*
X203265000Y-65163753D01*
X203265000Y-65376246D01*
X203298242Y-65586127D01*
X203298242Y-65586130D01*
X203363904Y-65788217D01*
X203460375Y-65977550D01*
X203499728Y-66031716D01*
X204132037Y-65399408D01*
X204149075Y-65462993D01*
X204214901Y-65577007D01*
X204307993Y-65670099D01*
X204422007Y-65735925D01*
X204485590Y-65752962D01*
X203853282Y-66385269D01*
X203853282Y-66385270D01*
X203907452Y-66424626D01*
X203907451Y-66424626D01*
X203916495Y-66429234D01*
X203967292Y-66477208D01*
X203984087Y-66545029D01*
X203961550Y-66611164D01*
X203916499Y-66650202D01*
X203907182Y-66654949D01*
X203735213Y-66779890D01*
X203584890Y-66930213D01*
X203459951Y-67102179D01*
X203363444Y-67291585D01*
X203297753Y-67493760D01*
X203264500Y-67703713D01*
X203264500Y-67916287D01*
X203264499Y-67916287D01*
X203269948Y-67950686D01*
X203260993Y-68019979D01*
X203235156Y-68057764D01*
X202853802Y-68439120D01*
X202732911Y-68560011D01*
X202677160Y-68615762D01*
X202621409Y-68671512D01*
X202533809Y-68802614D01*
X202533802Y-68802627D01*
X202473464Y-68948298D01*
X202473461Y-68948310D01*
X202442700Y-69102953D01*
X202442700Y-76822046D01*
X202473461Y-76976689D01*
X202473464Y-76976701D01*
X202533802Y-77122372D01*
X202533809Y-77122385D01*
X202621410Y-77253488D01*
X202621413Y-77253492D01*
X202663897Y-77295975D01*
X202697383Y-77357298D01*
X202699835Y-77393377D01*
X202699500Y-77397637D01*
X202699500Y-77602351D01*
X202731522Y-77804534D01*
X202794781Y-77999223D01*
X202887715Y-78181613D01*
X203008028Y-78347213D01*
X203152786Y-78491971D01*
X203318385Y-78612284D01*
X203318387Y-78612285D01*
X203318390Y-78612287D01*
X203372378Y-78639795D01*
X203423174Y-78687769D01*
X203439969Y-78755590D01*
X203417432Y-78821725D01*
X203372378Y-78860765D01*
X203318644Y-78888143D01*
X203274077Y-78920523D01*
X203274077Y-78920524D01*
X203953554Y-79600000D01*
X203947339Y-79600000D01*
X203845606Y-79627259D01*
X203754394Y-79679920D01*
X203679920Y-79754394D01*
X203627259Y-79845606D01*
X203600000Y-79947339D01*
X203600000Y-79953553D01*
X202920524Y-79274077D01*
X202920523Y-79274077D01*
X202888143Y-79318644D01*
X202795244Y-79500968D01*
X202732009Y-79695582D01*
X202700000Y-79897682D01*
X202700000Y-80102317D01*
X202732009Y-80304417D01*
X202795244Y-80499031D01*
X202888141Y-80681350D01*
X202888147Y-80681359D01*
X202920523Y-80725921D01*
X202920524Y-80725922D01*
X203600000Y-80046446D01*
X203600000Y-80052661D01*
X203627259Y-80154394D01*
X203679920Y-80245606D01*
X203754394Y-80320080D01*
X203845606Y-80372741D01*
X203947339Y-80400000D01*
X203953553Y-80400000D01*
X203274076Y-81079474D01*
X203318650Y-81111859D01*
X203500968Y-81204755D01*
X203695582Y-81267990D01*
X203897683Y-81300000D01*
X204102317Y-81300000D01*
X204304417Y-81267990D01*
X204499031Y-81204755D01*
X204681349Y-81111859D01*
X204725921Y-81079474D01*
X204046447Y-80400000D01*
X204052661Y-80400000D01*
X204154394Y-80372741D01*
X204245606Y-80320080D01*
X204320080Y-80245606D01*
X204372741Y-80154394D01*
X204400000Y-80052661D01*
X204400000Y-80046447D01*
X205079474Y-80725921D01*
X205111859Y-80681349D01*
X205204755Y-80499031D01*
X205267990Y-80304417D01*
X205300000Y-80102317D01*
X205300000Y-79897682D01*
X205267990Y-79695582D01*
X205204755Y-79500968D01*
X205111859Y-79318650D01*
X205079474Y-79274077D01*
X205079474Y-79274076D01*
X204400000Y-79953551D01*
X204400000Y-79947339D01*
X204372741Y-79845606D01*
X204320080Y-79754394D01*
X204245606Y-79679920D01*
X204154394Y-79627259D01*
X204052661Y-79600000D01*
X204046446Y-79600000D01*
X204725922Y-78920524D01*
X204725921Y-78920523D01*
X204681359Y-78888147D01*
X204681350Y-78888141D01*
X204627621Y-78860765D01*
X204576825Y-78812791D01*
X204560030Y-78744970D01*
X204582567Y-78678835D01*
X204627621Y-78639795D01*
X204681610Y-78612287D01*
X204771172Y-78547217D01*
X204847213Y-78491971D01*
X204847215Y-78491968D01*
X204847219Y-78491966D01*
X204991966Y-78347219D01*
X204991968Y-78347215D01*
X204991971Y-78347213D01*
X205044732Y-78274590D01*
X205112287Y-78181610D01*
X205205220Y-77999219D01*
X205268477Y-77804534D01*
X205300500Y-77602352D01*
X205300500Y-77397648D01*
X205277667Y-77253488D01*
X205268477Y-77195465D01*
X205237792Y-77101028D01*
X205205220Y-77000781D01*
X205205218Y-77000778D01*
X205205218Y-77000776D01*
X205155578Y-76903354D01*
X205112287Y-76818390D01*
X205104556Y-76807749D01*
X204991971Y-76652786D01*
X204847213Y-76508028D01*
X204681613Y-76387715D01*
X204681612Y-76387714D01*
X204681610Y-76387713D01*
X204624384Y-76358555D01*
X204499223Y-76294781D01*
X204304535Y-76231523D01*
X204148301Y-76206777D01*
X204085167Y-76176847D01*
X204048236Y-76117536D01*
X204043700Y-76084304D01*
X204043700Y-71755043D01*
X204063385Y-71688004D01*
X204116189Y-71642249D01*
X204185347Y-71632305D01*
X204206003Y-71637108D01*
X204298757Y-71667246D01*
X204508713Y-71700500D01*
X204508714Y-71700500D01*
X204721286Y-71700500D01*
X204721287Y-71700500D01*
X204931243Y-71667246D01*
X205133412Y-71601557D01*
X205322816Y-71505051D01*
X205384156Y-71460485D01*
X205494786Y-71380109D01*
X205494788Y-71380106D01*
X205494792Y-71380104D01*
X205645104Y-71229792D01*
X205645106Y-71229788D01*
X205645109Y-71229786D01*
X205759770Y-71071966D01*
X205770051Y-71057816D01*
X205866557Y-70868412D01*
X205932246Y-70666243D01*
X205965500Y-70456287D01*
X205965500Y-70243713D01*
X205932246Y-70033757D01*
X205866557Y-69831588D01*
X205770051Y-69642184D01*
X205770049Y-69642181D01*
X205770048Y-69642179D01*
X205645109Y-69470213D01*
X205494786Y-69319890D01*
X205322820Y-69194951D01*
X205322115Y-69194591D01*
X205314054Y-69190485D01*
X205263259Y-69142512D01*
X205246463Y-69074692D01*
X205268999Y-69008556D01*
X205314054Y-68969515D01*
X205322816Y-68965051D01*
X205439014Y-68880629D01*
X205494786Y-68840109D01*
X205494788Y-68840106D01*
X205494792Y-68840104D01*
X205645104Y-68689792D01*
X205645106Y-68689788D01*
X205645109Y-68689786D01*
X205770048Y-68517820D01*
X205770047Y-68517820D01*
X205770051Y-68517816D01*
X205866557Y-68328412D01*
X205932246Y-68126243D01*
X205965500Y-67916287D01*
X205965500Y-67703713D01*
X205932246Y-67493757D01*
X205866557Y-67291588D01*
X205770051Y-67102184D01*
X205770049Y-67102181D01*
X205770048Y-67102179D01*
X205645109Y-66930213D01*
X205494786Y-66779890D01*
X205322817Y-66654949D01*
X205313504Y-66650204D01*
X205262707Y-66602230D01*
X205245912Y-66534409D01*
X205268449Y-66468274D01*
X205313507Y-66429232D01*
X205322555Y-66424622D01*
X205376716Y-66385270D01*
X205376717Y-66385270D01*
X204744408Y-65752962D01*
X204807993Y-65735925D01*
X204922007Y-65670099D01*
X205015099Y-65577007D01*
X205080925Y-65462993D01*
X205097962Y-65399409D01*
X205730270Y-66031717D01*
X205730270Y-66031716D01*
X205769622Y-65977554D01*
X205866095Y-65788217D01*
X205931757Y-65586130D01*
X205931757Y-65586127D01*
X205965000Y-65376246D01*
X205965000Y-65163753D01*
X205931757Y-64953872D01*
X205931757Y-64953869D01*
X205866095Y-64751782D01*
X205769624Y-64562449D01*
X205730270Y-64508282D01*
X205730269Y-64508282D01*
X205097962Y-65140590D01*
X205080925Y-65077007D01*
X205015099Y-64962993D01*
X204922007Y-64869901D01*
X204807993Y-64804075D01*
X204744409Y-64787037D01*
X205376716Y-64154728D01*
X205322547Y-64115373D01*
X205322547Y-64115372D01*
X205313500Y-64110763D01*
X205262706Y-64062788D01*
X205245912Y-63994966D01*
X205268451Y-63928832D01*
X205313508Y-63889793D01*
X205322816Y-63885051D01*
X205402007Y-63827515D01*
X205494786Y-63760109D01*
X205494788Y-63760106D01*
X205494792Y-63760104D01*
X205645104Y-63609792D01*
X205645106Y-63609788D01*
X205645109Y-63609786D01*
X205770048Y-63437820D01*
X205770047Y-63437820D01*
X205770051Y-63437816D01*
X205866557Y-63248412D01*
X205932246Y-63046243D01*
X205965500Y-62836287D01*
X205965500Y-62623713D01*
X205932246Y-62413757D01*
X205866557Y-62211588D01*
X205770051Y-62022184D01*
X205770049Y-62022181D01*
X205770048Y-62022179D01*
X205645109Y-61850213D01*
X205494786Y-61699890D01*
X205322820Y-61574951D01*
X205322115Y-61574591D01*
X205314054Y-61570485D01*
X205263259Y-61522512D01*
X205246463Y-61454692D01*
X205268999Y-61388556D01*
X205314054Y-61349515D01*
X205322816Y-61345051D01*
X205357010Y-61320208D01*
X205494786Y-61220109D01*
X205494788Y-61220106D01*
X205494792Y-61220104D01*
X205645104Y-61069792D01*
X205645106Y-61069788D01*
X205645109Y-61069786D01*
X205770048Y-60897820D01*
X205770047Y-60897820D01*
X205770051Y-60897816D01*
X205866557Y-60708412D01*
X205932246Y-60506243D01*
X205965500Y-60296287D01*
X205965500Y-60083713D01*
X205932246Y-59873757D01*
X205866557Y-59671588D01*
X205770051Y-59482184D01*
X205770049Y-59482181D01*
X205770048Y-59482179D01*
X205645109Y-59310213D01*
X205531569Y-59196673D01*
X205498084Y-59135350D01*
X205503068Y-59065658D01*
X205544940Y-59009725D01*
X205575915Y-58992810D01*
X205707331Y-58943796D01*
X205822546Y-58857546D01*
X205908796Y-58742331D01*
X205959091Y-58607483D01*
X205965500Y-58547873D01*
X205965499Y-56752128D01*
X205959091Y-56692517D01*
X205932014Y-56619921D01*
X205908797Y-56557671D01*
X205908793Y-56557664D01*
X205822547Y-56442455D01*
X205822544Y-56442452D01*
X205707335Y-56356206D01*
X205707328Y-56356202D01*
X205572482Y-56305908D01*
X205572483Y-56305908D01*
X205512883Y-56299501D01*
X205512881Y-56299500D01*
X205512873Y-56299500D01*
X205512864Y-56299500D01*
X203717129Y-56299500D01*
X203717123Y-56299501D01*
X203657516Y-56305908D01*
X203522671Y-56356202D01*
X203522664Y-56356206D01*
X203407455Y-56442452D01*
X203407452Y-56442455D01*
X203321206Y-56557664D01*
X203321202Y-56557671D01*
X203270908Y-56692517D01*
X203264501Y-56752116D01*
X203264501Y-56752123D01*
X203264500Y-56752135D01*
X203264500Y-58547870D01*
X203264501Y-58547876D01*
X203270908Y-58607483D01*
X203321202Y-58742328D01*
X203321206Y-58742335D01*
X203407452Y-58857544D01*
X203407455Y-58857547D01*
X203522664Y-58943793D01*
X203522671Y-58943797D01*
X203654082Y-58992810D01*
X203710016Y-59034681D01*
X203734433Y-59100145D01*
X203719582Y-59168418D01*
X203698431Y-59196673D01*
X203584889Y-59310215D01*
X203459951Y-59482179D01*
X203363444Y-59671585D01*
X203297753Y-59873760D01*
X203264500Y-60083713D01*
X203264500Y-60230902D01*
X203244815Y-60297941D01*
X203192011Y-60343696D01*
X203122853Y-60353640D01*
X203059297Y-60324615D01*
X203052819Y-60318583D01*
X201054013Y-58319777D01*
X201020528Y-58258454D01*
X201025512Y-58188762D01*
X201041373Y-58159215D01*
X201112287Y-58061610D01*
X201205220Y-57879219D01*
X201268477Y-57684534D01*
X201300500Y-57482352D01*
X201300500Y-57277648D01*
X201291185Y-57218834D01*
X201268477Y-57075465D01*
X201205218Y-56880776D01*
X201139668Y-56752129D01*
X201112287Y-56698390D01*
X201059999Y-56626421D01*
X200991971Y-56532786D01*
X200847213Y-56388028D01*
X200681613Y-56267715D01*
X200681612Y-56267714D01*
X200681610Y-56267713D01*
X200606340Y-56229361D01*
X200499223Y-56174781D01*
X200304534Y-56111522D01*
X200129995Y-56083878D01*
X200102352Y-56079500D01*
X199897648Y-56079500D01*
X199873329Y-56083351D01*
X199695465Y-56111522D01*
X199500776Y-56174781D01*
X199340995Y-56256195D01*
X199272326Y-56269091D01*
X199207585Y-56242815D01*
X199167328Y-56185708D01*
X199160700Y-56145710D01*
X199160700Y-53718265D01*
X199180385Y-53651226D01*
X199181598Y-53649374D01*
X199269590Y-53517685D01*
X199269590Y-53517684D01*
X199269594Y-53517679D01*
X199276569Y-53500841D01*
X199291089Y-53465784D01*
X199329937Y-53371997D01*
X199360700Y-53217342D01*
X199360700Y-53059658D01*
X199360700Y-53059655D01*
X199360699Y-53059653D01*
X199351717Y-53014500D01*
X199329937Y-52905003D01*
X199322647Y-52887403D01*
X199269597Y-52759327D01*
X199269590Y-52759314D01*
X199181989Y-52628211D01*
X199181986Y-52628207D01*
X199070492Y-52516713D01*
X199070488Y-52516710D01*
X198939385Y-52429109D01*
X198939372Y-52429102D01*
X198793701Y-52368764D01*
X198793689Y-52368761D01*
X198639045Y-52338000D01*
X198639042Y-52338000D01*
X198481358Y-52338000D01*
X198481355Y-52338000D01*
X198326710Y-52368761D01*
X198326698Y-52368764D01*
X198181027Y-52429102D01*
X198181014Y-52429109D01*
X198049911Y-52516710D01*
X198049907Y-52516713D01*
X197938413Y-52628207D01*
X197938410Y-52628211D01*
X197850809Y-52759314D01*
X197850802Y-52759327D01*
X197790464Y-52904998D01*
X197790461Y-52905010D01*
X197759700Y-53059653D01*
X197759700Y-53217346D01*
X197790461Y-53371989D01*
X197790464Y-53372001D01*
X197850802Y-53517672D01*
X197850809Y-53517685D01*
X197938802Y-53649374D01*
X197959680Y-53716051D01*
X197959700Y-53718265D01*
X197959700Y-81179002D01*
X197940015Y-81246041D01*
X197887211Y-81291796D01*
X197818053Y-81301740D01*
X197754497Y-81272715D01*
X197748019Y-81266683D01*
X190996319Y-74514983D01*
X190962834Y-74453660D01*
X190960000Y-74427302D01*
X190960000Y-61164360D01*
X190960001Y-61164347D01*
X190960001Y-60996244D01*
X190960001Y-60996243D01*
X190919077Y-60843516D01*
X190919073Y-60843509D01*
X190840024Y-60706590D01*
X190840018Y-60706582D01*
X186032490Y-55899055D01*
X186032488Y-55899052D01*
X185913617Y-55780181D01*
X185913609Y-55780175D01*
X185818241Y-55725115D01*
X185818239Y-55725114D01*
X185776690Y-55701125D01*
X185776689Y-55701124D01*
X185764163Y-55697767D01*
X185623957Y-55660199D01*
X185465843Y-55660199D01*
X185458247Y-55660199D01*
X185458231Y-55660200D01*
X183967157Y-55660200D01*
X183809042Y-55660200D01*
X183656315Y-55701123D01*
X183656314Y-55701123D01*
X183656312Y-55701124D01*
X183656309Y-55701125D01*
X183614761Y-55725114D01*
X183614759Y-55725115D01*
X183519390Y-55780175D01*
X183519382Y-55780181D01*
X183135039Y-56164525D01*
X183073716Y-56198010D01*
X183071550Y-56198461D01*
X182916208Y-56229361D01*
X182916198Y-56229364D01*
X182770527Y-56289702D01*
X182770514Y-56289709D01*
X182639411Y-56377310D01*
X182639407Y-56377313D01*
X182527913Y-56488807D01*
X182471717Y-56572910D01*
X182418104Y-56617714D01*
X182348779Y-56626421D01*
X182285752Y-56596266D01*
X182280934Y-56591699D01*
X181887835Y-56198600D01*
X181449919Y-55760683D01*
X181416434Y-55699360D01*
X181413600Y-55673002D01*
X181413600Y-52562858D01*
X181433285Y-52495819D01*
X181486089Y-52450064D01*
X181555247Y-52440120D01*
X181618803Y-52469145D01*
X181625281Y-52475177D01*
X181720213Y-52570109D01*
X181892179Y-52695048D01*
X181892181Y-52695049D01*
X181892184Y-52695051D01*
X182081588Y-52791557D01*
X182283757Y-52857246D01*
X182493713Y-52890500D01*
X182493714Y-52890500D01*
X182706286Y-52890500D01*
X182706287Y-52890500D01*
X182916243Y-52857246D01*
X183118412Y-52791557D01*
X183307816Y-52695051D01*
X183394138Y-52632335D01*
X183479786Y-52570109D01*
X183479788Y-52570106D01*
X183479792Y-52570104D01*
X183630104Y-52419792D01*
X183630106Y-52419788D01*
X183630109Y-52419786D01*
X183755048Y-52247820D01*
X183755047Y-52247820D01*
X183755051Y-52247816D01*
X183759514Y-52239054D01*
X183807488Y-52188259D01*
X183875308Y-52171463D01*
X183941444Y-52193999D01*
X183980486Y-52239056D01*
X183984951Y-52247820D01*
X184109890Y-52419786D01*
X184260213Y-52570109D01*
X184432179Y-52695048D01*
X184432181Y-52695049D01*
X184432184Y-52695051D01*
X184621588Y-52791557D01*
X184823757Y-52857246D01*
X185033713Y-52890500D01*
X185033714Y-52890500D01*
X185246286Y-52890500D01*
X185246287Y-52890500D01*
X185456243Y-52857246D01*
X185658412Y-52791557D01*
X185847816Y-52695051D01*
X185934138Y-52632335D01*
X186019786Y-52570109D01*
X186019788Y-52570106D01*
X186019792Y-52570104D01*
X186170104Y-52419792D01*
X186170106Y-52419788D01*
X186170109Y-52419786D01*
X186295048Y-52247820D01*
X186295047Y-52247820D01*
X186295051Y-52247816D01*
X186299514Y-52239054D01*
X186347488Y-52188259D01*
X186415308Y-52171463D01*
X186481444Y-52193999D01*
X186520486Y-52239056D01*
X186524951Y-52247820D01*
X186649890Y-52419786D01*
X186800213Y-52570109D01*
X186972179Y-52695048D01*
X186972181Y-52695049D01*
X186972184Y-52695051D01*
X187161588Y-52791557D01*
X187363757Y-52857246D01*
X187573713Y-52890500D01*
X187573714Y-52890500D01*
X187786286Y-52890500D01*
X187786287Y-52890500D01*
X187996243Y-52857246D01*
X188198412Y-52791557D01*
X188387816Y-52695051D01*
X188474138Y-52632335D01*
X188559786Y-52570109D01*
X188559788Y-52570106D01*
X188559792Y-52570104D01*
X188710104Y-52419792D01*
X188710106Y-52419788D01*
X188710109Y-52419786D01*
X188835048Y-52247820D01*
X188835047Y-52247820D01*
X188835051Y-52247816D01*
X188839514Y-52239054D01*
X188887488Y-52188259D01*
X188955308Y-52171463D01*
X189021444Y-52193999D01*
X189060486Y-52239056D01*
X189064951Y-52247820D01*
X189189890Y-52419786D01*
X189340213Y-52570109D01*
X189512179Y-52695048D01*
X189512181Y-52695049D01*
X189512184Y-52695051D01*
X189701588Y-52791557D01*
X189903757Y-52857246D01*
X190113713Y-52890500D01*
X190113714Y-52890500D01*
X190326286Y-52890500D01*
X190326287Y-52890500D01*
X190536243Y-52857246D01*
X190738412Y-52791557D01*
X190927816Y-52695051D01*
X191014138Y-52632335D01*
X191099786Y-52570109D01*
X191099788Y-52570106D01*
X191099792Y-52570104D01*
X191250104Y-52419792D01*
X191250106Y-52419788D01*
X191250109Y-52419786D01*
X191375048Y-52247820D01*
X191375047Y-52247820D01*
X191375051Y-52247816D01*
X191471557Y-52058412D01*
X191537246Y-51856243D01*
X191570500Y-51646287D01*
X191570500Y-51433713D01*
X191537246Y-51223757D01*
X191471557Y-51021588D01*
X191375051Y-50832184D01*
X191375049Y-50832181D01*
X191375048Y-50832179D01*
X191250109Y-50660213D01*
X191099786Y-50509890D01*
X190927817Y-50384949D01*
X190918504Y-50380204D01*
X190867707Y-50332230D01*
X190850912Y-50264409D01*
X190873449Y-50198274D01*
X190918507Y-50159232D01*
X190927555Y-50154622D01*
X190981716Y-50115270D01*
X190981717Y-50115270D01*
X190349408Y-49482962D01*
X190412993Y-49465925D01*
X190527007Y-49400099D01*
X190620099Y-49307007D01*
X190685925Y-49192993D01*
X190702962Y-49129408D01*
X191335270Y-49761717D01*
X191335270Y-49761716D01*
X191374622Y-49707554D01*
X191471095Y-49518217D01*
X191536757Y-49316130D01*
X191536757Y-49316127D01*
X191570000Y-49106246D01*
X191570000Y-48893753D01*
X191536757Y-48683872D01*
X191536757Y-48683869D01*
X191471095Y-48481782D01*
X191374624Y-48292449D01*
X191335270Y-48238282D01*
X191335269Y-48238282D01*
X190702962Y-48870590D01*
X190685925Y-48807007D01*
X190620099Y-48692993D01*
X190527007Y-48599901D01*
X190412993Y-48534075D01*
X190349409Y-48517037D01*
X190981716Y-47884728D01*
X190927550Y-47845375D01*
X190738217Y-47748904D01*
X190536129Y-47683242D01*
X190326246Y-47650000D01*
X190113754Y-47650000D01*
X189903872Y-47683242D01*
X189903869Y-47683242D01*
X189701782Y-47748904D01*
X189512439Y-47845380D01*
X189458282Y-47884727D01*
X189458282Y-47884728D01*
X190090591Y-48517037D01*
X190027007Y-48534075D01*
X189912993Y-48599901D01*
X189819901Y-48692993D01*
X189754075Y-48807007D01*
X189737037Y-48870591D01*
X189104728Y-48238282D01*
X189104727Y-48238282D01*
X189065380Y-48292440D01*
X189060483Y-48302051D01*
X189012506Y-48352845D01*
X188944684Y-48369638D01*
X188878550Y-48347098D01*
X188839516Y-48302048D01*
X188834626Y-48292452D01*
X188795270Y-48238282D01*
X188795269Y-48238282D01*
X188162962Y-48870590D01*
X188145925Y-48807007D01*
X188080099Y-48692993D01*
X187987007Y-48599901D01*
X187872993Y-48534075D01*
X187809409Y-48517037D01*
X188441716Y-47884728D01*
X188387550Y-47845375D01*
X188198217Y-47748904D01*
X187996129Y-47683242D01*
X187786246Y-47650000D01*
X187573754Y-47650000D01*
X187363872Y-47683242D01*
X187363869Y-47683242D01*
X187161782Y-47748904D01*
X186972439Y-47845380D01*
X186918282Y-47884727D01*
X186918282Y-47884728D01*
X187550591Y-48517037D01*
X187487007Y-48534075D01*
X187372993Y-48599901D01*
X187279901Y-48692993D01*
X187214075Y-48807007D01*
X187197037Y-48870590D01*
X186564728Y-48238282D01*
X186564727Y-48238282D01*
X186525380Y-48292440D01*
X186525376Y-48292446D01*
X186520760Y-48301505D01*
X186472781Y-48352297D01*
X186404959Y-48369087D01*
X186338826Y-48346543D01*
X186299794Y-48301493D01*
X186295051Y-48292184D01*
X186295049Y-48292181D01*
X186295048Y-48292179D01*
X186170109Y-48120213D01*
X186019786Y-47969890D01*
X185847820Y-47844951D01*
X185658414Y-47748444D01*
X185658413Y-47748443D01*
X185658412Y-47748443D01*
X185456243Y-47682754D01*
X185456241Y-47682753D01*
X185456240Y-47682753D01*
X185294957Y-47657208D01*
X185246287Y-47649500D01*
X185033713Y-47649500D01*
X184985042Y-47657208D01*
X184823760Y-47682753D01*
X184621585Y-47748444D01*
X184432179Y-47844951D01*
X184260213Y-47969890D01*
X184109890Y-48120213D01*
X183984949Y-48292182D01*
X183980484Y-48300946D01*
X183932509Y-48351742D01*
X183864688Y-48368536D01*
X183798553Y-48345998D01*
X183759516Y-48300946D01*
X183755050Y-48292182D01*
X183630109Y-48120213D01*
X183479786Y-47969890D01*
X183307820Y-47844951D01*
X183118414Y-47748444D01*
X183118413Y-47748443D01*
X183118412Y-47748443D01*
X182916243Y-47682754D01*
X182916241Y-47682753D01*
X182916240Y-47682753D01*
X182754957Y-47657208D01*
X182706287Y-47649500D01*
X182493713Y-47649500D01*
X182445042Y-47657208D01*
X182283760Y-47682753D01*
X182081585Y-47748444D01*
X181892179Y-47844951D01*
X181720213Y-47969890D01*
X181569890Y-48120213D01*
X181444949Y-48292182D01*
X181440484Y-48300946D01*
X181392509Y-48351742D01*
X181324688Y-48368536D01*
X181258553Y-48345998D01*
X181219516Y-48300946D01*
X181215050Y-48292182D01*
X181090109Y-48120213D01*
X180939786Y-47969890D01*
X180767820Y-47844951D01*
X180578414Y-47748444D01*
X180578413Y-47748443D01*
X180578412Y-47748443D01*
X180376243Y-47682754D01*
X180376241Y-47682753D01*
X180376240Y-47682753D01*
X180214957Y-47657208D01*
X180166287Y-47649500D01*
X179953713Y-47649500D01*
X179905042Y-47657208D01*
X179743760Y-47682753D01*
X179541585Y-47748444D01*
X179352179Y-47844951D01*
X179180211Y-47969892D01*
X179180209Y-47969894D01*
X179164195Y-47985907D01*
X179102870Y-48019389D01*
X179033178Y-48014401D01*
X178988837Y-47985902D01*
X178488090Y-47485155D01*
X178488088Y-47485152D01*
X178369217Y-47366281D01*
X178369216Y-47366280D01*
X178282404Y-47316160D01*
X178282404Y-47316159D01*
X178282400Y-47316158D01*
X178232285Y-47287223D01*
X178079557Y-47246299D01*
X177921443Y-47246299D01*
X177913847Y-47246299D01*
X177913831Y-47246300D01*
X173672257Y-47246300D01*
X173514143Y-47246300D01*
X173361415Y-47287223D01*
X173361414Y-47287223D01*
X173361412Y-47287224D01*
X173361409Y-47287225D01*
X173311296Y-47316159D01*
X173311295Y-47316160D01*
X173267889Y-47341220D01*
X173224485Y-47366279D01*
X173224482Y-47366281D01*
X173112678Y-47478086D01*
X172924522Y-47666241D01*
X172863199Y-47699726D01*
X172798523Y-47696491D01*
X172756245Y-47682754D01*
X172616272Y-47660584D01*
X172546287Y-47649500D01*
X172333713Y-47649500D01*
X172285042Y-47657208D01*
X172123760Y-47682753D01*
X171921585Y-47748444D01*
X171732179Y-47844951D01*
X171560213Y-47969890D01*
X171409890Y-48120213D01*
X171284949Y-48292182D01*
X171280484Y-48300946D01*
X171232509Y-48351742D01*
X171164688Y-48368536D01*
X171098553Y-48345998D01*
X171059516Y-48300946D01*
X171055050Y-48292182D01*
X170930109Y-48120213D01*
X170779786Y-47969890D01*
X170607820Y-47844951D01*
X170418414Y-47748444D01*
X170418413Y-47748443D01*
X170418412Y-47748443D01*
X170216243Y-47682754D01*
X170216241Y-47682753D01*
X170216240Y-47682753D01*
X170054957Y-47657208D01*
X170006287Y-47649500D01*
X169793713Y-47649500D01*
X169745042Y-47657208D01*
X169583760Y-47682753D01*
X169381585Y-47748444D01*
X169192179Y-47844951D01*
X169020213Y-47969890D01*
X168869890Y-48120213D01*
X168744949Y-48292182D01*
X168740484Y-48300946D01*
X168692509Y-48351742D01*
X168624688Y-48368536D01*
X168558553Y-48345998D01*
X168519516Y-48300946D01*
X168515050Y-48292182D01*
X168390109Y-48120213D01*
X168239786Y-47969890D01*
X168067820Y-47844951D01*
X167878414Y-47748444D01*
X167878413Y-47748443D01*
X167878412Y-47748443D01*
X167676243Y-47682754D01*
X167676241Y-47682753D01*
X167676240Y-47682753D01*
X167514957Y-47657208D01*
X167466287Y-47649500D01*
X167253713Y-47649500D01*
X167205042Y-47657208D01*
X167043760Y-47682753D01*
X166841585Y-47748444D01*
X166652179Y-47844951D01*
X166480213Y-47969890D01*
X166329890Y-48120213D01*
X166204949Y-48292182D01*
X166200484Y-48300946D01*
X166152509Y-48351742D01*
X166084688Y-48368536D01*
X166018553Y-48345998D01*
X165979516Y-48300946D01*
X165975050Y-48292182D01*
X165850109Y-48120213D01*
X165699786Y-47969890D01*
X165527820Y-47844951D01*
X165338414Y-47748444D01*
X165338413Y-47748443D01*
X165338412Y-47748443D01*
X165136243Y-47682754D01*
X165136241Y-47682753D01*
X165136240Y-47682753D01*
X164974957Y-47657208D01*
X164926287Y-47649500D01*
X164713713Y-47649500D01*
X164665042Y-47657208D01*
X164503760Y-47682753D01*
X164301585Y-47748444D01*
X164112179Y-47844951D01*
X163940213Y-47969890D01*
X163789890Y-48120213D01*
X163664949Y-48292182D01*
X163660484Y-48300946D01*
X163612509Y-48351742D01*
X163544688Y-48368536D01*
X163478553Y-48345998D01*
X163439516Y-48300946D01*
X163435050Y-48292182D01*
X163310109Y-48120213D01*
X163159786Y-47969890D01*
X162987820Y-47844951D01*
X162798414Y-47748444D01*
X162798413Y-47748443D01*
X162798412Y-47748443D01*
X162596243Y-47682754D01*
X162596241Y-47682753D01*
X162596240Y-47682753D01*
X162434957Y-47657208D01*
X162386287Y-47649500D01*
X162173713Y-47649500D01*
X162125042Y-47657208D01*
X161963760Y-47682753D01*
X161761585Y-47748444D01*
X161572179Y-47844951D01*
X161400213Y-47969890D01*
X161249890Y-48120213D01*
X161124949Y-48292182D01*
X161120484Y-48300946D01*
X161072509Y-48351742D01*
X161004688Y-48368536D01*
X160938553Y-48345998D01*
X160899516Y-48300946D01*
X160895050Y-48292182D01*
X160770109Y-48120213D01*
X160619786Y-47969890D01*
X160447820Y-47844951D01*
X160258414Y-47748444D01*
X160258413Y-47748443D01*
X160258412Y-47748443D01*
X160056243Y-47682754D01*
X160056241Y-47682753D01*
X160056240Y-47682753D01*
X159894957Y-47657208D01*
X159846287Y-47649500D01*
X159633713Y-47649500D01*
X159585042Y-47657208D01*
X159423760Y-47682753D01*
X159221585Y-47748444D01*
X159032179Y-47844951D01*
X158860213Y-47969890D01*
X158709890Y-48120213D01*
X158584949Y-48292182D01*
X158580484Y-48300946D01*
X158532509Y-48351742D01*
X158464688Y-48368536D01*
X158398553Y-48345998D01*
X158359516Y-48300946D01*
X158355050Y-48292182D01*
X158230109Y-48120213D01*
X158079786Y-47969890D01*
X157907820Y-47844951D01*
X157718414Y-47748444D01*
X157718413Y-47748443D01*
X157718412Y-47748443D01*
X157516243Y-47682754D01*
X157516241Y-47682753D01*
X157516240Y-47682753D01*
X157354957Y-47657208D01*
X157306287Y-47649500D01*
X157093713Y-47649500D01*
X157045042Y-47657208D01*
X156883760Y-47682753D01*
X156681585Y-47748444D01*
X156492179Y-47844951D01*
X156320213Y-47969890D01*
X156169890Y-48120213D01*
X156044949Y-48292182D01*
X156040484Y-48300946D01*
X155992509Y-48351742D01*
X155924688Y-48368536D01*
X155858553Y-48345998D01*
X155819516Y-48300946D01*
X155815050Y-48292182D01*
X155690109Y-48120213D01*
X155539786Y-47969890D01*
X155367820Y-47844951D01*
X155178414Y-47748444D01*
X155178413Y-47748443D01*
X155178412Y-47748443D01*
X154976243Y-47682754D01*
X154976241Y-47682753D01*
X154976240Y-47682753D01*
X154814957Y-47657208D01*
X154766287Y-47649500D01*
X154553713Y-47649500D01*
X154505042Y-47657208D01*
X154343760Y-47682753D01*
X154141585Y-47748444D01*
X153952179Y-47844951D01*
X153780213Y-47969890D01*
X153629890Y-48120213D01*
X153504949Y-48292182D01*
X153500484Y-48300946D01*
X153452509Y-48351742D01*
X153384688Y-48368536D01*
X153318553Y-48345998D01*
X153279516Y-48300946D01*
X153275050Y-48292182D01*
X153150109Y-48120213D01*
X152999786Y-47969890D01*
X152827820Y-47844951D01*
X152638414Y-47748444D01*
X152638413Y-47748443D01*
X152638412Y-47748443D01*
X152436243Y-47682754D01*
X152436241Y-47682753D01*
X152436240Y-47682753D01*
X152274957Y-47657208D01*
X152226287Y-47649500D01*
X152013713Y-47649500D01*
X151965042Y-47657208D01*
X151803760Y-47682753D01*
X151601585Y-47748444D01*
X151412179Y-47844951D01*
X151240213Y-47969890D01*
X151089890Y-48120213D01*
X150964949Y-48292182D01*
X150960484Y-48300946D01*
X150912509Y-48351742D01*
X150844688Y-48368536D01*
X150778553Y-48345998D01*
X150739516Y-48300946D01*
X150735050Y-48292182D01*
X150610109Y-48120213D01*
X150459786Y-47969890D01*
X150287820Y-47844951D01*
X150098414Y-47748444D01*
X150098413Y-47748443D01*
X150098412Y-47748443D01*
X149896243Y-47682754D01*
X149896241Y-47682753D01*
X149896240Y-47682753D01*
X149734957Y-47657208D01*
X149686287Y-47649500D01*
X149473713Y-47649500D01*
X149425042Y-47657208D01*
X149263760Y-47682753D01*
X149061585Y-47748444D01*
X148872179Y-47844951D01*
X148700213Y-47969890D01*
X148549890Y-48120213D01*
X148424949Y-48292182D01*
X148420484Y-48300946D01*
X148372509Y-48351742D01*
X148304688Y-48368536D01*
X148238553Y-48345998D01*
X148199516Y-48300946D01*
X148195050Y-48292182D01*
X148070109Y-48120213D01*
X147919786Y-47969890D01*
X147747820Y-47844951D01*
X147558414Y-47748444D01*
X147558413Y-47748443D01*
X147558412Y-47748443D01*
X147356243Y-47682754D01*
X147356241Y-47682753D01*
X147356240Y-47682753D01*
X147194957Y-47657208D01*
X147146287Y-47649500D01*
X146933713Y-47649500D01*
X146885042Y-47657208D01*
X146723760Y-47682753D01*
X146521585Y-47748444D01*
X146332179Y-47844951D01*
X146160213Y-47969890D01*
X146009890Y-48120213D01*
X145884949Y-48292182D01*
X145880484Y-48300946D01*
X145832509Y-48351742D01*
X145764688Y-48368536D01*
X145698553Y-48345998D01*
X145659516Y-48300946D01*
X145655050Y-48292182D01*
X145530109Y-48120213D01*
X145379786Y-47969890D01*
X145207820Y-47844951D01*
X145018414Y-47748444D01*
X145018413Y-47748443D01*
X145018412Y-47748443D01*
X144816243Y-47682754D01*
X144816241Y-47682753D01*
X144816240Y-47682753D01*
X144654957Y-47657208D01*
X144606287Y-47649500D01*
X144393713Y-47649500D01*
X144345042Y-47657208D01*
X144183760Y-47682753D01*
X143981585Y-47748444D01*
X143792179Y-47844951D01*
X143620213Y-47969890D01*
X143469890Y-48120213D01*
X143344949Y-48292182D01*
X143340484Y-48300946D01*
X143292509Y-48351742D01*
X143224688Y-48368536D01*
X143158553Y-48345998D01*
X143119516Y-48300946D01*
X143115050Y-48292182D01*
X142990109Y-48120213D01*
X142839786Y-47969890D01*
X142667820Y-47844951D01*
X142478414Y-47748444D01*
X142478413Y-47748443D01*
X142478412Y-47748443D01*
X142276243Y-47682754D01*
X142276241Y-47682753D01*
X142276240Y-47682753D01*
X142114957Y-47657208D01*
X142066287Y-47649500D01*
X141853713Y-47649500D01*
X141805042Y-47657208D01*
X141643760Y-47682753D01*
X141441585Y-47748444D01*
X141252179Y-47844951D01*
X141080213Y-47969890D01*
X140929890Y-48120213D01*
X140804949Y-48292182D01*
X140800484Y-48300946D01*
X140752509Y-48351742D01*
X140684688Y-48368536D01*
X140618553Y-48345998D01*
X140579516Y-48300946D01*
X140575050Y-48292182D01*
X140450109Y-48120213D01*
X140299786Y-47969890D01*
X140127820Y-47844951D01*
X139938414Y-47748444D01*
X139938413Y-47748443D01*
X139938412Y-47748443D01*
X139736243Y-47682754D01*
X139736241Y-47682753D01*
X139736240Y-47682753D01*
X139574957Y-47657208D01*
X139526287Y-47649500D01*
X139313713Y-47649500D01*
X139265042Y-47657208D01*
X139103760Y-47682753D01*
X138901585Y-47748444D01*
X138712179Y-47844951D01*
X138540213Y-47969890D01*
X138389890Y-48120213D01*
X138264949Y-48292182D01*
X138260484Y-48300946D01*
X138212509Y-48351742D01*
X138144688Y-48368536D01*
X138078553Y-48345998D01*
X138039516Y-48300946D01*
X138035050Y-48292182D01*
X137910109Y-48120213D01*
X137759786Y-47969890D01*
X137587820Y-47844951D01*
X137398414Y-47748444D01*
X137398413Y-47748443D01*
X137398412Y-47748443D01*
X137196243Y-47682754D01*
X137196241Y-47682753D01*
X137196240Y-47682753D01*
X137034957Y-47657208D01*
X136986287Y-47649500D01*
X136773713Y-47649500D01*
X136725042Y-47657208D01*
X136563760Y-47682753D01*
X136361585Y-47748444D01*
X136172179Y-47844951D01*
X136000213Y-47969890D01*
X135849890Y-48120213D01*
X135724949Y-48292182D01*
X135720484Y-48300946D01*
X135672509Y-48351742D01*
X135604688Y-48368536D01*
X135538553Y-48345998D01*
X135499516Y-48300946D01*
X135495050Y-48292182D01*
X135370109Y-48120213D01*
X135219786Y-47969890D01*
X135047820Y-47844951D01*
X134858414Y-47748444D01*
X134858413Y-47748443D01*
X134858412Y-47748443D01*
X134656243Y-47682754D01*
X134656241Y-47682753D01*
X134656240Y-47682753D01*
X134494957Y-47657208D01*
X134446287Y-47649500D01*
X134233713Y-47649500D01*
X134185042Y-47657208D01*
X134023760Y-47682753D01*
X133821585Y-47748444D01*
X133632179Y-47844951D01*
X133460213Y-47969890D01*
X133309890Y-48120213D01*
X133184949Y-48292182D01*
X133180484Y-48300946D01*
X133132509Y-48351742D01*
X133064688Y-48368536D01*
X132998553Y-48345998D01*
X132959516Y-48300946D01*
X132955050Y-48292182D01*
X132830109Y-48120213D01*
X132679786Y-47969890D01*
X132507820Y-47844951D01*
X132318414Y-47748444D01*
X132318413Y-47748443D01*
X132318412Y-47748443D01*
X132116243Y-47682754D01*
X132116241Y-47682753D01*
X132116240Y-47682753D01*
X131954957Y-47657208D01*
X131906287Y-47649500D01*
X131693713Y-47649500D01*
X131645042Y-47657208D01*
X131483760Y-47682753D01*
X131281585Y-47748444D01*
X131092179Y-47844951D01*
X130920213Y-47969890D01*
X130769890Y-48120213D01*
X130644949Y-48292182D01*
X130640484Y-48300946D01*
X130592509Y-48351742D01*
X130524688Y-48368536D01*
X130458553Y-48345998D01*
X130419516Y-48300946D01*
X130415050Y-48292182D01*
X130290109Y-48120213D01*
X130139786Y-47969890D01*
X129967820Y-47844951D01*
X129778414Y-47748444D01*
X129778413Y-47748443D01*
X129778412Y-47748443D01*
X129576243Y-47682754D01*
X129576241Y-47682753D01*
X129576240Y-47682753D01*
X129414957Y-47657208D01*
X129366287Y-47649500D01*
X129153713Y-47649500D01*
X129105042Y-47657208D01*
X128943760Y-47682753D01*
X128741585Y-47748444D01*
X128552179Y-47844951D01*
X128380213Y-47969890D01*
X128229890Y-48120213D01*
X128104951Y-48292179D01*
X128008444Y-48481585D01*
X127942753Y-48683760D01*
X127909500Y-48893713D01*
X127909500Y-49106286D01*
X127942753Y-49316239D01*
X128008444Y-49518414D01*
X128104951Y-49707820D01*
X128229890Y-49879786D01*
X128343430Y-49993326D01*
X128376915Y-50054649D01*
X128371931Y-50124341D01*
X128330059Y-50180274D01*
X128299083Y-50197189D01*
X128167669Y-50246203D01*
X128167664Y-50246206D01*
X128052455Y-50332452D01*
X128052452Y-50332455D01*
X127966206Y-50447664D01*
X127966202Y-50447671D01*
X127915908Y-50582517D01*
X127909501Y-50642116D01*
X127909500Y-50642135D01*
X127909500Y-52437870D01*
X127909501Y-52437876D01*
X127915908Y-52497483D01*
X127966202Y-52632328D01*
X127966206Y-52632335D01*
X128052452Y-52747544D01*
X128052455Y-52747547D01*
X128167664Y-52833793D01*
X128167671Y-52833797D01*
X128302517Y-52884091D01*
X128302516Y-52884091D01*
X128309444Y-52884835D01*
X128362127Y-52890500D01*
X129427059Y-52890499D01*
X129494098Y-52910183D01*
X129514740Y-52926818D01*
X130720770Y-54132847D01*
X130720791Y-54132870D01*
X130836607Y-54248686D01*
X130836611Y-54248689D01*
X130967714Y-54336290D01*
X130967727Y-54336297D01*
X131113398Y-54396635D01*
X131113403Y-54396637D01*
X131113407Y-54396637D01*
X131113408Y-54396638D01*
X131268054Y-54427400D01*
X131268057Y-54427400D01*
X131268058Y-54427400D01*
X132482460Y-54427400D01*
X132549499Y-54447085D01*
X132570141Y-54463719D01*
X133631502Y-55525080D01*
X133664987Y-55586403D01*
X133660003Y-55656095D01*
X133646924Y-55681651D01*
X133570508Y-55796016D01*
X133570502Y-55796027D01*
X133510164Y-55941698D01*
X133510161Y-55941710D01*
X133479400Y-56096353D01*
X133479400Y-56254046D01*
X133510161Y-56408689D01*
X133510164Y-56408701D01*
X133570502Y-56554372D01*
X133570509Y-56554385D01*
X133658502Y-56686074D01*
X133679380Y-56752751D01*
X133679400Y-56754965D01*
X133679400Y-57040839D01*
X133679399Y-57040843D01*
X133679399Y-57198957D01*
X133679951Y-57201019D01*
X133679985Y-57211143D01*
X133672368Y-57237402D01*
X133668150Y-57264420D01*
X133662775Y-57270473D01*
X133660521Y-57278246D01*
X133639916Y-57296219D01*
X133621760Y-57316668D01*
X133613966Y-57318854D01*
X133607868Y-57324174D01*
X133580818Y-57328153D01*
X133554488Y-57335541D01*
X133541553Y-57333931D01*
X133538742Y-57334345D01*
X133536415Y-57333291D01*
X133527049Y-57332126D01*
X133524539Y-57331523D01*
X133356049Y-57304837D01*
X133322352Y-57299500D01*
X133117648Y-57299500D01*
X133093329Y-57303351D01*
X132915465Y-57331522D01*
X132720776Y-57394781D01*
X132538386Y-57487715D01*
X132372786Y-57608028D01*
X132228028Y-57752786D01*
X132107715Y-57918386D01*
X132060485Y-58011080D01*
X132012510Y-58061876D01*
X131944689Y-58078671D01*
X131878554Y-58056134D01*
X131839515Y-58011080D01*
X131828207Y-57988887D01*
X131792287Y-57918390D01*
X131729768Y-57832339D01*
X131671971Y-57752786D01*
X131527213Y-57608028D01*
X131361613Y-57487715D01*
X131361612Y-57487714D01*
X131361610Y-57487713D01*
X131267411Y-57439716D01*
X131179223Y-57394781D01*
X130984534Y-57331522D01*
X130809995Y-57303878D01*
X130782352Y-57299500D01*
X130577648Y-57299500D01*
X130553329Y-57303351D01*
X130375465Y-57331522D01*
X130180776Y-57394781D01*
X129998386Y-57487715D01*
X129832786Y-57608028D01*
X129688028Y-57752786D01*
X129567715Y-57918386D01*
X129520485Y-58011080D01*
X129472510Y-58061876D01*
X129404689Y-58078671D01*
X129338554Y-58056134D01*
X129299515Y-58011080D01*
X129288207Y-57988887D01*
X129252287Y-57918390D01*
X129189768Y-57832339D01*
X129131971Y-57752786D01*
X128987213Y-57608028D01*
X128821613Y-57487715D01*
X128821612Y-57487714D01*
X128821610Y-57487713D01*
X128727411Y-57439716D01*
X128639223Y-57394781D01*
X128444534Y-57331522D01*
X128269995Y-57303878D01*
X128242352Y-57299500D01*
X128037648Y-57299500D01*
X128013329Y-57303351D01*
X127835465Y-57331522D01*
X127640776Y-57394781D01*
X127458386Y-57487715D01*
X127292786Y-57608028D01*
X127148028Y-57752786D01*
X127027715Y-57918386D01*
X126980485Y-58011080D01*
X126932510Y-58061876D01*
X126864689Y-58078671D01*
X126798554Y-58056134D01*
X126759515Y-58011080D01*
X126748207Y-57988887D01*
X126712287Y-57918390D01*
X126649768Y-57832339D01*
X126591971Y-57752786D01*
X126447213Y-57608028D01*
X126281613Y-57487715D01*
X126281612Y-57487714D01*
X126281610Y-57487713D01*
X126187411Y-57439716D01*
X126099223Y-57394781D01*
X125904534Y-57331522D01*
X125729995Y-57303878D01*
X125702352Y-57299500D01*
X125497648Y-57299500D01*
X125473329Y-57303351D01*
X125295465Y-57331522D01*
X125100776Y-57394781D01*
X124918386Y-57487715D01*
X124752786Y-57608028D01*
X124608028Y-57752786D01*
X124487715Y-57918386D01*
X124440485Y-58011080D01*
X124392510Y-58061876D01*
X124324689Y-58078671D01*
X124258554Y-58056134D01*
X124219515Y-58011080D01*
X124208207Y-57988887D01*
X124172287Y-57918390D01*
X124109768Y-57832339D01*
X124051971Y-57752786D01*
X123907213Y-57608028D01*
X123741613Y-57487715D01*
X123741612Y-57487714D01*
X123741610Y-57487713D01*
X123647411Y-57439716D01*
X123559223Y-57394781D01*
X123364534Y-57331522D01*
X123189995Y-57303878D01*
X123162352Y-57299500D01*
X122957648Y-57299500D01*
X122933329Y-57303351D01*
X122755465Y-57331522D01*
X122560776Y-57394781D01*
X122378386Y-57487715D01*
X122212786Y-57608028D01*
X122068028Y-57752786D01*
X121947715Y-57918386D01*
X121900485Y-58011080D01*
X121852510Y-58061876D01*
X121784689Y-58078671D01*
X121718554Y-58056134D01*
X121679515Y-58011080D01*
X121668207Y-57988887D01*
X121632287Y-57918390D01*
X121569768Y-57832339D01*
X121511971Y-57752786D01*
X121367213Y-57608028D01*
X121201613Y-57487715D01*
X121201612Y-57487714D01*
X121201610Y-57487713D01*
X121107411Y-57439716D01*
X121019223Y-57394781D01*
X120824534Y-57331522D01*
X120649995Y-57303878D01*
X120622352Y-57299500D01*
X120417648Y-57299500D01*
X120393329Y-57303351D01*
X120215465Y-57331522D01*
X120020776Y-57394781D01*
X119838386Y-57487715D01*
X119672786Y-57608028D01*
X119528028Y-57752786D01*
X119407715Y-57918386D01*
X119360485Y-58011080D01*
X119312510Y-58061876D01*
X119244689Y-58078671D01*
X119178554Y-58056134D01*
X119139515Y-58011080D01*
X119128207Y-57988887D01*
X119092287Y-57918390D01*
X119029768Y-57832339D01*
X118971971Y-57752786D01*
X118827213Y-57608028D01*
X118661613Y-57487715D01*
X118661612Y-57487714D01*
X118661610Y-57487713D01*
X118567411Y-57439716D01*
X118479223Y-57394781D01*
X118284534Y-57331522D01*
X118109995Y-57303878D01*
X118082352Y-57299500D01*
X117877648Y-57299500D01*
X117853329Y-57303351D01*
X117675465Y-57331522D01*
X117480776Y-57394781D01*
X117298386Y-57487715D01*
X117132786Y-57608028D01*
X116988028Y-57752786D01*
X116867715Y-57918386D01*
X116774781Y-58100776D01*
X116711522Y-58295465D01*
X116680349Y-58492287D01*
X116679500Y-58497648D01*
X110500500Y-58497648D01*
X110500500Y-49287583D01*
X117409500Y-49287583D01*
X117409500Y-50487601D01*
X117409501Y-50487618D01*
X117420000Y-50590396D01*
X117420001Y-50590399D01*
X117475185Y-50756931D01*
X117475186Y-50756934D01*
X117567288Y-50906256D01*
X117691344Y-51030312D01*
X117840666Y-51122414D01*
X117902440Y-51142884D01*
X117959884Y-51182655D01*
X117986707Y-51247171D01*
X117987053Y-51270319D01*
X117984077Y-51308124D01*
X118663554Y-51987600D01*
X118657339Y-51987600D01*
X118555606Y-52014859D01*
X118464394Y-52067520D01*
X118389920Y-52141994D01*
X118337259Y-52233206D01*
X118310000Y-52334939D01*
X118310000Y-52341153D01*
X117630524Y-51661677D01*
X117630523Y-51661677D01*
X117598143Y-51706244D01*
X117505244Y-51888568D01*
X117442009Y-52083182D01*
X117410000Y-52285282D01*
X117410000Y-52489917D01*
X117442009Y-52692017D01*
X117505244Y-52886631D01*
X117598141Y-53068950D01*
X117598147Y-53068959D01*
X117630523Y-53113521D01*
X117630524Y-53113522D01*
X118310000Y-52434046D01*
X118310000Y-52440261D01*
X118337259Y-52541994D01*
X118389920Y-52633206D01*
X118464394Y-52707680D01*
X118555606Y-52760341D01*
X118657339Y-52787600D01*
X118663553Y-52787600D01*
X117984076Y-53467074D01*
X118028650Y-53499459D01*
X118210968Y-53592355D01*
X118405582Y-53655590D01*
X118607683Y-53687600D01*
X118812317Y-53687600D01*
X119014417Y-53655590D01*
X119209031Y-53592355D01*
X119391349Y-53499459D01*
X119435921Y-53467074D01*
X118756447Y-52787600D01*
X118762661Y-52787600D01*
X118864394Y-52760341D01*
X118955606Y-52707680D01*
X119030080Y-52633206D01*
X119082741Y-52541994D01*
X119110000Y-52440261D01*
X119110000Y-52434047D01*
X119789474Y-53113521D01*
X119821859Y-53068949D01*
X119914755Y-52886631D01*
X119977990Y-52692017D01*
X120010000Y-52489917D01*
X120010000Y-52285282D01*
X119977990Y-52083182D01*
X119914755Y-51888568D01*
X119821859Y-51706250D01*
X119789474Y-51661677D01*
X119789474Y-51661676D01*
X119110000Y-52341151D01*
X119110000Y-52334939D01*
X119082741Y-52233206D01*
X119030080Y-52141994D01*
X118955606Y-52067520D01*
X118864394Y-52014859D01*
X118762661Y-51987600D01*
X118756446Y-51987600D01*
X119435921Y-51308125D01*
X119432946Y-51270319D01*
X119447310Y-51201941D01*
X119496361Y-51152184D01*
X119517555Y-51142885D01*
X119579334Y-51122414D01*
X119728656Y-51030312D01*
X119852712Y-50906256D01*
X119944814Y-50756934D01*
X119999999Y-50590397D01*
X120010500Y-50487609D01*
X120010499Y-49287592D01*
X119999999Y-49184803D01*
X119944814Y-49018266D01*
X119852712Y-48868944D01*
X119728656Y-48744888D01*
X119579334Y-48652786D01*
X119412797Y-48597601D01*
X119412795Y-48597600D01*
X119310010Y-48587100D01*
X118109998Y-48587100D01*
X118109981Y-48587101D01*
X118007203Y-48597600D01*
X118007200Y-48597601D01*
X117840668Y-48652785D01*
X117840663Y-48652787D01*
X117691342Y-48744889D01*
X117567289Y-48868942D01*
X117475187Y-49018263D01*
X117475186Y-49018266D01*
X117420001Y-49184803D01*
X117420001Y-49184804D01*
X117420000Y-49184804D01*
X117409500Y-49287583D01*
X110500500Y-49287583D01*
X110500500Y-44394111D01*
X113649600Y-44394111D01*
X113649600Y-44636688D01*
X113681261Y-44877185D01*
X113744047Y-45111504D01*
X113830494Y-45320205D01*
X113836876Y-45335612D01*
X113958164Y-45545689D01*
X113958166Y-45545692D01*
X113958167Y-45545693D01*
X114105833Y-45738136D01*
X114105839Y-45738143D01*
X114277356Y-45909660D01*
X114277362Y-45909665D01*
X114469811Y-46057336D01*
X114679888Y-46178624D01*
X114904000Y-46271454D01*
X115138311Y-46334238D01*
X115318686Y-46357984D01*
X115378811Y-46365900D01*
X115378812Y-46365900D01*
X115621389Y-46365900D01*
X115669488Y-46359567D01*
X115861889Y-46334238D01*
X116096200Y-46271454D01*
X116320312Y-46178624D01*
X116530389Y-46057336D01*
X116722838Y-45909665D01*
X116894365Y-45738138D01*
X117042036Y-45545689D01*
X117163324Y-45335612D01*
X117256154Y-45111500D01*
X117318938Y-44877189D01*
X117350600Y-44636688D01*
X117350600Y-44394112D01*
X117348573Y-44378712D01*
X202649500Y-44378712D01*
X202649500Y-44621288D01*
X202681162Y-44861789D01*
X202712554Y-44978944D01*
X202743947Y-45096104D01*
X202836773Y-45320205D01*
X202836776Y-45320212D01*
X202958064Y-45530289D01*
X202958066Y-45530292D01*
X202958067Y-45530293D01*
X203105733Y-45722736D01*
X203105739Y-45722743D01*
X203277256Y-45894260D01*
X203277263Y-45894266D01*
X203297333Y-45909666D01*
X203469711Y-46041936D01*
X203679788Y-46163224D01*
X203903900Y-46256054D01*
X204138211Y-46318838D01*
X204318586Y-46342584D01*
X204378711Y-46350500D01*
X204378712Y-46350500D01*
X204621289Y-46350500D01*
X204669388Y-46344167D01*
X204861789Y-46318838D01*
X205096100Y-46256054D01*
X205320212Y-46163224D01*
X205530289Y-46041936D01*
X205722738Y-45894265D01*
X205894265Y-45722738D01*
X206041936Y-45530289D01*
X206163224Y-45320212D01*
X206256054Y-45096100D01*
X206318838Y-44861789D01*
X206350500Y-44621288D01*
X206350500Y-44378712D01*
X206318838Y-44138211D01*
X206256054Y-43903900D01*
X206163224Y-43679788D01*
X206041936Y-43469711D01*
X205894265Y-43277262D01*
X205894260Y-43277256D01*
X205722743Y-43105739D01*
X205722736Y-43105733D01*
X205530293Y-42958067D01*
X205530292Y-42958066D01*
X205530289Y-42958064D01*
X205320212Y-42836776D01*
X205320205Y-42836773D01*
X205096104Y-42743947D01*
X204861785Y-42681161D01*
X204621289Y-42649500D01*
X204621288Y-42649500D01*
X204378712Y-42649500D01*
X204378711Y-42649500D01*
X204138214Y-42681161D01*
X203903895Y-42743947D01*
X203679794Y-42836773D01*
X203679785Y-42836777D01*
X203469706Y-42958067D01*
X203277263Y-43105733D01*
X203277256Y-43105739D01*
X203105739Y-43277256D01*
X203105733Y-43277263D01*
X202958067Y-43469706D01*
X202836777Y-43679785D01*
X202836773Y-43679794D01*
X202743947Y-43903895D01*
X202681161Y-44138214D01*
X202679134Y-44153614D01*
X202649500Y-44378712D01*
X117348573Y-44378712D01*
X117318938Y-44153611D01*
X117256154Y-43919300D01*
X117163324Y-43695188D01*
X117042036Y-43485111D01*
X116894365Y-43292662D01*
X116894360Y-43292656D01*
X116722843Y-43121139D01*
X116722836Y-43121133D01*
X116530393Y-42973467D01*
X116530392Y-42973466D01*
X116530389Y-42973464D01*
X116320312Y-42852176D01*
X116320305Y-42852173D01*
X116096204Y-42759347D01*
X115861885Y-42696561D01*
X115621389Y-42664900D01*
X115621388Y-42664900D01*
X115378812Y-42664900D01*
X115378811Y-42664900D01*
X115138314Y-42696561D01*
X114903995Y-42759347D01*
X114679894Y-42852173D01*
X114679885Y-42852177D01*
X114469806Y-42973467D01*
X114277363Y-43121133D01*
X114277356Y-43121139D01*
X114105839Y-43292656D01*
X114105833Y-43292663D01*
X113958167Y-43485106D01*
X113836877Y-43695185D01*
X113836873Y-43695194D01*
X113744047Y-43919295D01*
X113681261Y-44153614D01*
X113649600Y-44394111D01*
X110500500Y-44394111D01*
X110500500Y-40624500D01*
X110520185Y-40557461D01*
X110572989Y-40511706D01*
X110624500Y-40500500D01*
X209375500Y-40500500D01*
X209442539Y-40520185D01*
G37*
G04 #@! TD.AperFunction*
M02*
